{
	"asset":{
		"generator":"Khronos glTF Blender I/O v4.2.60",
		"version":"2.0"
	},
	"scene":0,
	"scenes":[
		{
			"name":"Scene",
			"nodes":[
				0,
				1,
				2,
				3,
				4
			]
		}
	],
	"nodes":[
		{
			"mesh":0,
			"name":"Cube.002",
			"scale":[
				0.949999988079071,
				0.10000000149011612,
				0.949999988079071
			],
			"translation":[
				-3.32568621635437,
				3.9788594245910645,
				4.316154479980469
			]
		},
		{
			"mesh":1,
			"name":"Cube.005",
			"scale":[
				0.949999988079071,
				0.10000000149011612,
				0.949999988079071
			],
			"translation":[
				-3.296976327896118,
				3.9788594245910645,
				6.264277935028076
			]
		},
		{
			"mesh":2,
			"name":"Cube.003",
			"scale":[
				1,
				0.5268014073371887,
				1.3792020082473755
			],
			"translation":[
				0.012364745140075684,
				3.673156499862671,
				5.234744548797607
			]
		},
		{
			"mesh":3,
			"name":"Cube.004",
			"scale":[
				0.949999988079071,
				0.10000000149011612,
				0.949999988079071
			],
			"translation":[
				1.1752355098724365,
				3.9788594245910645,
				4.316154479980469
			]
		},
		{
			"mesh":4,
			"name":"Cube.007",
			"scale":[
				0.949999988079071,
				0.10000000149011612,
				0.949999988079071
			],
			"translation":[
				1.2039453983306885,
				3.9788594245910645,
				6.264277935028076
			]
		}
	],
	"materials":[
		{
			"doubleSided":true,
			"name":"Material.005",
			"pbrMetallicRoughness":{
				"baseColorTexture":{
					"index":0
				},
				"metallicFactor":0
			}
		},
		{
			"doubleSided":true,
			"name":"Material.004",
			"pbrMetallicRoughness":{
				"baseColorTexture":{
					"index":1
				},
				"metallicFactor":0,
				"roughnessFactor":0.5
			}
		}
	],
	"meshes":[
		{
			"name":"Cube.011",
			"primitives":[
				{
					"attributes":{
						"POSITION":0,
						"NORMAL":1,
						"TEXCOORD_0":2
					},
					"indices":3,
					"material":0
				}
			]
		},
		{
			"name":"Cube.014",
			"primitives":[
				{
					"attributes":{
						"POSITION":4,
						"NORMAL":5,
						"TEXCOORD_0":6
					},
					"indices":7,
					"material":0
				}
			]
		},
		{
			"name":"Cube.001",
			"primitives":[
				{
					"attributes":{
						"POSITION":8,
						"NORMAL":9,
						"TEXCOORD_0":10
					},
					"indices":11,
					"material":1
				}
			]
		},
		{
			"name":"Cube.002",
			"primitives":[
				{
					"attributes":{
						"POSITION":12,
						"NORMAL":13,
						"TEXCOORD_0":14
					},
					"indices":3,
					"material":0
				}
			]
		},
		{
			"name":"Cube.003",
			"primitives":[
				{
					"attributes":{
						"POSITION":15,
						"NORMAL":16,
						"TEXCOORD_0":17
					},
					"indices":7,
					"material":0
				}
			]
		}
	],
	"textures":[
		{
			"sampler":0,
			"source":0
		},
		{
			"sampler":0,
			"source":1
		}
	],
	"images":[
		{
			"mimeType":"image/jpeg",
			"name":"pizza",
			"uri":"pizza.jpg"
		},
		{
			"mimeType":"image/jpeg",
			"name":"coolerbox",
			"uri":"coolerbox.jpg"
		}
	],
	"accessors":[
		{
			"bufferView":0,
			"componentType":5126,
			"count":24,
			"max":[
				1,
				1,
				1
			],
			"min":[
				-1,
				-1,
				-1
			],
			"type":"VEC3"
		},
		{
			"bufferView":1,
			"componentType":5126,
			"count":24,
			"type":"VEC3"
		},
		{
			"bufferView":2,
			"componentType":5126,
			"count":24,
			"type":"VEC2"
		},
		{
			"bufferView":3,
			"componentType":5123,
			"count":36,
			"type":"SCALAR"
		},
		{
			"bufferView":4,
			"componentType":5126,
			"count":72,
			"max":[
				3.1673874855041504,
				1,
				1
			],
			"min":[
				-1,
				-1,
				-3.078320026397705
			],
			"type":"VEC3"
		},
		{
			"bufferView":5,
			"componentType":5126,
			"count":72,
			"type":"VEC3"
		},
		{
			"bufferView":6,
			"componentType":5126,
			"count":72,
			"type":"VEC2"
		},
		{
			"bufferView":7,
			"componentType":5123,
			"count":108,
			"type":"SCALAR"
		},
		{
			"bufferView":8,
			"componentType":5126,
			"count":92,
			"max":[
				4.597409725189209,
				1.0722384452819824,
				1.5331053733825684
			],
			"min":[
				-4.6221394538879395,
				-6.964273929595947,
				-1.536529302597046
			],
			"type":"VEC3"
		},
		{
			"bufferView":9,
			"componentType":5126,
			"count":92,
			"type":"VEC3"
		},
		{
			"bufferView":10,
			"componentType":5126,
			"count":92,
			"type":"VEC2"
		},
		{
			"bufferView":11,
			"componentType":5123,
			"count":150,
			"type":"SCALAR"
		},
		{
			"bufferView":12,
			"componentType":5126,
			"count":24,
			"max":[
				1,
				1,
				1
			],
			"min":[
				-1,
				-1,
				-1
			],
			"type":"VEC3"
		},
		{
			"bufferView":13,
			"componentType":5126,
			"count":24,
			"type":"VEC3"
		},
		{
			"bufferView":14,
			"componentType":5126,
			"count":24,
			"type":"VEC2"
		},
		{
			"bufferView":15,
			"componentType":5126,
			"count":72,
			"max":[
				3.1673874855041504,
				1,
				1
			],
			"min":[
				-1,
				-1,
				-3.078320026397705
			],
			"type":"VEC3"
		},
		{
			"bufferView":16,
			"componentType":5126,
			"count":72,
			"type":"VEC3"
		},
		{
			"bufferView":17,
			"componentType":5126,
			"count":72,
			"type":"VEC2"
		}
	],
	"bufferViews":[
		{
			"buffer":0,
			"byteLength":288,
			"byteOffset":0,
			"target":34962
		},
		{
			"buffer":0,
			"byteLength":288,
			"byteOffset":288,
			"target":34962
		},
		{
			"buffer":0,
			"byteLength":192,
			"byteOffset":576,
			"target":34962
		},
		{
			"buffer":0,
			"byteLength":72,
			"byteOffset":768,
			"target":34963
		},
		{
			"buffer":0,
			"byteLength":864,
			"byteOffset":840,
			"target":34962
		},
		{
			"buffer":0,
			"byteLength":864,
			"byteOffset":1704,
			"target":34962
		},
		{
			"buffer":0,
			"byteLength":576,
			"byteOffset":2568,
			"target":34962
		},
		{
			"buffer":0,
			"byteLength":216,
			"byteOffset":3144,
			"target":34963
		},
		{
			"buffer":0,
			"byteLength":1104,
			"byteOffset":3360,
			"target":34962
		},
		{
			"buffer":0,
			"byteLength":1104,
			"byteOffset":4464,
			"target":34962
		},
		{
			"buffer":0,
			"byteLength":736,
			"byteOffset":5568,
			"target":34962
		},
		{
			"buffer":0,
			"byteLength":300,
			"byteOffset":6304,
			"target":34963
		},
		{
			"buffer":0,
			"byteLength":288,
			"byteOffset":6604,
			"target":34962
		},
		{
			"buffer":0,
			"byteLength":288,
			"byteOffset":6892,
			"target":34962
		},
		{
			"buffer":0,
			"byteLength":192,
			"byteOffset":7180,
			"target":34962
		},
		{
			"buffer":0,
			"byteLength":864,
			"byteOffset":7372,
			"target":34962
		},
		{
			"buffer":0,
			"byteLength":864,
			"byteOffset":8236,
			"target":34962
		},
		{
			"buffer":0,
			"byteLength":576,
			"byteOffset":9100,
			"target":34962
		}
	],
	"samplers":[
		{
			"magFilter":9729,
			"minFilter":9987
		}
	],
	"buffers":[
		{
			"byteLength":9676,
			"uri":"blue_pizza_box.bin"
		}
	]
}
