{
	"asset":{
		"generator":"Khronos glTF Blender I/O v4.2.60",
		"version":"2.0"
	},
	"scene":0,
	"scenes":[
		{
			"name":"Scene",
			"nodes":[
				0
			]
		}
	],
	"nodes":[
		{
			"mesh":0,
			"name":"Cube",
			"scale":[
				4.609775066375732,
				2.116823196411133,
				2.116823196411133
			]
		}
	],
	"materials":[
		{
			"doubleSided":true,
			"name":"Material.001",
			"pbrMetallicRoughness":{
				"baseColorFactor":[
					0.48288780450820923,
					0.3270036280155182,
					0.1440112143754959,
					1
				],
				"metallicFactor":0,
				"roughnessFactor":0.5
			}
		},
		{
			"name":"lambert2SG",
			"pbrMetallicRoughness":{
				"baseColorFactor":[
					0.019999999552965164,
					0.11999999731779099,
					0,
					1
				],
				"metallicFactor":0
			}
		},
		{
			"name":"lambert3SG",
			"pbrMetallicRoughness":{
				"baseColorFactor":[
					0.1599999964237213,
					0.3799999952316284,
					0,
					1
				],
				"metallicFactor":0
			}
		}
	],
	"meshes":[
		{
			"name":"Cube.001",
			"primitives":[
				{
					"attributes":{
						"POSITION":0,
						"NORMAL":1,
						"TEXCOORD_0":2
					},
					"indices":3,
					"material":0
				},
				{
					"attributes":{
						"POSITION":4,
						"NORMAL":5,
						"TEXCOORD_0":6
					},
					"indices":7,
					"material":1
				},
				{
					"attributes":{
						"POSITION":8,
						"NORMAL":9,
						"TEXCOORD_0":10
					},
					"indices":11,
					"material":2
				}
			]
		}
	],
	"accessors":[
		{
			"bufferView":0,
			"componentType":5126,
			"count":72,
			"max":[
				0.9999999403953552,
				0.9999999403953552,
				0.9999999403953552
			],
			"min":[
				-0.9999999403953552,
				-0.9999999403953552,
				-0.9999999403953552
			],
			"type":"VEC3"
		},
		{
			"bufferView":1,
			"componentType":5126,
			"count":72,
			"type":"VEC3"
		},
		{
			"bufferView":2,
			"componentType":5126,
			"count":72,
			"type":"VEC2"
		},
		{
			"bufferView":3,
			"componentType":5123,
			"count":120,
			"type":"SCALAR"
		},
		{
			"bufferView":4,
			"componentType":5126,
			"count":28912,
			"max":[
				0.9287352561950684,
				0.9059344530105591,
				0.7636652588844299
			],
			"min":[
				-0.9097100496292114,
				0.46894967555999756,
				-0.7965274453163147
			],
			"type":"VEC3"
		},
		{
			"bufferView":5,
			"componentType":5126,
			"count":28912,
			"type":"VEC3"
		},
		{
			"bufferView":6,
			"componentType":5126,
			"count":28912,
			"type":"VEC2"
		},
		{
			"bufferView":7,
			"componentType":5123,
			"count":31104,
			"type":"SCALAR"
		},
		{
			"bufferView":8,
			"componentType":5126,
			"count":14256,
			"max":[
				0.889431357383728,
				0.7241325974464417,
				0.3790283799171448
			],
			"min":[
				-0.8241288065910339,
				0.6198641061782837,
				-0.899262547492981
			],
			"type":"VEC3"
		},
		{
			"bufferView":9,
			"componentType":5126,
			"count":14256,
			"type":"VEC3"
		},
		{
			"bufferView":10,
			"componentType":5126,
			"count":14256,
			"type":"VEC2"
		},
		{
			"bufferView":11,
			"componentType":5123,
			"count":14256,
			"type":"SCALAR"
		}
	],
	"bufferViews":[
		{
			"buffer":0,
			"byteLength":864,
			"byteOffset":0,
			"target":34962
		},
		{
			"buffer":0,
			"byteLength":864,
			"byteOffset":864,
			"target":34962
		},
		{
			"buffer":0,
			"byteLength":576,
			"byteOffset":1728,
			"target":34962
		},
		{
			"buffer":0,
			"byteLength":240,
			"byteOffset":2304,
			"target":34963
		},
		{
			"buffer":0,
			"byteLength":346944,
			"byteOffset":2544,
			"target":34962
		},
		{
			"buffer":0,
			"byteLength":346944,
			"byteOffset":349488,
			"target":34962
		},
		{
			"buffer":0,
			"byteLength":231296,
			"byteOffset":696432,
			"target":34962
		},
		{
			"buffer":0,
			"byteLength":62208,
			"byteOffset":927728,
			"target":34963
		},
		{
			"buffer":0,
			"byteLength":171072,
			"byteOffset":989936,
			"target":34962
		},
		{
			"buffer":0,
			"byteLength":171072,
			"byteOffset":1161008,
			"target":34962
		},
		{
			"buffer":0,
			"byteLength":114048,
			"byteOffset":1332080,
			"target":34962
		},
		{
			"buffer":0,
			"byteLength":28512,
			"byteOffset":1446128,
			"target":34963
		}
	],
	"buffers":[
		{
			"byteLength":1474640,
			"uri":"green_pepper_box.bin"
		}
	]
}
