{
	"asset":{
		"generator":"Khronos glTF Blender I/O v4.2.60",
		"version":"2.0"
	},
	"extensionsUsed":[
		"KHR_materials_specular",
		"KHR_materials_ior"
	],
	"scene":0,
	"scenes":[
		{
			"name":"Scene",
			"nodes":[
				0,
				1,
				2
			]
		}
	],
	"nodes":[
		{
			"mesh":0,
			"name":"Cube.002",
			"scale":[
				1,
				0.5268014073371887,
				1.3792020082473755
			],
			"translation":[
				0.01686859130859375,
				3.705000162124634,
				-0.04708433151245117
			]
		},
		{
			"mesh":1,
			"name":"carrot_001",
			"scale":[
				8.25,
				8.25,
				8.25
			],
			"translation":[
				-4.140761375427246,
				3.327061176300049,
				-1.2889373302459717
			]
		},
		{
			"mesh":2,
			"name":"carrot_001.001",
			"scale":[
				8.25,
				8.25,
				8.25
			],
			"translation":[
				0.34467267990112305,
				3.327061176300049,
				-1.2889373302459717
			]
		}
	],
	"materials":[
		{
			"doubleSided":true,
			"name":"Material.001",
			"pbrMetallicRoughness":{
				"baseColorFactor":[
					0.48288780450820923,
					0.3270036280155182,
					0.1440112143754959,
					1
				],
				"metallicFactor":0,
				"roughnessFactor":0.5
			}
		},
		{
			"doubleSided":true,
			"extensions":{
				"KHR_materials_specular":{
					"specularColorFactor":[
						0.9485430717468262,
						0.9485430717468262,
						0.9485430717468262
					]
				},
				"KHR_materials_ior":{
					"ior":1.4500000476837158
				}
			},
			"name":"Material.002",
			"pbrMetallicRoughness":{
				"baseColorTexture":{
					"index":0
				},
				"metallicFactor":0,
				"roughnessFactor":0.30000001192092896
			}
		}
	],
	"meshes":[
		{
			"name":"Cube.002",
			"primitives":[
				{
					"attributes":{
						"POSITION":0,
						"NORMAL":1,
						"TEXCOORD_0":2
					},
					"indices":3,
					"material":0
				}
			]
		},
		{
			"name":"Mesh.382",
			"primitives":[
				{
					"attributes":{
						"POSITION":4,
						"NORMAL":5,
						"TEXCOORD_0":6
					},
					"indices":7,
					"material":1
				}
			]
		},
		{
			"name":"Mesh.002",
			"primitives":[
				{
					"attributes":{
						"POSITION":8,
						"NORMAL":9,
						"TEXCOORD_0":10
					},
					"indices":7,
					"material":1
				}
			]
		}
	],
	"textures":[
		{
			"sampler":0,
			"source":0
		}
	],
	"images":[
		{
			"mimeType":"image/png",
			"name":"Textures",
			"uri":"Textures.png"
		}
	],
	"accessors":[
		{
			"bufferView":0,
			"componentType":5126,
			"count":72,
			"max":[
				4.597410202026367,
				1.0722389221191406,
				1.5331052541732788
			],
			"min":[
				-4.622138977050781,
				-6.964273452758789,
				-1.5365294218063354
			],
			"type":"VEC3"
		},
		{
			"bufferView":1,
			"componentType":5126,
			"count":72,
			"type":"VEC3"
		},
		{
			"bufferView":2,
			"componentType":5126,
			"count":72,
			"type":"VEC2"
		},
		{
			"bufferView":3,
			"componentType":5123,
			"count":120,
			"type":"SCALAR"
		},
		{
			"bufferView":4,
			"componentType":5126,
			"count":10606,
			"max":[
				0.4870865046977997,
				0.059012360870838165,
				0.39261239767074585
			],
			"min":[
				-0.017803112044930458,
				-0.00708526186645031,
				-0.09577156603336334
			],
			"type":"VEC3"
		},
		{
			"bufferView":5,
			"componentType":5126,
			"count":10606,
			"type":"VEC3"
		},
		{
			"bufferView":6,
			"componentType":5126,
			"count":10606,
			"type":"VEC2"
		},
		{
			"bufferView":7,
			"componentType":5123,
			"count":14256,
			"type":"SCALAR"
		},
		{
			"bufferView":8,
			"componentType":5126,
			"count":10606,
			"max":[
				0.4870865046977997,
				0.059012360870838165,
				0.39261239767074585
			],
			"min":[
				-0.017803112044930458,
				-0.00708526186645031,
				-0.09577156603336334
			],
			"type":"VEC3"
		},
		{
			"bufferView":9,
			"componentType":5126,
			"count":10606,
			"type":"VEC3"
		},
		{
			"bufferView":10,
			"componentType":5126,
			"count":10606,
			"type":"VEC2"
		}
	],
	"bufferViews":[
		{
			"buffer":0,
			"byteLength":864,
			"byteOffset":0,
			"target":34962
		},
		{
			"buffer":0,
			"byteLength":864,
			"byteOffset":864,
			"target":34962
		},
		{
			"buffer":0,
			"byteLength":576,
			"byteOffset":1728,
			"target":34962
		},
		{
			"buffer":0,
			"byteLength":240,
			"byteOffset":2304,
			"target":34963
		},
		{
			"buffer":0,
			"byteLength":127272,
			"byteOffset":2544,
			"target":34962
		},
		{
			"buffer":0,
			"byteLength":127272,
			"byteOffset":129816,
			"target":34962
		},
		{
			"buffer":0,
			"byteLength":84848,
			"byteOffset":257088,
			"target":34962
		},
		{
			"buffer":0,
			"byteLength":28512,
			"byteOffset":341936,
			"target":34963
		},
		{
			"buffer":0,
			"byteLength":127272,
			"byteOffset":370448,
			"target":34962
		},
		{
			"buffer":0,
			"byteLength":127272,
			"byteOffset":497720,
			"target":34962
		},
		{
			"buffer":0,
			"byteLength":84848,
			"byteOffset":624992,
			"target":34962
		}
	],
	"samplers":[
		{
			"magFilter":9729,
			"minFilter":9987
		}
	],
	"buffers":[
		{
			"byteLength":709840,
			"uri":"carrot_box.bin"
		}
	]
}
