{
	"asset":{
		"generator":"Khronos glTF Blender I/O v4.2.60",
		"version":"2.0"
	},
	"extensionsUsed":[
		"KHR_materials_specular",
		"KHR_materials_ior"
	],
	"scene":0,
	"scenes":[
		{
			"name":"Scene",
			"nodes":[
				0
			]
		}
	],
	"nodes":[
		{
			"mesh":0,
			"name":"Cube.028",
			"rotation":[
				0,
				-0.7020717859268188,
				0,
				0.7121061682701111
			],
			"scale":[
				1,
				0.5268014073371887,
				1.3792020082473755
			]
		}
	],
	"materials":[
		{
			"doubleSided":true,
			"name":"Material.002",
			"pbrMetallicRoughness":{
				"baseColorFactor":[
					0.48288780450820923,
					0.3270036280155182,
					0.1440112143754959,
					1
				],
				"metallicFactor":0,
				"roughnessFactor":0.5
			}
		},
		{
			"doubleSided":true,
			"extensions":{
				"KHR_materials_specular":{
					"specularColorFactor":[
						0.9485430717468262,
						0.9485430717468262,
						0.9485430717468262
					]
				},
				"KHR_materials_ior":{
					"ior":1.4500000476837158
				}
			},
			"name":"Material.003",
			"pbrMetallicRoughness":{
				"baseColorTexture":{
					"index":0
				},
				"metallicFactor":0,
				"roughnessFactor":0.30000001192092896
			}
		}
	],
	"meshes":[
		{
			"name":"Cube.004",
			"primitives":[
				{
					"attributes":{
						"POSITION":0,
						"NORMAL":1,
						"TEXCOORD_0":2
					},
					"indices":3,
					"material":0
				},
				{
					"attributes":{
						"POSITION":4,
						"NORMAL":5,
						"TEXCOORD_0":6
					},
					"indices":7,
					"material":1
				}
			]
		}
	],
	"textures":[
		{
			"sampler":0,
			"source":0
		}
	],
	"images":[
		{
			"mimeType":"image/png",
			"name":"Textures",
			"uri":"Textures.png"
		}
	],
	"accessors":[
		{
			"bufferView":0,
			"componentType":5126,
			"count":72,
			"max":[
				4.597410202026367,
				1.0722389221191406,
				1.5331052541732788
			],
			"min":[
				-4.622138977050781,
				-6.964273452758789,
				-1.5365294218063354
			],
			"type":"VEC3"
		},
		{
			"bufferView":1,
			"componentType":5126,
			"count":72,
			"type":"VEC3"
		},
		{
			"bufferView":2,
			"componentType":5126,
			"count":72,
			"type":"VEC2"
		},
		{
			"bufferView":3,
			"componentType":5123,
			"count":120,
			"type":"SCALAR"
		},
		{
			"bufferView":4,
			"componentType":5126,
			"count":21762,
			"max":[
				4.3462677001953125,
				0.20674359798431396,
				1.4480834007263184
			],
			"min":[
				-4.304505825042725,
				-0.8283815979957581,
				-1.4732929468154907
			],
			"type":"VEC3"
		},
		{
			"bufferView":5,
			"componentType":5126,
			"count":21762,
			"type":"VEC3"
		},
		{
			"bufferView":6,
			"componentType":5126,
			"count":21762,
			"type":"VEC2"
		},
		{
			"bufferView":7,
			"componentType":5123,
			"count":28512,
			"type":"SCALAR"
		}
	],
	"bufferViews":[
		{
			"buffer":0,
			"byteLength":864,
			"byteOffset":0,
			"target":34962
		},
		{
			"buffer":0,
			"byteLength":864,
			"byteOffset":864,
			"target":34962
		},
		{
			"buffer":0,
			"byteLength":576,
			"byteOffset":1728,
			"target":34962
		},
		{
			"buffer":0,
			"byteLength":240,
			"byteOffset":2304,
			"target":34963
		},
		{
			"buffer":0,
			"byteLength":261144,
			"byteOffset":2544,
			"target":34962
		},
		{
			"buffer":0,
			"byteLength":261144,
			"byteOffset":263688,
			"target":34962
		},
		{
			"buffer":0,
			"byteLength":174096,
			"byteOffset":524832,
			"target":34962
		},
		{
			"buffer":0,
			"byteLength":57024,
			"byteOffset":698928,
			"target":34963
		}
	],
	"samplers":[
		{
			"magFilter":9729,
			"minFilter":9987
		}
	],
	"buffers":[
		{
			"byteLength":755952,
			"uri":"carrot_box.bin"
		}
	]
}
