{
	"asset":{
		"generator":"Khronos glTF Blender I/O v4.2.60",
		"version":"2.0"
	},
	"scene":0,
	"scenes":[
		{
			"name":"Scene",
			"nodes":[
				0
			]
		}
	],
	"nodes":[
		{
			"mesh":0,
			"name":"Cube.008",
			"scale":[
				0.26000070571899414,
				5,
				4.150003433227539
			]
		}
	],
	"materials":[
		{
			"doubleSided":true,
			"name":"Material.054",
			"pbrMetallicRoughness":{
				"baseColorFactor":[
					0.2653980851173401,
					0.2654016613960266,
					0.2654016613960266,
					1
				],
				"metallicFactor":0,
				"roughnessFactor":0.5
			}
		},
		{
			"doubleSided":true,
			"name":"Material.055",
			"pbrMetallicRoughness":{
				"baseColorFactor":[
					0.2653980851173401,
					0.2654016613960266,
					0.2654016613960266,
					1
				],
				"metallicFactor":0,
				"roughnessFactor":0.5
			}
		},
		{
			"doubleSided":true,
			"name":"Material.056",
			"pbrMetallicRoughness":{
				"baseColorFactor":[
					0.2653980851173401,
					0.2654016613960266,
					0.2654016613960266,
					1
				],
				"metallicFactor":0,
				"roughnessFactor":0.5
			}
		},
		{
			"name":"brownDark.003",
			"pbrMetallicRoughness":{
				"baseColorFactor":[
					1,
					0.9232971668243408,
					0.952511191368103,
					1
				],
				"metallicFactor":0
			}
		},
		{
			"name":"brownLight.003",
			"pbrMetallicRoughness":{
				"baseColorFactor":[
					0.040270205587148666,
					0.01817501150071621,
					0.00581301050260663,
					1
				],
				"metallicFactor":0
			}
		},
		{
			"name":"green.003",
			"pbrMetallicRoughness":{
				"baseColorFactor":[
					0.9938021898269653,
					1,
					0.9676942825317383,
					1
				],
				"metallicFactor":0
			}
		}
	],
	"meshes":[
		{
			"name":"Cube.003",
			"primitives":[
				{
					"attributes":{
						"POSITION":0,
						"NORMAL":1,
						"TEXCOORD_0":2
					},
					"indices":3,
					"material":0
				},
				{
					"attributes":{
						"POSITION":4,
						"NORMAL":5,
						"TEXCOORD_0":6
					},
					"indices":7,
					"material":1
				},
				{
					"attributes":{
						"POSITION":8,
						"NORMAL":9,
						"TEXCOORD_0":10
					},
					"indices":7,
					"material":2
				},
				{
					"attributes":{
						"POSITION":11,
						"NORMAL":12,
						"TEXCOORD_0":13
					},
					"indices":14,
					"material":3
				},
				{
					"attributes":{
						"POSITION":15,
						"NORMAL":16,
						"TEXCOORD_0":17
					},
					"indices":18,
					"material":4
				},
				{
					"attributes":{
						"POSITION":19,
						"NORMAL":20,
						"TEXCOORD_0":21
					},
					"indices":22,
					"material":5
				}
			]
		}
	],
	"accessors":[
		{
			"bufferView":0,
			"componentType":5126,
			"count":144,
			"max":[
				7.4445905685424805,
				1.0448575019836426,
				1.0000711679458618
			],
			"min":[
				-8.072737693786621,
				-1.0111439228057861,
				-1.008833408355713
			],
			"type":"VEC3"
		},
		{
			"bufferView":1,
			"componentType":5126,
			"count":144,
			"type":"VEC3"
		},
		{
			"bufferView":2,
			"componentType":5126,
			"count":144,
			"type":"VEC2"
		},
		{
			"bufferView":3,
			"componentType":5123,
			"count":216,
			"type":"SCALAR"
		},
		{
			"bufferView":4,
			"componentType":5126,
			"count":24,
			"max":[
				6.564925193786621,
				-0.4551767110824585,
				0.9706315994262695
			],
			"min":[
				-7.281190395355225,
				-0.5591766834259033,
				-0.9570776224136353
			],
			"type":"VEC3"
		},
		{
			"bufferView":5,
			"componentType":5126,
			"count":24,
			"type":"VEC3"
		},
		{
			"bufferView":6,
			"componentType":5126,
			"count":24,
			"type":"VEC2"
		},
		{
			"bufferView":7,
			"componentType":5123,
			"count":36,
			"type":"SCALAR"
		},
		{
			"bufferView":8,
			"componentType":5126,
			"count":24,
			"max":[
				6.564925193786621,
				0.04482331499457359,
				0.9706315994262695
			],
			"min":[
				-7.281192302703857,
				-0.05917668342590332,
				-0.9570776224136353
			],
			"type":"VEC3"
		},
		{
			"bufferView":9,
			"componentType":5126,
			"count":24,
			"type":"VEC3"
		},
		{
			"bufferView":10,
			"componentType":5126,
			"count":24,
			"type":"VEC2"
		},
		{
			"bufferView":11,
			"componentType":5126,
			"count":2496,
			"max":[
				4.962602615356445,
				0.842976987361908,
				0.8671665191650391
			],
			"min":[
				0.600799560546875,
				-0.6490907073020935,
				-0.8846688270568848
			],
			"type":"VEC3"
		},
		{
			"bufferView":12,
			"componentType":5126,
			"count":2496,
			"type":"VEC3"
		},
		{
			"bufferView":13,
			"componentType":5126,
			"count":2496,
			"type":"VEC2"
		},
		{
			"bufferView":14,
			"componentType":5123,
			"count":5040,
			"type":"SCALAR"
		},
		{
			"bufferView":15,
			"componentType":5126,
			"count":4032,
			"max":[
				5.05039119720459,
				0.8081770539283752,
				0.8726665377616882
			],
			"min":[
				0.5130109786987305,
				-0.9100906848907471,
				-0.8901689052581787
			],
			"type":"VEC3"
		},
		{
			"bufferView":16,
			"componentType":5126,
			"count":4032,
			"type":"VEC3"
		},
		{
			"bufferView":17,
			"componentType":5126,
			"count":4032,
			"type":"VEC2"
		},
		{
			"bufferView":18,
			"componentType":5123,
			"count":6192,
			"type":"SCALAR"
		},
		{
			"bufferView":19,
			"componentType":5126,
			"count":768,
			"max":[
				5.05039119720459,
				0.7494519948959351,
				0.8726665377616882
			],
			"min":[
				0.5130109786987305,
				-0.8513656854629517,
				-0.8901689052581787
			],
			"type":"VEC3"
		},
		{
			"bufferView":20,
			"componentType":5126,
			"count":768,
			"type":"VEC3"
		},
		{
			"bufferView":21,
			"componentType":5126,
			"count":768,
			"type":"VEC2"
		},
		{
			"bufferView":22,
			"componentType":5123,
			"count":1152,
			"type":"SCALAR"
		}
	],
	"bufferViews":[
		{
			"buffer":0,
			"byteLength":1728,
			"byteOffset":0,
			"target":34962
		},
		{
			"buffer":0,
			"byteLength":1728,
			"byteOffset":1728,
			"target":34962
		},
		{
			"buffer":0,
			"byteLength":1152,
			"byteOffset":3456,
			"target":34962
		},
		{
			"buffer":0,
			"byteLength":432,
			"byteOffset":4608,
			"target":34963
		},
		{
			"buffer":0,
			"byteLength":288,
			"byteOffset":5040,
			"target":34962
		},
		{
			"buffer":0,
			"byteLength":288,
			"byteOffset":5328,
			"target":34962
		},
		{
			"buffer":0,
			"byteLength":192,
			"byteOffset":5616,
			"target":34962
		},
		{
			"buffer":0,
			"byteLength":72,
			"byteOffset":5808,
			"target":34963
		},
		{
			"buffer":0,
			"byteLength":288,
			"byteOffset":5880,
			"target":34962
		},
		{
			"buffer":0,
			"byteLength":288,
			"byteOffset":6168,
			"target":34962
		},
		{
			"buffer":0,
			"byteLength":192,
			"byteOffset":6456,
			"target":34962
		},
		{
			"buffer":0,
			"byteLength":29952,
			"byteOffset":6648,
			"target":34962
		},
		{
			"buffer":0,
			"byteLength":29952,
			"byteOffset":36600,
			"target":34962
		},
		{
			"buffer":0,
			"byteLength":19968,
			"byteOffset":66552,
			"target":34962
		},
		{
			"buffer":0,
			"byteLength":10080,
			"byteOffset":86520,
			"target":34963
		},
		{
			"buffer":0,
			"byteLength":48384,
			"byteOffset":96600,
			"target":34962
		},
		{
			"buffer":0,
			"byteLength":48384,
			"byteOffset":144984,
			"target":34962
		},
		{
			"buffer":0,
			"byteLength":32256,
			"byteOffset":193368,
			"target":34962
		},
		{
			"buffer":0,
			"byteLength":12384,
			"byteOffset":225624,
			"target":34963
		},
		{
			"buffer":0,
			"byteLength":9216,
			"byteOffset":238008,
			"target":34962
		},
		{
			"buffer":0,
			"byteLength":9216,
			"byteOffset":247224,
			"target":34962
		},
		{
			"buffer":0,
			"byteLength":6144,
			"byteOffset":256440,
			"target":34962
		},
		{
			"buffer":0,
			"byteLength":2304,
			"byteOffset":262584,
			"target":34963
		}
	],
	"buffers":[
		{
			"byteLength":264888,
			"uri":"nutella_shelf.bin"
		}
	]
}
