{
	"asset":{
		"generator":"Khronos glTF Blender I/O v4.2.60",
		"version":"2.0"
	},
	"extensionsUsed":[
		"KHR_materials_specular",
		"KHR_materials_ior"
	],
	"scene":0,
	"scenes":[
		{
			"name":"Scene",
			"nodes":[
				0
			]
		}
	],
	"nodes":[
		{
			"mesh":0,
			"name":"tomato_001.035",
			"scale":[
				8.500000953674316,
				8.5,
				8.500000953674316
			]
		}
	],
	"materials":[
		{
			"doubleSided":true,
			"extensions":{
				"KHR_materials_specular":{
					"specularColorFactor":[
						0.9485430717468262,
						0.9485430717468262,
						0.9485430717468262
					]
				},
				"KHR_materials_ior":{
					"ior":1.4500000476837158
				}
			},
			"name":"Material.012",
			"pbrMetallicRoughness":{
				"baseColorTexture":{
					"index":0
				},
				"metallicFactor":0,
				"roughnessFactor":0.30000001192092896
			}
		},
		{
			"doubleSided":true,
			"name":"Material.014",
			"pbrMetallicRoughness":{
				"baseColorFactor":[
					0.48288780450820923,
					0.3270036280155182,
					0.1440112143754959,
					1
				],
				"metallicFactor":0,
				"roughnessFactor":0.5
			}
		}
	],
	"meshes":[
		{
			"name":"Mesh.121",
			"primitives":[
				{
					"attributes":{
						"POSITION":0,
						"NORMAL":1,
						"TEXCOORD_0":2
					},
					"indices":3,
					"material":0
				},
				{
					"attributes":{
						"POSITION":4,
						"NORMAL":5,
						"TEXCOORD_0":6
					},
					"indices":7,
					"material":1
				}
			]
		}
	],
	"textures":[
		{
			"sampler":0,
			"source":0
		}
	],
	"images":[
		{
			"mimeType":"image/png",
			"name":"Textures",
			"uri":"Textures.png"
		}
	],
	"accessors":[
		{
			"bufferView":0,
			"componentType":5126,
			"count":39023,
			"max":[
				0.5024642944335938,
				0.2564007043838501,
				0.23723651468753815
			],
			"min":[
				-0.5030719637870789,
				0.1676703840494156,
				-0.2234966903924942
			],
			"type":"VEC3"
		},
		{
			"bufferView":1,
			"componentType":5126,
			"count":39023,
			"type":"VEC3"
		},
		{
			"bufferView":2,
			"componentType":5126,
			"count":39023,
			"type":"VEC2"
		},
		{
			"bufferView":3,
			"componentType":5123,
			"count":51192,
			"type":"SCALAR"
		},
		{
			"bufferView":4,
			"componentType":5126,
			"count":72,
			"max":[
				0.5422520637512207,
				0.2844242751598358,
				0.24871855974197388
			],
			"min":[
				-0.5424007773399353,
				-0.21365174651145935,
				-0.2493574470281601
			],
			"type":"VEC3"
		},
		{
			"bufferView":5,
			"componentType":5126,
			"count":72,
			"type":"VEC3"
		},
		{
			"bufferView":6,
			"componentType":5126,
			"count":72,
			"type":"VEC2"
		},
		{
			"bufferView":7,
			"componentType":5123,
			"count":120,
			"type":"SCALAR"
		}
	],
	"bufferViews":[
		{
			"buffer":0,
			"byteLength":468276,
			"byteOffset":0,
			"target":34962
		},
		{
			"buffer":0,
			"byteLength":468276,
			"byteOffset":468276,
			"target":34962
		},
		{
			"buffer":0,
			"byteLength":312184,
			"byteOffset":936552,
			"target":34962
		},
		{
			"buffer":0,
			"byteLength":102384,
			"byteOffset":1248736,
			"target":34963
		},
		{
			"buffer":0,
			"byteLength":864,
			"byteOffset":1351120,
			"target":34962
		},
		{
			"buffer":0,
			"byteLength":864,
			"byteOffset":1351984,
			"target":34962
		},
		{
			"buffer":0,
			"byteLength":576,
			"byteOffset":1352848,
			"target":34962
		},
		{
			"buffer":0,
			"byteLength":240,
			"byteOffset":1353424,
			"target":34963
		}
	],
	"samplers":[
		{
			"magFilter":9729,
			"minFilter":9987
		}
	],
	"buffers":[
		{
			"byteLength":1353664,
			"uri":"tomato_box.bin"
		}
	]
}
