{
	"asset":{
		"generator":"Khronos glTF Blender I/O v4.2.60",
		"version":"2.0"
	},
	"extensionsUsed":[
		"KHR_materials_specular",
		"KHR_materials_ior"
	],
	"scene":0,
	"scenes":[
		{
			"name":"Scene",
			"nodes":[
				0,
				1,
				2
			]
		}
	],
	"nodes":[
		{
			"mesh":0,
			"name":"tomato_001.035",
			"scale":[
				8.5,
				8.5,
				8.5
			],
			"translation":[
				3.931201696395874,
				3.2768874168395996,
				6.6536970138549805
			]
		},
		{
			"mesh":1,
			"name":"Cube.001",
			"scale":[
				1,
				0.5268014073371887,
				1.3792020082473755
			],
			"translation":[
				0.01686859130859375,
				3.705000162124634,
				4.978525638580322
			]
		},
		{
			"mesh":2,
			"name":"tomato_001.001",
			"scale":[
				8.5,
				8.5,
				8.5
			],
			"translation":[
				-0.5003883838653564,
				3.2768874168395996,
				6.6536970138549805
			]
		}
	],
	"materials":[
		{
			"doubleSided":true,
			"extensions":{
				"KHR_materials_specular":{
					"specularColorFactor":[
						0.9485430717468262,
						0.9485430717468262,
						0.9485430717468262
					]
				},
				"KHR_materials_ior":{
					"ior":1.4500000476837158
				}
			},
			"name":"Material.002",
			"pbrMetallicRoughness":{
				"baseColorTexture":{
					"index":0
				},
				"metallicFactor":0,
				"roughnessFactor":0.30000001192092896
			}
		},
		{
			"doubleSided":true,
			"name":"Material.001",
			"pbrMetallicRoughness":{
				"baseColorFactor":[
					0.48288780450820923,
					0.3270036280155182,
					0.1440112143754959,
					1
				],
				"metallicFactor":0,
				"roughnessFactor":0.5
			}
		}
	],
	"meshes":[
		{
			"name":"Mesh.121",
			"primitives":[
				{
					"attributes":{
						"POSITION":0,
						"NORMAL":1,
						"TEXCOORD_0":2
					},
					"indices":3,
					"material":0
				}
			]
		},
		{
			"name":"Cube.001",
			"primitives":[
				{
					"attributes":{
						"POSITION":4,
						"NORMAL":5,
						"TEXCOORD_0":6
					},
					"indices":7,
					"material":1
				}
			]
		},
		{
			"name":"Mesh.001",
			"primitives":[
				{
					"attributes":{
						"POSITION":8,
						"NORMAL":9,
						"TEXCOORD_0":10
					},
					"indices":3,
					"material":0
				}
			]
		}
	],
	"textures":[
		{
			"sampler":0,
			"source":0
		}
	],
	"images":[
		{
			"mimeType":"image/png",
			"name":"Textures",
			"uri":"Textures.png"
		}
	],
	"accessors":[
		{
			"bufferView":0,
			"componentType":5126,
			"count":19316,
			"max":[
				0.04057423770427704,
				0.08879637718200684,
				0.04019922390580177
			],
			"min":[
				-0.4435984492301941,
				6.605621456401423e-05,
				-0.4205339848995209
			],
			"type":"VEC3"
		},
		{
			"bufferView":1,
			"componentType":5126,
			"count":19316,
			"type":"VEC3"
		},
		{
			"bufferView":2,
			"componentType":5126,
			"count":19316,
			"type":"VEC2"
		},
		{
			"bufferView":3,
			"componentType":5123,
			"count":25596,
			"type":"SCALAR"
		},
		{
			"bufferView":4,
			"componentType":5126,
			"count":72,
			"max":[
				4.597410202026367,
				1.0722389221191406,
				1.5331052541732788
			],
			"min":[
				-4.622138977050781,
				-6.964273452758789,
				-1.5365294218063354
			],
			"type":"VEC3"
		},
		{
			"bufferView":5,
			"componentType":5126,
			"count":72,
			"type":"VEC3"
		},
		{
			"bufferView":6,
			"componentType":5126,
			"count":72,
			"type":"VEC2"
		},
		{
			"bufferView":7,
			"componentType":5123,
			"count":120,
			"type":"SCALAR"
		},
		{
			"bufferView":8,
			"componentType":5126,
			"count":19316,
			"max":[
				0.04057423770427704,
				0.08879637718200684,
				0.04019922390580177
			],
			"min":[
				-0.4435984492301941,
				6.605621456401423e-05,
				-0.4205339848995209
			],
			"type":"VEC3"
		},
		{
			"bufferView":9,
			"componentType":5126,
			"count":19316,
			"type":"VEC3"
		},
		{
			"bufferView":10,
			"componentType":5126,
			"count":19316,
			"type":"VEC2"
		}
	],
	"bufferViews":[
		{
			"buffer":0,
			"byteLength":231792,
			"byteOffset":0,
			"target":34962
		},
		{
			"buffer":0,
			"byteLength":231792,
			"byteOffset":231792,
			"target":34962
		},
		{
			"buffer":0,
			"byteLength":154528,
			"byteOffset":463584,
			"target":34962
		},
		{
			"buffer":0,
			"byteLength":51192,
			"byteOffset":618112,
			"target":34963
		},
		{
			"buffer":0,
			"byteLength":864,
			"byteOffset":669304,
			"target":34962
		},
		{
			"buffer":0,
			"byteLength":864,
			"byteOffset":670168,
			"target":34962
		},
		{
			"buffer":0,
			"byteLength":576,
			"byteOffset":671032,
			"target":34962
		},
		{
			"buffer":0,
			"byteLength":240,
			"byteOffset":671608,
			"target":34963
		},
		{
			"buffer":0,
			"byteLength":231792,
			"byteOffset":671848,
			"target":34962
		},
		{
			"buffer":0,
			"byteLength":231792,
			"byteOffset":903640,
			"target":34962
		},
		{
			"buffer":0,
			"byteLength":154528,
			"byteOffset":1135432,
			"target":34962
		}
	],
	"samplers":[
		{
			"magFilter":9729,
			"minFilter":9987
		}
	],
	"buffers":[
		{
			"byteLength":1289960,
			"uri":"tomato_box.bin"
		}
	]
}
