{
	"asset":{
		"generator":"Khronos glTF Blender I/O v4.2.60",
		"version":"2.0"
	},
	"extensionsUsed":[
		"KHR_materials_specular",
		"KHR_materials_ior"
	],
	"scene":0,
	"scenes":[
		{
			"name":"Scene",
			"nodes":[
				0
			]
		}
	],
	"nodes":[
		{
			"mesh":0,
			"name":"tomato_001.035",
			"rotation":[
				0,
				0.7047709822654724,
				0,
				0.7094349265098572
			],
			"scale":[
				8.500000953674316,
				8.5,
				8.500000953674316
			]
		}
	],
	"materials":[
		{
			"doubleSided":true,
			"extensions":{
				"KHR_materials_specular":{
					"specularColorFactor":[
						0.9485430717468262,
						0.9485430717468262,
						0.9485430717468262
					]
				},
				"KHR_materials_ior":{
					"ior":1.4500000476837158
				}
			},
			"name":"Material.011",
			"pbrMetallicRoughness":{
				"baseColorTexture":{
					"index":0
				},
				"metallicFactor":0,
				"roughnessFactor":0.30000001192092896
			}
		},
		{
			"doubleSided":true,
			"name":"Material.012",
			"pbrMetallicRoughness":{
				"baseColorFactor":[
					0.48288780450820923,
					0.3270036280155182,
					0.1440112143754959,
					1
				],
				"metallicFactor":0,
				"roughnessFactor":0.5
			}
		}
	],
	"meshes":[
		{
			"name":"Mesh.121",
			"primitives":[
				{
					"attributes":{
						"POSITION":0,
						"NORMAL":1,
						"TEXCOORD_0":2
					},
					"indices":3,
					"material":0
				},
				{
					"attributes":{
						"POSITION":4,
						"NORMAL":5,
						"TEXCOORD_0":6
					},
					"indices":7,
					"material":1
				}
			]
		}
	],
	"textures":[
		{
			"sampler":0,
			"source":0
		}
	],
	"images":[
		{
			"mimeType":"image/png",
			"name":"Textures",
			"uri":"Textures.png"
		}
	],
	"accessors":[
		{
			"bufferView":0,
			"componentType":5126,
			"count":38906,
			"max":[
				0.04057423770427704,
				0.08879637718200684,
				0.04019922390580177
			],
			"min":[
				-0.9649620056152344,
				6.605621456401423e-05,
				-0.4205339848995209
			],
			"type":"VEC3"
		},
		{
			"bufferView":1,
			"componentType":5126,
			"count":38906,
			"type":"VEC3"
		},
		{
			"bufferView":2,
			"componentType":5126,
			"count":38906,
			"type":"VEC2"
		},
		{
			"bufferView":3,
			"componentType":5123,
			"count":51192,
			"type":"SCALAR"
		},
		{
			"bufferView":4,
			"componentType":5126,
			"count":72,
			"max":[
				0.08036202192306519,
				0.11681995540857315,
				0.051681265234947205
			],
			"min":[
				-1.0042908191680908,
				-0.3812560737133026,
				-0.44639474153518677
			],
			"type":"VEC3"
		},
		{
			"bufferView":5,
			"componentType":5126,
			"count":72,
			"type":"VEC3"
		},
		{
			"bufferView":6,
			"componentType":5126,
			"count":72,
			"type":"VEC2"
		},
		{
			"bufferView":7,
			"componentType":5123,
			"count":120,
			"type":"SCALAR"
		}
	],
	"bufferViews":[
		{
			"buffer":0,
			"byteLength":466872,
			"byteOffset":0,
			"target":34962
		},
		{
			"buffer":0,
			"byteLength":466872,
			"byteOffset":466872,
			"target":34962
		},
		{
			"buffer":0,
			"byteLength":311248,
			"byteOffset":933744,
			"target":34962
		},
		{
			"buffer":0,
			"byteLength":102384,
			"byteOffset":1244992,
			"target":34963
		},
		{
			"buffer":0,
			"byteLength":864,
			"byteOffset":1347376,
			"target":34962
		},
		{
			"buffer":0,
			"byteLength":864,
			"byteOffset":1348240,
			"target":34962
		},
		{
			"buffer":0,
			"byteLength":576,
			"byteOffset":1349104,
			"target":34962
		},
		{
			"buffer":0,
			"byteLength":240,
			"byteOffset":1349680,
			"target":34963
		}
	],
	"samplers":[
		{
			"magFilter":9729,
			"minFilter":9987
		}
	],
	"buffers":[
		{
			"byteLength":1349920,
			"uri":"tomato_box.bin"
		}
	]
}
