{
	"asset":{
		"generator":"Khronos glTF Blender I/O v4.2.60",
		"version":"2.0"
	},
	"scene":0,
	"scenes":[
		{
			"name":"Scene",
			"nodes":[
				0
			]
		}
	],
	"nodes":[
		{
			"mesh":0,
			"name":"Cube.019_Cube.033",
			"rotation":[
				0.70710688829422,
				0,
				0,
				0.7071066498756409
			],
			"scale":[
				0.6499999761581421,
				0.6500000953674316,
				0.6500000953674316
			]
		}
	],
	"materials":[
		{
			"doubleSided":true,
			"name":"Material.136",
			"pbrMetallicRoughness":{
				"baseColorTexture":{
					"index":0
				},
				"metallicFactor":0,
				"roughnessFactor":0.5
			}
		},
		{
			"doubleSided":true,
			"name":"Material.133",
			"pbrMetallicRoughness":{
				"baseColorFactor":[
					0.2653980851173401,
					0.2654016613960266,
					0.2654016613960266,
					1
				],
				"metallicFactor":0,
				"roughnessFactor":0.5
			}
		},
		{
			"doubleSided":true,
			"name":"Material.134",
			"pbrMetallicRoughness":{
				"baseColorFactor":[
					0.2653980851173401,
					0.2654016613960266,
					0.2654016613960266,
					1
				],
				"metallicFactor":0,
				"roughnessFactor":0.5
			}
		},
		{
			"doubleSided":true,
			"name":"Material.135",
			"pbrMetallicRoughness":{
				"baseColorFactor":[
					0.2653980851173401,
					0.2654016613960266,
					0.2654016613960266,
					1
				],
				"metallicFactor":0,
				"roughnessFactor":0.5
			}
		}
	],
	"meshes":[
		{
			"name":"Cube.019_Cube.036",
			"primitives":[
				{
					"attributes":{
						"POSITION":0,
						"NORMAL":1,
						"TEXCOORD_0":2
					},
					"indices":3,
					"material":0
				},
				{
					"attributes":{
						"POSITION":4,
						"NORMAL":5,
						"TEXCOORD_0":6
					},
					"indices":7,
					"material":1
				},
				{
					"attributes":{
						"POSITION":8,
						"NORMAL":9,
						"TEXCOORD_0":10
					},
					"indices":11,
					"material":2
				},
				{
					"attributes":{
						"POSITION":12,
						"NORMAL":13,
						"TEXCOORD_0":14
					},
					"indices":11,
					"material":3
				}
			]
		}
	],
	"textures":[
		{
			"sampler":0,
			"source":0
		}
	],
	"images":[
		{
			"mimeType":"image/jpeg",
			"name":"sparberry",
			"uri":"sparberry.jpg"
		}
	],
	"accessors":[
		{
			"bufferView":0,
			"componentType":5126,
			"count":18154,
			"max":[
				1.9336354732513428,
				5.482375144958496,
				7.004521369934082
			],
			"min":[
				0.9819544553756714,
				-5.320357799530029,
				-6.7300848960876465
			],
			"type":"VEC3"
		},
		{
			"bufferView":1,
			"componentType":5126,
			"count":18154,
			"type":"VEC3"
		},
		{
			"bufferView":2,
			"componentType":5126,
			"count":18154,
			"type":"VEC2"
		},
		{
			"bufferView":3,
			"componentType":5123,
			"count":27456,
			"type":"SCALAR"
		},
		{
			"bufferView":4,
			"componentType":5126,
			"count":144,
			"max":[
				3.515972852706909,
				6.36039400100708,
				7.80090856552124
			],
			"min":[
				-2.6909759044647217,
				-6.46570348739624,
				-8.014488220214844
			],
			"type":"VEC3"
		},
		{
			"bufferView":5,
			"componentType":5126,
			"count":144,
			"type":"VEC3"
		},
		{
			"bufferView":6,
			"componentType":5126,
			"count":144,
			"type":"VEC2"
		},
		{
			"bufferView":7,
			"componentType":5123,
			"count":216,
			"type":"SCALAR"
		},
		{
			"bufferView":8,
			"componentType":5126,
			"count":24,
			"max":[
				3.1641054153442383,
				6.172434329986572,
				4.324238300323486
			],
			"min":[
				-2.374356269836426,
				-6.135260105133057,
				3.5242366790771484
			],
			"type":"VEC3"
		},
		{
			"bufferView":9,
			"componentType":5126,
			"count":24,
			"type":"VEC3"
		},
		{
			"bufferView":10,
			"componentType":5126,
			"count":24,
			"type":"VEC2"
		},
		{
			"bufferView":11,
			"componentType":5123,
			"count":36,
			"type":"SCALAR"
		},
		{
			"bufferView":12,
			"componentType":5126,
			"count":24,
			"max":[
				3.1641054153442383,
				6.172433376312256,
				0.4780845642089844
			],
			"min":[
				-2.374356985092163,
				-6.135261058807373,
				-0.3219170570373535
			],
			"type":"VEC3"
		},
		{
			"bufferView":13,
			"componentType":5126,
			"count":24,
			"type":"VEC3"
		},
		{
			"bufferView":14,
			"componentType":5126,
			"count":24,
			"type":"VEC2"
		}
	],
	"bufferViews":[
		{
			"buffer":0,
			"byteLength":217848,
			"byteOffset":0,
			"target":34962
		},
		{
			"buffer":0,
			"byteLength":217848,
			"byteOffset":217848,
			"target":34962
		},
		{
			"buffer":0,
			"byteLength":145232,
			"byteOffset":435696,
			"target":34962
		},
		{
			"buffer":0,
			"byteLength":54912,
			"byteOffset":580928,
			"target":34963
		},
		{
			"buffer":0,
			"byteLength":1728,
			"byteOffset":635840,
			"target":34962
		},
		{
			"buffer":0,
			"byteLength":1728,
			"byteOffset":637568,
			"target":34962
		},
		{
			"buffer":0,
			"byteLength":1152,
			"byteOffset":639296,
			"target":34962
		},
		{
			"buffer":0,
			"byteLength":432,
			"byteOffset":640448,
			"target":34963
		},
		{
			"buffer":0,
			"byteLength":288,
			"byteOffset":640880,
			"target":34962
		},
		{
			"buffer":0,
			"byteLength":288,
			"byteOffset":641168,
			"target":34962
		},
		{
			"buffer":0,
			"byteLength":192,
			"byteOffset":641456,
			"target":34962
		},
		{
			"buffer":0,
			"byteLength":72,
			"byteOffset":641648,
			"target":34963
		},
		{
			"buffer":0,
			"byteLength":288,
			"byteOffset":641720,
			"target":34962
		},
		{
			"buffer":0,
			"byteLength":288,
			"byteOffset":642008,
			"target":34962
		},
		{
			"buffer":0,
			"byteLength":192,
			"byteOffset":642296,
			"target":34962
		}
	],
	"samplers":[
		{
			"magFilter":9729,
			"minFilter":9987
		}
	],
	"buffers":[
		{
			"byteLength":642488,
			"uri":"sparberry_shelf.bin"
		}
	]
}
