{
	"asset":{
		"generator":"Khronos glTF Blender I/O v4.2.60",
		"version":"2.0"
	},
	"scene":0,
	"scenes":[
		{
			"name":"Scene",
			"nodes":[
				0
			]
		}
	],
	"nodes":[
		{
			"mesh":0,
			"name":"Cube.019_Cube.033",
			"rotation":[
				0.70710688829422,
				0,
				0,
				0.7071066498756409
			],
			"scale":[
				0.6499999761581421,
				0.6500000357627869,
				0.6500000357627869
			]
		}
	],
	"materials":[
		{
			"doubleSided":true,
			"name":"Material.136",
			"pbrMetallicRoughness":{
				"baseColorTexture":{
					"index":0
				},
				"metallicFactor":0,
				"roughnessFactor":0.5
			}
		},
		{
			"doubleSided":true,
			"name":"Material.133",
			"pbrMetallicRoughness":{
				"baseColorFactor":[
					0.2653980851173401,
					0.2654016613960266,
					0.2654016613960266,
					1
				],
				"metallicFactor":0,
				"roughnessFactor":0.5
			}
		},
		{
			"doubleSided":true,
			"name":"Material.134",
			"pbrMetallicRoughness":{
				"baseColorFactor":[
					0.2653980851173401,
					0.2654016613960266,
					0.2654016613960266,
					1
				],
				"metallicFactor":0,
				"roughnessFactor":0.5
			}
		},
		{
			"doubleSided":true,
			"name":"Material.135",
			"pbrMetallicRoughness":{
				"baseColorFactor":[
					0.2653980851173401,
					0.2654016613960266,
					0.2654016613960266,
					1
				],
				"metallicFactor":0,
				"roughnessFactor":0.5
			}
		}
	],
	"meshes":[
		{
			"name":"Cube.019_Cube.036",
			"primitives":[
				{
					"attributes":{
						"POSITION":0,
						"NORMAL":1,
						"TEXCOORD_0":2
					},
					"indices":3,
					"material":0
				},
				{
					"attributes":{
						"POSITION":4,
						"NORMAL":5,
						"TEXCOORD_0":6
					},
					"indices":7,
					"material":1
				},
				{
					"attributes":{
						"POSITION":8,
						"NORMAL":9,
						"TEXCOORD_0":10
					},
					"indices":11,
					"material":2
				},
				{
					"attributes":{
						"POSITION":12,
						"NORMAL":13,
						"TEXCOORD_0":14
					},
					"indices":11,
					"material":3
				}
			]
		}
	],
	"textures":[
		{
			"sampler":0,
			"source":0
		}
	],
	"images":[
		{
			"mimeType":"image/jpeg",
			"name":"sparberry",
			"uri":"sparberry.jpg"
		}
	],
	"accessors":[
		{
			"bufferView":0,
			"componentType":5126,
			"count":18148,
			"max":[
				0.4758409857749939,
				2.43489408493042,
				1.414717197418213
			],
			"min":[
				-0.4758400022983551,
				-8.367838859558105,
				-12.319889068603516
			],
			"type":"VEC3"
		},
		{
			"bufferView":1,
			"componentType":5126,
			"count":18148,
			"type":"VEC3"
		},
		{
			"bufferView":2,
			"componentType":5126,
			"count":18148,
			"type":"VEC2"
		},
		{
			"bufferView":3,
			"componentType":5123,
			"count":27456,
			"type":"SCALAR"
		},
		{
			"bufferView":4,
			"componentType":5126,
			"count":144,
			"max":[
				2.058178424835205,
				3.312912940979004,
				2.211104393005371
			],
			"min":[
				-4.148770332336426,
				-9.513184547424316,
				-13.604291915893555
			],
			"type":"VEC3"
		},
		{
			"bufferView":5,
			"componentType":5126,
			"count":144,
			"type":"VEC3"
		},
		{
			"bufferView":6,
			"componentType":5126,
			"count":144,
			"type":"VEC2"
		},
		{
			"bufferView":7,
			"componentType":5123,
			"count":216,
			"type":"SCALAR"
		},
		{
			"bufferView":8,
			"componentType":5126,
			"count":24,
			"max":[
				1.7063109874725342,
				3.124953269958496,
				-1.2655658721923828
			],
			"min":[
				-3.83215069770813,
				-9.182741165161133,
				-2.0655674934387207
			],
			"type":"VEC3"
		},
		{
			"bufferView":9,
			"componentType":5126,
			"count":24,
			"type":"VEC3"
		},
		{
			"bufferView":10,
			"componentType":5126,
			"count":24,
			"type":"VEC2"
		},
		{
			"bufferView":11,
			"componentType":5123,
			"count":36,
			"type":"SCALAR"
		},
		{
			"bufferView":12,
			"componentType":5126,
			"count":24,
			"max":[
				1.7063109874725342,
				3.1249523162841797,
				-5.111719608306885
			],
			"min":[
				-3.832151412963867,
				-9.18274211883545,
				-5.911721229553223
			],
			"type":"VEC3"
		},
		{
			"bufferView":13,
			"componentType":5126,
			"count":24,
			"type":"VEC3"
		},
		{
			"bufferView":14,
			"componentType":5126,
			"count":24,
			"type":"VEC2"
		}
	],
	"bufferViews":[
		{
			"buffer":0,
			"byteLength":217776,
			"byteOffset":0,
			"target":34962
		},
		{
			"buffer":0,
			"byteLength":217776,
			"byteOffset":217776,
			"target":34962
		},
		{
			"buffer":0,
			"byteLength":145184,
			"byteOffset":435552,
			"target":34962
		},
		{
			"buffer":0,
			"byteLength":54912,
			"byteOffset":580736,
			"target":34963
		},
		{
			"buffer":0,
			"byteLength":1728,
			"byteOffset":635648,
			"target":34962
		},
		{
			"buffer":0,
			"byteLength":1728,
			"byteOffset":637376,
			"target":34962
		},
		{
			"buffer":0,
			"byteLength":1152,
			"byteOffset":639104,
			"target":34962
		},
		{
			"buffer":0,
			"byteLength":432,
			"byteOffset":640256,
			"target":34963
		},
		{
			"buffer":0,
			"byteLength":288,
			"byteOffset":640688,
			"target":34962
		},
		{
			"buffer":0,
			"byteLength":288,
			"byteOffset":640976,
			"target":34962
		},
		{
			"buffer":0,
			"byteLength":192,
			"byteOffset":641264,
			"target":34962
		},
		{
			"buffer":0,
			"byteLength":72,
			"byteOffset":641456,
			"target":34963
		},
		{
			"buffer":0,
			"byteLength":288,
			"byteOffset":641528,
			"target":34962
		},
		{
			"buffer":0,
			"byteLength":288,
			"byteOffset":641816,
			"target":34962
		},
		{
			"buffer":0,
			"byteLength":192,
			"byteOffset":642104,
			"target":34962
		}
	],
	"samplers":[
		{
			"magFilter":9729,
			"minFilter":9987
		}
	],
	"buffers":[
		{
			"byteLength":642296,
			"uri":"sparberry_shelf.bin"
		}
	]
}
