{
	"asset":{
		"generator":"Khronos glTF Blender I/O v4.2.60",
		"version":"2.0"
	},
	"scene":0,
	"scenes":[
		{
			"name":"Scene",
			"nodes":[
				0,
				1,
				2
			]
		}
	],
	"nodes":[
		{
			"mesh":0,
			"name":"Cube.002",
			"scale":[
				1,
				0.5268014073371887,
				1.3792020082473755
			],
			"translation":[
				0.012364745140075684,
				3.673156499862671,
				-4.926863193511963
			]
		},
		{
			"mesh":1,
			"name":"Cylinder.015",
			"rotation":[
				-0.703721821308136,
				0,
				0,
				0.7104756236076355
			],
			"scale":[
				0.26166480779647827,
				0.14758335053920746,
				0.26166480779647827
			],
			"translation":[
				-4.085978984832764,
				3.5241644382476807,
				-3.9930553436279297
			]
		},
		{
			"mesh":2,
			"name":"Cylinder.005",
			"rotation":[
				-0.703721821308136,
				0,
				0,
				0.7104756236076355
			],
			"scale":[
				0.26166480779647827,
				0.14758335053920746,
				0.26166480779647827
			],
			"translation":[
				0.38111576437950134,
				3.5241644382476807,
				-3.9930553436279297
			]
		}
	],
	"materials":[
		{
			"doubleSided":true,
			"name":"Material.001",
			"pbrMetallicRoughness":{
				"baseColorFactor":[
					0.48288780450820923,
					0.3270036280155182,
					0.1440112143754959,
					1
				],
				"metallicFactor":0,
				"roughnessFactor":0.5
			}
		},
		{
			"doubleSided":true,
			"name":"Material.002",
			"pbrMetallicRoughness":{
				"baseColorTexture":{
					"index":0
				},
				"metallicFactor":0,
				"roughnessFactor":0.5
			}
		}
	],
	"meshes":[
		{
			"name":"Cube.002",
			"primitives":[
				{
					"attributes":{
						"POSITION":0,
						"NORMAL":1,
						"TEXCOORD_0":2
					},
					"indices":3,
					"material":0
				}
			]
		},
		{
			"name":"Cylinder.015",
			"primitives":[
				{
					"attributes":{
						"POSITION":4,
						"NORMAL":5,
						"TEXCOORD_0":6
					},
					"indices":7,
					"material":1
				}
			]
		},
		{
			"name":"Cylinder.005",
			"primitives":[
				{
					"attributes":{
						"POSITION":8,
						"NORMAL":9,
						"TEXCOORD_0":10
					},
					"indices":7,
					"material":1
				}
			]
		}
	],
	"textures":[
		{
			"sampler":0,
			"source":0
		}
	],
	"images":[
		{
			"mimeType":"image/jpeg",
			"name":"potatoText",
			"uri":"potatoText.jpg"
		}
	],
	"accessors":[
		{
			"bufferView":0,
			"componentType":5126,
			"count":72,
			"max":[
				4.597409725189209,
				1.0722384452819824,
				1.5331052541732788
			],
			"min":[
				-4.6221394538879395,
				-6.964273929595947,
				-1.5365294218063354
			],
			"type":"VEC3"
		},
		{
			"bufferView":1,
			"componentType":5126,
			"count":72,
			"type":"VEC3"
		},
		{
			"bufferView":2,
			"componentType":5126,
			"count":72,
			"type":"VEC2"
		},
		{
			"bufferView":3,
			"componentType":5123,
			"count":120,
			"type":"SCALAR"
		},
		{
			"bufferView":4,
			"componentType":5126,
			"count":15716,
			"max":[
				15.266853332519531,
				17.80459213256836,
				1.0213605165481567
			],
			"min":[
				-1.0000019073486328,
				-5.639622211456299,
				-1.0853103399276733
			],
			"type":"VEC3"
		},
		{
			"bufferView":5,
			"componentType":5126,
			"count":15716,
			"type":"VEC3"
		},
		{
			"bufferView":6,
			"componentType":5126,
			"count":15716,
			"type":"VEC2"
		},
		{
			"bufferView":7,
			"componentType":5123,
			"count":23616,
			"type":"SCALAR"
		},
		{
			"bufferView":8,
			"componentType":5126,
			"count":15716,
			"max":[
				15.266853332519531,
				17.80459213256836,
				1.0213605165481567
			],
			"min":[
				-1.0000019073486328,
				-5.639622211456299,
				-1.0853103399276733
			],
			"type":"VEC3"
		},
		{
			"bufferView":9,
			"componentType":5126,
			"count":15716,
			"type":"VEC3"
		},
		{
			"bufferView":10,
			"componentType":5126,
			"count":15716,
			"type":"VEC2"
		}
	],
	"bufferViews":[
		{
			"buffer":0,
			"byteLength":864,
			"byteOffset":0,
			"target":34962
		},
		{
			"buffer":0,
			"byteLength":864,
			"byteOffset":864,
			"target":34962
		},
		{
			"buffer":0,
			"byteLength":576,
			"byteOffset":1728,
			"target":34962
		},
		{
			"buffer":0,
			"byteLength":240,
			"byteOffset":2304,
			"target":34963
		},
		{
			"buffer":0,
			"byteLength":188592,
			"byteOffset":2544,
			"target":34962
		},
		{
			"buffer":0,
			"byteLength":188592,
			"byteOffset":191136,
			"target":34962
		},
		{
			"buffer":0,
			"byteLength":125728,
			"byteOffset":379728,
			"target":34962
		},
		{
			"buffer":0,
			"byteLength":47232,
			"byteOffset":505456,
			"target":34963
		},
		{
			"buffer":0,
			"byteLength":188592,
			"byteOffset":552688,
			"target":34962
		},
		{
			"buffer":0,
			"byteLength":188592,
			"byteOffset":741280,
			"target":34962
		},
		{
			"buffer":0,
			"byteLength":125728,
			"byteOffset":929872,
			"target":34962
		}
	],
	"samplers":[
		{
			"magFilter":9729,
			"minFilter":9987
		}
	],
	"buffers":[
		{
			"byteLength":1055600,
			"uri":"potato_box.bin"
		}
	]
}
