{
	"asset":{
		"generator":"Khronos glTF Blender I/O v4.2.60",
		"version":"2.0"
	},
	"scene":0,
	"scenes":[
		{
			"name":"Scene",
			"nodes":[
				0
			]
		}
	],
	"nodes":[
		{
			"mesh":0,
			"name":"Cube.003",
			"scale":[
				4.609775066375732,
				2.116823196411133,
				2.116823196411133
			]
		}
	],
	"materials":[
		{
			"name":"lambert3SG.001",
			"pbrMetallicRoughness":{
				"baseColorFactor":[
					0.1599999964237213,
					0.3799999952316284,
					0,
					1
				],
				"metallicFactor":0
			}
		},
		{
			"doubleSided":true,
			"name":"Material.002",
			"pbrMetallicRoughness":{
				"baseColorFactor":[
					0.48288780450820923,
					0.3270036280155182,
					0.1440112143754959,
					1
				],
				"metallicFactor":0,
				"roughnessFactor":0.5
			}
		},
		{
			"name":"lambert2SG.001",
			"pbrMetallicRoughness":{
				"baseColorFactor":[
					0.062272317707538605,
					0,
					0.09687791764736176,
					1
				],
				"metallicFactor":0
			}
		}
	],
	"meshes":[
		{
			"name":"Cube.009",
			"primitives":[
				{
					"attributes":{
						"POSITION":0,
						"NORMAL":1,
						"TEXCOORD_0":2
					},
					"indices":3,
					"material":0
				},
				{
					"attributes":{
						"POSITION":4,
						"NORMAL":5,
						"TEXCOORD_0":6
					},
					"indices":7,
					"material":1
				},
				{
					"attributes":{
						"POSITION":8,
						"NORMAL":9,
						"TEXCOORD_0":10
					},
					"indices":11,
					"material":2
				}
			]
		}
	],
	"accessors":[
		{
			"bufferView":0,
			"componentType":5126,
			"count":14256,
			"max":[
				0.8328003287315369,
				0.8023353815078735,
				0.7578262686729431
			],
			"min":[
				-0.8233661651611328,
				0.6368630528450012,
				-0.4288192093372345
			],
			"type":"VEC3"
		},
		{
			"bufferView":1,
			"componentType":5126,
			"count":14256,
			"type":"VEC3"
		},
		{
			"bufferView":2,
			"componentType":5126,
			"count":14256,
			"type":"VEC2"
		},
		{
			"bufferView":3,
			"componentType":5123,
			"count":14256,
			"type":"SCALAR"
		},
		{
			"bufferView":4,
			"componentType":5126,
			"count":72,
			"max":[
				0.9999997615814209,
				0.9999997615814209,
				0.9999997615814209
			],
			"min":[
				-0.9999997615814209,
				-0.9999997615814209,
				-0.9999997615814209
			],
			"type":"VEC3"
		},
		{
			"bufferView":5,
			"componentType":5126,
			"count":72,
			"type":"VEC3"
		},
		{
			"bufferView":6,
			"componentType":5126,
			"count":72,
			"type":"VEC2"
		},
		{
			"bufferView":7,
			"componentType":5123,
			"count":120,
			"type":"SCALAR"
		},
		{
			"bufferView":8,
			"componentType":5126,
			"count":28958,
			"max":[
				0.9026967287063599,
				0.882425844669342,
				0.6589823365211487
			],
			"min":[
				-0.9069768190383911,
				0.4703327417373657,
				-0.7888901829719543
			],
			"type":"VEC3"
		},
		{
			"bufferView":9,
			"componentType":5126,
			"count":28958,
			"type":"VEC3"
		},
		{
			"bufferView":10,
			"componentType":5126,
			"count":28958,
			"type":"VEC2"
		},
		{
			"bufferView":11,
			"componentType":5123,
			"count":31104,
			"type":"SCALAR"
		}
	],
	"bufferViews":[
		{
			"buffer":0,
			"byteLength":171072,
			"byteOffset":0,
			"target":34962
		},
		{
			"buffer":0,
			"byteLength":171072,
			"byteOffset":171072,
			"target":34962
		},
		{
			"buffer":0,
			"byteLength":114048,
			"byteOffset":342144,
			"target":34962
		},
		{
			"buffer":0,
			"byteLength":28512,
			"byteOffset":456192,
			"target":34963
		},
		{
			"buffer":0,
			"byteLength":864,
			"byteOffset":484704,
			"target":34962
		},
		{
			"buffer":0,
			"byteLength":864,
			"byteOffset":485568,
			"target":34962
		},
		{
			"buffer":0,
			"byteLength":576,
			"byteOffset":486432,
			"target":34962
		},
		{
			"buffer":0,
			"byteLength":240,
			"byteOffset":487008,
			"target":34963
		},
		{
			"buffer":0,
			"byteLength":347496,
			"byteOffset":487248,
			"target":34962
		},
		{
			"buffer":0,
			"byteLength":347496,
			"byteOffset":834744,
			"target":34962
		},
		{
			"buffer":0,
			"byteLength":231664,
			"byteOffset":1182240,
			"target":34962
		},
		{
			"buffer":0,
			"byteLength":62208,
			"byteOffset":1413904,
			"target":34963
		}
	],
	"buffers":[
		{
			"byteLength":1476112,
			"uri":"purple_pepper_box.bin"
		}
	]
}
