{
	"asset":{
		"generator":"Khronos glTF Blender I/O v4.2.60",
		"version":"2.0"
	},
	"scene":0,
	"scenes":[
		{
			"name":"Scene",
			"nodes":[
				0
			]
		}
	],
	"nodes":[
		{
			"mesh":0,
			"name":"Cylinder.002",
			"rotation":[
				1,
				0,
				0,
				0
			],
			"scale":[
				0.5,
				0.5,
				0.5
			]
		}
	],
	"materials":[
		{
			"doubleSided":true,
			"name":"Material.036",
			"pbrMetallicRoughness":{
				"baseColorTexture":{
					"index":0
				},
				"metallicFactor":0,
				"roughnessFactor":0.5
			}
		},
		{
			"doubleSided":true,
			"name":"Material.037",
			"pbrMetallicRoughness":{
				"baseColorFactor":[
					0.2653980851173401,
					0.2654016613960266,
					0.2654016613960266,
					1
				],
				"metallicFactor":0,
				"roughnessFactor":0.5
			}
		},
		{
			"doubleSided":true,
			"name":"Material.038",
			"pbrMetallicRoughness":{
				"baseColorFactor":[
					0.2653980851173401,
					0.2654016613960266,
					0.2654016613960266,
					1
				],
				"metallicFactor":0,
				"roughnessFactor":0.5
			}
		},
		{
			"doubleSided":true,
			"name":"Material.039",
			"pbrMetallicRoughness":{
				"baseColorFactor":[
					0.2653980851173401,
					0.2654016613960266,
					0.2654016613960266,
					1
				],
				"metallicFactor":0,
				"roughnessFactor":0.5
			}
		}
	],
	"meshes":[
		{
			"name":"Cylinder.002",
			"primitives":[
				{
					"attributes":{
						"POSITION":0,
						"NORMAL":1,
						"TEXCOORD_0":2
					},
					"indices":3,
					"material":0
				},
				{
					"attributes":{
						"POSITION":4,
						"NORMAL":5,
						"TEXCOORD_0":6
					},
					"indices":7,
					"material":1
				},
				{
					"attributes":{
						"POSITION":8,
						"NORMAL":9,
						"TEXCOORD_0":10
					},
					"indices":11,
					"material":2
				},
				{
					"attributes":{
						"POSITION":12,
						"NORMAL":13,
						"TEXCOORD_0":14
					},
					"indices":11,
					"material":3
				}
			]
		}
	],
	"textures":[
		{
			"sampler":0,
			"source":0
		}
	],
	"images":[
		{
			"mimeType":"image/jpeg",
			"name":"canBeige",
			"uri":"canBeige.jpg"
		}
	],
	"accessors":[
		{
			"bufferView":0,
			"componentType":5126,
			"count":4544,
			"max":[
				0.9848077297210693,
				5.913911819458008,
				0.9396926164627075
			],
			"min":[
				-0.9848077297210693,
				-10.574149131774902,
				-13.228065490722656
			],
			"type":"VEC3"
		},
		{
			"bufferView":1,
			"componentType":5126,
			"count":4544,
			"type":"VEC3"
		},
		{
			"bufferView":2,
			"componentType":5126,
			"count":4544,
			"type":"VEC2"
		},
		{
			"bufferView":3,
			"componentType":5123,
			"count":8736,
			"type":"SCALAR"
		},
		{
			"bufferView":4,
			"componentType":5126,
			"count":144,
			"max":[
				2.473313331604004,
				8.940126419067383,
				2.265796661376953
			],
			"min":[
				-5.595719814300537,
				-11.619887351989746,
				-14.408123970031738
			],
			"type":"VEC3"
		},
		{
			"bufferView":5,
			"componentType":5126,
			"count":144,
			"type":"VEC3"
		},
		{
			"bufferView":6,
			"componentType":5126,
			"count":144,
			"type":"VEC2"
		},
		{
			"bufferView":7,
			"componentType":5123,
			"count":216,
			"type":"SCALAR"
		},
		{
			"bufferView":8,
			"componentType":5126,
			"count":24,
			"max":[
				2.015885591506958,
				-6.060215950012207,
				2.021449089050293
			],
			"min":[
				-5.184114933013916,
				-7.100215911865234,
				-13.978553771972656
			],
			"type":"VEC3"
		},
		{
			"bufferView":9,
			"componentType":5126,
			"count":24,
			"type":"VEC3"
		},
		{
			"bufferView":10,
			"componentType":5126,
			"count":24,
			"type":"VEC2"
		},
		{
			"bufferView":11,
			"componentType":5123,
			"count":36,
			"type":"SCALAR"
		},
		{
			"bufferView":12,
			"componentType":5126,
			"count":24,
			"max":[
				2.015885591506958,
				-1.060215950012207,
				2.021449089050293
			],
			"min":[
				-5.184115886688232,
				-2.1002159118652344,
				-13.978553771972656
			],
			"type":"VEC3"
		},
		{
			"bufferView":13,
			"componentType":5126,
			"count":24,
			"type":"VEC3"
		},
		{
			"bufferView":14,
			"componentType":5126,
			"count":24,
			"type":"VEC2"
		}
	],
	"bufferViews":[
		{
			"buffer":0,
			"byteLength":54528,
			"byteOffset":0,
			"target":34962
		},
		{
			"buffer":0,
			"byteLength":54528,
			"byteOffset":54528,
			"target":34962
		},
		{
			"buffer":0,
			"byteLength":36352,
			"byteOffset":109056,
			"target":34962
		},
		{
			"buffer":0,
			"byteLength":17472,
			"byteOffset":145408,
			"target":34963
		},
		{
			"buffer":0,
			"byteLength":1728,
			"byteOffset":162880,
			"target":34962
		},
		{
			"buffer":0,
			"byteLength":1728,
			"byteOffset":164608,
			"target":34962
		},
		{
			"buffer":0,
			"byteLength":1152,
			"byteOffset":166336,
			"target":34962
		},
		{
			"buffer":0,
			"byteLength":432,
			"byteOffset":167488,
			"target":34963
		},
		{
			"buffer":0,
			"byteLength":288,
			"byteOffset":167920,
			"target":34962
		},
		{
			"buffer":0,
			"byteLength":288,
			"byteOffset":168208,
			"target":34962
		},
		{
			"buffer":0,
			"byteLength":192,
			"byteOffset":168496,
			"target":34962
		},
		{
			"buffer":0,
			"byteLength":72,
			"byteOffset":168688,
			"target":34963
		},
		{
			"buffer":0,
			"byteLength":288,
			"byteOffset":168760,
			"target":34962
		},
		{
			"buffer":0,
			"byteLength":288,
			"byteOffset":169048,
			"target":34962
		},
		{
			"buffer":0,
			"byteLength":192,
			"byteOffset":169336,
			"target":34962
		}
	],
	"samplers":[
		{
			"magFilter":9729,
			"minFilter":9987
		}
	],
	"buffers":[
		{
			"byteLength":169528,
			"uri":"beans_cans_shelf.bin"
		}
	]
}
