{
	"asset":{
		"generator":"Khronos glTF Blender I/O v4.2.60",
		"version":"2.0"
	},
	"scene":0,
	"scenes":[
		{
			"name":"Scene",
			"nodes":[
				0
			]
		}
	],
	"nodes":[
		{
			"mesh":0,
			"name":"Cylinder.002",
			"scale":[
				0.5,
				0.5,
				0.5
			]
		}
	],
	"materials":[
		{
			"doubleSided":true,
			"name":"Material.036",
			"pbrMetallicRoughness":{
				"baseColorTexture":{
					"index":0
				},
				"metallicFactor":0,
				"roughnessFactor":0.5
			}
		},
		{
			"doubleSided":true,
			"name":"Material.037",
			"pbrMetallicRoughness":{
				"baseColorFactor":[
					0.2653980851173401,
					0.2654016613960266,
					0.2654016613960266,
					1
				],
				"metallicFactor":0,
				"roughnessFactor":0.5
			}
		},
		{
			"doubleSided":true,
			"name":"Material.038",
			"pbrMetallicRoughness":{
				"baseColorFactor":[
					0.2653980851173401,
					0.2654016613960266,
					0.2654016613960266,
					1
				],
				"metallicFactor":0,
				"roughnessFactor":0.5
			}
		},
		{
			"doubleSided":true,
			"name":"Material.039",
			"pbrMetallicRoughness":{
				"baseColorFactor":[
					0.2653980851173401,
					0.2654016613960266,
					0.2654016613960266,
					1
				],
				"metallicFactor":0,
				"roughnessFactor":0.5
			}
		}
	],
	"meshes":[
		{
			"name":"Cylinder.002",
			"primitives":[
				{
					"attributes":{
						"POSITION":0,
						"NORMAL":1,
						"TEXCOORD_0":2
					},
					"indices":3,
					"material":0
				},
				{
					"attributes":{
						"POSITION":4,
						"NORMAL":5,
						"TEXCOORD_0":6
					},
					"indices":7,
					"material":1
				},
				{
					"attributes":{
						"POSITION":8,
						"NORMAL":9,
						"TEXCOORD_0":10
					},
					"indices":11,
					"material":2
				},
				{
					"attributes":{
						"POSITION":12,
						"NORMAL":13,
						"TEXCOORD_0":14
					},
					"indices":11,
					"material":3
				}
			]
		}
	],
	"textures":[
		{
			"sampler":0,
			"source":0
		}
	],
	"images":[
		{
			"mimeType":"image/jpeg",
			"name":"canBeige",
			"uri":"canBeige.jpg"
		}
	],
	"accessors":[
		{
			"bufferView":0,
			"componentType":5126,
			"count":4544,
			"max":[
				3.043217658996582,
				7.441522121429443,
				6.980437278747559
			],
			"min":[
				1.0736021995544434,
				-9.046539306640625,
				-7.187320709228516
			],
			"type":"VEC3"
		},
		{
			"bufferView":1,
			"componentType":5126,
			"count":4544,
			"type":"VEC3"
		},
		{
			"bufferView":2,
			"componentType":5126,
			"count":4544,
			"type":"VEC2"
		},
		{
			"bufferView":3,
			"componentType":5123,
			"count":8736,
			"type":"SCALAR"
		},
		{
			"bufferView":4,
			"componentType":5126,
			"count":144,
			"max":[
				4.5317230224609375,
				10.467737197875977,
				8.306541442871094
			],
			"min":[
				-3.5373098850250244,
				-10.092277526855469,
				-8.367379188537598
			],
			"type":"VEC3"
		},
		{
			"bufferView":5,
			"componentType":5126,
			"count":144,
			"type":"VEC3"
		},
		{
			"bufferView":6,
			"componentType":5126,
			"count":144,
			"type":"VEC2"
		},
		{
			"bufferView":7,
			"componentType":5123,
			"count":216,
			"type":"SCALAR"
		},
		{
			"bufferView":8,
			"componentType":5126,
			"count":24,
			"max":[
				4.074295520782471,
				-4.5326056480407715,
				8.062193870544434
			],
			"min":[
				-3.1257050037384033,
				-5.572605609893799,
				-7.937808990478516
			],
			"type":"VEC3"
		},
		{
			"bufferView":9,
			"componentType":5126,
			"count":24,
			"type":"VEC3"
		},
		{
			"bufferView":10,
			"componentType":5126,
			"count":24,
			"type":"VEC2"
		},
		{
			"bufferView":11,
			"componentType":5123,
			"count":36,
			"type":"SCALAR"
		},
		{
			"bufferView":12,
			"componentType":5126,
			"count":24,
			"max":[
				4.074295520782471,
				0.4673943519592285,
				8.062193870544434
			],
			"min":[
				-3.1257059574127197,
				-0.5726056098937988,
				-7.937808990478516
			],
			"type":"VEC3"
		},
		{
			"bufferView":13,
			"componentType":5126,
			"count":24,
			"type":"VEC3"
		},
		{
			"bufferView":14,
			"componentType":5126,
			"count":24,
			"type":"VEC2"
		}
	],
	"bufferViews":[
		{
			"buffer":0,
			"byteLength":54528,
			"byteOffset":0,
			"target":34962
		},
		{
			"buffer":0,
			"byteLength":54528,
			"byteOffset":54528,
			"target":34962
		},
		{
			"buffer":0,
			"byteLength":36352,
			"byteOffset":109056,
			"target":34962
		},
		{
			"buffer":0,
			"byteLength":17472,
			"byteOffset":145408,
			"target":34963
		},
		{
			"buffer":0,
			"byteLength":1728,
			"byteOffset":162880,
			"target":34962
		},
		{
			"buffer":0,
			"byteLength":1728,
			"byteOffset":164608,
			"target":34962
		},
		{
			"buffer":0,
			"byteLength":1152,
			"byteOffset":166336,
			"target":34962
		},
		{
			"buffer":0,
			"byteLength":432,
			"byteOffset":167488,
			"target":34963
		},
		{
			"buffer":0,
			"byteLength":288,
			"byteOffset":167920,
			"target":34962
		},
		{
			"buffer":0,
			"byteLength":288,
			"byteOffset":168208,
			"target":34962
		},
		{
			"buffer":0,
			"byteLength":192,
			"byteOffset":168496,
			"target":34962
		},
		{
			"buffer":0,
			"byteLength":72,
			"byteOffset":168688,
			"target":34963
		},
		{
			"buffer":0,
			"byteLength":288,
			"byteOffset":168760,
			"target":34962
		},
		{
			"buffer":0,
			"byteLength":288,
			"byteOffset":169048,
			"target":34962
		},
		{
			"buffer":0,
			"byteLength":192,
			"byteOffset":169336,
			"target":34962
		}
	],
	"samplers":[
		{
			"magFilter":9729,
			"minFilter":9987
		}
	],
	"buffers":[
		{
			"byteLength":169528,
			"uri":"beans_cans_shelf.bin"
		}
	]
}
