{
	"asset":{
		"generator":"Khronos glTF Blender I/O v4.2.60",
		"version":"2.0"
	},
	"scene":0,
	"scenes":[
		{
			"name":"Scene",
			"nodes":[
				0
			]
		}
	],
	"nodes":[
		{
			"mesh":0,
			"name":"Cylinder",
			"scale":[
				0.5,
				0.5,
				0.5
			]
		}
	],
	"materials":[
		{
			"doubleSided":true,
			"name":"Material.028",
			"pbrMetallicRoughness":{
				"baseColorTexture":{
					"index":0
				},
				"metallicFactor":0,
				"roughnessFactor":0.5
			}
		},
		{
			"doubleSided":true,
			"name":"Material.029",
			"pbrMetallicRoughness":{
				"baseColorFactor":[
					0.2653980851173401,
					0.2654016613960266,
					0.2654016613960266,
					1
				],
				"metallicFactor":0,
				"roughnessFactor":0.5
			}
		},
		{
			"doubleSided":true,
			"name":"Material.030",
			"pbrMetallicRoughness":{
				"baseColorFactor":[
					0.2653980851173401,
					0.2654016613960266,
					0.2654016613960266,
					1
				],
				"metallicFactor":0,
				"roughnessFactor":0.5
			}
		},
		{
			"doubleSided":true,
			"name":"Material.031",
			"pbrMetallicRoughness":{
				"baseColorFactor":[
					0.2653980851173401,
					0.2654016613960266,
					0.2654016613960266,
					1
				],
				"metallicFactor":0,
				"roughnessFactor":0.5
			}
		}
	],
	"meshes":[
		{
			"name":"Cylinder.005",
			"primitives":[
				{
					"attributes":{
						"POSITION":0,
						"NORMAL":1,
						"TEXCOORD_0":2
					},
					"indices":3,
					"material":0
				},
				{
					"attributes":{
						"POSITION":4,
						"NORMAL":5,
						"TEXCOORD_0":6
					},
					"indices":7,
					"material":1
				},
				{
					"attributes":{
						"POSITION":8,
						"NORMAL":9,
						"TEXCOORD_0":10
					},
					"indices":11,
					"material":2
				},
				{
					"attributes":{
						"POSITION":12,
						"NORMAL":13,
						"TEXCOORD_0":14
					},
					"indices":11,
					"material":3
				}
			]
		}
	],
	"textures":[
		{
			"sampler":0,
			"source":0
		}
	],
	"images":[
		{
			"mimeType":"image/jpeg",
			"name":"canPurple",
			"uri":"canPurple.jpg"
		}
	],
	"accessors":[
		{
			"bufferView":0,
			"componentType":5126,
			"count":4558,
			"max":[
				0.9848077297210693,
				15.494690895080566,
				0.9396926164627075
			],
			"min":[
				-0.9848077297210693,
				-1,
				-12.860777854919434
			],
			"type":"VEC3"
		},
		{
			"bufferView":1,
			"componentType":5126,
			"count":4558,
			"type":"VEC3"
		},
		{
			"bufferView":2,
			"componentType":5126,
			"count":4558,
			"type":"VEC2"
		},
		{
			"bufferView":3,
			"componentType":5123,
			"count":8736,
			"type":"SCALAR"
		},
		{
			"bufferView":4,
			"componentType":5126,
			"count":144,
			"max":[
				2.473313331604004,
				18.508575439453125,
				2.2777700424194336
			],
			"min":[
				-5.595719337463379,
				-2.051438331604004,
				-14.39615249633789
			],
			"type":"VEC3"
		},
		{
			"bufferView":5,
			"componentType":5126,
			"count":144,
			"type":"VEC3"
		},
		{
			"bufferView":6,
			"componentType":5126,
			"count":144,
			"type":"VEC2"
		},
		{
			"bufferView":7,
			"componentType":5123,
			"count":216,
			"type":"SCALAR"
		},
		{
			"bufferView":8,
			"componentType":5126,
			"count":24,
			"max":[
				2.015885829925537,
				3.5082345008850098,
				2.0334205627441406
			],
			"min":[
				-5.184113502502441,
				2.4682345390319824,
				-13.96657943725586
			],
			"type":"VEC3"
		},
		{
			"bufferView":9,
			"componentType":5126,
			"count":24,
			"type":"VEC3"
		},
		{
			"bufferView":10,
			"componentType":5126,
			"count":24,
			"type":"VEC2"
		},
		{
			"bufferView":11,
			"componentType":5123,
			"count":36,
			"type":"SCALAR"
		},
		{
			"bufferView":12,
			"componentType":5126,
			"count":24,
			"max":[
				2.015885829925537,
				8.508234024047852,
				2.0334205627441406
			],
			"min":[
				-5.184114456176758,
				7.468234539031982,
				-13.96657943725586
			],
			"type":"VEC3"
		},
		{
			"bufferView":13,
			"componentType":5126,
			"count":24,
			"type":"VEC3"
		},
		{
			"bufferView":14,
			"componentType":5126,
			"count":24,
			"type":"VEC2"
		}
	],
	"bufferViews":[
		{
			"buffer":0,
			"byteLength":54696,
			"byteOffset":0,
			"target":34962
		},
		{
			"buffer":0,
			"byteLength":54696,
			"byteOffset":54696,
			"target":34962
		},
		{
			"buffer":0,
			"byteLength":36464,
			"byteOffset":109392,
			"target":34962
		},
		{
			"buffer":0,
			"byteLength":17472,
			"byteOffset":145856,
			"target":34963
		},
		{
			"buffer":0,
			"byteLength":1728,
			"byteOffset":163328,
			"target":34962
		},
		{
			"buffer":0,
			"byteLength":1728,
			"byteOffset":165056,
			"target":34962
		},
		{
			"buffer":0,
			"byteLength":1152,
			"byteOffset":166784,
			"target":34962
		},
		{
			"buffer":0,
			"byteLength":432,
			"byteOffset":167936,
			"target":34963
		},
		{
			"buffer":0,
			"byteLength":288,
			"byteOffset":168368,
			"target":34962
		},
		{
			"buffer":0,
			"byteLength":288,
			"byteOffset":168656,
			"target":34962
		},
		{
			"buffer":0,
			"byteLength":192,
			"byteOffset":168944,
			"target":34962
		},
		{
			"buffer":0,
			"byteLength":72,
			"byteOffset":169136,
			"target":34963
		},
		{
			"buffer":0,
			"byteLength":288,
			"byteOffset":169208,
			"target":34962
		},
		{
			"buffer":0,
			"byteLength":288,
			"byteOffset":169496,
			"target":34962
		},
		{
			"buffer":0,
			"byteLength":192,
			"byteOffset":169784,
			"target":34962
		}
	],
	"samplers":[
		{
			"magFilter":9729,
			"minFilter":9987
		}
	],
	"buffers":[
		{
			"byteLength":169976,
			"uri":"beets_cans_shelf.bin"
		}
	]
}
