{
	"asset":{
		"generator":"Khronos glTF Blender I/O v4.2.60",
		"version":"2.0"
	},
	"scene":0,
	"scenes":[
		{
			"name":"Scene",
			"nodes":[
				0
			]
		}
	],
	"nodes":[
		{
			"mesh":0,
			"name":"Cube.003",
			"scale":[
				4.609775066375732,
				2.116823196411133,
				2.116823196411133
			]
		}
	],
	"materials":[
		{
			"doubleSided":true,
			"name":"Material.004",
			"pbrMetallicRoughness":{
				"baseColorTexture":{
					"index":0
				},
				"metallicFactor":0,
				"roughnessFactor":0.5
			}
		},
		{
			"doubleSided":true,
			"name":"Material.006",
			"pbrMetallicRoughness":{
				"baseColorTexture":{
					"index":1
				},
				"metallicFactor":0,
				"roughnessFactor":0.5
			}
		},
		{
			"doubleSided":true,
			"name":"Material.005",
			"pbrMetallicRoughness":{
				"baseColorTexture":{
					"index":2
				},
				"metallicFactor":0,
				"roughnessFactor":0.5
			}
		}
	],
	"meshes":[
		{
			"name":"Cube.009",
			"primitives":[
				{
					"attributes":{
						"POSITION":0,
						"NORMAL":1,
						"TEXCOORD_0":2
					},
					"indices":3,
					"material":0
				},
				{
					"attributes":{
						"POSITION":4,
						"NORMAL":5,
						"TEXCOORD_0":6
					},
					"indices":7,
					"material":1
				},
				{
					"attributes":{
						"POSITION":8,
						"NORMAL":9,
						"TEXCOORD_0":10
					},
					"indices":11,
					"material":2
				}
			]
		}
	],
	"textures":[
		{
			"sampler":0,
			"source":0
		},
		{
			"sampler":0,
			"source":1
		},
		{
			"sampler":0,
			"source":1
		}
	],
	"images":[
		{
			"mimeType":"image/jpeg",
			"name":"coolerbox",
			"uri":"coolerbox.jpg"
		},
		{
			"mimeType":"image/png",
			"name":"ice_cream",
			"uri":"ice_cream.png"
		}
	],
	"accessors":[
		{
			"bufferView":0,
			"componentType":5126,
			"count":116,
			"max":[
				0.9999999403953552,
				0.9999999403953552,
				0.9999999403953552
			],
			"min":[
				-0.9999999403953552,
				-0.9999999403953552,
				-0.9999999403953552
			],
			"type":"VEC3"
		},
		{
			"bufferView":1,
			"componentType":5126,
			"count":116,
			"type":"VEC3"
		},
		{
			"bufferView":2,
			"componentType":5126,
			"count":116,
			"type":"VEC2"
		},
		{
			"bufferView":3,
			"componentType":5123,
			"count":198,
			"type":"SCALAR"
		},
		{
			"bufferView":4,
			"componentType":5126,
			"count":4608,
			"max":[
				0.9065561890602112,
				0.9439800381660461,
				0.9017238020896912
			],
			"min":[
				-0.890282392501831,
				0.8766219615936279,
				-0.907214343547821
			],
			"type":"VEC3"
		},
		{
			"bufferView":5,
			"componentType":5126,
			"count":4608,
			"type":"VEC3"
		},
		{
			"bufferView":6,
			"componentType":5126,
			"count":4608,
			"type":"VEC2"
		},
		{
			"bufferView":7,
			"componentType":5123,
			"count":8832,
			"type":"SCALAR"
		},
		{
			"bufferView":8,
			"componentType":5126,
			"count":2304,
			"max":[
				0.8934726715087891,
				0.9151872396469116,
				0.8732318878173828
			],
			"min":[
				-0.8771987557411194,
				0.5402748584747314,
				-0.8787224292755127
			],
			"type":"VEC3"
		},
		{
			"bufferView":9,
			"componentType":5126,
			"count":2304,
			"type":"VEC3"
		},
		{
			"bufferView":10,
			"componentType":5126,
			"count":2304,
			"type":"VEC2"
		},
		{
			"bufferView":11,
			"componentType":5123,
			"count":4224,
			"type":"SCALAR"
		}
	],
	"bufferViews":[
		{
			"buffer":0,
			"byteLength":1392,
			"byteOffset":0,
			"target":34962
		},
		{
			"buffer":0,
			"byteLength":1392,
			"byteOffset":1392,
			"target":34962
		},
		{
			"buffer":0,
			"byteLength":928,
			"byteOffset":2784,
			"target":34962
		},
		{
			"buffer":0,
			"byteLength":396,
			"byteOffset":3712,
			"target":34963
		},
		{
			"buffer":0,
			"byteLength":55296,
			"byteOffset":4108,
			"target":34962
		},
		{
			"buffer":0,
			"byteLength":55296,
			"byteOffset":59404,
			"target":34962
		},
		{
			"buffer":0,
			"byteLength":36864,
			"byteOffset":114700,
			"target":34962
		},
		{
			"buffer":0,
			"byteLength":17664,
			"byteOffset":151564,
			"target":34963
		},
		{
			"buffer":0,
			"byteLength":27648,
			"byteOffset":169228,
			"target":34962
		},
		{
			"buffer":0,
			"byteLength":27648,
			"byteOffset":196876,
			"target":34962
		},
		{
			"buffer":0,
			"byteLength":18432,
			"byteOffset":224524,
			"target":34962
		},
		{
			"buffer":0,
			"byteLength":8448,
			"byteOffset":242956,
			"target":34963
		}
	],
	"samplers":[
		{
			"magFilter":9729,
			"minFilter":9987
		}
	],
	"buffers":[
		{
			"byteLength":251404,
			"uri":"strawberry_ice_cream_box.bin"
		}
	]
}
