{
	"asset":{
		"generator":"Khronos glTF Blender I/O v4.2.60",
		"version":"2.0"
	},
	"extensionsUsed":[
		"KHR_materials_specular",
		"KHR_materials_ior"
	],
	"scene":0,
	"scenes":[
		{
			"name":"Scene",
			"nodes":[
				0
			]
		}
	],
	"nodes":[
		{
			"mesh":0,
			"name":"apple_001.006",
			"scale":[
				8.250000953674316,
				8.25,
				8.250000953674316
			]
		}
	],
	"materials":[
		{
			"doubleSided":true,
			"extensions":{
				"KHR_materials_specular":{
					"specularColorFactor":[
						0.9485430717468262,
						0.9485430717468262,
						0.9485430717468262
					]
				},
				"KHR_materials_ior":{
					"ior":1.4500000476837158
				}
			},
			"name":"Material.151",
			"pbrMetallicRoughness":{
				"baseColorTexture":{
					"index":0
				},
				"metallicFactor":0,
				"roughnessFactor":0.30000001192092896
			}
		},
		{
			"doubleSided":true,
			"name":"Material.152",
			"pbrMetallicRoughness":{
				"baseColorFactor":[
					0.48288780450820923,
					0.3270036280155182,
					0.1440112143754959,
					1
				],
				"metallicFactor":0,
				"roughnessFactor":0.5
			}
		}
	],
	"meshes":[
		{
			"name":"Mesh.020",
			"primitives":[
				{
					"attributes":{
						"POSITION":0,
						"NORMAL":1,
						"TEXCOORD_0":2
					},
					"indices":3,
					"material":0
				},
				{
					"attributes":{
						"POSITION":4,
						"NORMAL":5,
						"TEXCOORD_0":6
					},
					"indices":7,
					"material":1
				}
			]
		}
	],
	"textures":[
		{
			"sampler":0,
			"source":0
		}
	],
	"images":[
		{
			"mimeType":"image/png",
			"name":"Textures",
			"uri":"Textures.png"
		}
	],
	"accessors":[
		{
			"bufferView":0,
			"componentType":5126,
			"count":20230,
			"max":[
				0.5286427736282349,
				0.24447518587112427,
				0.24052637815475464
			],
			"min":[
				-0.5220792889595032,
				0.17233236134052277,
				-0.25842127203941345
			],
			"type":"VEC3"
		},
		{
			"bufferView":1,
			"componentType":5126,
			"count":20230,
			"type":"VEC3"
		},
		{
			"bufferView":2,
			"componentType":5126,
			"count":20230,
			"type":"VEC2"
		},
		{
			"bufferView":3,
			"componentType":5123,
			"count":25920,
			"type":"SCALAR"
		},
		{
			"bufferView":4,
			"componentType":5126,
			"count":72,
			"max":[
				0.5585355758666992,
				0.29276958107948303,
				0.257246732711792
			],
			"min":[
				-0.5589855909347534,
				-0.2203996330499649,
				-0.2559225261211395
			],
			"type":"VEC3"
		},
		{
			"bufferView":5,
			"componentType":5126,
			"count":72,
			"type":"VEC3"
		},
		{
			"bufferView":6,
			"componentType":5126,
			"count":72,
			"type":"VEC2"
		},
		{
			"bufferView":7,
			"componentType":5123,
			"count":120,
			"type":"SCALAR"
		}
	],
	"bufferViews":[
		{
			"buffer":0,
			"byteLength":242760,
			"byteOffset":0,
			"target":34962
		},
		{
			"buffer":0,
			"byteLength":242760,
			"byteOffset":242760,
			"target":34962
		},
		{
			"buffer":0,
			"byteLength":161840,
			"byteOffset":485520,
			"target":34962
		},
		{
			"buffer":0,
			"byteLength":51840,
			"byteOffset":647360,
			"target":34963
		},
		{
			"buffer":0,
			"byteLength":864,
			"byteOffset":699200,
			"target":34962
		},
		{
			"buffer":0,
			"byteLength":864,
			"byteOffset":700064,
			"target":34962
		},
		{
			"buffer":0,
			"byteLength":576,
			"byteOffset":700928,
			"target":34962
		},
		{
			"buffer":0,
			"byteLength":240,
			"byteOffset":701504,
			"target":34963
		}
	],
	"samplers":[
		{
			"magFilter":9729,
			"minFilter":9987
		}
	],
	"buffers":[
		{
			"byteLength":701744,
			"uri":"green_apple_box.bin"
		}
	]
}
