{
	"asset":{
		"generator":"Khronos glTF Blender I/O v4.2.60",
		"version":"2.0"
	},
	"extensionsUsed":[
		"KHR_materials_specular",
		"KHR_materials_ior"
	],
	"scene":0,
	"scenes":[
		{
			"name":"Scene",
			"nodes":[
				0
			]
		}
	],
	"nodes":[
		{
			"mesh":0,
			"name":"apple_001.006",
			"rotation":[
				0,
				-0.705892026424408,
				0,
				0.7083194255828857
			],
			"scale":[
				8.250000953674316,
				8.25,
				8.250000953674316
			]
		}
	],
	"materials":[
		{
			"doubleSided":true,
			"extensions":{
				"KHR_materials_specular":{
					"specularColorFactor":[
						0.9485430717468262,
						0.9485430717468262,
						0.9485430717468262
					]
				},
				"KHR_materials_ior":{
					"ior":1.4500000476837158
				}
			},
			"name":"Material.151",
			"pbrMetallicRoughness":{
				"baseColorTexture":{
					"index":0
				},
				"metallicFactor":0,
				"roughnessFactor":0.30000001192092896
			}
		},
		{
			"doubleSided":true,
			"name":"Material.152",
			"pbrMetallicRoughness":{
				"baseColorFactor":[
					0.48288780450820923,
					0.3270036280155182,
					0.1440112143754959,
					1
				],
				"metallicFactor":0,
				"roughnessFactor":0.5
			}
		}
	],
	"meshes":[
		{
			"name":"Mesh.020",
			"primitives":[
				{
					"attributes":{
						"POSITION":0,
						"NORMAL":1,
						"TEXCOORD_0":2
					},
					"indices":3,
					"material":0
				},
				{
					"attributes":{
						"POSITION":4,
						"NORMAL":5,
						"TEXCOORD_0":6
					},
					"indices":7,
					"material":1
				}
			]
		}
	],
	"textures":[
		{
			"sampler":0,
			"source":0
		}
	],
	"images":[
		{
			"mimeType":"image/png",
			"name":"Textures",
			"uri":"Textures.png"
		}
	],
	"accessors":[
		{
			"bufferView":0,
			"componentType":5126,
			"count":20226,
			"max":[
				1.008054256439209,
				0.07220913469791412,
				0.04254448041319847
			],
			"min":[
				-0.04266775771975517,
				6.63039754726924e-05,
				-0.4564031660556793
			],
			"type":"VEC3"
		},
		{
			"bufferView":1,
			"componentType":5126,
			"count":20226,
			"type":"VEC3"
		},
		{
			"bufferView":2,
			"componentType":5126,
			"count":20226,
			"type":"VEC2"
		},
		{
			"bufferView":3,
			"componentType":5123,
			"count":25920,
			"type":"SCALAR"
		},
		{
			"bufferView":4,
			"componentType":5126,
			"count":72,
			"max":[
				1.0379470586776733,
				0.12050352990627289,
				0.05926483869552612
			],
			"min":[
				-0.0795741081237793,
				-0.39266568422317505,
				-0.4539044201374054
			],
			"type":"VEC3"
		},
		{
			"bufferView":5,
			"componentType":5126,
			"count":72,
			"type":"VEC3"
		},
		{
			"bufferView":6,
			"componentType":5126,
			"count":72,
			"type":"VEC2"
		},
		{
			"bufferView":7,
			"componentType":5123,
			"count":120,
			"type":"SCALAR"
		}
	],
	"bufferViews":[
		{
			"buffer":0,
			"byteLength":242712,
			"byteOffset":0,
			"target":34962
		},
		{
			"buffer":0,
			"byteLength":242712,
			"byteOffset":242712,
			"target":34962
		},
		{
			"buffer":0,
			"byteLength":161808,
			"byteOffset":485424,
			"target":34962
		},
		{
			"buffer":0,
			"byteLength":51840,
			"byteOffset":647232,
			"target":34963
		},
		{
			"buffer":0,
			"byteLength":864,
			"byteOffset":699072,
			"target":34962
		},
		{
			"buffer":0,
			"byteLength":864,
			"byteOffset":699936,
			"target":34962
		},
		{
			"buffer":0,
			"byteLength":576,
			"byteOffset":700800,
			"target":34962
		},
		{
			"buffer":0,
			"byteLength":240,
			"byteOffset":701376,
			"target":34963
		}
	],
	"samplers":[
		{
			"magFilter":9729,
			"minFilter":9987
		}
	],
	"buffers":[
		{
			"byteLength":701616,
			"uri":"green_apple_box.bin"
		}
	]
}
