{
	"asset":{
		"generator":"Khronos glTF Blender I/O v4.2.60",
		"version":"2.0"
	},
	"extensionsUsed":[
		"KHR_materials_specular",
		"KHR_materials_ior"
	],
	"scene":0,
	"scenes":[
		{
			"name":"Scene",
			"nodes":[
				0,
				1,
				2
			]
		}
	],
	"nodes":[
		{
			"mesh":0,
			"name":"apple_001.006",
			"scale":[
				8.25,
				8.25,
				8.25
			],
			"translation":[
				4.869082450866699,
				3.8670907020568848,
				-6.633880138397217
			]
		},
		{
			"mesh":1,
			"name":"Cube.002",
			"scale":[
				1,
				0.5268014073371887,
				1.3792020082473755
			],
			"translation":[
				8.834734916687012,
				4.296387672424316,
				-8.259407043457031
			]
		},
		{
			"mesh":2,
			"name":"apple_001.002",
			"scale":[
				8.25,
				8.25,
				8.25
			],
			"translation":[
				9.305662155151367,
				3.8670907020568848,
				-6.633880138397217
			]
		}
	],
	"materials":[
		{
			"doubleSided":true,
			"extensions":{
				"KHR_materials_specular":{
					"specularColorFactor":[
						0.9485430717468262,
						0.9485430717468262,
						0.9485430717468262
					]
				},
				"KHR_materials_ior":{
					"ior":1.4500000476837158
				}
			},
			"name":"Material.003",
			"pbrMetallicRoughness":{
				"baseColorTexture":{
					"index":0
				},
				"metallicFactor":0,
				"roughnessFactor":0.30000001192092896
			}
		},
		{
			"doubleSided":true,
			"name":"Material.002",
			"pbrMetallicRoughness":{
				"baseColorFactor":[
					0.48288780450820923,
					0.3270036280155182,
					0.1440112143754959,
					1
				],
				"metallicFactor":0,
				"roughnessFactor":0.5
			}
		}
	],
	"meshes":[
		{
			"name":"Mesh.020",
			"primitives":[
				{
					"attributes":{
						"POSITION":0,
						"NORMAL":1,
						"TEXCOORD_0":2
					},
					"indices":3,
					"material":0
				}
			]
		},
		{
			"name":"Cube.001",
			"primitives":[
				{
					"attributes":{
						"POSITION":4,
						"NORMAL":5,
						"TEXCOORD_0":6
					},
					"indices":7,
					"material":1
				}
			]
		},
		{
			"name":"Mesh.001",
			"primitives":[
				{
					"attributes":{
						"POSITION":8,
						"NORMAL":9,
						"TEXCOORD_0":10
					},
					"indices":3,
					"material":0
				}
			]
		}
	],
	"textures":[
		{
			"sampler":0,
			"source":0
		}
	],
	"images":[
		{
			"mimeType":"image/png",
			"name":"Textures",
			"uri":"Textures.png"
		}
	],
	"accessors":[
		{
			"bufferView":0,
			"componentType":5126,
			"count":10090,
			"max":[
				0.47028690576553345,
				0.07220910489559174,
				0.04254448041319847
			],
			"min":[
				-0.04266775771975517,
				6.63039754726924e-05,
				-0.45640310645103455
			],
			"type":"VEC3"
		},
		{
			"bufferView":1,
			"componentType":5126,
			"count":10090,
			"type":"VEC3"
		},
		{
			"bufferView":2,
			"componentType":5126,
			"count":10090,
			"type":"VEC2"
		},
		{
			"bufferView":3,
			"componentType":5123,
			"count":12960,
			"type":"SCALAR"
		},
		{
			"bufferView":4,
			"componentType":5126,
			"count":72,
			"max":[
				4.597409725189209,
				1.0722384452819824,
				1.5331053733825684
			],
			"min":[
				-4.6221394538879395,
				-6.964273929595947,
				-1.536529302597046
			],
			"type":"VEC3"
		},
		{
			"bufferView":5,
			"componentType":5126,
			"count":72,
			"type":"VEC3"
		},
		{
			"bufferView":6,
			"componentType":5126,
			"count":72,
			"type":"VEC2"
		},
		{
			"bufferView":7,
			"componentType":5123,
			"count":120,
			"type":"SCALAR"
		},
		{
			"bufferView":8,
			"componentType":5126,
			"count":10090,
			"max":[
				0.47028690576553345,
				0.07220910489559174,
				0.04254448041319847
			],
			"min":[
				-0.04266775771975517,
				6.63039754726924e-05,
				-0.45640310645103455
			],
			"type":"VEC3"
		},
		{
			"bufferView":9,
			"componentType":5126,
			"count":10090,
			"type":"VEC3"
		},
		{
			"bufferView":10,
			"componentType":5126,
			"count":10090,
			"type":"VEC2"
		}
	],
	"bufferViews":[
		{
			"buffer":0,
			"byteLength":121080,
			"byteOffset":0,
			"target":34962
		},
		{
			"buffer":0,
			"byteLength":121080,
			"byteOffset":121080,
			"target":34962
		},
		{
			"buffer":0,
			"byteLength":80720,
			"byteOffset":242160,
			"target":34962
		},
		{
			"buffer":0,
			"byteLength":25920,
			"byteOffset":322880,
			"target":34963
		},
		{
			"buffer":0,
			"byteLength":864,
			"byteOffset":348800,
			"target":34962
		},
		{
			"buffer":0,
			"byteLength":864,
			"byteOffset":349664,
			"target":34962
		},
		{
			"buffer":0,
			"byteLength":576,
			"byteOffset":350528,
			"target":34962
		},
		{
			"buffer":0,
			"byteLength":240,
			"byteOffset":351104,
			"target":34963
		},
		{
			"buffer":0,
			"byteLength":121080,
			"byteOffset":351344,
			"target":34962
		},
		{
			"buffer":0,
			"byteLength":121080,
			"byteOffset":472424,
			"target":34962
		},
		{
			"buffer":0,
			"byteLength":80720,
			"byteOffset":593504,
			"target":34962
		}
	],
	"samplers":[
		{
			"magFilter":9729,
			"minFilter":9987
		}
	],
	"buffers":[
		{
			"byteLength":674224,
			"uri":"green_apple_box.bin"
		}
	]
}
