{
	"asset":{
		"generator":"Khronos glTF Blender I/O v4.2.60",
		"version":"2.0"
	},
	"scene":0,
	"scenes":[
		{
			"name":"Scene",
			"nodes":[
				0
			]
		}
	],
	"nodes":[
		{
			"mesh":0,
			"name":"carton",
			"scale":[
				3,
				3,
				3
			]
		}
	],
	"materials":[
		{
			"name":"purple.004",
			"pbrMetallicRoughness":{
				"baseColorFactor":[
					0.007454404607415199,
					0,
					0.8105001449584961,
					1
				],
				"metallicFactor":0
			}
		},
		{
			"name":"_defaultMat.004",
			"pbrMetallicRoughness":{
				"metallicFactor":0
			}
		},
		{
			"name":"white.004",
			"pbrMetallicRoughness":{
				"baseColorFactor":[
					0.8799999952316284,
					0.8899999856948853,
					0.9200000166893005,
					1
				],
				"metallicFactor":0
			}
		},
		{
			"doubleSided":true,
			"name":"Material.101",
			"pbrMetallicRoughness":{
				"baseColorFactor":[
					0.2653980851173401,
					0.2654016613960266,
					0.2654016613960266,
					1
				],
				"metallicFactor":0,
				"roughnessFactor":0.5
			}
		},
		{
			"doubleSided":true,
			"name":"Material.102",
			"pbrMetallicRoughness":{
				"baseColorFactor":[
					0.2653980851173401,
					0.2654016613960266,
					0.2654016613960266,
					1
				],
				"metallicFactor":0,
				"roughnessFactor":0.5
			}
		},
		{
			"doubleSided":true,
			"name":"Material.103",
			"pbrMetallicRoughness":{
				"baseColorFactor":[
					0.2653980851173401,
					0.2654016613960266,
					0.2654016613960266,
					1
				],
				"metallicFactor":0,
				"roughnessFactor":0.5
			}
		}
	],
	"meshes":[
		{
			"name":"carton_1",
			"primitives":[
				{
					"attributes":{
						"POSITION":0,
						"NORMAL":1,
						"TEXCOORD_0":2
					},
					"indices":3,
					"material":0
				},
				{
					"attributes":{
						"POSITION":4,
						"NORMAL":5,
						"TEXCOORD_0":6
					},
					"indices":7,
					"material":1
				},
				{
					"attributes":{
						"POSITION":8,
						"NORMAL":9,
						"TEXCOORD_0":10
					},
					"indices":11,
					"material":2
				},
				{
					"attributes":{
						"POSITION":12,
						"NORMAL":13,
						"TEXCOORD_0":14
					},
					"indices":15,
					"material":3
				},
				{
					"attributes":{
						"POSITION":16,
						"NORMAL":17,
						"TEXCOORD_0":18
					},
					"indices":19,
					"material":4
				},
				{
					"attributes":{
						"POSITION":20,
						"NORMAL":21,
						"TEXCOORD_0":22
					},
					"indices":19,
					"material":5
				}
			]
		}
	],
	"accessors":[
		{
			"bufferView":0,
			"componentType":5126,
			"count":3240,
			"max":[
				0.5624779462814331,
				1.4290090799331665,
				1.1842775344848633
			],
			"min":[
				0.332477867603302,
				-1.5209301710128784,
				-1.2203929424285889
			],
			"type":"VEC3"
		},
		{
			"bufferView":1,
			"componentType":5126,
			"count":3240,
			"type":"VEC3"
		},
		{
			"bufferView":2,
			"componentType":5126,
			"count":3240,
			"type":"VEC2"
		},
		{
			"bufferView":3,
			"componentType":5123,
			"count":5880,
			"type":"SCALAR"
		},
		{
			"bufferView":4,
			"componentType":5126,
			"count":3642,
			"max":[
				0.5624779462814331,
				1.4412389993667603,
				1.1842775344848633
			],
			"min":[
				0.332477867603302,
				-1.480930209159851,
				-1.2203929424285889
			],
			"type":"VEC3"
		},
		{
			"bufferView":5,
			"componentType":5126,
			"count":3642,
			"type":"VEC3"
		},
		{
			"bufferView":6,
			"componentType":5126,
			"count":3642,
			"type":"VEC2"
		},
		{
			"bufferView":7,
			"componentType":5123,
			"count":4440,
			"type":"SCALAR"
		},
		{
			"bufferView":8,
			"componentType":5126,
			"count":480,
			"max":[
				0.44747796654701233,
				1.4817854166030884,
				1.1842775344848633
			],
			"min":[
				0.4474778473377228,
				-0.9709302186965942,
				-1.2203929424285889
			],
			"type":"VEC3"
		},
		{
			"bufferView":9,
			"componentType":5126,
			"count":480,
			"type":"VEC3"
		},
		{
			"bufferView":10,
			"componentType":5126,
			"count":480,
			"type":"VEC2"
		},
		{
			"bufferView":11,
			"componentType":5123,
			"count":960,
			"type":"SCALAR"
		},
		{
			"bufferView":12,
			"componentType":5126,
			"count":144,
			"max":[
				0.7511759996414185,
				1.7314659357070923,
				1.3835111856460571
			],
			"min":[
				-0.5936628580093384,
				-1.695203423500061,
				-1.3954758644104004
			],
			"type":"VEC3"
		},
		{
			"bufferView":13,
			"componentType":5126,
			"count":144,
			"type":"VEC3"
		},
		{
			"bufferView":14,
			"componentType":5126,
			"count":144,
			"type":"VEC2"
		},
		{
			"bufferView":15,
			"componentType":5123,
			"count":216,
			"type":"SCALAR"
		},
		{
			"bufferView":16,
			"componentType":5126,
			"count":24,
			"max":[
				0.6749380826950073,
				-0.7685913443565369,
				1.3427865505218506
			],
			"min":[
				-0.525061845779419,
				-0.9419246315956116,
				-1.3238801956176758
			],
			"type":"VEC3"
		},
		{
			"bufferView":17,
			"componentType":5126,
			"count":24,
			"type":"VEC3"
		},
		{
			"bufferView":18,
			"componentType":5126,
			"count":24,
			"type":"VEC2"
		},
		{
			"bufferView":19,
			"componentType":5123,
			"count":36,
			"type":"SCALAR"
		},
		{
			"bufferView":20,
			"componentType":5126,
			"count":24,
			"max":[
				0.6749380826950073,
				0.06474203616380692,
				1.3427865505218506
			],
			"min":[
				-0.5250620245933533,
				-0.10859125107526779,
				-1.3238801956176758
			],
			"type":"VEC3"
		},
		{
			"bufferView":21,
			"componentType":5126,
			"count":24,
			"type":"VEC3"
		},
		{
			"bufferView":22,
			"componentType":5126,
			"count":24,
			"type":"VEC2"
		}
	],
	"bufferViews":[
		{
			"buffer":0,
			"byteLength":38880,
			"byteOffset":0,
			"target":34962
		},
		{
			"buffer":0,
			"byteLength":38880,
			"byteOffset":38880,
			"target":34962
		},
		{
			"buffer":0,
			"byteLength":25920,
			"byteOffset":77760,
			"target":34962
		},
		{
			"buffer":0,
			"byteLength":11760,
			"byteOffset":103680,
			"target":34963
		},
		{
			"buffer":0,
			"byteLength":43704,
			"byteOffset":115440,
			"target":34962
		},
		{
			"buffer":0,
			"byteLength":43704,
			"byteOffset":159144,
			"target":34962
		},
		{
			"buffer":0,
			"byteLength":29136,
			"byteOffset":202848,
			"target":34962
		},
		{
			"buffer":0,
			"byteLength":8880,
			"byteOffset":231984,
			"target":34963
		},
		{
			"buffer":0,
			"byteLength":5760,
			"byteOffset":240864,
			"target":34962
		},
		{
			"buffer":0,
			"byteLength":5760,
			"byteOffset":246624,
			"target":34962
		},
		{
			"buffer":0,
			"byteLength":3840,
			"byteOffset":252384,
			"target":34962
		},
		{
			"buffer":0,
			"byteLength":1920,
			"byteOffset":256224,
			"target":34963
		},
		{
			"buffer":0,
			"byteLength":1728,
			"byteOffset":258144,
			"target":34962
		},
		{
			"buffer":0,
			"byteLength":1728,
			"byteOffset":259872,
			"target":34962
		},
		{
			"buffer":0,
			"byteLength":1152,
			"byteOffset":261600,
			"target":34962
		},
		{
			"buffer":0,
			"byteLength":432,
			"byteOffset":262752,
			"target":34963
		},
		{
			"buffer":0,
			"byteLength":288,
			"byteOffset":263184,
			"target":34962
		},
		{
			"buffer":0,
			"byteLength":288,
			"byteOffset":263472,
			"target":34962
		},
		{
			"buffer":0,
			"byteLength":192,
			"byteOffset":263760,
			"target":34962
		},
		{
			"buffer":0,
			"byteLength":72,
			"byteOffset":263952,
			"target":34963
		},
		{
			"buffer":0,
			"byteLength":288,
			"byteOffset":264024,
			"target":34962
		},
		{
			"buffer":0,
			"byteLength":288,
			"byteOffset":264312,
			"target":34962
		},
		{
			"buffer":0,
			"byteLength":192,
			"byteOffset":264600,
			"target":34962
		}
	],
	"buffers":[
		{
			"byteLength":264792,
			"uri":"full_milk_shelf.bin"
		}
	]
}
