{
	"asset":{
		"generator":"Khronos glTF Blender I/O v4.2.60",
		"version":"2.0"
	},
	"scene":0,
	"scenes":[
		{
			"name":"Scene",
			"nodes":[
				0,
				1,
				2,
				3,
				4
			]
		}
	],
	"nodes":[
		{
			"mesh":0,
			"name":"Cube.001",
			"scale":[
				0.26000070571899414,
				5,
				4.150003433227539
			],
			"translation":[
				1.5434083938598633,
				4.965046405792236,
				-8.809577941894531
			]
		},
		{
			"mesh":1,
			"name":"Cube.004",
			"rotation":[
				0,
				-0.9999383091926575,
				0,
				0.011110425926744938
			],
			"scale":[
				0.3271656632423401,
				0.8472550511360168,
				0.5357252955436707
			],
			"translation":[
				4.566591739654541,
				1.1054538488388062,
				-11.642861366271973
			]
		},
		{
			"mesh":2,
			"name":"Cube.005",
			"rotation":[
				0,
				-0.9999383091926575,
				0,
				0.011110425926744938
			],
			"scale":[
				0.3271656632423401,
				0.8472550511360168,
				0.5357252955436707
			],
			"translation":[
				4.566591739654541,
				3.3662445545196533,
				-11.642861366271973
			]
		},
		{
			"mesh":3,
			"name":"Cube.006",
			"rotation":[
				0,
				-0.9999383091926575,
				0,
				0.011110425926744938
			],
			"scale":[
				0.3271656632423401,
				0.8472550511360168,
				0.5357252955436707
			],
			"translation":[
				4.566591739654541,
				5.856970310211182,
				-11.642861366271973
			]
		},
		{
			"mesh":4,
			"name":"Cube.007",
			"rotation":[
				0,
				-0.9999383091926575,
				0,
				0.011110425926744938
			],
			"scale":[
				0.3271656632423401,
				0.8472550511360168,
				0.5357252955436707
			],
			"translation":[
				4.566591739654541,
				8.362560272216797,
				-11.642861366271973
			]
		}
	],
	"materials":[
		{
			"doubleSided":true,
			"name":"Material.001",
			"pbrMetallicRoughness":{
				"baseColorFactor":[
					0.2653980851173401,
					0.2654016613960266,
					0.2654016613960266,
					1
				],
				"metallicFactor":0,
				"roughnessFactor":0.5
			}
		},
		{
			"doubleSided":true,
			"name":"Material.002",
			"pbrMetallicRoughness":{
				"baseColorFactor":[
					0.2653980851173401,
					0.2654016613960266,
					0.2654016613960266,
					1
				],
				"metallicFactor":0,
				"roughnessFactor":0.5
			}
		},
		{
			"doubleSided":true,
			"name":"Material.003",
			"pbrMetallicRoughness":{
				"baseColorTexture":{
					"index":0
				},
				"metallicFactor":0,
				"roughnessFactor":0.5
			}
		}
	],
	"meshes":[
		{
			"name":"Cube.022",
			"primitives":[
				{
					"attributes":{
						"POSITION":0,
						"NORMAL":1,
						"TEXCOORD_0":2
					},
					"indices":3,
					"material":0
				},
				{
					"attributes":{
						"POSITION":4,
						"NORMAL":5,
						"TEXCOORD_0":6
					},
					"indices":7,
					"material":1
				}
			]
		},
		{
			"name":"Cube.025",
			"primitives":[
				{
					"attributes":{
						"POSITION":8,
						"NORMAL":9,
						"TEXCOORD_0":10
					},
					"indices":11,
					"material":2
				}
			]
		},
		{
			"name":"Cube.026",
			"primitives":[
				{
					"attributes":{
						"POSITION":12,
						"NORMAL":13,
						"TEXCOORD_0":14
					},
					"indices":11,
					"material":2
				}
			]
		},
		{
			"name":"Cube.038",
			"primitives":[
				{
					"attributes":{
						"POSITION":15,
						"NORMAL":16,
						"TEXCOORD_0":17
					},
					"indices":11,
					"material":2
				}
			]
		},
		{
			"name":"Cube.039",
			"primitives":[
				{
					"attributes":{
						"POSITION":18,
						"NORMAL":19,
						"TEXCOORD_0":20
					},
					"indices":11,
					"material":2
				}
			]
		}
	],
	"textures":[
		{
			"sampler":0,
			"source":0
		}
	],
	"images":[
		{
			"mimeType":"image/jpeg",
			"name":"cereal1",
			"uri":"cereal1.jpg"
		}
	],
	"accessors":[
		{
			"bufferView":0,
			"componentType":5126,
			"count":144,
			"max":[
				14.517328262329102,
				1.0090248584747314,
				1.0012296438217163
			],
			"min":[
				-1,
				-1.0469765663146973,
				-1.0076749324798584
			],
			"type":"VEC3"
		},
		{
			"bufferView":1,
			"componentType":5126,
			"count":144,
			"type":"VEC3"
		},
		{
			"bufferView":2,
			"componentType":5126,
			"count":144,
			"type":"VEC2"
		},
		{
			"bufferView":3,
			"componentType":5123,
			"count":216,
			"type":"SCALAR"
		},
		{
			"bufferView":4,
			"componentType":5126,
			"count":48,
			"max":[
				13.637662887573242,
				0.008990716189146042,
				0.9717901349067688
			],
			"min":[
				-0.20845460891723633,
				-0.5950092673301697,
				-0.955919086933136
			],
			"type":"VEC3"
		},
		{
			"bufferView":5,
			"componentType":5126,
			"count":48,
			"type":"VEC3"
		},
		{
			"bufferView":6,
			"componentType":5126,
			"count":48,
			"type":"VEC2"
		},
		{
			"bufferView":7,
			"componentType":5123,
			"count":72,
			"type":"SCALAR"
		},
		{
			"bufferView":8,
			"componentType":5126,
			"count":144,
			"max":[
				1.3055200576782227,
				1,
				1
			],
			"min":[
				-1.0570945739746094,
				-1.006140947341919,
				-11.502922058105469
			],
			"type":"VEC3"
		},
		{
			"bufferView":9,
			"componentType":5126,
			"count":144,
			"type":"VEC3"
		},
		{
			"bufferView":10,
			"componentType":5126,
			"count":144,
			"type":"VEC2"
		},
		{
			"bufferView":11,
			"componentType":5123,
			"count":216,
			"type":"SCALAR"
		},
		{
			"bufferView":12,
			"componentType":5126,
			"count":144,
			"max":[
				1.3055200576782227,
				1,
				1
			],
			"min":[
				-1.0570945739746094,
				-1.006140947341919,
				-11.502922058105469
			],
			"type":"VEC3"
		},
		{
			"bufferView":13,
			"componentType":5126,
			"count":144,
			"type":"VEC3"
		},
		{
			"bufferView":14,
			"componentType":5126,
			"count":144,
			"type":"VEC2"
		},
		{
			"bufferView":15,
			"componentType":5126,
			"count":144,
			"max":[
				1.3055200576782227,
				1,
				1
			],
			"min":[
				-1.0570945739746094,
				-1.006140947341919,
				-11.502922058105469
			],
			"type":"VEC3"
		},
		{
			"bufferView":16,
			"componentType":5126,
			"count":144,
			"type":"VEC3"
		},
		{
			"bufferView":17,
			"componentType":5126,
			"count":144,
			"type":"VEC2"
		},
		{
			"bufferView":18,
			"componentType":5126,
			"count":144,
			"max":[
				1.3055200576782227,
				1,
				1
			],
			"min":[
				-1.0570945739746094,
				-1.006140947341919,
				-11.502922058105469
			],
			"type":"VEC3"
		},
		{
			"bufferView":19,
			"componentType":5126,
			"count":144,
			"type":"VEC3"
		},
		{
			"bufferView":20,
			"componentType":5126,
			"count":144,
			"type":"VEC2"
		}
	],
	"bufferViews":[
		{
			"buffer":0,
			"byteLength":1728,
			"byteOffset":0,
			"target":34962
		},
		{
			"buffer":0,
			"byteLength":1728,
			"byteOffset":1728,
			"target":34962
		},
		{
			"buffer":0,
			"byteLength":1152,
			"byteOffset":3456,
			"target":34962
		},
		{
			"buffer":0,
			"byteLength":432,
			"byteOffset":4608,
			"target":34963
		},
		{
			"buffer":0,
			"byteLength":576,
			"byteOffset":5040,
			"target":34962
		},
		{
			"buffer":0,
			"byteLength":576,
			"byteOffset":5616,
			"target":34962
		},
		{
			"buffer":0,
			"byteLength":384,
			"byteOffset":6192,
			"target":34962
		},
		{
			"buffer":0,
			"byteLength":144,
			"byteOffset":6576,
			"target":34963
		},
		{
			"buffer":0,
			"byteLength":1728,
			"byteOffset":6720,
			"target":34962
		},
		{
			"buffer":0,
			"byteLength":1728,
			"byteOffset":8448,
			"target":34962
		},
		{
			"buffer":0,
			"byteLength":1152,
			"byteOffset":10176,
			"target":34962
		},
		{
			"buffer":0,
			"byteLength":432,
			"byteOffset":11328,
			"target":34963
		},
		{
			"buffer":0,
			"byteLength":1728,
			"byteOffset":11760,
			"target":34962
		},
		{
			"buffer":0,
			"byteLength":1728,
			"byteOffset":13488,
			"target":34962
		},
		{
			"buffer":0,
			"byteLength":1152,
			"byteOffset":15216,
			"target":34962
		},
		{
			"buffer":0,
			"byteLength":1728,
			"byteOffset":16368,
			"target":34962
		},
		{
			"buffer":0,
			"byteLength":1728,
			"byteOffset":18096,
			"target":34962
		},
		{
			"buffer":0,
			"byteLength":1152,
			"byteOffset":19824,
			"target":34962
		},
		{
			"buffer":0,
			"byteLength":1728,
			"byteOffset":20976,
			"target":34962
		},
		{
			"buffer":0,
			"byteLength":1728,
			"byteOffset":22704,
			"target":34962
		},
		{
			"buffer":0,
			"byteLength":1152,
			"byteOffset":24432,
			"target":34962
		}
	],
	"samplers":[
		{
			"magFilter":9729,
			"minFilter":9987
		}
	],
	"buffers":[
		{
			"byteLength":25584,
			"uri":"yellow_cereal_shelf.bin"
		}
	]
}
