{
	"asset":{
		"generator":"Khronos glTF Blender I/O v4.2.60",
		"version":"2.0"
	},
	"scene":0,
	"scenes":[
		{
			"name":"Scene",
			"nodes":[
				0
			]
		}
	],
	"nodes":[
		{
			"mesh":0,
			"name":"Cylinder.003",
			"rotation":[
				1,
				0,
				0,
				0
			],
			"scale":[
				0.5,
				0.5,
				0.5
			]
		}
	],
	"materials":[
		{
			"doubleSided":true,
			"name":"Material.040",
			"pbrMetallicRoughness":{
				"baseColorTexture":{
					"index":0
				},
				"metallicFactor":0,
				"roughnessFactor":0.5
			}
		},
		{
			"doubleSided":true,
			"name":"Material.041",
			"pbrMetallicRoughness":{
				"baseColorFactor":[
					0.2653980851173401,
					0.2654016613960266,
					0.2654016613960266,
					1
				],
				"metallicFactor":0,
				"roughnessFactor":0.5
			}
		},
		{
			"doubleSided":true,
			"name":"Material.042",
			"pbrMetallicRoughness":{
				"baseColorFactor":[
					0.2653980851173401,
					0.2654016613960266,
					0.2654016613960266,
					1
				],
				"metallicFactor":0,
				"roughnessFactor":0.5
			}
		},
		{
			"doubleSided":true,
			"name":"Material.043",
			"pbrMetallicRoughness":{
				"baseColorFactor":[
					0.2653980851173401,
					0.2654016613960266,
					0.2654016613960266,
					1
				],
				"metallicFactor":0,
				"roughnessFactor":0.5
			}
		}
	],
	"meshes":[
		{
			"name":"Cylinder.001",
			"primitives":[
				{
					"attributes":{
						"POSITION":0,
						"NORMAL":1,
						"TEXCOORD_0":2
					},
					"indices":3,
					"material":0
				},
				{
					"attributes":{
						"POSITION":4,
						"NORMAL":5,
						"TEXCOORD_0":6
					},
					"indices":7,
					"material":1
				},
				{
					"attributes":{
						"POSITION":8,
						"NORMAL":9,
						"TEXCOORD_0":10
					},
					"indices":11,
					"material":2
				},
				{
					"attributes":{
						"POSITION":12,
						"NORMAL":13,
						"TEXCOORD_0":14
					},
					"indices":11,
					"material":3
				}
			]
		}
	],
	"textures":[
		{
			"sampler":0,
			"source":0
		}
	],
	"images":[
		{
			"mimeType":"image/jpeg",
			"name":"canOrange",
			"uri":"canOrange.jpg"
		}
	],
	"accessors":[
		{
			"bufferView":0,
			"componentType":5126,
			"count":4546,
			"max":[
				0.9848077297210693,
				10.98880672454834,
				0.9396926164627075
			],
			"min":[
				-0.9848077297210693,
				-5.501411437988281,
				-13.182418823242188
			],
			"type":"VEC3"
		},
		{
			"bufferView":1,
			"componentType":5126,
			"count":4546,
			"type":"VEC3"
		},
		{
			"bufferView":2,
			"componentType":5126,
			"count":4546,
			"type":"VEC2"
		},
		{
			"bufferView":3,
			"componentType":5123,
			"count":8736,
			"type":"SCALAR"
		},
		{
			"bufferView":4,
			"componentType":5126,
			"count":144,
			"max":[
				2.4733166694641113,
				14.013909339904785,
				2.227691650390625
			],
			"min":[
				-5.59571647644043,
				-6.546104431152344,
				-14.446228981018066
			],
			"type":"VEC3"
		},
		{
			"bufferView":5,
			"componentType":5126,
			"count":144,
			"type":"VEC3"
		},
		{
			"bufferView":6,
			"componentType":5126,
			"count":144,
			"type":"VEC2"
		},
		{
			"bufferView":7,
			"componentType":5123,
			"count":216,
			"type":"SCALAR"
		},
		{
			"bufferView":8,
			"componentType":5126,
			"count":24,
			"max":[
				2.0158889293670654,
				-0.9864330291748047,
				1.9833440780639648
			],
			"min":[
				-5.184111595153809,
				-2.026432991027832,
				-14.016658782958984
			],
			"type":"VEC3"
		},
		{
			"bufferView":9,
			"componentType":5126,
			"count":24,
			"type":"VEC3"
		},
		{
			"bufferView":10,
			"componentType":5126,
			"count":24,
			"type":"VEC2"
		},
		{
			"bufferView":11,
			"componentType":5123,
			"count":36,
			"type":"SCALAR"
		},
		{
			"bufferView":12,
			"componentType":5126,
			"count":24,
			"max":[
				2.0158889293670654,
				4.013566970825195,
				1.9833440780639648
			],
			"min":[
				-5.184112548828125,
				2.973567008972168,
				-14.016658782958984
			],
			"type":"VEC3"
		},
		{
			"bufferView":13,
			"componentType":5126,
			"count":24,
			"type":"VEC3"
		},
		{
			"bufferView":14,
			"componentType":5126,
			"count":24,
			"type":"VEC2"
		}
	],
	"bufferViews":[
		{
			"buffer":0,
			"byteLength":54552,
			"byteOffset":0,
			"target":34962
		},
		{
			"buffer":0,
			"byteLength":54552,
			"byteOffset":54552,
			"target":34962
		},
		{
			"buffer":0,
			"byteLength":36368,
			"byteOffset":109104,
			"target":34962
		},
		{
			"buffer":0,
			"byteLength":17472,
			"byteOffset":145472,
			"target":34963
		},
		{
			"buffer":0,
			"byteLength":1728,
			"byteOffset":162944,
			"target":34962
		},
		{
			"buffer":0,
			"byteLength":1728,
			"byteOffset":164672,
			"target":34962
		},
		{
			"buffer":0,
			"byteLength":1152,
			"byteOffset":166400,
			"target":34962
		},
		{
			"buffer":0,
			"byteLength":432,
			"byteOffset":167552,
			"target":34963
		},
		{
			"buffer":0,
			"byteLength":288,
			"byteOffset":167984,
			"target":34962
		},
		{
			"buffer":0,
			"byteLength":288,
			"byteOffset":168272,
			"target":34962
		},
		{
			"buffer":0,
			"byteLength":192,
			"byteOffset":168560,
			"target":34962
		},
		{
			"buffer":0,
			"byteLength":72,
			"byteOffset":168752,
			"target":34963
		},
		{
			"buffer":0,
			"byteLength":288,
			"byteOffset":168824,
			"target":34962
		},
		{
			"buffer":0,
			"byteLength":288,
			"byteOffset":169112,
			"target":34962
		},
		{
			"buffer":0,
			"byteLength":192,
			"byteOffset":169400,
			"target":34962
		}
	],
	"samplers":[
		{
			"magFilter":9729,
			"minFilter":9987
		}
	],
	"buffers":[
		{
			"byteLength":169592,
			"uri":"carrot_cans_shelf.bin"
		}
	]
}
