{
	"asset":{
		"generator":"Khronos glTF Blender I/O v4.2.60",
		"version":"2.0"
	},
	"scene":0,
	"scenes":[
		{
			"name":"Scene",
			"nodes":[
				0,
				1,
				2,
				3,
				4
			]
		}
	],
	"nodes":[
		{
			"mesh":0,
			"name":"Cylinder.001",
			"scale":[
				0.5,
				0.5,
				0.5
			],
			"translation":[
				4.081267356872559,
				3.0032167434692383,
				-14.573932647705078
			]
		},
		{
			"mesh":1,
			"name":"Cube.002",
			"scale":[
				2,
				0.25999999046325684,
				4
			],
			"translation":[
				3.289212465286255,
				9.741945266723633,
				-17.59074592590332
			]
		},
		{
			"mesh":2,
			"name":"Cylinder.007",
			"scale":[
				0.5,
				0.5,
				0.5
			],
			"translation":[
				4.081267356872559,
				0.7525108456611633,
				-14.573932647705078
			]
		},
		{
			"mesh":3,
			"name":"Cylinder.008",
			"scale":[
				0.5,
				0.5,
				0.5
			],
			"translation":[
				4.081267356872559,
				5.497962951660156,
				-14.573932647705078
			]
		},
		{
			"mesh":4,
			"name":"Cylinder.009",
			"scale":[
				0.5,
				0.5,
				0.5
			],
			"translation":[
				4.081267356872559,
				7.997620105743408,
				-14.573932647705078
			]
		}
	],
	"materials":[
		{
			"doubleSided":true,
			"name":"Material.007",
			"pbrMetallicRoughness":{
				"baseColorTexture":{
					"index":0
				},
				"metallicFactor":0,
				"roughnessFactor":0.5
			}
		},
		{
			"doubleSided":true,
			"name":"Material.008",
			"pbrMetallicRoughness":{
				"baseColorFactor":[
					0.2653980851173401,
					0.2654016613960266,
					0.2654016613960266,
					1
				],
				"metallicFactor":0,
				"roughnessFactor":0.5
			}
		},
		{
			"doubleSided":true,
			"name":"Material.009",
			"pbrMetallicRoughness":{
				"baseColorFactor":[
					0.2653980851173401,
					0.2654016613960266,
					0.2654016613960266,
					1
				],
				"metallicFactor":0,
				"roughnessFactor":0.5
			}
		},
		{
			"doubleSided":true,
			"name":"Material.010",
			"pbrMetallicRoughness":{
				"baseColorFactor":[
					0.2653980851173401,
					0.2654016613960266,
					0.2654016613960266,
					1
				],
				"metallicFactor":0,
				"roughnessFactor":0.5
			}
		}
	],
	"meshes":[
		{
			"name":"Cylinder.001",
			"primitives":[
				{
					"attributes":{
						"POSITION":0,
						"NORMAL":1,
						"TEXCOORD_0":2
					},
					"indices":3,
					"material":0
				}
			]
		},
		{
			"name":"Cube.007",
			"primitives":[
				{
					"attributes":{
						"POSITION":4,
						"NORMAL":5,
						"TEXCOORD_0":6
					},
					"indices":7,
					"material":1
				},
				{
					"attributes":{
						"POSITION":8,
						"NORMAL":9,
						"TEXCOORD_0":10
					},
					"indices":11,
					"material":2
				},
				{
					"attributes":{
						"POSITION":12,
						"NORMAL":13,
						"TEXCOORD_0":14
					},
					"indices":11,
					"material":3
				}
			]
		},
		{
			"name":"Cylinder.008",
			"primitives":[
				{
					"attributes":{
						"POSITION":15,
						"NORMAL":16,
						"TEXCOORD_0":17
					},
					"indices":3,
					"material":0
				}
			]
		},
		{
			"name":"Cylinder.009",
			"primitives":[
				{
					"attributes":{
						"POSITION":18,
						"NORMAL":19,
						"TEXCOORD_0":20
					},
					"indices":3,
					"material":0
				}
			]
		},
		{
			"name":"Cylinder.010",
			"primitives":[
				{
					"attributes":{
						"POSITION":21,
						"NORMAL":22,
						"TEXCOORD_0":23
					},
					"indices":3,
					"material":0
				}
			]
		}
	],
	"textures":[
		{
			"sampler":0,
			"source":0
		}
	],
	"images":[
		{
			"mimeType":"image/jpeg",
			"name":"canOrange",
			"uri":"canOrange.jpg"
		}
	],
	"accessors":[
		{
			"bufferView":0,
			"componentType":5126,
			"count":1134,
			"max":[
				0.9848077297210693,
				1,
				0.9396926164627075
			],
			"min":[
				-0.9848077297210693,
				-1,
				-13.182418823242188
			],
			"type":"VEC3"
		},
		{
			"bufferView":1,
			"componentType":5126,
			"count":1134,
			"type":"VEC3"
		},
		{
			"bufferView":2,
			"componentType":5126,
			"count":1134,
			"type":"VEC2"
		},
		{
			"bufferView":3,
			"componentType":5123,
			"count":2184,
			"type":"SCALAR"
		},
		{
			"bufferView":4,
			"componentType":5126,
			"count":144,
			"max":[
				1.0143557786941528,
				1.0316390991210938,
				1.0326642990112305
			],
			"min":[
				-1.0029025077819824,
				-38.50685119628906,
				-1.051575779914856
			],
			"type":"VEC3"
		},
		{
			"bufferView":5,
			"componentType":5126,
			"count":144,
			"type":"VEC3"
		},
		{
			"bufferView":6,
			"componentType":5126,
			"count":144,
			"type":"VEC2"
		},
		{
			"bufferView":7,
			"componentType":5123,
			"count":216,
			"type":"SCALAR"
		},
		{
			"bufferView":8,
			"componentType":5126,
			"count":24,
			"max":[
				0.8999988436698914,
				-27.815174102783203,
				1.002120852470398
			],
			"min":[
				-0.9000012874603271,
				-29.815174102783203,
				-0.9978795051574707
			],
			"type":"VEC3"
		},
		{
			"bufferView":9,
			"componentType":5126,
			"count":24,
			"type":"VEC3"
		},
		{
			"bufferView":10,
			"componentType":5126,
			"count":24,
			"type":"VEC2"
		},
		{
			"bufferView":11,
			"componentType":5123,
			"count":36,
			"type":"SCALAR"
		},
		{
			"bufferView":12,
			"componentType":5126,
			"count":24,
			"max":[
				0.8999988436698914,
				-18.19978904724121,
				1.002120852470398
			],
			"min":[
				-0.9000015258789062,
				-20.19978904724121,
				-0.9978795051574707
			],
			"type":"VEC3"
		},
		{
			"bufferView":13,
			"componentType":5126,
			"count":24,
			"type":"VEC3"
		},
		{
			"bufferView":14,
			"componentType":5126,
			"count":24,
			"type":"VEC2"
		},
		{
			"bufferView":15,
			"componentType":5126,
			"count":1134,
			"max":[
				0.9848077297210693,
				1,
				0.9396926164627075
			],
			"min":[
				-0.9848077297210693,
				-1,
				-13.182418823242188
			],
			"type":"VEC3"
		},
		{
			"bufferView":16,
			"componentType":5126,
			"count":1134,
			"type":"VEC3"
		},
		{
			"bufferView":17,
			"componentType":5126,
			"count":1134,
			"type":"VEC2"
		},
		{
			"bufferView":18,
			"componentType":5126,
			"count":1134,
			"max":[
				0.9848077297210693,
				1,
				0.9396926164627075
			],
			"min":[
				-0.9848077297210693,
				-1,
				-13.182418823242188
			],
			"type":"VEC3"
		},
		{
			"bufferView":19,
			"componentType":5126,
			"count":1134,
			"type":"VEC3"
		},
		{
			"bufferView":20,
			"componentType":5126,
			"count":1134,
			"type":"VEC2"
		},
		{
			"bufferView":21,
			"componentType":5126,
			"count":1134,
			"max":[
				0.9848077297210693,
				1,
				0.9396926164627075
			],
			"min":[
				-0.9848077297210693,
				-1,
				-13.182418823242188
			],
			"type":"VEC3"
		},
		{
			"bufferView":22,
			"componentType":5126,
			"count":1134,
			"type":"VEC3"
		},
		{
			"bufferView":23,
			"componentType":5126,
			"count":1134,
			"type":"VEC2"
		}
	],
	"bufferViews":[
		{
			"buffer":0,
			"byteLength":13608,
			"byteOffset":0,
			"target":34962
		},
		{
			"buffer":0,
			"byteLength":13608,
			"byteOffset":13608,
			"target":34962
		},
		{
			"buffer":0,
			"byteLength":9072,
			"byteOffset":27216,
			"target":34962
		},
		{
			"buffer":0,
			"byteLength":4368,
			"byteOffset":36288,
			"target":34963
		},
		{
			"buffer":0,
			"byteLength":1728,
			"byteOffset":40656,
			"target":34962
		},
		{
			"buffer":0,
			"byteLength":1728,
			"byteOffset":42384,
			"target":34962
		},
		{
			"buffer":0,
			"byteLength":1152,
			"byteOffset":44112,
			"target":34962
		},
		{
			"buffer":0,
			"byteLength":432,
			"byteOffset":45264,
			"target":34963
		},
		{
			"buffer":0,
			"byteLength":288,
			"byteOffset":45696,
			"target":34962
		},
		{
			"buffer":0,
			"byteLength":288,
			"byteOffset":45984,
			"target":34962
		},
		{
			"buffer":0,
			"byteLength":192,
			"byteOffset":46272,
			"target":34962
		},
		{
			"buffer":0,
			"byteLength":72,
			"byteOffset":46464,
			"target":34963
		},
		{
			"buffer":0,
			"byteLength":288,
			"byteOffset":46536,
			"target":34962
		},
		{
			"buffer":0,
			"byteLength":288,
			"byteOffset":46824,
			"target":34962
		},
		{
			"buffer":0,
			"byteLength":192,
			"byteOffset":47112,
			"target":34962
		},
		{
			"buffer":0,
			"byteLength":13608,
			"byteOffset":47304,
			"target":34962
		},
		{
			"buffer":0,
			"byteLength":13608,
			"byteOffset":60912,
			"target":34962
		},
		{
			"buffer":0,
			"byteLength":9072,
			"byteOffset":74520,
			"target":34962
		},
		{
			"buffer":0,
			"byteLength":13608,
			"byteOffset":83592,
			"target":34962
		},
		{
			"buffer":0,
			"byteLength":13608,
			"byteOffset":97200,
			"target":34962
		},
		{
			"buffer":0,
			"byteLength":9072,
			"byteOffset":110808,
			"target":34962
		},
		{
			"buffer":0,
			"byteLength":13608,
			"byteOffset":119880,
			"target":34962
		},
		{
			"buffer":0,
			"byteLength":13608,
			"byteOffset":133488,
			"target":34962
		},
		{
			"buffer":0,
			"byteLength":9072,
			"byteOffset":147096,
			"target":34962
		}
	],
	"samplers":[
		{
			"magFilter":9729,
			"minFilter":9987
		}
	],
	"buffers":[
		{
			"byteLength":156168,
			"uri":"carrots_cans_shelf.bin"
		}
	]
}
