{
	"asset":{
		"generator":"Khronos glTF Blender I/O v4.2.60",
		"version":"2.0"
	},
	"scene":0,
	"scenes":[
		{
			"name":"Scene",
			"nodes":[
				0
			]
		}
	],
	"nodes":[
		{
			"mesh":0,
			"name":"Cube.020",
			"scale":[
				0.3271656632423401,
				0.8472550511360168,
				0.5357252955436707
			]
		}
	],
	"materials":[
		{
			"doubleSided":true,
			"name":"Material.089",
			"pbrMetallicRoughness":{
				"baseColorTexture":{
					"index":0
				},
				"metallicFactor":0,
				"roughnessFactor":0.5
			}
		},
		{
			"doubleSided":true,
			"name":"Material.090",
			"pbrMetallicRoughness":{
				"baseColorFactor":[
					0.2653980851173401,
					0.2654016613960266,
					0.2654016613960266,
					1
				],
				"metallicFactor":0,
				"roughnessFactor":0.5
			}
		},
		{
			"doubleSided":true,
			"name":"Material.091",
			"pbrMetallicRoughness":{
				"baseColorFactor":[
					0.2653980851173401,
					0.2654016613960266,
					0.2654016613960266,
					1
				],
				"metallicFactor":0,
				"roughnessFactor":0.5
			}
		}
	],
	"meshes":[
		{
			"name":"Cube.040",
			"primitives":[
				{
					"attributes":{
						"POSITION":0,
						"NORMAL":1,
						"TEXCOORD_0":2
					},
					"indices":3,
					"material":0
				},
				{
					"attributes":{
						"POSITION":4,
						"NORMAL":5,
						"TEXCOORD_0":6
					},
					"indices":7,
					"material":1
				},
				{
					"attributes":{
						"POSITION":8,
						"NORMAL":9,
						"TEXCOORD_0":10
					},
					"indices":11,
					"material":2
				}
			]
		}
	],
	"textures":[
		{
			"sampler":0,
			"source":0
		}
	],
	"images":[
		{
			"mimeType":"image/jpeg",
			"name":"cereal2",
			"uri":"cereal2.jpg"
		}
	],
	"accessors":[
		{
			"bufferView":0,
			"componentType":5126,
			"count":576,
			"max":[
				-2.566042423248291,
				5.166747093200684,
				6.3253655433654785
			],
			"min":[
				-4.950502872467041,
				-5.381514549255371,
				-6.2388129234313965
			],
			"type":"VEC3"
		},
		{
			"bufferView":1,
			"componentType":5126,
			"count":576,
			"type":"VEC3"
		},
		{
			"bufferView":2,
			"componentType":5126,
			"count":576,
			"type":"VEC2"
		},
		{
			"bufferView":3,
			"componentType":5123,
			"count":864,
			"type":"SCALAR"
		},
		{
			"bufferView":4,
			"componentType":5126,
			"count":144,
			"max":[
				6.347091197967529,
				6.132411003112793,
				7.8974289894104
			],
			"min":[
				-6.54718542098999,
				-6.00089693069458,
				-7.826615810394287
			],
			"type":"VEC3"
		},
		{
			"bufferView":5,
			"componentType":5126,
			"count":144,
			"type":"VEC3"
		},
		{
			"bufferView":6,
			"componentType":5126,
			"count":144,
			"type":"VEC2"
		},
		{
			"bufferView":7,
			"componentType":5123,
			"count":216,
			"type":"SCALAR"
		},
		{
			"bufferView":8,
			"componentType":5126,
			"count":48,
			"max":[
				5.710249423980713,
				0.23079967498779297,
				7.489496231079102
			],
			"min":[
				-5.833953380584717,
				-3.3336524963378906,
				-7.589152812957764
			],
			"type":"VEC3"
		},
		{
			"bufferView":9,
			"componentType":5126,
			"count":48,
			"type":"VEC3"
		},
		{
			"bufferView":10,
			"componentType":5126,
			"count":48,
			"type":"VEC2"
		},
		{
			"bufferView":11,
			"componentType":5123,
			"count":72,
			"type":"SCALAR"
		}
	],
	"bufferViews":[
		{
			"buffer":0,
			"byteLength":6912,
			"byteOffset":0,
			"target":34962
		},
		{
			"buffer":0,
			"byteLength":6912,
			"byteOffset":6912,
			"target":34962
		},
		{
			"buffer":0,
			"byteLength":4608,
			"byteOffset":13824,
			"target":34962
		},
		{
			"buffer":0,
			"byteLength":1728,
			"byteOffset":18432,
			"target":34963
		},
		{
			"buffer":0,
			"byteLength":1728,
			"byteOffset":20160,
			"target":34962
		},
		{
			"buffer":0,
			"byteLength":1728,
			"byteOffset":21888,
			"target":34962
		},
		{
			"buffer":0,
			"byteLength":1152,
			"byteOffset":23616,
			"target":34962
		},
		{
			"buffer":0,
			"byteLength":432,
			"byteOffset":24768,
			"target":34963
		},
		{
			"buffer":0,
			"byteLength":576,
			"byteOffset":25200,
			"target":34962
		},
		{
			"buffer":0,
			"byteLength":576,
			"byteOffset":25776,
			"target":34962
		},
		{
			"buffer":0,
			"byteLength":384,
			"byteOffset":26352,
			"target":34962
		},
		{
			"buffer":0,
			"byteLength":144,
			"byteOffset":26736,
			"target":34963
		}
	],
	"samplers":[
		{
			"magFilter":9729,
			"minFilter":9987
		}
	],
	"buffers":[
		{
			"byteLength":26880,
			"uri":"corn_cereal_shelf.bin"
		}
	]
}
