{
	"asset":{
		"generator":"Khronos glTF Blender I/O v4.2.60",
		"version":"2.0"
	},
	"scene":0,
	"scenes":[
		{
			"name":"Scene",
			"nodes":[
				0
			]
		}
	],
	"nodes":[
		{
			"mesh":0,
			"name":"Cylinder.014",
			"rotation":[
				0,
				1,
				0,
				0
			],
			"scale":[
				-0.15999995172023773,
				-0.05900000035762787,
				-0.15999995172023773
			]
		}
	],
	"materials":[
		{
			"doubleSided":true,
			"name":"Material.053",
			"pbrMetallicRoughness":{
				"baseColorTexture":{
					"index":0
				},
				"metallicFactor":0
			}
		},
		{
			"doubleSided":true,
			"name":"Material.050",
			"pbrMetallicRoughness":{
				"baseColorFactor":[
					0.2653980851173401,
					0.2654016613960266,
					0.2654016613960266,
					1
				],
				"metallicFactor":0,
				"roughnessFactor":0.5
			}
		},
		{
			"doubleSided":true,
			"name":"Material.051",
			"pbrMetallicRoughness":{
				"baseColorFactor":[
					0.2653980851173401,
					0.2654016613960266,
					0.2654016613960266,
					1
				],
				"metallicFactor":0,
				"roughnessFactor":0.5
			}
		},
		{
			"doubleSided":true,
			"name":"Material.052",
			"pbrMetallicRoughness":{
				"baseColorFactor":[
					0.2653980851173401,
					0.2654016613960266,
					0.2654016613960266,
					1
				],
				"metallicFactor":0,
				"roughnessFactor":0.5
			}
		}
	],
	"meshes":[
		{
			"name":"Cylinder.058",
			"primitives":[
				{
					"attributes":{
						"POSITION":0,
						"NORMAL":1,
						"TEXCOORD_0":2
					},
					"indices":3,
					"material":0
				},
				{
					"attributes":{
						"POSITION":4,
						"NORMAL":5,
						"TEXCOORD_0":6
					},
					"indices":7,
					"material":1
				},
				{
					"attributes":{
						"POSITION":8,
						"NORMAL":9,
						"TEXCOORD_0":10
					},
					"indices":11,
					"material":2
				},
				{
					"attributes":{
						"POSITION":12,
						"NORMAL":13,
						"TEXCOORD_0":14
					},
					"indices":11,
					"material":3
				}
			]
		}
	],
	"textures":[
		{
			"sampler":0,
			"source":0
		}
	],
	"images":[
		{
			"mimeType":"image/jpeg",
			"name":"sauce_",
			"uri":"sauce_.jpg"
		}
	],
	"accessors":[
		{
			"bufferView":0,
			"componentType":5126,
			"count":7130,
			"max":[
				2.705970287322998,
				150.7969207763672,
				41.72162628173828
			],
			"min":[
				-2.7133264541625977,
				-1,
				-3.1541554927825928
			],
			"type":"VEC3"
		},
		{
			"bufferView":1,
			"componentType":5126,
			"count":7130,
			"type":"VEC3"
		},
		{
			"bufferView":2,
			"componentType":5126,
			"count":7130,
			"type":"VEC2"
		},
		{
			"bufferView":3,
			"componentType":5123,
			"count":11088,
			"type":"SCALAR"
		},
		{
			"bufferView":4,
			"componentType":5126,
			"count":144,
			"max":[
				6.747957229614258,
				159.37936401367188,
				44.90569305419922
			],
			"min":[
				-18.467769622802734,
				-14.858024597167969,
				-7.200309753417969
			],
			"type":"VEC3"
		},
		{
			"bufferView":5,
			"componentType":5126,
			"count":144,
			"type":"VEC3"
		},
		{
			"bufferView":6,
			"componentType":5126,
			"count":144,
			"type":"VEC2"
		},
		{
			"bufferView":7,
			"componentType":5123,
			"count":216,
			"type":"SCALAR"
		},
		{
			"bufferView":8,
			"componentType":5126,
			"count":24,
			"max":[
				5.3184967041015625,
				121.07705688476562,
				44.14210510253906
			],
			"min":[
				-17.181503295898438,
				112.26350402832031,
				-5.857892990112305
			],
			"type":"VEC3"
		},
		{
			"bufferView":9,
			"componentType":5126,
			"count":24,
			"type":"VEC3"
		},
		{
			"bufferView":10,
			"componentType":5126,
			"count":24,
			"type":"VEC2"
		},
		{
			"bufferView":11,
			"componentType":5123,
			"count":36,
			"type":"SCALAR"
		},
		{
			"bufferView":12,
			"componentType":5126,
			"count":24,
			"max":[
				5.3184967041015625,
				78.70418548583984,
				44.14210510253906
			],
			"min":[
				-17.18150520324707,
				69.890625,
				-5.857892990112305
			],
			"type":"VEC3"
		},
		{
			"bufferView":13,
			"componentType":5126,
			"count":24,
			"type":"VEC3"
		},
		{
			"bufferView":14,
			"componentType":5126,
			"count":24,
			"type":"VEC2"
		}
	],
	"bufferViews":[
		{
			"buffer":0,
			"byteLength":85560,
			"byteOffset":0,
			"target":34962
		},
		{
			"buffer":0,
			"byteLength":85560,
			"byteOffset":85560,
			"target":34962
		},
		{
			"buffer":0,
			"byteLength":57040,
			"byteOffset":171120,
			"target":34962
		},
		{
			"buffer":0,
			"byteLength":22176,
			"byteOffset":228160,
			"target":34963
		},
		{
			"buffer":0,
			"byteLength":1728,
			"byteOffset":250336,
			"target":34962
		},
		{
			"buffer":0,
			"byteLength":1728,
			"byteOffset":252064,
			"target":34962
		},
		{
			"buffer":0,
			"byteLength":1152,
			"byteOffset":253792,
			"target":34962
		},
		{
			"buffer":0,
			"byteLength":432,
			"byteOffset":254944,
			"target":34963
		},
		{
			"buffer":0,
			"byteLength":288,
			"byteOffset":255376,
			"target":34962
		},
		{
			"buffer":0,
			"byteLength":288,
			"byteOffset":255664,
			"target":34962
		},
		{
			"buffer":0,
			"byteLength":192,
			"byteOffset":255952,
			"target":34962
		},
		{
			"buffer":0,
			"byteLength":72,
			"byteOffset":256144,
			"target":34963
		},
		{
			"buffer":0,
			"byteLength":288,
			"byteOffset":256216,
			"target":34962
		},
		{
			"buffer":0,
			"byteLength":288,
			"byteOffset":256504,
			"target":34962
		},
		{
			"buffer":0,
			"byteLength":192,
			"byteOffset":256792,
			"target":34962
		}
	],
	"samplers":[
		{
			"magFilter":9729,
			"minFilter":9987
		}
	],
	"buffers":[
		{
			"byteLength":256984,
			"uri":"tomato_sauce_shelf.bin"
		}
	]
}
