{
	"asset":{
		"generator":"Khronos glTF Blender I/O v4.2.60",
		"version":"2.0"
	},
	"scene":0,
	"scenes":[
		{
			"name":"Scene",
			"nodes":[
				0
			]
		}
	],
	"nodes":[
		{
			"mesh":0,
			"name":"Cylinder.014",
			"rotation":[
				0,
				-1,
				0,
				2.457912160025444e-05
			],
			"scale":[
				-0.15999995172023773,
				-0.05900000035762787,
				-0.15999995172023773
			]
		}
	],
	"materials":[
		{
			"doubleSided":true,
			"name":"Material.053",
			"pbrMetallicRoughness":{
				"baseColorTexture":{
					"index":0
				},
				"metallicFactor":0
			}
		},
		{
			"doubleSided":true,
			"name":"Material.050",
			"pbrMetallicRoughness":{
				"baseColorFactor":[
					0.2653980851173401,
					0.2654016613960266,
					0.2654016613960266,
					1
				],
				"metallicFactor":0,
				"roughnessFactor":0.5
			}
		},
		{
			"doubleSided":true,
			"name":"Material.051",
			"pbrMetallicRoughness":{
				"baseColorFactor":[
					0.2653980851173401,
					0.2654016613960266,
					0.2654016613960266,
					1
				],
				"metallicFactor":0,
				"roughnessFactor":0.5
			}
		},
		{
			"doubleSided":true,
			"name":"Material.052",
			"pbrMetallicRoughness":{
				"baseColorFactor":[
					0.2653980851173401,
					0.2654016613960266,
					0.2654016613960266,
					1
				],
				"metallicFactor":0,
				"roughnessFactor":0.5
			}
		}
	],
	"meshes":[
		{
			"name":"Cylinder.058",
			"primitives":[
				{
					"attributes":{
						"POSITION":0,
						"NORMAL":1,
						"TEXCOORD_0":2
					},
					"indices":3,
					"material":0
				},
				{
					"attributes":{
						"POSITION":4,
						"NORMAL":5,
						"TEXCOORD_0":6
					},
					"indices":7,
					"material":1
				},
				{
					"attributes":{
						"POSITION":8,
						"NORMAL":9,
						"TEXCOORD_0":10
					},
					"indices":11,
					"material":2
				},
				{
					"attributes":{
						"POSITION":12,
						"NORMAL":13,
						"TEXCOORD_0":14
					},
					"indices":11,
					"material":3
				}
			]
		}
	],
	"textures":[
		{
			"sampler":0,
			"source":0
		}
	],
	"images":[
		{
			"mimeType":"image/jpeg",
			"name":"sauce_",
			"uri":"sauce_.jpg"
		}
	],
	"accessors":[
		{
			"bufferView":0,
			"componentType":5126,
			"count":7132,
			"max":[
				10.405132293701172,
				77.52090454101562,
				22.67708969116211
			],
			"min":[
				4.985835075378418,
				-74.27601623535156,
				-22.198692321777344
			],
			"type":"VEC3"
		},
		{
			"bufferView":1,
			"componentType":5126,
			"count":7132,
			"type":"VEC3"
		},
		{
			"bufferView":2,
			"componentType":5126,
			"count":7132,
			"type":"VEC2"
		},
		{
			"bufferView":3,
			"componentType":5123,
			"count":11088,
			"type":"SCALAR"
		},
		{
			"bufferView":4,
			"componentType":5126,
			"count":144,
			"max":[
				14.447118759155273,
				86.10334777832031,
				25.861156463623047
			],
			"min":[
				-10.768608093261719,
				-88.13404083251953,
				-26.24484634399414
			],
			"type":"VEC3"
		},
		{
			"bufferView":5,
			"componentType":5126,
			"count":144,
			"type":"VEC3"
		},
		{
			"bufferView":6,
			"componentType":5126,
			"count":144,
			"type":"VEC2"
		},
		{
			"bufferView":7,
			"componentType":5123,
			"count":216,
			"type":"SCALAR"
		},
		{
			"bufferView":8,
			"componentType":5126,
			"count":24,
			"max":[
				13.017658233642578,
				47.80104064941406,
				25.09756851196289
			],
			"min":[
				-9.482341766357422,
				38.98748779296875,
				-24.902429580688477
			],
			"type":"VEC3"
		},
		{
			"bufferView":9,
			"componentType":5126,
			"count":24,
			"type":"VEC3"
		},
		{
			"bufferView":10,
			"componentType":5126,
			"count":24,
			"type":"VEC2"
		},
		{
			"bufferView":11,
			"componentType":5123,
			"count":36,
			"type":"SCALAR"
		},
		{
			"bufferView":12,
			"componentType":5126,
			"count":24,
			"max":[
				13.017658233642578,
				5.428169250488281,
				25.09756851196289
			],
			"min":[
				-9.482343673706055,
				-3.3853912353515625,
				-24.902429580688477
			],
			"type":"VEC3"
		},
		{
			"bufferView":13,
			"componentType":5126,
			"count":24,
			"type":"VEC3"
		},
		{
			"bufferView":14,
			"componentType":5126,
			"count":24,
			"type":"VEC2"
		}
	],
	"bufferViews":[
		{
			"buffer":0,
			"byteLength":85584,
			"byteOffset":0,
			"target":34962
		},
		{
			"buffer":0,
			"byteLength":85584,
			"byteOffset":85584,
			"target":34962
		},
		{
			"buffer":0,
			"byteLength":57056,
			"byteOffset":171168,
			"target":34962
		},
		{
			"buffer":0,
			"byteLength":22176,
			"byteOffset":228224,
			"target":34963
		},
		{
			"buffer":0,
			"byteLength":1728,
			"byteOffset":250400,
			"target":34962
		},
		{
			"buffer":0,
			"byteLength":1728,
			"byteOffset":252128,
			"target":34962
		},
		{
			"buffer":0,
			"byteLength":1152,
			"byteOffset":253856,
			"target":34962
		},
		{
			"buffer":0,
			"byteLength":432,
			"byteOffset":255008,
			"target":34963
		},
		{
			"buffer":0,
			"byteLength":288,
			"byteOffset":255440,
			"target":34962
		},
		{
			"buffer":0,
			"byteLength":288,
			"byteOffset":255728,
			"target":34962
		},
		{
			"buffer":0,
			"byteLength":192,
			"byteOffset":256016,
			"target":34962
		},
		{
			"buffer":0,
			"byteLength":72,
			"byteOffset":256208,
			"target":34963
		},
		{
			"buffer":0,
			"byteLength":288,
			"byteOffset":256280,
			"target":34962
		},
		{
			"buffer":0,
			"byteLength":288,
			"byteOffset":256568,
			"target":34962
		},
		{
			"buffer":0,
			"byteLength":192,
			"byteOffset":256856,
			"target":34962
		}
	],
	"samplers":[
		{
			"magFilter":9729,
			"minFilter":9987
		}
	],
	"buffers":[
		{
			"byteLength":257048,
			"uri":"tomato_sauce_shelf.bin"
		}
	]
}
