{
	"asset":{
		"generator":"Khronos glTF Blender I/O v4.2.60",
		"version":"2.0"
	},
	"scene":0,
	"scenes":[
		{
			"name":"Scene",
			"nodes":[
				0
			]
		}
	],
	"nodes":[
		{
			"mesh":0,
			"name":"Cube.005",
			"rotation":[
				0,
				0,
				-0.7071068286895752,
				0.7071068286895752
			],
			"scale":[
				0.10000000149011612,
				1.25,
				0.02500000037252903
			]
		}
	],
	"materials":[
		{
			"doubleSided":true,
			"name":"Material.006",
			"pbrMetallicRoughness":{
				"baseColorFactor":[
					0.800000011920929,
					0.800000011920929,
					0.800000011920929,
					1
				],
				"metallicFactor":0,
				"roughnessFactor":0.5
			}
		},
		{
			"doubleSided":true,
			"name":"Material",
			"pbrMetallicRoughness":{
				"baseColorFactor":[
					0.800000011920929,
					0.800000011920929,
					0.800000011920929,
					1
				],
				"metallicFactor":0,
				"roughnessFactor":0.5
			}
		},
		{
			"doubleSided":true,
			"name":"Material.001",
			"pbrMetallicRoughness":{
				"baseColorFactor":[
					0.800000011920929,
					0.800000011920929,
					0.800000011920929,
					1
				],
				"metallicFactor":0,
				"roughnessFactor":0.5
			}
		},
		{
			"doubleSided":true,
			"name":"Material.003",
			"pbrMetallicRoughness":{
				"baseColorFactor":[
					0.800000011920929,
					0.800000011920929,
					0.800000011920929,
					1
				],
				"metallicFactor":0,
				"roughnessFactor":0.5
			}
		},
		{
			"doubleSided":true,
			"name":"Material.004",
			"pbrMetallicRoughness":{
				"baseColorFactor":[
					0.800000011920929,
					0.800000011920929,
					0.800000011920929,
					1
				],
				"metallicFactor":0,
				"roughnessFactor":0.5
			}
		},
		{
			"doubleSided":true,
			"name":"Material.005",
			"pbrMetallicRoughness":{
				"baseColorFactor":[
					0.800000011920929,
					0.800000011920929,
					0.800000011920929,
					1
				],
				"metallicFactor":0,
				"roughnessFactor":0.5
			}
		},
		{
			"doubleSided":true,
			"name":"Material.007",
			"pbrMetallicRoughness":{
				"baseColorFactor":[
					0.800000011920929,
					0.800000011920929,
					0.800000011920929,
					1
				],
				"metallicFactor":0,
				"roughnessFactor":0.5
			}
		},
		{
			"doubleSided":true,
			"name":"Material.015",
			"pbrMetallicRoughness":{
				"baseColorFactor":[
					0.800000011920929,
					0.800000011920929,
					0.800000011920929,
					1
				],
				"metallicFactor":0,
				"roughnessFactor":0.5
			}
		},
		{
			"doubleSided":true,
			"name":"Material.016",
			"pbrMetallicRoughness":{
				"baseColorFactor":[
					0.800000011920929,
					0.800000011920929,
					0.800000011920929,
					1
				],
				"metallicFactor":0,
				"roughnessFactor":0.5
			}
		},
		{
			"doubleSided":true,
			"name":"Material.017",
			"pbrMetallicRoughness":{
				"baseColorFactor":[
					0.800000011920929,
					0.800000011920929,
					0.800000011920929,
					1
				],
				"metallicFactor":0,
				"roughnessFactor":0.5
			}
		},
		{
			"doubleSided":true,
			"name":"Material.018",
			"pbrMetallicRoughness":{
				"baseColorFactor":[
					0.800000011920929,
					0.800000011920929,
					0.800000011920929,
					1
				],
				"metallicFactor":0,
				"roughnessFactor":0.5
			}
		},
		{
			"doubleSided":true,
			"name":"Material.019",
			"pbrMetallicRoughness":{
				"baseColorFactor":[
					0.800000011920929,
					0.800000011920929,
					0.800000011920929,
					1
				],
				"metallicFactor":0,
				"roughnessFactor":0.5
			}
		},
		{
			"doubleSided":true,
			"name":"Material.020",
			"pbrMetallicRoughness":{
				"baseColorFactor":[
					0.800000011920929,
					0.800000011920929,
					0.800000011920929,
					1
				],
				"metallicFactor":0,
				"roughnessFactor":0.5
			}
		},
		{
			"doubleSided":true,
			"name":"Material.021",
			"pbrMetallicRoughness":{
				"baseColorFactor":[
					0.800000011920929,
					0.800000011920929,
					0.800000011920929,
					1
				],
				"metallicFactor":0,
				"roughnessFactor":0.5
			}
		}
	],
	"meshes":[
		{
			"name":"Cube.006",
			"primitives":[
				{
					"attributes":{
						"POSITION":0,
						"NORMAL":1,
						"TEXCOORD_0":2
					},
					"indices":3,
					"material":0
				},
				{
					"attributes":{
						"POSITION":4,
						"NORMAL":5,
						"TEXCOORD_0":6
					},
					"indices":7,
					"material":1
				},
				{
					"attributes":{
						"POSITION":8,
						"NORMAL":9,
						"TEXCOORD_0":10
					},
					"indices":11,
					"material":2
				},
				{
					"attributes":{
						"POSITION":12,
						"NORMAL":13,
						"TEXCOORD_0":14
					},
					"indices":15,
					"material":3
				},
				{
					"attributes":{
						"POSITION":16,
						"NORMAL":17,
						"TEXCOORD_0":18
					},
					"indices":3,
					"material":4
				},
				{
					"attributes":{
						"POSITION":19,
						"NORMAL":20,
						"TEXCOORD_0":21
					},
					"indices":3,
					"material":5
				},
				{
					"attributes":{
						"POSITION":22,
						"NORMAL":23,
						"TEXCOORD_0":24
					},
					"indices":25,
					"material":6
				},
				{
					"attributes":{
						"POSITION":26,
						"NORMAL":27,
						"TEXCOORD_0":28
					},
					"indices":3,
					"material":7
				},
				{
					"attributes":{
						"POSITION":29,
						"NORMAL":30,
						"TEXCOORD_0":31
					},
					"indices":7,
					"material":8
				},
				{
					"attributes":{
						"POSITION":32,
						"NORMAL":33,
						"TEXCOORD_0":34
					},
					"indices":11,
					"material":9
				},
				{
					"attributes":{
						"POSITION":35,
						"NORMAL":36,
						"TEXCOORD_0":37
					},
					"indices":15,
					"material":10
				},
				{
					"attributes":{
						"POSITION":38,
						"NORMAL":39,
						"TEXCOORD_0":40
					},
					"indices":3,
					"material":11
				},
				{
					"attributes":{
						"POSITION":41,
						"NORMAL":42,
						"TEXCOORD_0":43
					},
					"indices":3,
					"material":12
				},
				{
					"attributes":{
						"POSITION":44,
						"NORMAL":45,
						"TEXCOORD_0":46
					},
					"indices":25,
					"material":13
				}
			]
		}
	],
	"accessors":[
		{
			"bufferView":0,
			"componentType":5126,
			"count":24,
			"max":[
				-30.754791259765625,
				1.989980936050415,
				1
			],
			"min":[
				-32.754791259765625,
				-0.010019063949584961,
				-1
			],
			"type":"VEC3"
		},
		{
			"bufferView":1,
			"componentType":5126,
			"count":24,
			"type":"VEC3"
		},
		{
			"bufferView":2,
			"componentType":5126,
			"count":24,
			"type":"VEC2"
		},
		{
			"bufferView":3,
			"componentType":5123,
			"count":36,
			"type":"SCALAR"
		},
		{
			"bufferView":4,
			"componentType":5126,
			"count":24,
			"max":[
				27.475879669189453,
				1.9926055669784546,
				1
			],
			"min":[
				-32.52412033081055,
				1.8592720031738281,
				-1
			],
			"type":"VEC3"
		},
		{
			"bufferView":5,
			"componentType":5126,
			"count":24,
			"type":"VEC3"
		},
		{
			"bufferView":6,
			"componentType":5126,
			"count":24,
			"type":"VEC2"
		},
		{
			"bufferView":7,
			"componentType":5123,
			"count":36,
			"type":"SCALAR"
		},
		{
			"bufferView":8,
			"componentType":5126,
			"count":16,
			"max":[
				27.47588348388672,
				1.2873023748397827,
				1
			],
			"min":[
				-20.07295799255371,
				1.2206355333328247,
				-1
			],
			"type":"VEC3"
		},
		{
			"bufferView":9,
			"componentType":5126,
			"count":16,
			"type":"VEC3"
		},
		{
			"bufferView":10,
			"componentType":5126,
			"count":16,
			"type":"VEC2"
		},
		{
			"bufferView":11,
			"componentType":5123,
			"count":24,
			"type":"SCALAR"
		},
		{
			"bufferView":12,
			"componentType":5126,
			"count":28,
			"max":[
				-19.063343048095703,
				1.9979808330535889,
				1
			],
			"min":[
				-20.063343048095703,
				-0.002019166946411133,
				-1
			],
			"type":"VEC3"
		},
		{
			"bufferView":13,
			"componentType":5126,
			"count":28,
			"type":"VEC3"
		},
		{
			"bufferView":14,
			"componentType":5126,
			"count":28,
			"type":"VEC2"
		},
		{
			"bufferView":15,
			"componentType":5123,
			"count":48,
			"type":"SCALAR"
		},
		{
			"bufferView":16,
			"componentType":5126,
			"count":24,
			"max":[
				10.095325469970703,
				1.9979808330535889,
				1
			],
			"min":[
				9.095325469970703,
				-0.002019166946411133,
				-1
			],
			"type":"VEC3"
		},
		{
			"bufferView":17,
			"componentType":5126,
			"count":24,
			"type":"VEC3"
		},
		{
			"bufferView":18,
			"componentType":5126,
			"count":24,
			"type":"VEC2"
		},
		{
			"bufferView":19,
			"componentType":5126,
			"count":24,
			"max":[
				27.394561767578125,
				1.9899814128875732,
				1
			],
			"min":[
				25.394561767578125,
				-0.010018587112426758,
				-1
			],
			"type":"VEC3"
		},
		{
			"bufferView":20,
			"componentType":5126,
			"count":24,
			"type":"VEC3"
		},
		{
			"bufferView":21,
			"componentType":5126,
			"count":24,
			"type":"VEC2"
		},
		{
			"bufferView":22,
			"componentType":5126,
			"count":24,
			"max":[
				27.54477310180664,
				1.9899814128875732,
				8.000004768371582
			],
			"min":[
				27.04477310180664,
				-0.010018587112426758,
				-8.000004768371582
			],
			"type":"VEC3"
		},
		{
			"bufferView":23,
			"componentType":5126,
			"count":24,
			"type":"VEC3"
		},
		{
			"bufferView":24,
			"componentType":5126,
			"count":24,
			"type":"VEC2"
		},
		{
			"bufferView":25,
			"componentType":5123,
			"count":36,
			"type":"SCALAR"
		},
		{
			"bufferView":26,
			"componentType":5126,
			"count":24,
			"max":[
				-30.75478744506836,
				0.010020256042480469,
				0.9999999403953552
			],
			"min":[
				-32.754783630371094,
				-1.98997962474823,
				-0.9999999403953552
			],
			"type":"VEC3"
		},
		{
			"bufferView":27,
			"componentType":5126,
			"count":24,
			"type":"VEC3"
		},
		{
			"bufferView":28,
			"componentType":5126,
			"count":24,
			"type":"VEC2"
		},
		{
			"bufferView":29,
			"componentType":5126,
			"count":24,
			"max":[
				27.475879669189453,
				-1.859270691871643,
				0.9999999403953552
			],
			"min":[
				-32.524112701416016,
				-1.992604374885559,
				-0.9999999403953552
			],
			"type":"VEC3"
		},
		{
			"bufferView":30,
			"componentType":5126,
			"count":24,
			"type":"VEC3"
		},
		{
			"bufferView":31,
			"componentType":5126,
			"count":24,
			"type":"VEC2"
		},
		{
			"bufferView":32,
			"componentType":5126,
			"count":16,
			"max":[
				27.47588348388672,
				-1.2206343412399292,
				0.9999999403953552
			],
			"min":[
				-20.072954177856445,
				-1.2873011827468872,
				-0.9999999403953552
			],
			"type":"VEC3"
		},
		{
			"bufferView":33,
			"componentType":5126,
			"count":16,
			"type":"VEC3"
		},
		{
			"bufferView":34,
			"componentType":5126,
			"count":16,
			"type":"VEC2"
		},
		{
			"bufferView":35,
			"componentType":5126,
			"count":28,
			"max":[
				-19.063339233398438,
				0.00202023983001709,
				0.9999999403953552
			],
			"min":[
				-20.063339233398438,
				-1.9979795217514038,
				-0.9999999403953552
			],
			"type":"VEC3"
		},
		{
			"bufferView":36,
			"componentType":5126,
			"count":28,
			"type":"VEC3"
		},
		{
			"bufferView":37,
			"componentType":5126,
			"count":28,
			"type":"VEC2"
		},
		{
			"bufferView":38,
			"componentType":5126,
			"count":24,
			"max":[
				10.095327377319336,
				0.00202023983001709,
				0.9999999403953552
			],
			"min":[
				9.095327377319336,
				-1.9979795217514038,
				-0.9999999403953552
			],
			"type":"VEC3"
		},
		{
			"bufferView":39,
			"componentType":5126,
			"count":24,
			"type":"VEC3"
		},
		{
			"bufferView":40,
			"componentType":5126,
			"count":24,
			"type":"VEC2"
		},
		{
			"bufferView":41,
			"componentType":5126,
			"count":24,
			"max":[
				27.394561767578125,
				0.010019540786743164,
				0.9999999403953552
			],
			"min":[
				25.394561767578125,
				-1.9899801015853882,
				-0.9999999403953552
			],
			"type":"VEC3"
		},
		{
			"bufferView":42,
			"componentType":5126,
			"count":24,
			"type":"VEC3"
		},
		{
			"bufferView":43,
			"componentType":5126,
			"count":24,
			"type":"VEC2"
		},
		{
			"bufferView":44,
			"componentType":5126,
			"count":24,
			"max":[
				27.54477310180664,
				0.010019540786743164,
				8.000003814697266
			],
			"min":[
				27.04477310180664,
				-1.9899801015853882,
				-8.000003814697266
			],
			"type":"VEC3"
		},
		{
			"bufferView":45,
			"componentType":5126,
			"count":24,
			"type":"VEC3"
		},
		{
			"bufferView":46,
			"componentType":5126,
			"count":24,
			"type":"VEC2"
		}
	],
	"bufferViews":[
		{
			"buffer":0,
			"byteLength":288,
			"byteOffset":0,
			"target":34962
		},
		{
			"buffer":0,
			"byteLength":288,
			"byteOffset":288,
			"target":34962
		},
		{
			"buffer":0,
			"byteLength":192,
			"byteOffset":576,
			"target":34962
		},
		{
			"buffer":0,
			"byteLength":72,
			"byteOffset":768,
			"target":34963
		},
		{
			"buffer":0,
			"byteLength":288,
			"byteOffset":840,
			"target":34962
		},
		{
			"buffer":0,
			"byteLength":288,
			"byteOffset":1128,
			"target":34962
		},
		{
			"buffer":0,
			"byteLength":192,
			"byteOffset":1416,
			"target":34962
		},
		{
			"buffer":0,
			"byteLength":72,
			"byteOffset":1608,
			"target":34963
		},
		{
			"buffer":0,
			"byteLength":192,
			"byteOffset":1680,
			"target":34962
		},
		{
			"buffer":0,
			"byteLength":192,
			"byteOffset":1872,
			"target":34962
		},
		{
			"buffer":0,
			"byteLength":128,
			"byteOffset":2064,
			"target":34962
		},
		{
			"buffer":0,
			"byteLength":48,
			"byteOffset":2192,
			"target":34963
		},
		{
			"buffer":0,
			"byteLength":336,
			"byteOffset":2240,
			"target":34962
		},
		{
			"buffer":0,
			"byteLength":336,
			"byteOffset":2576,
			"target":34962
		},
		{
			"buffer":0,
			"byteLength":224,
			"byteOffset":2912,
			"target":34962
		},
		{
			"buffer":0,
			"byteLength":96,
			"byteOffset":3136,
			"target":34963
		},
		{
			"buffer":0,
			"byteLength":288,
			"byteOffset":3232,
			"target":34962
		},
		{
			"buffer":0,
			"byteLength":288,
			"byteOffset":3520,
			"target":34962
		},
		{
			"buffer":0,
			"byteLength":192,
			"byteOffset":3808,
			"target":34962
		},
		{
			"buffer":0,
			"byteLength":288,
			"byteOffset":4000,
			"target":34962
		},
		{
			"buffer":0,
			"byteLength":288,
			"byteOffset":4288,
			"target":34962
		},
		{
			"buffer":0,
			"byteLength":192,
			"byteOffset":4576,
			"target":34962
		},
		{
			"buffer":0,
			"byteLength":288,
			"byteOffset":4768,
			"target":34962
		},
		{
			"buffer":0,
			"byteLength":288,
			"byteOffset":5056,
			"target":34962
		},
		{
			"buffer":0,
			"byteLength":192,
			"byteOffset":5344,
			"target":34962
		},
		{
			"buffer":0,
			"byteLength":72,
			"byteOffset":5536,
			"target":34963
		},
		{
			"buffer":0,
			"byteLength":288,
			"byteOffset":5608,
			"target":34962
		},
		{
			"buffer":0,
			"byteLength":288,
			"byteOffset":5896,
			"target":34962
		},
		{
			"buffer":0,
			"byteLength":192,
			"byteOffset":6184,
			"target":34962
		},
		{
			"buffer":0,
			"byteLength":288,
			"byteOffset":6376,
			"target":34962
		},
		{
			"buffer":0,
			"byteLength":288,
			"byteOffset":6664,
			"target":34962
		},
		{
			"buffer":0,
			"byteLength":192,
			"byteOffset":6952,
			"target":34962
		},
		{
			"buffer":0,
			"byteLength":192,
			"byteOffset":7144,
			"target":34962
		},
		{
			"buffer":0,
			"byteLength":192,
			"byteOffset":7336,
			"target":34962
		},
		{
			"buffer":0,
			"byteLength":128,
			"byteOffset":7528,
			"target":34962
		},
		{
			"buffer":0,
			"byteLength":336,
			"byteOffset":7656,
			"target":34962
		},
		{
			"buffer":0,
			"byteLength":336,
			"byteOffset":7992,
			"target":34962
		},
		{
			"buffer":0,
			"byteLength":224,
			"byteOffset":8328,
			"target":34962
		},
		{
			"buffer":0,
			"byteLength":288,
			"byteOffset":8552,
			"target":34962
		},
		{
			"buffer":0,
			"byteLength":288,
			"byteOffset":8840,
			"target":34962
		},
		{
			"buffer":0,
			"byteLength":192,
			"byteOffset":9128,
			"target":34962
		},
		{
			"buffer":0,
			"byteLength":288,
			"byteOffset":9320,
			"target":34962
		},
		{
			"buffer":0,
			"byteLength":288,
			"byteOffset":9608,
			"target":34962
		},
		{
			"buffer":0,
			"byteLength":192,
			"byteOffset":9896,
			"target":34962
		},
		{
			"buffer":0,
			"byteLength":288,
			"byteOffset":10088,
			"target":34962
		},
		{
			"buffer":0,
			"byteLength":288,
			"byteOffset":10376,
			"target":34962
		},
		{
			"buffer":0,
			"byteLength":192,
			"byteOffset":10664,
			"target":34962
		}
	],
	"buffers":[
		{
			"byteLength":10856,
			"uri":"store_window.bin"
		}
	]
}
