{
	"asset":{
		"generator":"Khronos glTF Blender I/O v4.2.60",
		"version":"2.0"
	},
	"scene":0,
	"scenes":[
		{
			"name":"Scene",
			"nodes":[
				0
			]
		}
	],
	"nodes":[
		{
			"mesh":0,
			"name":"Cube.010",
			"scale":[
				0.26000070571899414,
				5,
				4.150003433227539
			]
		}
	],
	"materials":[
		{
			"doubleSided":true,
			"name":"Material.061",
			"pbrMetallicRoughness":{
				"baseColorFactor":[
					0.2653980851173401,
					0.2654016613960266,
					0.2654016613960266,
					1
				],
				"metallicFactor":0,
				"roughnessFactor":0.5
			}
		},
		{
			"doubleSided":true,
			"name":"Material.062",
			"pbrMetallicRoughness":{
				"baseColorFactor":[
					0.2653980851173401,
					0.2654016613960266,
					0.2654016613960266,
					1
				],
				"metallicFactor":0,
				"roughnessFactor":0.5
			}
		},
		{
			"doubleSided":true,
			"name":"Material.077",
			"pbrMetallicRoughness":{
				"baseColorFactor":[
					0.2653980851173401,
					0.2654016613960266,
					0.2654016613960266,
					1
				],
				"metallicFactor":0,
				"roughnessFactor":0.5
			}
		},
		{
			"name":"brownDark.002",
			"pbrMetallicRoughness":{
				"baseColorFactor":[
					0.38800108432769775,
					0.36402860283851624,
					0.022248178720474243,
					1
				],
				"metallicFactor":0
			}
		},
		{
			"name":"brownLight.002",
			"pbrMetallicRoughness":{
				"baseColorFactor":[
					0.007981336675584316,
					0.005392099730670452,
					0.0021906737238168716,
					1
				],
				"metallicFactor":0
			}
		},
		{
			"name":"green.002",
			"pbrMetallicRoughness":{
				"baseColorFactor":[
					0.30055078864097595,
					0.2746800482273102,
					0.04231060668826103,
					1
				],
				"metallicFactor":0
			}
		}
	],
	"meshes":[
		{
			"name":"Cube.016",
			"primitives":[
				{
					"attributes":{
						"POSITION":0,
						"NORMAL":1,
						"TEXCOORD_0":2
					},
					"indices":3,
					"material":0
				},
				{
					"attributes":{
						"POSITION":4,
						"NORMAL":5,
						"TEXCOORD_0":6
					},
					"indices":7,
					"material":1
				},
				{
					"attributes":{
						"POSITION":8,
						"NORMAL":9,
						"TEXCOORD_0":10
					},
					"indices":7,
					"material":2
				},
				{
					"attributes":{
						"POSITION":11,
						"NORMAL":12,
						"TEXCOORD_0":13
					},
					"indices":14,
					"material":3
				},
				{
					"attributes":{
						"POSITION":15,
						"NORMAL":16,
						"TEXCOORD_0":17
					},
					"indices":18,
					"material":4
				},
				{
					"attributes":{
						"POSITION":19,
						"NORMAL":20,
						"TEXCOORD_0":21
					},
					"indices":22,
					"material":5
				}
			]
		}
	],
	"accessors":[
		{
			"bufferView":0,
			"componentType":5126,
			"count":144,
			"max":[
				7.263907432556152,
				1.044803261756897,
				0.9984382390975952
			],
			"min":[
				-8.25342082977295,
				-1.0111981630325317,
				-1.0104663372039795
			],
			"type":"VEC3"
		},
		{
			"bufferView":1,
			"componentType":5126,
			"count":144,
			"type":"VEC3"
		},
		{
			"bufferView":2,
			"componentType":5126,
			"count":144,
			"type":"VEC2"
		},
		{
			"bufferView":3,
			"componentType":5123,
			"count":216,
			"type":"SCALAR"
		},
		{
			"bufferView":4,
			"componentType":5126,
			"count":24,
			"max":[
				6.384242057800293,
				-0.4552308917045593,
				0.9689987301826477
			],
			"min":[
				-7.461873531341553,
				-0.5592308640480042,
				-0.9587104916572571
			],
			"type":"VEC3"
		},
		{
			"bufferView":5,
			"componentType":5126,
			"count":24,
			"type":"VEC3"
		},
		{
			"bufferView":6,
			"componentType":5126,
			"count":24,
			"type":"VEC2"
		},
		{
			"bufferView":7,
			"componentType":5123,
			"count":36,
			"type":"SCALAR"
		},
		{
			"bufferView":8,
			"componentType":5126,
			"count":24,
			"max":[
				6.384242057800293,
				0.044769108295440674,
				0.9689987301826477
			],
			"min":[
				-7.4618754386901855,
				-0.05923089012503624,
				-0.9587104916572571
			],
			"type":"VEC3"
		},
		{
			"bufferView":9,
			"componentType":5126,
			"count":24,
			"type":"VEC3"
		},
		{
			"bufferView":10,
			"componentType":5126,
			"count":24,
			"type":"VEC2"
		},
		{
			"bufferView":11,
			"componentType":5126,
			"count":2496,
			"max":[
				5.702173233032227,
				0.8396648168563843,
				0.8619558215141296
			],
			"min":[
				1.340376853942871,
				-0.6403020620346069,
				-0.8728947639465332
			],
			"type":"VEC3"
		},
		{
			"bufferView":12,
			"componentType":5126,
			"count":2496,
			"type":"VEC3"
		},
		{
			"bufferView":13,
			"componentType":5126,
			"count":2496,
			"type":"VEC2"
		},
		{
			"bufferView":14,
			"componentType":5123,
			"count":5040,
			"type":"SCALAR"
		},
		{
			"bufferView":15,
			"componentType":5126,
			"count":4032,
			"max":[
				5.789961814880371,
				0.8048648238182068,
				0.8674558401107788
			],
			"min":[
				1.2525882720947266,
				-0.9013020396232605,
				-0.8783948421478271
			],
			"type":"VEC3"
		},
		{
			"bufferView":16,
			"componentType":5126,
			"count":4032,
			"type":"VEC3"
		},
		{
			"bufferView":17,
			"componentType":5126,
			"count":4032,
			"type":"VEC2"
		},
		{
			"bufferView":18,
			"componentType":5123,
			"count":6192,
			"type":"SCALAR"
		},
		{
			"bufferView":19,
			"componentType":5126,
			"count":768,
			"max":[
				5.789961814880371,
				0.7461398243904114,
				0.8674558401107788
			],
			"min":[
				1.2525882720947266,
				-0.8425770401954651,
				-0.8783948421478271
			],
			"type":"VEC3"
		},
		{
			"bufferView":20,
			"componentType":5126,
			"count":768,
			"type":"VEC3"
		},
		{
			"bufferView":21,
			"componentType":5126,
			"count":768,
			"type":"VEC2"
		},
		{
			"bufferView":22,
			"componentType":5123,
			"count":1152,
			"type":"SCALAR"
		}
	],
	"bufferViews":[
		{
			"buffer":0,
			"byteLength":1728,
			"byteOffset":0,
			"target":34962
		},
		{
			"buffer":0,
			"byteLength":1728,
			"byteOffset":1728,
			"target":34962
		},
		{
			"buffer":0,
			"byteLength":1152,
			"byteOffset":3456,
			"target":34962
		},
		{
			"buffer":0,
			"byteLength":432,
			"byteOffset":4608,
			"target":34963
		},
		{
			"buffer":0,
			"byteLength":288,
			"byteOffset":5040,
			"target":34962
		},
		{
			"buffer":0,
			"byteLength":288,
			"byteOffset":5328,
			"target":34962
		},
		{
			"buffer":0,
			"byteLength":192,
			"byteOffset":5616,
			"target":34962
		},
		{
			"buffer":0,
			"byteLength":72,
			"byteOffset":5808,
			"target":34963
		},
		{
			"buffer":0,
			"byteLength":288,
			"byteOffset":5880,
			"target":34962
		},
		{
			"buffer":0,
			"byteLength":288,
			"byteOffset":6168,
			"target":34962
		},
		{
			"buffer":0,
			"byteLength":192,
			"byteOffset":6456,
			"target":34962
		},
		{
			"buffer":0,
			"byteLength":29952,
			"byteOffset":6648,
			"target":34962
		},
		{
			"buffer":0,
			"byteLength":29952,
			"byteOffset":36600,
			"target":34962
		},
		{
			"buffer":0,
			"byteLength":19968,
			"byteOffset":66552,
			"target":34962
		},
		{
			"buffer":0,
			"byteLength":10080,
			"byteOffset":86520,
			"target":34963
		},
		{
			"buffer":0,
			"byteLength":48384,
			"byteOffset":96600,
			"target":34962
		},
		{
			"buffer":0,
			"byteLength":48384,
			"byteOffset":144984,
			"target":34962
		},
		{
			"buffer":0,
			"byteLength":32256,
			"byteOffset":193368,
			"target":34962
		},
		{
			"buffer":0,
			"byteLength":12384,
			"byteOffset":225624,
			"target":34963
		},
		{
			"buffer":0,
			"byteLength":9216,
			"byteOffset":238008,
			"target":34962
		},
		{
			"buffer":0,
			"byteLength":9216,
			"byteOffset":247224,
			"target":34962
		},
		{
			"buffer":0,
			"byteLength":6144,
			"byteOffset":256440,
			"target":34962
		},
		{
			"buffer":0,
			"byteLength":2304,
			"byteOffset":262584,
			"target":34963
		}
	],
	"buffers":[
		{
			"byteLength":264888,
			"uri":"yeast_spread_shelf.bin"
		}
	]
}
