{
	"asset":{
		"generator":"Khronos glTF Blender I/O v4.2.60",
		"version":"2.0"
	},
	"scene":0,
	"scenes":[
		{
			"name":"Scene",
			"nodes":[
				0
			]
		}
	],
	"nodes":[
		{
			"mesh":0,
			"name":"Cube.021",
			"scale":[
				0.26000070571899414,
				5,
				4.150003433227539
			]
		}
	],
	"materials":[
		{
			"doubleSided":true,
			"name":"Material.104",
			"pbrMetallicRoughness":{
				"baseColorFactor":[
					0.2653980851173401,
					0.2654016613960266,
					0.2654016613960266,
					1
				],
				"metallicFactor":0,
				"roughnessFactor":0.5
			}
		},
		{
			"doubleSided":true,
			"name":"Material.105",
			"pbrMetallicRoughness":{
				"baseColorFactor":[
					0.2653980851173401,
					0.2654016613960266,
					0.2654016613960266,
					1
				],
				"metallicFactor":0,
				"roughnessFactor":0.5
			}
		},
		{
			"doubleSided":true,
			"name":"Material.106",
			"pbrMetallicRoughness":{
				"baseColorFactor":[
					0.2653980851173401,
					0.2654016613960266,
					0.2654016613960266,
					1
				],
				"metallicFactor":0,
				"roughnessFactor":0.5
			}
		},
		{
			"name":"purple.005",
			"pbrMetallicRoughness":{
				"baseColorFactor":[
					0.02778969332575798,
					0.8110246658325195,
					0,
					1
				],
				"metallicFactor":0
			}
		},
		{
			"name":"_defaultMat.005",
			"pbrMetallicRoughness":{
				"metallicFactor":0
			}
		},
		{
			"name":"white.005",
			"pbrMetallicRoughness":{
				"baseColorFactor":[
					0.8799999952316284,
					0.8899999856948853,
					0.9200000166893005,
					1
				],
				"metallicFactor":0
			}
		}
	],
	"meshes":[
		{
			"name":"Cube.031",
			"primitives":[
				{
					"attributes":{
						"POSITION":0,
						"NORMAL":1,
						"TEXCOORD_0":2
					},
					"indices":3,
					"material":0
				},
				{
					"attributes":{
						"POSITION":4,
						"NORMAL":5,
						"TEXCOORD_0":6
					},
					"indices":7,
					"material":1
				},
				{
					"attributes":{
						"POSITION":8,
						"NORMAL":9,
						"TEXCOORD_0":10
					},
					"indices":7,
					"material":2
				},
				{
					"attributes":{
						"POSITION":11,
						"NORMAL":12,
						"TEXCOORD_0":13
					},
					"indices":14,
					"material":3
				},
				{
					"attributes":{
						"POSITION":15,
						"NORMAL":16,
						"TEXCOORD_0":17
					},
					"indices":18,
					"material":4
				},
				{
					"attributes":{
						"POSITION":19,
						"NORMAL":20,
						"TEXCOORD_0":21
					},
					"indices":22,
					"material":5
				}
			]
		}
	],
	"accessors":[
		{
			"bufferView":0,
			"componentType":5126,
			"count":144,
			"max":[
				14.517328262329102,
				1.0090248584747314,
				1.0012296438217163
			],
			"min":[
				-1,
				-1.0469765663146973,
				-1.0076749324798584
			],
			"type":"VEC3"
		},
		{
			"bufferView":1,
			"componentType":5126,
			"count":144,
			"type":"VEC3"
		},
		{
			"bufferView":2,
			"componentType":5126,
			"count":144,
			"type":"VEC2"
		},
		{
			"bufferView":3,
			"componentType":5123,
			"count":216,
			"type":"SCALAR"
		},
		{
			"bufferView":4,
			"componentType":5126,
			"count":24,
			"max":[
				13.637662887573242,
				-0.49100929498672485,
				0.9717901349067688
			],
			"min":[
				-0.20845270156860352,
				-0.5950092673301697,
				-0.955919086933136
			],
			"type":"VEC3"
		},
		{
			"bufferView":5,
			"componentType":5126,
			"count":24,
			"type":"VEC3"
		},
		{
			"bufferView":6,
			"componentType":5126,
			"count":24,
			"type":"VEC2"
		},
		{
			"bufferView":7,
			"componentType":5123,
			"count":36,
			"type":"SCALAR"
		},
		{
			"bufferView":8,
			"componentType":5126,
			"count":24,
			"max":[
				13.637662887573242,
				0.008990716189146042,
				0.9717901349067688
			],
			"min":[
				-0.20845460891723633,
				-0.09500928223133087,
				-0.955919086933136
			],
			"type":"VEC3"
		},
		{
			"bufferView":9,
			"componentType":5126,
			"count":24,
			"type":"VEC3"
		},
		{
			"bufferView":10,
			"componentType":5126,
			"count":24,
			"type":"VEC2"
		},
		{
			"bufferView":11,
			"componentType":5126,
			"count":3396,
			"max":[
				12.883695602416992,
				0.8248846530914307,
				0.9083039164543152
			],
			"min":[
				7.015995025634766,
				-0.9512426853179932,
				-0.8232767581939697
			],
			"type":"VEC3"
		},
		{
			"bufferView":12,
			"componentType":5126,
			"count":3396,
			"type":"VEC3"
		},
		{
			"bufferView":13,
			"componentType":5126,
			"count":3396,
			"type":"VEC2"
		},
		{
			"bufferView":14,
			"componentType":5123,
			"count":5880,
			"type":"SCALAR"
		},
		{
			"bufferView":15,
			"componentType":5126,
			"count":3672,
			"max":[
				12.883695602416992,
				0.8322226405143738,
				0.9083039164543152
			],
			"min":[
				7.015995025634766,
				-0.9272426962852478,
				-0.8232767581939697
			],
			"type":"VEC3"
		},
		{
			"bufferView":16,
			"componentType":5126,
			"count":3672,
			"type":"VEC3"
		},
		{
			"bufferView":17,
			"componentType":5126,
			"count":3672,
			"type":"VEC2"
		},
		{
			"bufferView":18,
			"componentType":5123,
			"count":4440,
			"type":"SCALAR"
		},
		{
			"bufferView":19,
			"componentType":5126,
			"count":616,
			"max":[
				11.55677604675293,
				0.8565504550933838,
				0.9083039164543152
			],
			"min":[
				8.342914581298828,
				-0.6212426424026489,
				-0.8232767581939697
			],
			"type":"VEC3"
		},
		{
			"bufferView":20,
			"componentType":5126,
			"count":616,
			"type":"VEC3"
		},
		{
			"bufferView":21,
			"componentType":5126,
			"count":616,
			"type":"VEC2"
		},
		{
			"bufferView":22,
			"componentType":5123,
			"count":960,
			"type":"SCALAR"
		}
	],
	"bufferViews":[
		{
			"buffer":0,
			"byteLength":1728,
			"byteOffset":0,
			"target":34962
		},
		{
			"buffer":0,
			"byteLength":1728,
			"byteOffset":1728,
			"target":34962
		},
		{
			"buffer":0,
			"byteLength":1152,
			"byteOffset":3456,
			"target":34962
		},
		{
			"buffer":0,
			"byteLength":432,
			"byteOffset":4608,
			"target":34963
		},
		{
			"buffer":0,
			"byteLength":288,
			"byteOffset":5040,
			"target":34962
		},
		{
			"buffer":0,
			"byteLength":288,
			"byteOffset":5328,
			"target":34962
		},
		{
			"buffer":0,
			"byteLength":192,
			"byteOffset":5616,
			"target":34962
		},
		{
			"buffer":0,
			"byteLength":72,
			"byteOffset":5808,
			"target":34963
		},
		{
			"buffer":0,
			"byteLength":288,
			"byteOffset":5880,
			"target":34962
		},
		{
			"buffer":0,
			"byteLength":288,
			"byteOffset":6168,
			"target":34962
		},
		{
			"buffer":0,
			"byteLength":192,
			"byteOffset":6456,
			"target":34962
		},
		{
			"buffer":0,
			"byteLength":40752,
			"byteOffset":6648,
			"target":34962
		},
		{
			"buffer":0,
			"byteLength":40752,
			"byteOffset":47400,
			"target":34962
		},
		{
			"buffer":0,
			"byteLength":27168,
			"byteOffset":88152,
			"target":34962
		},
		{
			"buffer":0,
			"byteLength":11760,
			"byteOffset":115320,
			"target":34963
		},
		{
			"buffer":0,
			"byteLength":44064,
			"byteOffset":127080,
			"target":34962
		},
		{
			"buffer":0,
			"byteLength":44064,
			"byteOffset":171144,
			"target":34962
		},
		{
			"buffer":0,
			"byteLength":29376,
			"byteOffset":215208,
			"target":34962
		},
		{
			"buffer":0,
			"byteLength":8880,
			"byteOffset":244584,
			"target":34963
		},
		{
			"buffer":0,
			"byteLength":7392,
			"byteOffset":253464,
			"target":34962
		},
		{
			"buffer":0,
			"byteLength":7392,
			"byteOffset":260856,
			"target":34962
		},
		{
			"buffer":0,
			"byteLength":4928,
			"byteOffset":268248,
			"target":34962
		},
		{
			"buffer":0,
			"byteLength":1920,
			"byteOffset":273176,
			"target":34963
		}
	],
	"buffers":[
		{
			"byteLength":275096,
			"uri":"low_fat_milk_shelf.bin"
		}
	]
}
