{
	"asset":{
		"generator":"Khronos glTF Blender I/O v4.2.60",
		"version":"2.0"
	},
	"scene":0,
	"scenes":[
		{
			"name":"Scene",
			"nodes":[
				0,
				1,
				2
			]
		}
	],
	"nodes":[
		{
			"mesh":0,
			"name":"Cube.001",
			"scale":[
				1,
				0.5268014073371887,
				1.3792020082473755
			],
			"translation":[
				0.012364745140075684,
				3.673156499862671,
				0.0023611783981323242
			]
		},
		{
			"mesh":1,
			"name":"Cube.006",
			"scale":[
				0.949999988079071,
				0.10000000149011612,
				0.949999988079071
			],
			"translation":[
				1.3074054718017578,
				3.9788594245910645,
				-1.0154125690460205
			]
		},
		{
			"mesh":2,
			"name":"Cube.008",
			"scale":[
				0.949999988079071,
				0.10000000149011612,
				0.949999988079071
			],
			"translation":[
				-3.2861456871032715,
				3.9788594245910645,
				-1.0154125690460205
			]
		}
	],
	"materials":[
		{
			"doubleSided":true,
			"name":"Material.004",
			"pbrMetallicRoughness":{
				"baseColorTexture":{
					"index":0
				},
				"metallicFactor":0,
				"roughnessFactor":0.5
			}
		},
		{
			"doubleSided":true,
			"name":"Material.005",
			"pbrMetallicRoughness":{
				"baseColorTexture":{
					"index":1
				},
				"metallicFactor":0
			}
		}
	],
	"meshes":[
		{
			"name":"Cube.008",
			"primitives":[
				{
					"attributes":{
						"POSITION":0,
						"NORMAL":1,
						"TEXCOORD_0":2
					},
					"indices":3,
					"material":0
				}
			]
		},
		{
			"name":"Cube.015",
			"primitives":[
				{
					"attributes":{
						"POSITION":4,
						"NORMAL":5,
						"TEXCOORD_0":6
					},
					"indices":7,
					"material":1
				}
			]
		},
		{
			"name":"Cube.004",
			"primitives":[
				{
					"attributes":{
						"POSITION":8,
						"NORMAL":9,
						"TEXCOORD_0":10
					},
					"indices":7,
					"material":1
				}
			]
		}
	],
	"textures":[
		{
			"sampler":0,
			"source":0
		},
		{
			"sampler":0,
			"source":1
		}
	],
	"images":[
		{
			"mimeType":"image/jpeg",
			"name":"coolerbox",
			"uri":"coolerbox.jpg"
		},
		{
			"mimeType":"image/jpeg",
			"name":"pizza",
			"uri":"pizza.jpg"
		}
	],
	"accessors":[
		{
			"bufferView":0,
			"componentType":5126,
			"count":92,
			"max":[
				4.597409725189209,
				1.0722384452819824,
				1.5331053733825684
			],
			"min":[
				-4.6221394538879395,
				-6.964273929595947,
				-1.536529302597046
			],
			"type":"VEC3"
		},
		{
			"bufferView":1,
			"componentType":5126,
			"count":92,
			"type":"VEC3"
		},
		{
			"bufferView":2,
			"componentType":5126,
			"count":92,
			"type":"VEC2"
		},
		{
			"bufferView":3,
			"componentType":5123,
			"count":150,
			"type":"SCALAR"
		},
		{
			"bufferView":4,
			"componentType":5126,
			"count":96,
			"max":[
				3.2089710235595703,
				1,
				3.0491771697998047
			],
			"min":[
				-1.069579839706421,
				-1,
				-1
			],
			"type":"VEC3"
		},
		{
			"bufferView":5,
			"componentType":5126,
			"count":96,
			"type":"VEC3"
		},
		{
			"bufferView":6,
			"componentType":5126,
			"count":96,
			"type":"VEC2"
		},
		{
			"bufferView":7,
			"componentType":5123,
			"count":144,
			"type":"SCALAR"
		},
		{
			"bufferView":8,
			"componentType":5126,
			"count":96,
			"max":[
				3.2089710235595703,
				1,
				3.0491771697998047
			],
			"min":[
				-1.069579839706421,
				-1,
				-1
			],
			"type":"VEC3"
		},
		{
			"bufferView":9,
			"componentType":5126,
			"count":96,
			"type":"VEC3"
		},
		{
			"bufferView":10,
			"componentType":5126,
			"count":96,
			"type":"VEC2"
		}
	],
	"bufferViews":[
		{
			"buffer":0,
			"byteLength":1104,
			"byteOffset":0,
			"target":34962
		},
		{
			"buffer":0,
			"byteLength":1104,
			"byteOffset":1104,
			"target":34962
		},
		{
			"buffer":0,
			"byteLength":736,
			"byteOffset":2208,
			"target":34962
		},
		{
			"buffer":0,
			"byteLength":300,
			"byteOffset":2944,
			"target":34963
		},
		{
			"buffer":0,
			"byteLength":1152,
			"byteOffset":3244,
			"target":34962
		},
		{
			"buffer":0,
			"byteLength":1152,
			"byteOffset":4396,
			"target":34962
		},
		{
			"buffer":0,
			"byteLength":768,
			"byteOffset":5548,
			"target":34962
		},
		{
			"buffer":0,
			"byteLength":288,
			"byteOffset":6316,
			"target":34963
		},
		{
			"buffer":0,
			"byteLength":1152,
			"byteOffset":6604,
			"target":34962
		},
		{
			"buffer":0,
			"byteLength":1152,
			"byteOffset":7756,
			"target":34962
		},
		{
			"buffer":0,
			"byteLength":768,
			"byteOffset":8908,
			"target":34962
		}
	],
	"samplers":[
		{
			"magFilter":9729,
			"minFilter":9987
		}
	],
	"buffers":[
		{
			"byteLength":9676,
			"uri":"yellow_pizza_box.bin"
		}
	]
}
