{
	"asset":{
		"generator":"Khronos glTF Blender I/O v4.2.60",
		"version":"2.0"
	},
	"extensionsUsed":[
		"KHR_materials_specular",
		"KHR_materials_ior"
	],
	"scene":0,
	"scenes":[
		{
			"name":"Scene",
			"nodes":[
				0,
				1,
				2
			]
		}
	],
	"nodes":[
		{
			"mesh":0,
			"name":"Cube.002",
			"scale":[
				1,
				0.5268014073371887,
				1.3792020082473755
			],
			"translation":[
				0.012364745140075684,
				3.673156499862671,
				-8.375316619873047
			]
		},
		{
			"mesh":1,
			"name":"sausages_001.006",
			"scale":[
				4,
				4,
				4
			],
			"translation":[
				-3.810680627822876,
				3.662550210952759,
				-9.860300064086914
			]
		},
		{
			"mesh":2,
			"name":"sausages_001.001",
			"scale":[
				4,
				4,
				4
			],
			"translation":[
				0.5562880039215088,
				3.662550210952759,
				-9.860300064086914
			]
		}
	],
	"materials":[
		{
			"doubleSided":true,
			"name":"Material.001",
			"pbrMetallicRoughness":{
				"baseColorTexture":{
					"index":0
				},
				"metallicFactor":0,
				"roughnessFactor":0.5
			}
		},
		{
			"doubleSided":true,
			"extensions":{
				"KHR_materials_specular":{
					"specularColorFactor":[
						0.9485430717468262,
						0.9485430717468262,
						0.9485430717468262
					]
				},
				"KHR_materials_ior":{
					"ior":1.4500000476837158
				}
			},
			"name":"Material.002",
			"pbrMetallicRoughness":{
				"baseColorTexture":{
					"index":1
				},
				"metallicFactor":0,
				"roughnessFactor":0.30000001192092896
			}
		}
	],
	"meshes":[
		{
			"name":"Cube.002",
			"primitives":[
				{
					"attributes":{
						"POSITION":0,
						"NORMAL":1,
						"TEXCOORD_0":2
					},
					"indices":3,
					"material":0
				}
			]
		},
		{
			"name":"Mesh.018",
			"primitives":[
				{
					"attributes":{
						"POSITION":4,
						"NORMAL":5,
						"TEXCOORD_0":6
					},
					"indices":7,
					"material":1
				}
			]
		},
		{
			"name":"Mesh.002",
			"primitives":[
				{
					"attributes":{
						"POSITION":8,
						"NORMAL":9,
						"TEXCOORD_0":10
					},
					"indices":7,
					"material":1
				}
			]
		}
	],
	"textures":[
		{
			"sampler":0,
			"source":0
		},
		{
			"sampler":0,
			"source":1
		}
	],
	"images":[
		{
			"mimeType":"image/jpeg",
			"name":"coolerbox",
			"uri":"coolerbox.jpg"
		},
		{
			"mimeType":"image/png",
			"name":"Textures",
			"uri":"Textures.png"
		}
	],
	"accessors":[
		{
			"bufferView":0,
			"componentType":5126,
			"count":92,
			"max":[
				4.597409725189209,
				1.0722384452819824,
				1.5331050157546997
			],
			"min":[
				-4.6221394538879395,
				-6.964273929595947,
				-1.5365296602249146
			],
			"type":"VEC3"
		},
		{
			"bufferView":1,
			"componentType":5126,
			"count":92,
			"type":"VEC3"
		},
		{
			"bufferView":2,
			"componentType":5126,
			"count":92,
			"type":"VEC2"
		},
		{
			"bufferView":3,
			"componentType":5123,
			"count":150,
			"type":"SCALAR"
		},
		{
			"bufferView":4,
			"componentType":5126,
			"count":21339,
			"max":[
				0.9163476824760437,
				0.08943493664264679,
				0.8527805805206299
			],
			"min":[
				-0.09037292748689651,
				6.642533116973937e-05,
				-0.1063796877861023
			],
			"type":"VEC3"
		},
		{
			"bufferView":5,
			"componentType":5126,
			"count":21339,
			"type":"VEC3"
		},
		{
			"bufferView":6,
			"componentType":5126,
			"count":21339,
			"type":"VEC2"
		},
		{
			"bufferView":7,
			"componentType":5123,
			"count":28680,
			"type":"SCALAR"
		},
		{
			"bufferView":8,
			"componentType":5126,
			"count":21339,
			"max":[
				0.9163476824760437,
				0.08943493664264679,
				0.8527805805206299
			],
			"min":[
				-0.09037292748689651,
				6.642533116973937e-05,
				-0.1063796877861023
			],
			"type":"VEC3"
		},
		{
			"bufferView":9,
			"componentType":5126,
			"count":21339,
			"type":"VEC3"
		},
		{
			"bufferView":10,
			"componentType":5126,
			"count":21339,
			"type":"VEC2"
		}
	],
	"bufferViews":[
		{
			"buffer":0,
			"byteLength":1104,
			"byteOffset":0,
			"target":34962
		},
		{
			"buffer":0,
			"byteLength":1104,
			"byteOffset":1104,
			"target":34962
		},
		{
			"buffer":0,
			"byteLength":736,
			"byteOffset":2208,
			"target":34962
		},
		{
			"buffer":0,
			"byteLength":300,
			"byteOffset":2944,
			"target":34963
		},
		{
			"buffer":0,
			"byteLength":256068,
			"byteOffset":3244,
			"target":34962
		},
		{
			"buffer":0,
			"byteLength":256068,
			"byteOffset":259312,
			"target":34962
		},
		{
			"buffer":0,
			"byteLength":170712,
			"byteOffset":515380,
			"target":34962
		},
		{
			"buffer":0,
			"byteLength":57360,
			"byteOffset":686092,
			"target":34963
		},
		{
			"buffer":0,
			"byteLength":256068,
			"byteOffset":743452,
			"target":34962
		},
		{
			"buffer":0,
			"byteLength":256068,
			"byteOffset":999520,
			"target":34962
		},
		{
			"buffer":0,
			"byteLength":170712,
			"byteOffset":1255588,
			"target":34962
		}
	],
	"samplers":[
		{
			"magFilter":9729,
			"minFilter":9987
		}
	],
	"buffers":[
		{
			"byteLength":1426300,
			"uri":"sausage_box.bin"
		}
	]
}
