{
	"asset":{
		"generator":"Khronos glTF Blender I/O v4.2.60",
		"version":"2.0"
	},
	"extensionsUsed":[
		"KHR_materials_specular",
		"KHR_materials_ior"
	],
	"scene":0,
	"scenes":[
		{
			"name":"Scene",
			"nodes":[
				0
			]
		}
	],
	"nodes":[
		{
			"mesh":0,
			"name":"sausages_001.001",
			"scale":[
				4,
				4,
				4
			]
		}
	],
	"materials":[
		{
			"doubleSided":true,
			"extensions":{
				"KHR_materials_specular":{
					"specularColorFactor":[
						0.9485430717468262,
						0.9485430717468262,
						0.9485430717468262
					]
				},
				"KHR_materials_ior":{
					"ior":1.4500000476837158
				}
			},
			"name":"Material.024",
			"pbrMetallicRoughness":{
				"baseColorTexture":{
					"index":0
				},
				"metallicFactor":0,
				"roughnessFactor":0.30000001192092896
			}
		},
		{
			"doubleSided":true,
			"name":"Material.022",
			"pbrMetallicRoughness":{
				"baseColorTexture":{
					"index":1
				},
				"metallicFactor":0,
				"roughnessFactor":0.5
			}
		}
	],
	"meshes":[
		{
			"name":"Mesh.002",
			"primitives":[
				{
					"attributes":{
						"POSITION":0,
						"NORMAL":1,
						"TEXCOORD_0":2
					},
					"indices":3,
					"material":0
				},
				{
					"attributes":{
						"POSITION":4,
						"NORMAL":5,
						"TEXCOORD_0":6
					},
					"indices":7,
					"material":1
				}
			]
		}
	],
	"textures":[
		{
			"sampler":0,
			"source":0
		},
		{
			"sampler":0,
			"source":1
		}
	],
	"images":[
		{
			"mimeType":"image/png",
			"name":"Textures",
			"uri":"Textures.png"
		},
		{
			"mimeType":"image/jpeg",
			"name":"coolerbox",
			"uri":"coolerbox.jpg"
		}
	],
	"accessors":[
		{
			"bufferView":0,
			"componentType":5126,
			"count":42921,
			"max":[
				1.055382251739502,
				0.5138013958930969,
				0.4826643764972687
			],
			"min":[
				-1.043080449104309,
				0.4244328737258911,
				-0.4764958918094635
			],
			"type":"VEC3"
		},
		{
			"bufferView":1,
			"componentType":5126,
			"count":42921,
			"type":"VEC3"
		},
		{
			"bufferView":2,
			"componentType":5126,
			"count":42921,
			"type":"VEC2"
		},
		{
			"bufferView":3,
			"componentType":5123,
			"count":57360,
			"type":"SCALAR"
		},
		{
			"bufferView":4,
			"componentType":5126,
			"count":92,
			"max":[
				1.1524062156677246,
				0.5682321786880493,
				0.5297454595565796
			],
			"min":[
				-1.1524810791015625,
				-0.4901793301105499,
				-0.5286660194396973
			],
			"type":"VEC3"
		},
		{
			"bufferView":5,
			"componentType":5126,
			"count":92,
			"type":"VEC3"
		},
		{
			"bufferView":6,
			"componentType":5126,
			"count":92,
			"type":"VEC2"
		},
		{
			"bufferView":7,
			"componentType":5123,
			"count":150,
			"type":"SCALAR"
		}
	],
	"bufferViews":[
		{
			"buffer":0,
			"byteLength":515052,
			"byteOffset":0,
			"target":34962
		},
		{
			"buffer":0,
			"byteLength":515052,
			"byteOffset":515052,
			"target":34962
		},
		{
			"buffer":0,
			"byteLength":343368,
			"byteOffset":1030104,
			"target":34962
		},
		{
			"buffer":0,
			"byteLength":114720,
			"byteOffset":1373472,
			"target":34963
		},
		{
			"buffer":0,
			"byteLength":1104,
			"byteOffset":1488192,
			"target":34962
		},
		{
			"buffer":0,
			"byteLength":1104,
			"byteOffset":1489296,
			"target":34962
		},
		{
			"buffer":0,
			"byteLength":736,
			"byteOffset":1490400,
			"target":34962
		},
		{
			"buffer":0,
			"byteLength":300,
			"byteOffset":1491136,
			"target":34963
		}
	],
	"samplers":[
		{
			"magFilter":9729,
			"minFilter":9987
		}
	],
	"buffers":[
		{
			"byteLength":1491436,
			"uri":"sausage_box.bin"
		}
	]
}
