{
	"asset":{
		"generator":"Khronos glTF Blender I/O v4.2.60",
		"version":"2.0"
	},
	"extensionsUsed":[
		"KHR_materials_specular",
		"KHR_materials_ior"
	],
	"scene":0,
	"scenes":[
		{
			"name":"Scene",
			"nodes":[
				0
			]
		}
	],
	"nodes":[
		{
			"mesh":0,
			"name":"sausages_001.001",
			"rotation":[
				0,
				1,
				0,
				0
			],
			"scale":[
				4,
				4,
				4
			]
		}
	],
	"materials":[
		{
			"doubleSided":true,
			"extensions":{
				"KHR_materials_specular":{
					"specularColorFactor":[
						0.9485430717468262,
						0.9485430717468262,
						0.9485430717468262
					]
				},
				"KHR_materials_ior":{
					"ior":1.4500000476837158
				}
			},
			"name":"Material.024",
			"pbrMetallicRoughness":{
				"baseColorTexture":{
					"index":0
				},
				"metallicFactor":0,
				"roughnessFactor":0.30000001192092896
			}
		},
		{
			"doubleSided":true,
			"name":"Material.022",
			"pbrMetallicRoughness":{
				"baseColorTexture":{
					"index":1
				},
				"metallicFactor":0,
				"roughnessFactor":0.5
			}
		}
	],
	"meshes":[
		{
			"name":"Mesh.002",
			"primitives":[
				{
					"attributes":{
						"POSITION":0,
						"NORMAL":1,
						"TEXCOORD_0":2
					},
					"indices":3,
					"material":0
				},
				{
					"attributes":{
						"POSITION":4,
						"NORMAL":5,
						"TEXCOORD_0":6
					},
					"indices":7,
					"material":1
				}
			]
		}
	],
	"textures":[
		{
			"sampler":0,
			"source":0
		},
		{
			"sampler":0,
			"source":1
		}
	],
	"images":[
		{
			"mimeType":"image/png",
			"name":"Textures",
			"uri":"Textures.png"
		},
		{
			"mimeType":"image/jpeg",
			"name":"coolerbox",
			"uri":"coolerbox.jpg"
		}
	],
	"accessors":[
		{
			"bufferView":0,
			"componentType":5126,
			"count":42921,
			"max":[
				2.008089780807495,
				0.08943493664264679,
				0.8527805805206299
			],
			"min":[
				-0.09037292748689651,
				6.642533116973937e-05,
				-0.1063796877861023
			],
			"type":"VEC3"
		},
		{
			"bufferView":1,
			"componentType":5126,
			"count":42921,
			"type":"VEC3"
		},
		{
			"bufferView":2,
			"componentType":5126,
			"count":42921,
			"type":"VEC2"
		},
		{
			"bufferView":3,
			"componentType":5123,
			"count":57360,
			"type":"SCALAR"
		},
		{
			"bufferView":4,
			"componentType":5126,
			"count":92,
			"max":[
				2.1051137447357178,
				0.14386574923992157,
				0.8998616933822632
			],
			"min":[
				-0.19977355003356934,
				-0.9145457744598389,
				-0.15854984521865845
			],
			"type":"VEC3"
		},
		{
			"bufferView":5,
			"componentType":5126,
			"count":92,
			"type":"VEC3"
		},
		{
			"bufferView":6,
			"componentType":5126,
			"count":92,
			"type":"VEC2"
		},
		{
			"bufferView":7,
			"componentType":5123,
			"count":150,
			"type":"SCALAR"
		}
	],
	"bufferViews":[
		{
			"buffer":0,
			"byteLength":515052,
			"byteOffset":0,
			"target":34962
		},
		{
			"buffer":0,
			"byteLength":515052,
			"byteOffset":515052,
			"target":34962
		},
		{
			"buffer":0,
			"byteLength":343368,
			"byteOffset":1030104,
			"target":34962
		},
		{
			"buffer":0,
			"byteLength":114720,
			"byteOffset":1373472,
			"target":34963
		},
		{
			"buffer":0,
			"byteLength":1104,
			"byteOffset":1488192,
			"target":34962
		},
		{
			"buffer":0,
			"byteLength":1104,
			"byteOffset":1489296,
			"target":34962
		},
		{
			"buffer":0,
			"byteLength":736,
			"byteOffset":1490400,
			"target":34962
		},
		{
			"buffer":0,
			"byteLength":300,
			"byteOffset":1491136,
			"target":34963
		}
	],
	"samplers":[
		{
			"magFilter":9729,
			"minFilter":9987
		}
	],
	"buffers":[
		{
			"byteLength":1491436,
			"uri":"sausage_box.bin"
		}
	]
}
