{
	"asset":{
		"generator":"Khronos glTF Blender I/O v4.2.60",
		"version":"2.0"
	},
	"scene":0,
	"scenes":[
		{
			"name":"Scene",
			"nodes":[
				0
			]
		}
	],
	"nodes":[
		{
			"mesh":0,
			"name":"Domestic_robot",
			"scale":[
				0.5,
				0.5,
				0.5
			]
		}
	],
	"materials":[
		{
			"name":"lambert3SG.001",
			"pbrMetallicRoughness":{
				"baseColorTexture":{
					"index":0
				},
				"metallicFactor":0
			}
		}
	],
	"meshes":[
		{
			"name":"Domestic_robot_2.001",
			"primitives":[
				{
					"attributes":{
						"POSITION":0,
						"NORMAL":1,
						"TEXCOORD_0":2
					},
					"indices":3,
					"material":0
				}
			]
		}
	],
	"textures":[
		{
			"sampler":0,
			"source":0
		}
	],
	"images":[
		{
			"mimeType":"image/png",
			"name":"Domestic robot Texture",
			"uri":"Domestic%20robot%20Texture.png"
		}
	],
	"accessors":[
		{
			"bufferView":0,
			"componentType":5126,
			"count":974,
			"max":[
				3.0999999046325684,
				0.6099200248718262,
				3.1448161602020264
			],
			"min":[
				-3.099998712539673,
				-0.8999999761581421,
				-3.0222761631011963
			],
			"type":"VEC3"
		},
		{
			"bufferView":1,
			"componentType":5126,
			"count":974,
			"type":"VEC3"
		},
		{
			"bufferView":2,
			"componentType":5126,
			"count":974,
			"type":"VEC2"
		},
		{
			"bufferView":3,
			"componentType":5123,
			"count":2088,
			"type":"SCALAR"
		}
	],
	"bufferViews":[
		{
			"buffer":0,
			"byteLength":11688,
			"byteOffset":0,
			"target":34962
		},
		{
			"buffer":0,
			"byteLength":11688,
			"byteOffset":11688,
			"target":34962
		},
		{
			"buffer":0,
			"byteLength":7792,
			"byteOffset":23376,
			"target":34962
		},
		{
			"buffer":0,
			"byteLength":4176,
			"byteOffset":31168,
			"target":34963
		}
	],
	"samplers":[
		{
			"magFilter":9729,
			"minFilter":9987
		}
	],
	"buffers":[
		{
			"byteLength":35344,
			"uri":"domestic_roomba.bin"
		}
	]
}
