{
	"asset":{
		"generator":"Khronos glTF Blender I/O v4.2.60",
		"version":"2.0"
	},
	"scene":0,
	"scenes":[
		{
			"name":"Scene",
			"nodes":[
				0,
				1,
				2,
				3,
				4,
				5,
				6,
				7,
				8
			]
		}
	],
	"nodes":[
		{
			"mesh":0,
			"name":"Cube.001",
			"rotation":[
				0,
				0.7067700028419495,
				0,
				0.7074434757232666
			],
			"scale":[
				0.26000073552131653,
				5.140003204345703,
				2
			],
			"translation":[
				-0.662431001663208,
				4.870167255401611,
				-12.950057983398438
			]
		},
		{
			"mesh":1,
			"name":"Cube.019_Cube.029",
			"rotation":[
				0.7071068286895752,
				0,
				0,
				0.7071068286895752
			],
			"scale":[
				0.6499999761581421,
				0.6499999761581421,
				0.6499999761581421
			],
			"translation":[
				0.7181117534637451,
				1.1860723495483398,
				-5.868548393249512
			]
		},
		{
			"mesh":2,
			"name":"Cube.019_Cube.013",
			"rotation":[
				0.7071068286895752,
				0,
				0,
				0.7071068286895752
			],
			"scale":[
				0.6499999761581421,
				0.6499999761581421,
				0.6499999761581421
			],
			"translation":[
				0.7181117534637451,
				1.1860723495483398,
				-12.16896915435791
			]
		},
		{
			"mesh":3,
			"name":"Cube.019_Cube.006",
			"rotation":[
				0.7071068286895752,
				0,
				0,
				0.7071068286895752
			],
			"scale":[
				0.6499999761581421,
				0.6499999761581421,
				0.6499999761581421
			],
			"translation":[
				0.7181117534637451,
				3.4300377368927,
				-5.868548393249512
			]
		},
		{
			"mesh":4,
			"name":"Cube.019_Cube.008",
			"rotation":[
				0.7071068286895752,
				0,
				0,
				0.7071068286895752
			],
			"scale":[
				0.6499999761581421,
				0.6499999761581421,
				0.6499999761581421
			],
			"translation":[
				0.7181117534637451,
				3.4300377368927,
				-12.16896915435791
			]
		},
		{
			"mesh":5,
			"name":"Cube.019_Cube.009",
			"rotation":[
				0.7071068286895752,
				0,
				0,
				0.7071068286895752
			],
			"scale":[
				0.6499999761581421,
				0.6499999761581421,
				0.6499999761581421
			],
			"translation":[
				0.7181117534637451,
				5.925826072692871,
				-5.868548393249512
			]
		},
		{
			"mesh":6,
			"name":"Cube.019_Cube.010",
			"rotation":[
				0.7071068286895752,
				0,
				0,
				0.7071068286895752
			],
			"scale":[
				0.6499999761581421,
				0.6499999761581421,
				0.6499999761581421
			],
			"translation":[
				0.7181117534637451,
				5.925826072692871,
				-12.16896915435791
			]
		},
		{
			"mesh":7,
			"name":"Cube.019_Cube.011",
			"rotation":[
				0.7071068286895752,
				0,
				0,
				0.7071068286895752
			],
			"scale":[
				0.6499999761581421,
				0.6499999761581421,
				0.6499999761581421
			],
			"translation":[
				0.7181117534637451,
				8.426105499267578,
				-5.868548393249512
			]
		},
		{
			"mesh":8,
			"name":"Cube.019_Cube.012",
			"rotation":[
				0.7071068286895752,
				0,
				0,
				0.7071068286895752
			],
			"scale":[
				0.6499999761581421,
				0.6499999761581421,
				0.6499999761581421
			],
			"translation":[
				0.7181117534637451,
				8.426105499267578,
				-12.16896915435791
			]
		}
	],
	"materials":[
		{
			"doubleSided":true,
			"name":"Material.001",
			"pbrMetallicRoughness":{
				"baseColorFactor":[
					0.2653980851173401,
					0.2654016613960266,
					0.2654016613960266,
					1
				],
				"metallicFactor":0,
				"roughnessFactor":0.5
			}
		},
		{
			"doubleSided":true,
			"name":"Material.002",
			"pbrMetallicRoughness":{
				"baseColorFactor":[
					0.2653980851173401,
					0.2654016613960266,
					0.2654016613960266,
					1
				],
				"metallicFactor":0,
				"roughnessFactor":0.5
			}
		},
		{
			"doubleSided":true,
			"name":"Material.003",
			"pbrMetallicRoughness":{
				"baseColorFactor":[
					0.2653980851173401,
					0.2654016613960266,
					0.2654016613960266,
					1
				],
				"metallicFactor":0,
				"roughnessFactor":0.5
			}
		},
		{
			"doubleSided":true,
			"name":"Material.011",
			"pbrMetallicRoughness":{
				"baseColorTexture":{
					"index":0
				},
				"metallicFactor":0,
				"roughnessFactor":0.6900347471237183
			}
		}
	],
	"meshes":[
		{
			"name":"Cube.001",
			"primitives":[
				{
					"attributes":{
						"POSITION":0,
						"NORMAL":1,
						"TEXCOORD_0":2
					},
					"indices":3,
					"material":0
				},
				{
					"attributes":{
						"POSITION":4,
						"NORMAL":5,
						"TEXCOORD_0":6
					},
					"indices":7,
					"material":1
				},
				{
					"attributes":{
						"POSITION":8,
						"NORMAL":9,
						"TEXCOORD_0":10
					},
					"indices":7,
					"material":2
				}
			]
		},
		{
			"name":"Cube.019_Cube.004",
			"primitives":[
				{
					"attributes":{
						"POSITION":11,
						"NORMAL":12,
						"TEXCOORD_0":13
					},
					"indices":14,
					"material":3
				}
			]
		},
		{
			"name":"Cube.019_Cube.017",
			"primitives":[
				{
					"attributes":{
						"POSITION":15,
						"NORMAL":16,
						"TEXCOORD_0":17
					},
					"indices":18,
					"material":3
				}
			]
		},
		{
			"name":"Cube.019_Cube.001",
			"primitives":[
				{
					"attributes":{
						"POSITION":19,
						"NORMAL":20,
						"TEXCOORD_0":21
					},
					"indices":14,
					"material":3
				}
			]
		},
		{
			"name":"Cube.019_Cube.002",
			"primitives":[
				{
					"attributes":{
						"POSITION":22,
						"NORMAL":23,
						"TEXCOORD_0":24
					},
					"indices":18,
					"material":3
				}
			]
		},
		{
			"name":"Cube.019_Cube.003",
			"primitives":[
				{
					"attributes":{
						"POSITION":25,
						"NORMAL":26,
						"TEXCOORD_0":27
					},
					"indices":14,
					"material":3
				}
			]
		},
		{
			"name":"Cube.019_Cube.008",
			"primitives":[
				{
					"attributes":{
						"POSITION":28,
						"NORMAL":29,
						"TEXCOORD_0":30
					},
					"indices":18,
					"material":3
				}
			]
		},
		{
			"name":"Cube.019_Cube.009",
			"primitives":[
				{
					"attributes":{
						"POSITION":31,
						"NORMAL":32,
						"TEXCOORD_0":33
					},
					"indices":14,
					"material":3
				}
			]
		},
		{
			"name":"Cube.019_Cube.010",
			"primitives":[
				{
					"attributes":{
						"POSITION":34,
						"NORMAL":35,
						"TEXCOORD_0":36
					},
					"indices":18,
					"material":3
				}
			]
		}
	],
	"textures":[
		{
			"sampler":0,
			"source":0
		}
	],
	"images":[
		{
			"mimeType":"image/jpeg",
			"name":"twist",
			"uri":"twist.jpg"
		}
	],
	"accessors":[
		{
			"bufferView":0,
			"componentType":5126,
			"count":144,
			"max":[
				1,
				1.000000238418579,
				1.0037204027175903
			],
			"min":[
				-31.050485610961914,
				-1,
				-1.0172438621520996
			],
			"type":"VEC3"
		},
		{
			"bufferView":1,
			"componentType":5126,
			"count":144,
			"type":"VEC3"
		},
		{
			"bufferView":2,
			"componentType":5126,
			"count":144,
			"type":"VEC2"
		},
		{
			"bufferView":3,
			"componentType":5123,
			"count":216,
			"type":"SCALAR"
		},
		{
			"bufferView":4,
			"componentType":5126,
			"count":24,
			"max":[
				0.18771076202392578,
				-0.4591762125492096,
				0.8895530104637146
			],
			"min":[
				-30.594608306884766,
				-0.5603434443473816,
				-0.9142555594444275
			],
			"type":"VEC3"
		},
		{
			"bufferView":5,
			"componentType":5126,
			"count":24,
			"type":"VEC3"
		},
		{
			"bufferView":6,
			"componentType":5126,
			"count":24,
			"type":"VEC2"
		},
		{
			"bufferView":7,
			"componentType":5123,
			"count":36,
			"type":"SCALAR"
		},
		{
			"bufferView":8,
			"componentType":5126,
			"count":24,
			"max":[
				0.18771076202392578,
				0.027204837650060654,
				0.8895530104637146
			],
			"min":[
				-30.594608306884766,
				-0.07396242022514343,
				-0.9142557978630066
			],
			"type":"VEC3"
		},
		{
			"bufferView":9,
			"componentType":5126,
			"count":24,
			"type":"VEC3"
		},
		{
			"bufferView":10,
			"componentType":5126,
			"count":24,
			"type":"VEC2"
		},
		{
			"bufferView":11,
			"componentType":5126,
			"count":393,
			"max":[
				0.4758409857749939,
				0.4758409857749939,
				1.4147160053253174
			],
			"min":[
				-0.4758400022983551,
				-0.4758400022983551,
				-1.153059959411621
			],
			"type":"VEC3"
		},
		{
			"bufferView":12,
			"componentType":5126,
			"count":393,
			"type":"VEC3"
		},
		{
			"bufferView":13,
			"componentType":5126,
			"count":393,
			"type":"VEC2"
		},
		{
			"bufferView":14,
			"componentType":5123,
			"count":624,
			"type":"SCALAR"
		},
		{
			"bufferView":15,
			"componentType":5126,
			"count":3930,
			"max":[
				0.4758409857749939,
				9.237499237060547,
				1.4147166013717651
			],
			"min":[
				-0.4758400022983551,
				-0.4758400022983551,
				-1.153059959411621
			],
			"type":"VEC3"
		},
		{
			"bufferView":16,
			"componentType":5126,
			"count":3930,
			"type":"VEC3"
		},
		{
			"bufferView":17,
			"componentType":5126,
			"count":3930,
			"type":"VEC2"
		},
		{
			"bufferView":18,
			"componentType":5123,
			"count":6240,
			"type":"SCALAR"
		},
		{
			"bufferView":19,
			"componentType":5126,
			"count":393,
			"max":[
				0.4758409857749939,
				0.4758409857749939,
				1.4147160053253174
			],
			"min":[
				-0.4758400022983551,
				-0.4758400022983551,
				-1.153059959411621
			],
			"type":"VEC3"
		},
		{
			"bufferView":20,
			"componentType":5126,
			"count":393,
			"type":"VEC3"
		},
		{
			"bufferView":21,
			"componentType":5126,
			"count":393,
			"type":"VEC2"
		},
		{
			"bufferView":22,
			"componentType":5126,
			"count":3930,
			"max":[
				0.4758409857749939,
				9.237499237060547,
				1.4147166013717651
			],
			"min":[
				-0.4758400022983551,
				-0.4758400022983551,
				-1.153059959411621
			],
			"type":"VEC3"
		},
		{
			"bufferView":23,
			"componentType":5126,
			"count":3930,
			"type":"VEC3"
		},
		{
			"bufferView":24,
			"componentType":5126,
			"count":3930,
			"type":"VEC2"
		},
		{
			"bufferView":25,
			"componentType":5126,
			"count":393,
			"max":[
				0.4758409857749939,
				0.4758409857749939,
				1.4147160053253174
			],
			"min":[
				-0.4758400022983551,
				-0.4758400022983551,
				-1.153059959411621
			],
			"type":"VEC3"
		},
		{
			"bufferView":26,
			"componentType":5126,
			"count":393,
			"type":"VEC3"
		},
		{
			"bufferView":27,
			"componentType":5126,
			"count":393,
			"type":"VEC2"
		},
		{
			"bufferView":28,
			"componentType":5126,
			"count":3930,
			"max":[
				0.4758409857749939,
				9.237499237060547,
				1.4147166013717651
			],
			"min":[
				-0.4758400022983551,
				-0.4758400022983551,
				-1.153059959411621
			],
			"type":"VEC3"
		},
		{
			"bufferView":29,
			"componentType":5126,
			"count":3930,
			"type":"VEC3"
		},
		{
			"bufferView":30,
			"componentType":5126,
			"count":3930,
			"type":"VEC2"
		},
		{
			"bufferView":31,
			"componentType":5126,
			"count":393,
			"max":[
				0.4758409857749939,
				0.4758409857749939,
				1.4147160053253174
			],
			"min":[
				-0.4758400022983551,
				-0.4758400022983551,
				-1.153059959411621
			],
			"type":"VEC3"
		},
		{
			"bufferView":32,
			"componentType":5126,
			"count":393,
			"type":"VEC3"
		},
		{
			"bufferView":33,
			"componentType":5126,
			"count":393,
			"type":"VEC2"
		},
		{
			"bufferView":34,
			"componentType":5126,
			"count":3930,
			"max":[
				0.4758409857749939,
				9.237499237060547,
				1.4147166013717651
			],
			"min":[
				-0.4758400022983551,
				-0.4758400022983551,
				-1.153059959411621
			],
			"type":"VEC3"
		},
		{
			"bufferView":35,
			"componentType":5126,
			"count":3930,
			"type":"VEC3"
		},
		{
			"bufferView":36,
			"componentType":5126,
			"count":3930,
			"type":"VEC2"
		}
	],
	"bufferViews":[
		{
			"buffer":0,
			"byteLength":1728,
			"byteOffset":0,
			"target":34962
		},
		{
			"buffer":0,
			"byteLength":1728,
			"byteOffset":1728,
			"target":34962
		},
		{
			"buffer":0,
			"byteLength":1152,
			"byteOffset":3456,
			"target":34962
		},
		{
			"buffer":0,
			"byteLength":432,
			"byteOffset":4608,
			"target":34963
		},
		{
			"buffer":0,
			"byteLength":288,
			"byteOffset":5040,
			"target":34962
		},
		{
			"buffer":0,
			"byteLength":288,
			"byteOffset":5328,
			"target":34962
		},
		{
			"buffer":0,
			"byteLength":192,
			"byteOffset":5616,
			"target":34962
		},
		{
			"buffer":0,
			"byteLength":72,
			"byteOffset":5808,
			"target":34963
		},
		{
			"buffer":0,
			"byteLength":288,
			"byteOffset":5880,
			"target":34962
		},
		{
			"buffer":0,
			"byteLength":288,
			"byteOffset":6168,
			"target":34962
		},
		{
			"buffer":0,
			"byteLength":192,
			"byteOffset":6456,
			"target":34962
		},
		{
			"buffer":0,
			"byteLength":4716,
			"byteOffset":6648,
			"target":34962
		},
		{
			"buffer":0,
			"byteLength":4716,
			"byteOffset":11364,
			"target":34962
		},
		{
			"buffer":0,
			"byteLength":3144,
			"byteOffset":16080,
			"target":34962
		},
		{
			"buffer":0,
			"byteLength":1248,
			"byteOffset":19224,
			"target":34963
		},
		{
			"buffer":0,
			"byteLength":47160,
			"byteOffset":20472,
			"target":34962
		},
		{
			"buffer":0,
			"byteLength":47160,
			"byteOffset":67632,
			"target":34962
		},
		{
			"buffer":0,
			"byteLength":31440,
			"byteOffset":114792,
			"target":34962
		},
		{
			"buffer":0,
			"byteLength":12480,
			"byteOffset":146232,
			"target":34963
		},
		{
			"buffer":0,
			"byteLength":4716,
			"byteOffset":158712,
			"target":34962
		},
		{
			"buffer":0,
			"byteLength":4716,
			"byteOffset":163428,
			"target":34962
		},
		{
			"buffer":0,
			"byteLength":3144,
			"byteOffset":168144,
			"target":34962
		},
		{
			"buffer":0,
			"byteLength":47160,
			"byteOffset":171288,
			"target":34962
		},
		{
			"buffer":0,
			"byteLength":47160,
			"byteOffset":218448,
			"target":34962
		},
		{
			"buffer":0,
			"byteLength":31440,
			"byteOffset":265608,
			"target":34962
		},
		{
			"buffer":0,
			"byteLength":4716,
			"byteOffset":297048,
			"target":34962
		},
		{
			"buffer":0,
			"byteLength":4716,
			"byteOffset":301764,
			"target":34962
		},
		{
			"buffer":0,
			"byteLength":3144,
			"byteOffset":306480,
			"target":34962
		},
		{
			"buffer":0,
			"byteLength":47160,
			"byteOffset":309624,
			"target":34962
		},
		{
			"buffer":0,
			"byteLength":47160,
			"byteOffset":356784,
			"target":34962
		},
		{
			"buffer":0,
			"byteLength":31440,
			"byteOffset":403944,
			"target":34962
		},
		{
			"buffer":0,
			"byteLength":4716,
			"byteOffset":435384,
			"target":34962
		},
		{
			"buffer":0,
			"byteLength":4716,
			"byteOffset":440100,
			"target":34962
		},
		{
			"buffer":0,
			"byteLength":3144,
			"byteOffset":444816,
			"target":34962
		},
		{
			"buffer":0,
			"byteLength":47160,
			"byteOffset":447960,
			"target":34962
		},
		{
			"buffer":0,
			"byteLength":47160,
			"byteOffset":495120,
			"target":34962
		},
		{
			"buffer":0,
			"byteLength":31440,
			"byteOffset":542280,
			"target":34962
		}
	],
	"samplers":[
		{
			"magFilter":9729,
			"minFilter":9987
		}
	],
	"buffers":[
		{
			"byteLength":573720,
			"uri":"twist_shelf.bin"
		}
	]
}
