{
	"asset":{
		"generator":"Khronos glTF Blender I/O v4.2.60",
		"version":"2.0"
	},
	"extensionsUsed":[
		"KHR_materials_specular",
		"KHR_materials_ior"
	],
	"scene":0,
	"scenes":[
		{
			"name":"Scene",
			"nodes":[
				0,
				1,
				2
			]
		}
	],
	"nodes":[
		{
			"mesh":0,
			"name":"fish_001.006",
			"rotation":[
				-0.040929924696683884,
				0.004940473940223455,
				-0.001128230825997889,
				0.9991492629051208
			],
			"scale":[
				6.000000476837158,
				6.000000476837158,
				6.000000476837158
			],
			"translation":[
				0.5509556531906128,
				3.656479597091675,
				-3.6772913932800293
			]
		},
		{
			"mesh":1,
			"name":"Cube.001",
			"scale":[
				1,
				0.5268014073371887,
				1.3792020082473755
			],
			"translation":[
				0.012364745140075684,
				3.673156499862671,
				-2.8224387168884277
			]
		},
		{
			"mesh":2,
			"name":"fish_001.001",
			"rotation":[
				-0.040929924696683884,
				0.004940473940223455,
				-0.001128230825997889,
				0.9991492629051208
			],
			"scale":[
				6.000000476837158,
				6.000000476837158,
				6.000000476837158
			],
			"translation":[
				-3.876368999481201,
				3.656479597091675,
				-3.6772913932800293
			]
		}
	],
	"materials":[
		{
			"doubleSided":true,
			"extensions":{
				"KHR_materials_specular":{
					"specularColorFactor":[
						0.9485430717468262,
						0.9485430717468262,
						0.9485430717468262
					]
				},
				"KHR_materials_ior":{
					"ior":1.4500000476837158
				}
			},
			"name":"Material.002",
			"pbrMetallicRoughness":{
				"baseColorTexture":{
					"index":0
				},
				"metallicFactor":0,
				"roughnessFactor":0.30000001192092896
			}
		},
		{
			"doubleSided":true,
			"name":"Material.001",
			"pbrMetallicRoughness":{
				"baseColorTexture":{
					"index":1
				},
				"metallicFactor":0,
				"roughnessFactor":0.5
			}
		}
	],
	"meshes":[
		{
			"name":"Mesh.036",
			"primitives":[
				{
					"attributes":{
						"POSITION":0,
						"NORMAL":1,
						"TEXCOORD_0":2
					},
					"indices":3,
					"material":0
				}
			]
		},
		{
			"name":"Cube.003",
			"primitives":[
				{
					"attributes":{
						"POSITION":4,
						"NORMAL":5,
						"TEXCOORD_0":6
					},
					"indices":7,
					"material":1
				}
			]
		},
		{
			"name":"Mesh.001",
			"primitives":[
				{
					"attributes":{
						"POSITION":8,
						"NORMAL":9,
						"TEXCOORD_0":10
					},
					"indices":3,
					"material":0
				}
			]
		}
	],
	"textures":[
		{
			"sampler":0,
			"source":0
		},
		{
			"sampler":0,
			"source":1
		}
	],
	"images":[
		{
			"mimeType":"image/png",
			"name":"Textures",
			"uri":"Textures.png"
		},
		{
			"mimeType":"image/jpeg",
			"name":"coolerbox",
			"uri":"coolerbox.jpg"
		}
	],
	"accessors":[
		{
			"bufferView":0,
			"componentType":5126,
			"count":7790,
			"max":[
				0.6029602289199829,
				0.05480952933430672,
				0.4420749247074127
			],
			"min":[
				-0.04955625161528587,
				-0.027467146515846252,
				-0.1520593911409378
			],
			"type":"VEC3"
		},
		{
			"bufferView":1,
			"componentType":5126,
			"count":7790,
			"type":"VEC3"
		},
		{
			"bufferView":2,
			"componentType":5126,
			"count":7790,
			"type":"VEC2"
		},
		{
			"bufferView":3,
			"componentType":5123,
			"count":10836,
			"type":"SCALAR"
		},
		{
			"bufferView":4,
			"componentType":5126,
			"count":92,
			"max":[
				4.597409725189209,
				1.0722384452819824,
				1.5331050157546997
			],
			"min":[
				-4.6221394538879395,
				-6.964273929595947,
				-1.5365296602249146
			],
			"type":"VEC3"
		},
		{
			"bufferView":5,
			"componentType":5126,
			"count":92,
			"type":"VEC3"
		},
		{
			"bufferView":6,
			"componentType":5126,
			"count":92,
			"type":"VEC2"
		},
		{
			"bufferView":7,
			"componentType":5123,
			"count":150,
			"type":"SCALAR"
		},
		{
			"bufferView":8,
			"componentType":5126,
			"count":7790,
			"max":[
				0.6029602289199829,
				0.05480952933430672,
				0.4420749247074127
			],
			"min":[
				-0.04955625161528587,
				-0.027467146515846252,
				-0.1520593911409378
			],
			"type":"VEC3"
		},
		{
			"bufferView":9,
			"componentType":5126,
			"count":7790,
			"type":"VEC3"
		},
		{
			"bufferView":10,
			"componentType":5126,
			"count":7790,
			"type":"VEC2"
		}
	],
	"bufferViews":[
		{
			"buffer":0,
			"byteLength":93480,
			"byteOffset":0,
			"target":34962
		},
		{
			"buffer":0,
			"byteLength":93480,
			"byteOffset":93480,
			"target":34962
		},
		{
			"buffer":0,
			"byteLength":62320,
			"byteOffset":186960,
			"target":34962
		},
		{
			"buffer":0,
			"byteLength":21672,
			"byteOffset":249280,
			"target":34963
		},
		{
			"buffer":0,
			"byteLength":1104,
			"byteOffset":270952,
			"target":34962
		},
		{
			"buffer":0,
			"byteLength":1104,
			"byteOffset":272056,
			"target":34962
		},
		{
			"buffer":0,
			"byteLength":736,
			"byteOffset":273160,
			"target":34962
		},
		{
			"buffer":0,
			"byteLength":300,
			"byteOffset":273896,
			"target":34963
		},
		{
			"buffer":0,
			"byteLength":93480,
			"byteOffset":274196,
			"target":34962
		},
		{
			"buffer":0,
			"byteLength":93480,
			"byteOffset":367676,
			"target":34962
		},
		{
			"buffer":0,
			"byteLength":62320,
			"byteOffset":461156,
			"target":34962
		}
	],
	"samplers":[
		{
			"magFilter":9729,
			"minFilter":9987
		}
	],
	"buffers":[
		{
			"byteLength":523476,
			"uri":"fish_box.bin"
		}
	]
}
