{
	"asset":{
		"generator":"Khronos glTF Blender I/O v4.2.60",
		"version":"2.0"
	},
	"extensionsUsed":[
		"KHR_materials_specular",
		"KHR_materials_ior"
	],
	"scene":0,
	"scenes":[
		{
			"name":"Scene",
			"nodes":[
				0
			]
		}
	],
	"nodes":[
		{
			"mesh":0,
			"name":"fish_001.006",
			"scale":[
				6.000000476837158,
				6.000000476837158,
				6.000000476837158
			]
		}
	],
	"materials":[
		{
			"doubleSided":true,
			"extensions":{
				"KHR_materials_specular":{
					"specularColorFactor":[
						0.9485430717468262,
						0.9485430717468262,
						0.9485430717468262
					]
				},
				"KHR_materials_ior":{
					"ior":1.4500000476837158
				}
			},
			"name":"Material.009",
			"pbrMetallicRoughness":{
				"baseColorTexture":{
					"index":0
				},
				"metallicFactor":0,
				"roughnessFactor":0.30000001192092896
			}
		},
		{
			"doubleSided":true,
			"name":"Material.013",
			"pbrMetallicRoughness":{
				"baseColorTexture":{
					"index":1
				},
				"metallicFactor":0,
				"roughnessFactor":0.5
			}
		}
	],
	"meshes":[
		{
			"name":"Mesh.036",
			"primitives":[
				{
					"attributes":{
						"POSITION":0,
						"NORMAL":1,
						"TEXCOORD_0":2
					},
					"indices":3,
					"material":0
				},
				{
					"attributes":{
						"POSITION":4,
						"NORMAL":5,
						"TEXCOORD_0":6
					},
					"indices":7,
					"material":1
				}
			]
		}
	],
	"textures":[
		{
			"sampler":0,
			"source":0
		},
		{
			"sampler":0,
			"source":1
		}
	],
	"images":[
		{
			"mimeType":"image/png",
			"name":"Textures",
			"uri":"Textures.png"
		},
		{
			"mimeType":"image/jpeg",
			"name":"coolerbox",
			"uri":"coolerbox.jpg"
		}
	],
	"accessors":[
		{
			"bufferView":0,
			"componentType":5126,
			"count":15906,
			"max":[
				0.6960077285766602,
				0.3434608578681946,
				0.2976156771183014
			],
			"min":[
				-0.6943473815917969,
				0.2851792871952057,
				-0.30234280228614807
			],
			"type":"VEC3"
		},
		{
			"bufferView":1,
			"componentType":5126,
			"count":15906,
			"type":"VEC3"
		},
		{
			"bufferView":2,
			"componentType":5126,
			"count":15906,
			"type":"VEC2"
		},
		{
			"bufferView":3,
			"componentType":5123,
			"count":21672,
			"type":"SCALAR"
		},
		{
			"bufferView":4,
			"componentType":5126,
			"count":92,
			"max":[
				0.7716823220252991,
				0.3783353269100189,
				0.35844841599464417
			],
			"min":[
				-0.7715569734573364,
				-0.3292582631111145,
				-0.3606007397174835
			],
			"type":"VEC3"
		},
		{
			"bufferView":5,
			"componentType":5126,
			"count":92,
			"type":"VEC3"
		},
		{
			"bufferView":6,
			"componentType":5126,
			"count":92,
			"type":"VEC2"
		},
		{
			"bufferView":7,
			"componentType":5123,
			"count":150,
			"type":"SCALAR"
		}
	],
	"bufferViews":[
		{
			"buffer":0,
			"byteLength":190872,
			"byteOffset":0,
			"target":34962
		},
		{
			"buffer":0,
			"byteLength":190872,
			"byteOffset":190872,
			"target":34962
		},
		{
			"buffer":0,
			"byteLength":127248,
			"byteOffset":381744,
			"target":34962
		},
		{
			"buffer":0,
			"byteLength":43344,
			"byteOffset":508992,
			"target":34963
		},
		{
			"buffer":0,
			"byteLength":1104,
			"byteOffset":552336,
			"target":34962
		},
		{
			"buffer":0,
			"byteLength":1104,
			"byteOffset":553440,
			"target":34962
		},
		{
			"buffer":0,
			"byteLength":736,
			"byteOffset":554544,
			"target":34962
		},
		{
			"buffer":0,
			"byteLength":300,
			"byteOffset":555280,
			"target":34963
		}
	],
	"samplers":[
		{
			"magFilter":9729,
			"minFilter":9987
		}
	],
	"buffers":[
		{
			"byteLength":555580,
			"uri":"fish_box.bin"
		}
	]
}
