{
	"asset":{
		"generator":"Khronos glTF Blender I/O v4.2.60",
		"version":"2.0"
	},
	"extensionsUsed":[
		"KHR_materials_specular",
		"KHR_materials_ior"
	],
	"scene":0,
	"scenes":[
		{
			"name":"Scene",
			"nodes":[
				0
			]
		}
	],
	"nodes":[
		{
			"mesh":0,
			"name":"fish_001.006",
			"rotation":[
				0,
				1,
				0,
				0
			],
			"scale":[
				6.000000476837158,
				6.000000476837158,
				6.000000476837158
			]
		}
	],
	"materials":[
		{
			"doubleSided":true,
			"extensions":{
				"KHR_materials_specular":{
					"specularColorFactor":[
						0.9485430717468262,
						0.9485430717468262,
						0.9485430717468262
					]
				},
				"KHR_materials_ior":{
					"ior":1.4500000476837158
				}
			},
			"name":"Material.009",
			"pbrMetallicRoughness":{
				"baseColorTexture":{
					"index":0
				},
				"metallicFactor":0,
				"roughnessFactor":0.30000001192092896
			}
		},
		{
			"doubleSided":true,
			"name":"Material.013",
			"pbrMetallicRoughness":{
				"baseColorTexture":{
					"index":1
				},
				"metallicFactor":0,
				"roughnessFactor":0.5
			}
		}
	],
	"meshes":[
		{
			"name":"Mesh.036",
			"primitives":[
				{
					"attributes":{
						"POSITION":0,
						"NORMAL":1,
						"TEXCOORD_0":2
					},
					"indices":3,
					"material":0
				},
				{
					"attributes":{
						"POSITION":4,
						"NORMAL":5,
						"TEXCOORD_0":6
					},
					"indices":7,
					"material":1
				}
			]
		}
	],
	"textures":[
		{
			"sampler":0,
			"source":0
		},
		{
			"sampler":0,
			"source":1
		}
	],
	"images":[
		{
			"mimeType":"image/png",
			"name":"Textures",
			"uri":"Textures.png"
		},
		{
			"mimeType":"image/jpeg",
			"name":"coolerbox",
			"uri":"coolerbox.jpg"
		}
	],
	"accessors":[
		{
			"bufferView":0,
			"componentType":5126,
			"count":15633,
			"max":[
				0.6029602289199829,
				0.05480952933430672,
				0.4420749247074127
			],
			"min":[
				-0.787405788898468,
				-0.02883234992623329,
				-0.15941239893436432
			],
			"type":"VEC3"
		},
		{
			"bufferView":1,
			"componentType":5126,
			"count":15633,
			"type":"VEC3"
		},
		{
			"bufferView":2,
			"componentType":5126,
			"count":15633,
			"type":"VEC2"
		},
		{
			"bufferView":3,
			"componentType":5123,
			"count":21672,
			"type":"SCALAR"
		},
		{
			"bufferView":4,
			"componentType":5126,
			"count":92,
			"max":[
				0.6801144480705261,
				0.11508618295192719,
				0.5078705549240112
			],
			"min":[
				-0.8651753664016724,
				-0.6487180590629578,
				-0.2683543860912323
			],
			"type":"VEC3"
		},
		{
			"bufferView":5,
			"componentType":5126,
			"count":92,
			"type":"VEC3"
		},
		{
			"bufferView":6,
			"componentType":5126,
			"count":92,
			"type":"VEC2"
		},
		{
			"bufferView":7,
			"componentType":5123,
			"count":150,
			"type":"SCALAR"
		}
	],
	"bufferViews":[
		{
			"buffer":0,
			"byteLength":187596,
			"byteOffset":0,
			"target":34962
		},
		{
			"buffer":0,
			"byteLength":187596,
			"byteOffset":187596,
			"target":34962
		},
		{
			"buffer":0,
			"byteLength":125064,
			"byteOffset":375192,
			"target":34962
		},
		{
			"buffer":0,
			"byteLength":43344,
			"byteOffset":500256,
			"target":34963
		},
		{
			"buffer":0,
			"byteLength":1104,
			"byteOffset":543600,
			"target":34962
		},
		{
			"buffer":0,
			"byteLength":1104,
			"byteOffset":544704,
			"target":34962
		},
		{
			"buffer":0,
			"byteLength":736,
			"byteOffset":545808,
			"target":34962
		},
		{
			"buffer":0,
			"byteLength":300,
			"byteOffset":546544,
			"target":34963
		}
	],
	"samplers":[
		{
			"magFilter":9729,
			"minFilter":9987
		}
	],
	"buffers":[
		{
			"byteLength":546844,
			"uri":"fish_box.bin"
		}
	]
}
