{
	"asset":{
		"generator":"Khronos glTF Blender I/O v4.2.60",
		"version":"2.0"
	},
	"scene":0,
	"scenes":[
		{
			"name":"Scene",
			"nodes":[
				0
			]
		}
	],
	"nodes":[
		{
			"mesh":0,
			"name":"Cube",
			"scale":[
				4.609775066375732,
				2.116823196411133,
				2.116823196411133
			]
		}
	],
	"materials":[
		{
			"doubleSided":true,
			"name":"Material.001",
			"pbrMetallicRoughness":{
				"baseColorFactor":[
					0.48288780450820923,
					0.3270036280155182,
					0.1440112143754959,
					1
				],
				"metallicFactor":0,
				"roughnessFactor":0.5
			}
		},
		{
			"name":"lambert3SG",
			"pbrMetallicRoughness":{
				"baseColorFactor":[
					0.6600000262260437,
					0.029999999329447746,
					0.05999999865889549,
					1
				],
				"metallicFactor":0
			}
		},
		{
			"name":"lambert2SG",
			"pbrMetallicRoughness":{
				"baseColorFactor":[
					0.25,
					0.4000000059604645,
					0.009999999776482582,
					1
				],
				"metallicFactor":0
			}
		}
	],
	"meshes":[
		{
			"name":"Cube.001",
			"primitives":[
				{
					"attributes":{
						"POSITION":0,
						"NORMAL":1,
						"TEXCOORD_0":2
					},
					"indices":3,
					"material":0
				},
				{
					"attributes":{
						"POSITION":4,
						"NORMAL":5,
						"TEXCOORD_0":6
					},
					"indices":7,
					"material":1
				},
				{
					"attributes":{
						"POSITION":8,
						"NORMAL":9,
						"TEXCOORD_0":10
					},
					"indices":11,
					"material":2
				}
			]
		}
	],
	"accessors":[
		{
			"bufferView":0,
			"componentType":5126,
			"count":72,
			"max":[
				0.9999999403953552,
				0.9999999403953552,
				0.9999999403953552
			],
			"min":[
				-0.9999999403953552,
				-0.9999999403953552,
				-0.9999999403953552
			],
			"type":"VEC3"
		},
		{
			"bufferView":1,
			"componentType":5126,
			"count":72,
			"type":"VEC3"
		},
		{
			"bufferView":2,
			"componentType":5126,
			"count":72,
			"type":"VEC2"
		},
		{
			"bufferView":3,
			"componentType":5123,
			"count":120,
			"type":"SCALAR"
		},
		{
			"bufferView":4,
			"componentType":5126,
			"count":176977,
			"max":[
				0.9315335750579834,
				1.0713361501693726,
				0.793190598487854
			],
			"min":[
				-0.90330970287323,
				0.5452442169189453,
				-0.7825482487678528
			],
			"type":"VEC3"
		},
		{
			"bufferView":5,
			"componentType":5126,
			"count":176977,
			"type":"VEC3"
		},
		{
			"bufferView":6,
			"componentType":5126,
			"count":176977,
			"type":"VEC2"
		},
		{
			"bufferView":7,
			"componentType":5125,
			"count":218880,
			"type":"SCALAR"
		},
		{
			"bufferView":8,
			"componentType":5126,
			"count":31698,
			"max":[
				0.9391448497772217,
				1.104506254196167,
				0.4197104573249817
			],
			"min":[
				-0.9137815237045288,
				0.59633868932724,
				-0.8261060118675232
			],
			"type":"VEC3"
		},
		{
			"bufferView":9,
			"componentType":5126,
			"count":31698,
			"type":"VEC3"
		},
		{
			"bufferView":10,
			"componentType":5126,
			"count":31698,
			"type":"VEC2"
		},
		{
			"bufferView":11,
			"componentType":5123,
			"count":32256,
			"type":"SCALAR"
		}
	],
	"bufferViews":[
		{
			"buffer":0,
			"byteLength":864,
			"byteOffset":0,
			"target":34962
		},
		{
			"buffer":0,
			"byteLength":864,
			"byteOffset":864,
			"target":34962
		},
		{
			"buffer":0,
			"byteLength":576,
			"byteOffset":1728,
			"target":34962
		},
		{
			"buffer":0,
			"byteLength":240,
			"byteOffset":2304,
			"target":34963
		},
		{
			"buffer":0,
			"byteLength":2123724,
			"byteOffset":2544,
			"target":34962
		},
		{
			"buffer":0,
			"byteLength":2123724,
			"byteOffset":2126268,
			"target":34962
		},
		{
			"buffer":0,
			"byteLength":1415816,
			"byteOffset":4249992,
			"target":34962
		},
		{
			"buffer":0,
			"byteLength":875520,
			"byteOffset":5665808,
			"target":34963
		},
		{
			"buffer":0,
			"byteLength":380376,
			"byteOffset":6541328,
			"target":34962
		},
		{
			"buffer":0,
			"byteLength":380376,
			"byteOffset":6921704,
			"target":34962
		},
		{
			"buffer":0,
			"byteLength":253584,
			"byteOffset":7302080,
			"target":34962
		},
		{
			"buffer":0,
			"byteLength":64512,
			"byteOffset":7555664,
			"target":34963
		}
	],
	"buffers":[
		{
			"byteLength":7620176,
			"uri":"beet_box.bin"
		}
	]
}
