{
	"asset":{
		"generator":"Khronos glTF Blender I/O v4.2.60",
		"version":"2.0"
	},
	"scene":0,
	"scenes":[
		{
			"name":"Scene",
			"nodes":[
				0
			]
		}
	],
	"nodes":[
		{
			"mesh":0,
			"name":"wineRed"
		}
	],
	"materials":[
		{
			"name":"brownDarkest",
			"pbrMetallicRoughness":{
				"baseColorFactor":[
					0.05000000074505806,
					0.019999999552965164,
					0.009999999776482582,
					1
				],
				"metallicFactor":0
			}
		},
		{
			"name":"brownLight",
			"pbrMetallicRoughness":{
				"baseColorFactor":[
					0.9800000190734863,
					0.6499999761581421,
					0.3700000047683716,
					1
				],
				"metallicFactor":0
			}
		},
		{
			"name":"brown",
			"pbrMetallicRoughness":{
				"baseColorFactor":[
					1,
					0.4399999976158142,
					0.20999999344348907,
					1
				],
				"metallicFactor":0
			}
		},
		{
			"name":"red",
			"pbrMetallicRoughness":{
				"baseColorFactor":[
					0.8100000023841858,
					0.09000000357627869,
					0.07999999821186066,
					1
				],
				"metallicFactor":0
			}
		}
	],
	"meshes":[
		{
			"name":"wineRed_1",
			"primitives":[
				{
					"attributes":{
						"POSITION":0,
						"NORMAL":1,
						"TEXCOORD_0":2
					},
					"indices":3,
					"material":0
				},
				{
					"attributes":{
						"POSITION":4,
						"NORMAL":5,
						"TEXCOORD_0":6
					},
					"indices":7,
					"material":1
				},
				{
					"attributes":{
						"POSITION":8,
						"NORMAL":9,
						"TEXCOORD_0":10
					},
					"indices":11,
					"material":2
				},
				{
					"attributes":{
						"POSITION":12,
						"NORMAL":13,
						"TEXCOORD_0":14
					},
					"indices":15,
					"material":3
				}
			]
		}
	],
	"accessors":[
		{
			"bufferView":0,
			"componentType":5126,
			"count":110,
			"max":[
				0.09539712220430374,
				0.5281919836997986,
				0.08261632919311523
			],
			"min":[
				-0.09539712220430374,
				0,
				-0.08261632919311523
			],
			"type":"VEC3"
		},
		{
			"bufferView":1,
			"componentType":5126,
			"count":110,
			"type":"VEC3"
		},
		{
			"bufferView":2,
			"componentType":5126,
			"count":110,
			"type":"VEC2"
		},
		{
			"bufferView":3,
			"componentType":5123,
			"count":180,
			"type":"SCALAR"
		},
		{
			"bufferView":4,
			"componentType":5126,
			"count":8,
			"max":[
				0.09539712220430374,
				0.3174743056297302,
				0.061962250620126724
			],
			"min":[
				0.059623200446367264,
				0.12231689691543579,
				-0.061962250620126724
			],
			"type":"VEC3"
		},
		{
			"bufferView":5,
			"componentType":5126,
			"count":8,
			"type":"VEC3"
		},
		{
			"bufferView":6,
			"componentType":5126,
			"count":8,
			"type":"VEC2"
		},
		{
			"bufferView":7,
			"componentType":5123,
			"count":12,
			"type":"SCALAR"
		},
		{
			"bufferView":8,
			"componentType":5126,
			"count":30,
			"max":[
				0.02379358932375908,
				0.6988800168037415,
				0.020605849102139473
			],
			"min":[
				-0.02379358932375908,
				0.6512665152549744,
				-0.020605849102139473
			],
			"type":"VEC3"
		},
		{
			"bufferView":9,
			"componentType":5126,
			"count":30,
			"type":"VEC3"
		},
		{
			"bufferView":10,
			"componentType":5126,
			"count":30,
			"type":"VEC2"
		},
		{
			"bufferView":11,
			"componentType":5123,
			"count":48,
			"type":"SCALAR"
		},
		{
			"bufferView":12,
			"componentType":5126,
			"count":84,
			"max":[
				0.03845185041427612,
				0.6512665152549744,
				0.03330028057098389
			],
			"min":[
				-0.03845185041427612,
				0.5281919836997986,
				-0.03330028057098389
			],
			"type":"VEC3"
		},
		{
			"bufferView":13,
			"componentType":5126,
			"count":84,
			"type":"VEC3"
		},
		{
			"bufferView":14,
			"componentType":5126,
			"count":84,
			"type":"VEC2"
		},
		{
			"bufferView":15,
			"componentType":5123,
			"count":144,
			"type":"SCALAR"
		}
	],
	"bufferViews":[
		{
			"buffer":0,
			"byteLength":1320,
			"byteOffset":0,
			"target":34962
		},
		{
			"buffer":0,
			"byteLength":1320,
			"byteOffset":1320,
			"target":34962
		},
		{
			"buffer":0,
			"byteLength":880,
			"byteOffset":2640,
			"target":34962
		},
		{
			"buffer":0,
			"byteLength":360,
			"byteOffset":3520,
			"target":34963
		},
		{
			"buffer":0,
			"byteLength":96,
			"byteOffset":3880,
			"target":34962
		},
		{
			"buffer":0,
			"byteLength":96,
			"byteOffset":3976,
			"target":34962
		},
		{
			"buffer":0,
			"byteLength":64,
			"byteOffset":4072,
			"target":34962
		},
		{
			"buffer":0,
			"byteLength":24,
			"byteOffset":4136,
			"target":34963
		},
		{
			"buffer":0,
			"byteLength":360,
			"byteOffset":4160,
			"target":34962
		},
		{
			"buffer":0,
			"byteLength":360,
			"byteOffset":4520,
			"target":34962
		},
		{
			"buffer":0,
			"byteLength":240,
			"byteOffset":4880,
			"target":34962
		},
		{
			"buffer":0,
			"byteLength":96,
			"byteOffset":5120,
			"target":34963
		},
		{
			"buffer":0,
			"byteLength":1008,
			"byteOffset":5216,
			"target":34962
		},
		{
			"buffer":0,
			"byteLength":1008,
			"byteOffset":6224,
			"target":34962
		},
		{
			"buffer":0,
			"byteLength":672,
			"byteOffset":7232,
			"target":34962
		},
		{
			"buffer":0,
			"byteLength":288,
			"byteOffset":7904,
			"target":34963
		}
	],
	"buffers":[
		{
			"byteLength":8192,
			"uri":"red_wine.bin"
		}
	]
}
