{
	"asset":{
		"generator":"Khronos glTF Blender I/O v4.2.60",
		"version":"2.0"
	},
	"scene":0,
	"scenes":[
		{
			"name":"Scene",
			"nodes":[
				0
			]
		}
	],
	"nodes":[
		{
			"mesh":0,
			"name":"Cube.030",
			"rotation":[
				0,
				0.7068914771080017,
				0,
				0.7073220610618591
			],
			"scale":[
				0.2600007951259613,
				5.140003204345703,
				2.000000238418579
			]
		}
	],
	"materials":[
		{
			"doubleSided":true,
			"name":"Material.141",
			"pbrMetallicRoughness":{
				"baseColorFactor":[
					0.2653980851173401,
					0.2654016613960266,
					0.2654016613960266,
					1
				],
				"metallicFactor":0,
				"roughnessFactor":0.5
			}
		},
		{
			"doubleSided":true,
			"name":"Material.142",
			"pbrMetallicRoughness":{
				"baseColorFactor":[
					0.2653980851173401,
					0.2654016613960266,
					0.2654016613960266,
					1
				],
				"metallicFactor":0,
				"roughnessFactor":0.5
			}
		},
		{
			"doubleSided":true,
			"name":"Material.143",
			"pbrMetallicRoughness":{
				"baseColorFactor":[
					0.2653980851173401,
					0.2654016613960266,
					0.2654016613960266,
					1
				],
				"metallicFactor":0,
				"roughnessFactor":0.5
			}
		},
		{
			"doubleSided":true,
			"name":"Material.144",
			"pbrMetallicRoughness":{
				"baseColorTexture":{
					"index":0
				},
				"metallicFactor":0,
				"roughnessFactor":0.6900347471237183
			}
		}
	],
	"meshes":[
		{
			"name":"Cube.053",
			"primitives":[
				{
					"attributes":{
						"POSITION":0,
						"NORMAL":1,
						"TEXCOORD_0":2
					},
					"indices":3,
					"material":0
				},
				{
					"attributes":{
						"POSITION":4,
						"NORMAL":5,
						"TEXCOORD_0":6
					},
					"indices":7,
					"material":1
				},
				{
					"attributes":{
						"POSITION":8,
						"NORMAL":9,
						"TEXCOORD_0":10
					},
					"indices":7,
					"material":2
				},
				{
					"attributes":{
						"POSITION":11,
						"NORMAL":12,
						"TEXCOORD_0":13
					},
					"indices":14,
					"material":3
				}
			]
		}
	],
	"textures":[
		{
			"sampler":0,
			"source":0
		}
	],
	"images":[
		{
			"mimeType":"image/jpeg",
			"name":"twist",
			"uri":"twist.jpg"
		}
	],
	"accessors":[
		{
			"bufferView":0,
			"componentType":5126,
			"count":144,
			"max":[
				16.160602569580078,
				1.0145174264907837,
				1.073580265045166
			],
			"min":[
				-15.889883995056152,
				-0.9854828119277954,
				-0.9473839402198792
			],
			"type":"VEC3"
		},
		{
			"bufferView":1,
			"componentType":5126,
			"count":144,
			"type":"VEC3"
		},
		{
			"bufferView":2,
			"componentType":5126,
			"count":144,
			"type":"VEC2"
		},
		{
			"bufferView":3,
			"componentType":5123,
			"count":216,
			"type":"SCALAR"
		},
		{
			"bufferView":4,
			"componentType":5126,
			"count":24,
			"max":[
				15.348312377929688,
				-0.4446589946746826,
				0.9594129323959351
			],
			"min":[
				-15.434006690979004,
				-0.545826256275177,
				-0.844395637512207
			],
			"type":"VEC3"
		},
		{
			"bufferView":5,
			"componentType":5126,
			"count":24,
			"type":"VEC3"
		},
		{
			"bufferView":6,
			"componentType":5126,
			"count":24,
			"type":"VEC2"
		},
		{
			"bufferView":7,
			"componentType":5123,
			"count":36,
			"type":"SCALAR"
		},
		{
			"bufferView":8,
			"componentType":5126,
			"count":24,
			"max":[
				15.348312377929688,
				0.04172205179929733,
				0.9594129323959351
			],
			"min":[
				-15.434006690979004,
				-0.059445202350616455,
				-0.8443958759307861
			],
			"type":"VEC3"
		},
		{
			"bufferView":9,
			"componentType":5126,
			"count":24,
			"type":"VEC3"
		},
		{
			"bufferView":10,
			"componentType":5126,
			"count":24,
			"type":"VEC2"
		},
		{
			"bufferView":11,
			"componentType":5126,
			"count":17760,
			"max":[
				13.351082801818848,
				0.8521484136581421,
				0.9181510806083679
			],
			"min":[
				-13.260411262512207,
				-0.8811361789703369,
				0.6058549284934998
			],
			"type":"VEC3"
		},
		{
			"bufferView":12,
			"componentType":5126,
			"count":17760,
			"type":"VEC3"
		},
		{
			"bufferView":13,
			"componentType":5126,
			"count":17760,
			"type":"VEC2"
		},
		{
			"bufferView":14,
			"componentType":5123,
			"count":27456,
			"type":"SCALAR"
		}
	],
	"bufferViews":[
		{
			"buffer":0,
			"byteLength":1728,
			"byteOffset":0,
			"target":34962
		},
		{
			"buffer":0,
			"byteLength":1728,
			"byteOffset":1728,
			"target":34962
		},
		{
			"buffer":0,
			"byteLength":1152,
			"byteOffset":3456,
			"target":34962
		},
		{
			"buffer":0,
			"byteLength":432,
			"byteOffset":4608,
			"target":34963
		},
		{
			"buffer":0,
			"byteLength":288,
			"byteOffset":5040,
			"target":34962
		},
		{
			"buffer":0,
			"byteLength":288,
			"byteOffset":5328,
			"target":34962
		},
		{
			"buffer":0,
			"byteLength":192,
			"byteOffset":5616,
			"target":34962
		},
		{
			"buffer":0,
			"byteLength":72,
			"byteOffset":5808,
			"target":34963
		},
		{
			"buffer":0,
			"byteLength":288,
			"byteOffset":5880,
			"target":34962
		},
		{
			"buffer":0,
			"byteLength":288,
			"byteOffset":6168,
			"target":34962
		},
		{
			"buffer":0,
			"byteLength":192,
			"byteOffset":6456,
			"target":34962
		},
		{
			"buffer":0,
			"byteLength":213120,
			"byteOffset":6648,
			"target":34962
		},
		{
			"buffer":0,
			"byteLength":213120,
			"byteOffset":219768,
			"target":34962
		},
		{
			"buffer":0,
			"byteLength":142080,
			"byteOffset":432888,
			"target":34962
		},
		{
			"buffer":0,
			"byteLength":54912,
			"byteOffset":574968,
			"target":34963
		}
	],
	"samplers":[
		{
			"magFilter":9729,
			"minFilter":9987
		}
	],
	"buffers":[
		{
			"byteLength":629880,
			"uri":"orange_twist_shelf.bin"
		}
	]
}
