{
	"asset":{
		"generator":"Khronos glTF Blender I/O v4.2.60",
		"version":"2.0"
	},
	"scene":0,
	"scenes":[
		{
			"name":"Scene",
			"nodes":[
				0,
				1,
				2,
				3,
				4
			]
		}
	],
	"nodes":[
		{
			"mesh":0,
			"name":"Cylinder",
			"scale":[
				0.5,
				0.5,
				0.5
			],
			"translation":[
				4.081267356872559,
				0.755882740020752,
				-15.218073844909668
			]
		},
		{
			"mesh":1,
			"name":"Cube.002",
			"scale":[
				0.26000070571899414,
				5,
				4.150003433227539
			],
			"translation":[
				1.5434083938598633,
				4.965046405792236,
				-18.234294891357422
			]
		},
		{
			"mesh":2,
			"name":"Cylinder.004",
			"scale":[
				0.5,
				0.5,
				0.5
			],
			"translation":[
				4.081267356872559,
				2.9960246086120605,
				-15.218073844909668
			]
		},
		{
			"mesh":3,
			"name":"Cylinder.005",
			"scale":[
				0.5,
				0.5,
				0.5
			],
			"translation":[
				4.081267356872559,
				5.499940872192383,
				-15.218073844909668
			]
		},
		{
			"mesh":4,
			"name":"Cylinder.006",
			"scale":[
				0.5,
				0.5,
				0.5
			],
			"translation":[
				4.081267356872559,
				8.003228187561035,
				-15.218073844909668
			]
		}
	],
	"materials":[
		{
			"doubleSided":true,
			"name":"Material.001",
			"pbrMetallicRoughness":{
				"baseColorTexture":{
					"index":0
				},
				"metallicFactor":0,
				"roughnessFactor":0.5
			}
		},
		{
			"doubleSided":true,
			"name":"Material.008",
			"pbrMetallicRoughness":{
				"baseColorFactor":[
					0.2653980851173401,
					0.2654016613960266,
					0.2654016613960266,
					1
				],
				"metallicFactor":0,
				"roughnessFactor":0.5
			}
		},
		{
			"doubleSided":true,
			"name":"Material.009",
			"pbrMetallicRoughness":{
				"baseColorFactor":[
					0.2653980851173401,
					0.2654016613960266,
					0.2654016613960266,
					1
				],
				"metallicFactor":0,
				"roughnessFactor":0.5
			}
		},
		{
			"doubleSided":true,
			"name":"Material.010",
			"pbrMetallicRoughness":{
				"baseColorFactor":[
					0.2653980851173401,
					0.2654016613960266,
					0.2654016613960266,
					1
				],
				"metallicFactor":0,
				"roughnessFactor":0.5
			}
		}
	],
	"meshes":[
		{
			"name":"Cylinder.005",
			"primitives":[
				{
					"attributes":{
						"POSITION":0,
						"NORMAL":1,
						"TEXCOORD_0":2
					},
					"indices":3,
					"material":0
				}
			]
		},
		{
			"name":"Cube.001",
			"primitives":[
				{
					"attributes":{
						"POSITION":4,
						"NORMAL":5,
						"TEXCOORD_0":6
					},
					"indices":7,
					"material":1
				},
				{
					"attributes":{
						"POSITION":8,
						"NORMAL":9,
						"TEXCOORD_0":10
					},
					"indices":11,
					"material":2
				},
				{
					"attributes":{
						"POSITION":12,
						"NORMAL":13,
						"TEXCOORD_0":14
					},
					"indices":11,
					"material":3
				}
			]
		},
		{
			"name":"Cylinder.004",
			"primitives":[
				{
					"attributes":{
						"POSITION":15,
						"NORMAL":16,
						"TEXCOORD_0":17
					},
					"indices":3,
					"material":0
				}
			]
		},
		{
			"name":"Cylinder.006",
			"primitives":[
				{
					"attributes":{
						"POSITION":18,
						"NORMAL":19,
						"TEXCOORD_0":20
					},
					"indices":3,
					"material":0
				}
			]
		},
		{
			"name":"Cylinder.007",
			"primitives":[
				{
					"attributes":{
						"POSITION":21,
						"NORMAL":22,
						"TEXCOORD_0":23
					},
					"indices":3,
					"material":0
				}
			]
		}
	],
	"textures":[
		{
			"sampler":0,
			"source":0
		}
	],
	"images":[
		{
			"mimeType":"image/jpeg",
			"name":"canPurple",
			"uri":"canPurple.jpg"
		}
	],
	"accessors":[
		{
			"bufferView":0,
			"componentType":5126,
			"count":1134,
			"max":[
				0.9848077297210693,
				1,
				0.9396926164627075
			],
			"min":[
				-0.9848077297210693,
				-1,
				-12.860777854919434
			],
			"type":"VEC3"
		},
		{
			"bufferView":1,
			"componentType":5126,
			"count":1134,
			"type":"VEC3"
		},
		{
			"bufferView":2,
			"componentType":5126,
			"count":1134,
			"type":"VEC2"
		},
		{
			"bufferView":3,
			"componentType":5123,
			"count":2184,
			"type":"SCALAR"
		},
		{
			"bufferView":4,
			"componentType":5126,
			"count":144,
			"max":[
				14.517328262329102,
				1.0090248584747314,
				1.0012295246124268
			],
			"min":[
				-1,
				-1.0469765663146973,
				-1.0076751708984375
			],
			"type":"VEC3"
		},
		{
			"bufferView":5,
			"componentType":5126,
			"count":144,
			"type":"VEC3"
		},
		{
			"bufferView":6,
			"componentType":5126,
			"count":144,
			"type":"VEC2"
		},
		{
			"bufferView":7,
			"componentType":5123,
			"count":216,
			"type":"SCALAR"
		},
		{
			"bufferView":8,
			"componentType":5126,
			"count":24,
			"max":[
				13.637662887573242,
				-0.49100929498672485,
				0.9717898964881897
			],
			"min":[
				-0.20845270156860352,
				-0.5950092673301697,
				-0.9559193253517151
			],
			"type":"VEC3"
		},
		{
			"bufferView":9,
			"componentType":5126,
			"count":24,
			"type":"VEC3"
		},
		{
			"bufferView":10,
			"componentType":5126,
			"count":24,
			"type":"VEC2"
		},
		{
			"bufferView":11,
			"componentType":5123,
			"count":36,
			"type":"SCALAR"
		},
		{
			"bufferView":12,
			"componentType":5126,
			"count":24,
			"max":[
				13.637662887573242,
				0.008990716189146042,
				0.9717898964881897
			],
			"min":[
				-0.20845460891723633,
				-0.09500928223133087,
				-0.9559193253517151
			],
			"type":"VEC3"
		},
		{
			"bufferView":13,
			"componentType":5126,
			"count":24,
			"type":"VEC3"
		},
		{
			"bufferView":14,
			"componentType":5126,
			"count":24,
			"type":"VEC2"
		},
		{
			"bufferView":15,
			"componentType":5126,
			"count":1134,
			"max":[
				0.9848077297210693,
				1,
				0.9396926164627075
			],
			"min":[
				-0.9848077297210693,
				-1,
				-12.860777854919434
			],
			"type":"VEC3"
		},
		{
			"bufferView":16,
			"componentType":5126,
			"count":1134,
			"type":"VEC3"
		},
		{
			"bufferView":17,
			"componentType":5126,
			"count":1134,
			"type":"VEC2"
		},
		{
			"bufferView":18,
			"componentType":5126,
			"count":1134,
			"max":[
				0.9848077297210693,
				1,
				0.9396926164627075
			],
			"min":[
				-0.9848077297210693,
				-1,
				-12.860777854919434
			],
			"type":"VEC3"
		},
		{
			"bufferView":19,
			"componentType":5126,
			"count":1134,
			"type":"VEC3"
		},
		{
			"bufferView":20,
			"componentType":5126,
			"count":1134,
			"type":"VEC2"
		},
		{
			"bufferView":21,
			"componentType":5126,
			"count":1134,
			"max":[
				0.9848077297210693,
				1,
				0.9396926164627075
			],
			"min":[
				-0.9848077297210693,
				-1,
				-12.860777854919434
			],
			"type":"VEC3"
		},
		{
			"bufferView":22,
			"componentType":5126,
			"count":1134,
			"type":"VEC3"
		},
		{
			"bufferView":23,
			"componentType":5126,
			"count":1134,
			"type":"VEC2"
		}
	],
	"bufferViews":[
		{
			"buffer":0,
			"byteLength":13608,
			"byteOffset":0,
			"target":34962
		},
		{
			"buffer":0,
			"byteLength":13608,
			"byteOffset":13608,
			"target":34962
		},
		{
			"buffer":0,
			"byteLength":9072,
			"byteOffset":27216,
			"target":34962
		},
		{
			"buffer":0,
			"byteLength":4368,
			"byteOffset":36288,
			"target":34963
		},
		{
			"buffer":0,
			"byteLength":1728,
			"byteOffset":40656,
			"target":34962
		},
		{
			"buffer":0,
			"byteLength":1728,
			"byteOffset":42384,
			"target":34962
		},
		{
			"buffer":0,
			"byteLength":1152,
			"byteOffset":44112,
			"target":34962
		},
		{
			"buffer":0,
			"byteLength":432,
			"byteOffset":45264,
			"target":34963
		},
		{
			"buffer":0,
			"byteLength":288,
			"byteOffset":45696,
			"target":34962
		},
		{
			"buffer":0,
			"byteLength":288,
			"byteOffset":45984,
			"target":34962
		},
		{
			"buffer":0,
			"byteLength":192,
			"byteOffset":46272,
			"target":34962
		},
		{
			"buffer":0,
			"byteLength":72,
			"byteOffset":46464,
			"target":34963
		},
		{
			"buffer":0,
			"byteLength":288,
			"byteOffset":46536,
			"target":34962
		},
		{
			"buffer":0,
			"byteLength":288,
			"byteOffset":46824,
			"target":34962
		},
		{
			"buffer":0,
			"byteLength":192,
			"byteOffset":47112,
			"target":34962
		},
		{
			"buffer":0,
			"byteLength":13608,
			"byteOffset":47304,
			"target":34962
		},
		{
			"buffer":0,
			"byteLength":13608,
			"byteOffset":60912,
			"target":34962
		},
		{
			"buffer":0,
			"byteLength":9072,
			"byteOffset":74520,
			"target":34962
		},
		{
			"buffer":0,
			"byteLength":13608,
			"byteOffset":83592,
			"target":34962
		},
		{
			"buffer":0,
			"byteLength":13608,
			"byteOffset":97200,
			"target":34962
		},
		{
			"buffer":0,
			"byteLength":9072,
			"byteOffset":110808,
			"target":34962
		},
		{
			"buffer":0,
			"byteLength":13608,
			"byteOffset":119880,
			"target":34962
		},
		{
			"buffer":0,
			"byteLength":13608,
			"byteOffset":133488,
			"target":34962
		},
		{
			"buffer":0,
			"byteLength":9072,
			"byteOffset":147096,
			"target":34962
		}
	],
	"samplers":[
		{
			"magFilter":9729,
			"minFilter":9987
		}
	],
	"buffers":[
		{
			"byteLength":156168,
			"uri":"beets_cans_shelf.bin"
		}
	]
}
