{
	"asset":{
		"generator":"Khronos glTF Blender I/O v4.2.60",
		"version":"2.0"
	},
	"scene":0,
	"scenes":[
		{
			"name":"Scene",
			"nodes":[
				0
			]
		}
	],
	"nodes":[
		{
			"mesh":0,
			"name":"Cylinder",
			"scale":[
				0.5,
				0.5,
				0.5
			]
		}
	],
	"materials":[
		{
			"doubleSided":true,
			"name":"Material.028",
			"pbrMetallicRoughness":{
				"baseColorTexture":{
					"index":0
				},
				"metallicFactor":0,
				"roughnessFactor":0.5
			}
		},
		{
			"doubleSided":true,
			"name":"Material.029",
			"pbrMetallicRoughness":{
				"baseColorFactor":[
					0.2653980851173401,
					0.2654016613960266,
					0.2654016613960266,
					1
				],
				"metallicFactor":0,
				"roughnessFactor":0.5
			}
		},
		{
			"doubleSided":true,
			"name":"Material.030",
			"pbrMetallicRoughness":{
				"baseColorFactor":[
					0.2653980851173401,
					0.2654016613960266,
					0.2654016613960266,
					1
				],
				"metallicFactor":0,
				"roughnessFactor":0.5
			}
		},
		{
			"doubleSided":true,
			"name":"Material.031",
			"pbrMetallicRoughness":{
				"baseColorFactor":[
					0.2653980851173401,
					0.2654016613960266,
					0.2654016613960266,
					1
				],
				"metallicFactor":0,
				"roughnessFactor":0.5
			}
		}
	],
	"meshes":[
		{
			"name":"Cylinder.005",
			"primitives":[
				{
					"attributes":{
						"POSITION":0,
						"NORMAL":1,
						"TEXCOORD_0":2
					},
					"indices":3,
					"material":0
				},
				{
					"attributes":{
						"POSITION":4,
						"NORMAL":5,
						"TEXCOORD_0":6
					},
					"indices":7,
					"material":1
				},
				{
					"attributes":{
						"POSITION":8,
						"NORMAL":9,
						"TEXCOORD_0":10
					},
					"indices":11,
					"material":2
				},
				{
					"attributes":{
						"POSITION":12,
						"NORMAL":13,
						"TEXCOORD_0":14
					},
					"indices":11,
					"material":3
				}
			]
		}
	],
	"textures":[
		{
			"sampler":0,
			"source":0
		}
	],
	"images":[
		{
			"mimeType":"image/jpeg",
			"name":"canPurple",
			"uri":"canPurple.jpg"
		}
	],
	"accessors":[
		{
			"bufferView":0,
			"componentType":5126,
			"count":4558,
			"max":[
				3.043217182159424,
				7.4568939208984375,
				6.938880443572998
			],
			"min":[
				1.0736017227172852,
				-9.037796974182129,
				-6.8615899085998535
			],
			"type":"VEC3"
		},
		{
			"bufferView":1,
			"componentType":5126,
			"count":4558,
			"type":"VEC3"
		},
		{
			"bufferView":2,
			"componentType":5126,
			"count":4558,
			"type":"VEC2"
		},
		{
			"bufferView":3,
			"componentType":5123,
			"count":8736,
			"type":"SCALAR"
		},
		{
			"bufferView":4,
			"componentType":5126,
			"count":144,
			"max":[
				4.5317230224609375,
				10.470778465270996,
				8.276958465576172
			],
			"min":[
				-3.5373098850250244,
				-10.089235305786133,
				-8.396965026855469
			],
			"type":"VEC3"
		},
		{
			"bufferView":5,
			"componentType":5126,
			"count":144,
			"type":"VEC3"
		},
		{
			"bufferView":6,
			"componentType":5126,
			"count":144,
			"type":"VEC2"
		},
		{
			"bufferView":7,
			"componentType":5123,
			"count":216,
			"type":"SCALAR"
		},
		{
			"bufferView":8,
			"componentType":5126,
			"count":24,
			"max":[
				4.0742950439453125,
				-4.529562473297119,
				8.032608032226562
			],
			"min":[
				-3.125704050064087,
				-5.5695624351501465,
				-7.967391490936279
			],
			"type":"VEC3"
		},
		{
			"bufferView":9,
			"componentType":5126,
			"count":24,
			"type":"VEC3"
		},
		{
			"bufferView":10,
			"componentType":5126,
			"count":24,
			"type":"VEC2"
		},
		{
			"bufferView":11,
			"componentType":5123,
			"count":36,
			"type":"SCALAR"
		},
		{
			"bufferView":12,
			"componentType":5126,
			"count":24,
			"max":[
				4.0742950439453125,
				0.47043704986572266,
				8.032608032226562
			],
			"min":[
				-3.1257050037384033,
				-0.5695624351501465,
				-7.967391490936279
			],
			"type":"VEC3"
		},
		{
			"bufferView":13,
			"componentType":5126,
			"count":24,
			"type":"VEC3"
		},
		{
			"bufferView":14,
			"componentType":5126,
			"count":24,
			"type":"VEC2"
		}
	],
	"bufferViews":[
		{
			"buffer":0,
			"byteLength":54696,
			"byteOffset":0,
			"target":34962
		},
		{
			"buffer":0,
			"byteLength":54696,
			"byteOffset":54696,
			"target":34962
		},
		{
			"buffer":0,
			"byteLength":36464,
			"byteOffset":109392,
			"target":34962
		},
		{
			"buffer":0,
			"byteLength":17472,
			"byteOffset":145856,
			"target":34963
		},
		{
			"buffer":0,
			"byteLength":1728,
			"byteOffset":163328,
			"target":34962
		},
		{
			"buffer":0,
			"byteLength":1728,
			"byteOffset":165056,
			"target":34962
		},
		{
			"buffer":0,
			"byteLength":1152,
			"byteOffset":166784,
			"target":34962
		},
		{
			"buffer":0,
			"byteLength":432,
			"byteOffset":167936,
			"target":34963
		},
		{
			"buffer":0,
			"byteLength":288,
			"byteOffset":168368,
			"target":34962
		},
		{
			"buffer":0,
			"byteLength":288,
			"byteOffset":168656,
			"target":34962
		},
		{
			"buffer":0,
			"byteLength":192,
			"byteOffset":168944,
			"target":34962
		},
		{
			"buffer":0,
			"byteLength":72,
			"byteOffset":169136,
			"target":34963
		},
		{
			"buffer":0,
			"byteLength":288,
			"byteOffset":169208,
			"target":34962
		},
		{
			"buffer":0,
			"byteLength":288,
			"byteOffset":169496,
			"target":34962
		},
		{
			"buffer":0,
			"byteLength":192,
			"byteOffset":169784,
			"target":34962
		}
	],
	"samplers":[
		{
			"magFilter":9729,
			"minFilter":9987
		}
	],
	"buffers":[
		{
			"byteLength":169976,
			"uri":"beets_cans_shelf.bin"
		}
	]
}
