{
	"asset":{
		"generator":"Khronos glTF Blender I/O v4.2.60",
		"version":"2.0"
	},
	"scene":0,
	"scenes":[
		{
			"name":"Scene",
			"nodes":[
				0
			]
		}
	],
	"nodes":[
		{
			"mesh":0,
			"name":"Cube",
			"scale":[
				4.609775066375732,
				2.116823196411133,
				2.116823196411133
			]
		}
	],
	"materials":[
		{
			"doubleSided":true,
			"name":"Material.002",
			"pbrMetallicRoughness":{
				"baseColorFactor":[
					0.48288780450820923,
					0.3270036280155182,
					0.1440112143754959,
					1
				],
				"metallicFactor":0,
				"roughnessFactor":0.5
			}
		},
		{
			"name":"lambert2SG.001",
			"pbrMetallicRoughness":{
				"baseColorFactor":[
					1,
					0.5922525525093079,
					0,
					1
				],
				"metallicFactor":0
			}
		},
		{
			"name":"lambert3SG.001",
			"pbrMetallicRoughness":{
				"baseColorFactor":[
					0.1599999964237213,
					0.3799999952316284,
					0,
					1
				],
				"metallicFactor":0
			}
		}
	],
	"meshes":[
		{
			"name":"Cube.001",
			"primitives":[
				{
					"attributes":{
						"POSITION":0,
						"NORMAL":1,
						"TEXCOORD_0":2
					},
					"indices":3,
					"material":0
				},
				{
					"attributes":{
						"POSITION":4,
						"NORMAL":5,
						"TEXCOORD_0":6
					},
					"indices":7,
					"material":1
				},
				{
					"attributes":{
						"POSITION":8,
						"NORMAL":9,
						"TEXCOORD_0":10
					},
					"indices":11,
					"material":2
				}
			]
		}
	],
	"accessors":[
		{
			"bufferView":0,
			"componentType":5126,
			"count":72,
			"max":[
				0.9999999403953552,
				0.9999999403953552,
				0.9999999403953552
			],
			"min":[
				-0.9999999403953552,
				-0.9999999403953552,
				-0.9999999403953552
			],
			"type":"VEC3"
		},
		{
			"bufferView":1,
			"componentType":5126,
			"count":72,
			"type":"VEC3"
		},
		{
			"bufferView":2,
			"componentType":5126,
			"count":72,
			"type":"VEC2"
		},
		{
			"bufferView":3,
			"componentType":5123,
			"count":120,
			"type":"SCALAR"
		},
		{
			"bufferView":4,
			"componentType":5126,
			"count":28906,
			"max":[
				0.9026969075202942,
				0.8824260234832764,
				0.658982515335083
			],
			"min":[
				-0.9069769978523254,
				0.4703328311443329,
				-0.7888903617858887
			],
			"type":"VEC3"
		},
		{
			"bufferView":5,
			"componentType":5126,
			"count":28906,
			"type":"VEC3"
		},
		{
			"bufferView":6,
			"componentType":5126,
			"count":28906,
			"type":"VEC2"
		},
		{
			"bufferView":7,
			"componentType":5123,
			"count":31104,
			"type":"SCALAR"
		},
		{
			"bufferView":8,
			"componentType":5126,
			"count":14256,
			"max":[
				0.8328003883361816,
				0.8023354411125183,
				0.7578263282775879
			],
			"min":[
				-0.8233662247657776,
				0.636863112449646,
				-0.4288192391395569
			],
			"type":"VEC3"
		},
		{
			"bufferView":9,
			"componentType":5126,
			"count":14256,
			"type":"VEC3"
		},
		{
			"bufferView":10,
			"componentType":5126,
			"count":14256,
			"type":"VEC2"
		},
		{
			"bufferView":11,
			"componentType":5123,
			"count":14256,
			"type":"SCALAR"
		}
	],
	"bufferViews":[
		{
			"buffer":0,
			"byteLength":864,
			"byteOffset":0,
			"target":34962
		},
		{
			"buffer":0,
			"byteLength":864,
			"byteOffset":864,
			"target":34962
		},
		{
			"buffer":0,
			"byteLength":576,
			"byteOffset":1728,
			"target":34962
		},
		{
			"buffer":0,
			"byteLength":240,
			"byteOffset":2304,
			"target":34963
		},
		{
			"buffer":0,
			"byteLength":346872,
			"byteOffset":2544,
			"target":34962
		},
		{
			"buffer":0,
			"byteLength":346872,
			"byteOffset":349416,
			"target":34962
		},
		{
			"buffer":0,
			"byteLength":231248,
			"byteOffset":696288,
			"target":34962
		},
		{
			"buffer":0,
			"byteLength":62208,
			"byteOffset":927536,
			"target":34963
		},
		{
			"buffer":0,
			"byteLength":171072,
			"byteOffset":989744,
			"target":34962
		},
		{
			"buffer":0,
			"byteLength":171072,
			"byteOffset":1160816,
			"target":34962
		},
		{
			"buffer":0,
			"byteLength":114048,
			"byteOffset":1331888,
			"target":34962
		},
		{
			"buffer":0,
			"byteLength":28512,
			"byteOffset":1445936,
			"target":34963
		}
	],
	"buffers":[
		{
			"byteLength":1474448,
			"uri":"yellow_pepper_box.bin"
		}
	]
}
