{
	"asset":{
		"generator":"Khronos glTF Blender I/O v4.2.70",
		"version":"2.0"
	},
	"scene":0,
	"scenes":[
		{
			"name":"Scene",
			"nodes":[
				0,
				1,
				2,
				3,
				4,
				5,
				6,
				7,
				8,
				9,
				10,
				11,
				12,
				13,
				14,
				15,
				16,
				17,
				18
			]
		}
	],
	"nodes":[
		{
			"mesh":0,
			"name":"Cylinder.000_Cylinder.002",
			"rotation":[
				0.7071068286895752,
				0,
				0,
				0.7071068286895752
			]
		},
		{
			"mesh":1,
			"name":"Cylinder.001_Cylinder.010",
			"rotation":[
				0.7071068286895752,
				0,
				0,
				0.7071068286895752
			]
		},
		{
			"mesh":2,
			"name":"Cylinder.002_Cylinder.004",
			"rotation":[
				0.7071068286895752,
				0,
				0,
				0.7071068286895752
			]
		},
		{
			"mesh":3,
			"name":"Cylinder.005_Cylinder.011",
			"rotation":[
				0.7071068286895752,
				0,
				0,
				0.7071068286895752
			]
		},
		{
			"mesh":4,
			"name":"Cylinder.006_Cylinder.012",
			"rotation":[
				0.7071068286895752,
				0,
				0,
				0.7071068286895752
			]
		},
		{
			"mesh":5,
			"name":"Cylinder.007_Cylinder.013",
			"rotation":[
				0.7071068286895752,
				0,
				0,
				0.7071068286895752
			]
		},
		{
			"mesh":6,
			"name":"Cylinder.008_Cylinder.014",
			"rotation":[
				0.7071068286895752,
				0,
				0,
				0.7071068286895752
			]
		},
		{
			"mesh":7,
			"name":"Cylinder.009_Cylinder.015",
			"rotation":[
				0.7071068286895752,
				0,
				0,
				0.7071068286895752
			]
		},
		{
			"mesh":8,
			"name":"Cylinder.010_Cylinder.016",
			"rotation":[
				0.7071068286895752,
				0,
				0,
				0.7071068286895752
			]
		},
		{
			"mesh":9,
			"name":"Cylinder.011_Cylinder.017",
			"rotation":[
				0.7071068286895752,
				0,
				0,
				0.7071068286895752
			]
		},
		{
			"mesh":10,
			"name":"Cylinder.012_Cylinder.018",
			"rotation":[
				0.7071068286895752,
				0,
				0,
				0.7071068286895752
			]
		},
		{
			"mesh":11,
			"name":"Cylinder.013_Cylinder.019",
			"rotation":[
				0.7071068286895752,
				0,
				0,
				0.7071068286895752
			]
		},
		{
			"mesh":12,
			"name":"Cylinder.014_Cylinder.020",
			"rotation":[
				0.7071068286895752,
				0,
				0,
				0.7071068286895752
			]
		},
		{
			"mesh":13,
			"name":"Cylinder.015_Cylinder.021",
			"rotation":[
				0.7071068286895752,
				0,
				0,
				0.7071068286895752
			]
		},
		{
			"mesh":14,
			"name":"Cylinder.016_Cylinder.000",
			"rotation":[
				0.7071068286895752,
				0,
				0,
				0.7071068286895752
			]
		},
		{
			"mesh":15,
			"name":"Cylinder_Cylinder.009",
			"rotation":[
				0.7071068286895752,
				0,
				0,
				0.7071068286895752
			]
		},
		{
			"mesh":16,
			"name":"Sphere",
			"rotation":[
				0.7071068286895752,
				0,
				0,
				0.7071068286895752
			]
		},
		{
			"mesh":17,
			"name":"Sphere.003",
			"rotation":[
				0.7071068286895752,
				0,
				0,
				0.7071068286895752
			]
		},
		{
			"mesh":18,
			"name":"Sphere.007",
			"rotation":[
				0.7071068286895752,
				0,
				0,
				0.7071068286895752
			]
		}
	],
	"materials":[
		{
			"doubleSided":true,
			"name":"Material.001",
			"pbrMetallicRoughness":{
				"baseColorFactor":[
					0.05837700143456459,
					0.05837700143456459,
					0.05837700143456459,
					1
				],
				"metallicFactor":0,
				"roughnessFactor":0.6900347471237183
			}
		},
		{
			"doubleSided":true,
			"name":"Material.003",
			"pbrMetallicRoughness":{
				"baseColorFactor":[
					0.6399999856948853,
					0.36124101281166077,
					0.3559660017490387,
					1
				],
				"metallicFactor":0,
				"roughnessFactor":0.6900347471237183
			}
		},
		{
			"doubleSided":true,
			"name":"Material.002",
			"pbrMetallicRoughness":{
				"baseColorFactor":[
					0.5714679956436157,
					0.3321259915828705,
					0.6399999856948853,
					1
				],
				"metallicFactor":0,
				"roughnessFactor":0.6900347471237183
			}
		},
		{
			"doubleSided":true,
			"name":"Material.004",
			"pbrMetallicRoughness":{
				"baseColorFactor":[
					0.3065359890460968,
					0.3065359890460968,
					0.3065359890460968,
					1
				],
				"metallicFactor":0,
				"roughnessFactor":0.6900347471237183
			}
		},
		{
			"doubleSided":true,
			"name":"Material.005",
			"pbrMetallicRoughness":{
				"baseColorFactor":[
					0.7902920246124268,
					0.7902920246124268,
					0.7902920246124268,
					1
				],
				"metallicFactor":0,
				"roughnessFactor":0.6900347471237183
			}
		}
	],
	"meshes":[
		{
			"name":"Cylinder.000_Cylinder.002",
			"primitives":[
				{
					"attributes":{
						"POSITION":0,
						"NORMAL":1
					},
					"indices":2,
					"material":0
				}
			]
		},
		{
			"name":"Cylinder.001_Cylinder.010",
			"primitives":[
				{
					"attributes":{
						"POSITION":3,
						"NORMAL":4
					},
					"indices":5,
					"material":1
				}
			]
		},
		{
			"name":"Cylinder.002_Cylinder.004",
			"primitives":[
				{
					"attributes":{
						"POSITION":6,
						"NORMAL":7
					},
					"indices":8,
					"material":0
				}
			]
		},
		{
			"name":"Cylinder.005_Cylinder.011",
			"primitives":[
				{
					"attributes":{
						"POSITION":9,
						"NORMAL":10
					},
					"indices":5,
					"material":1
				}
			]
		},
		{
			"name":"Cylinder.006_Cylinder.012",
			"primitives":[
				{
					"attributes":{
						"POSITION":11,
						"NORMAL":12
					},
					"indices":5,
					"material":1
				}
			]
		},
		{
			"name":"Cylinder.007_Cylinder.013",
			"primitives":[
				{
					"attributes":{
						"POSITION":13,
						"NORMAL":14
					},
					"indices":5,
					"material":1
				}
			]
		},
		{
			"name":"Cylinder.008_Cylinder.014",
			"primitives":[
				{
					"attributes":{
						"POSITION":15,
						"NORMAL":16
					},
					"indices":5,
					"material":1
				}
			]
		},
		{
			"name":"Cylinder.009_Cylinder.015",
			"primitives":[
				{
					"attributes":{
						"POSITION":17,
						"NORMAL":18
					},
					"indices":5,
					"material":1
				}
			]
		},
		{
			"name":"Cylinder.010_Cylinder.016",
			"primitives":[
				{
					"attributes":{
						"POSITION":19,
						"NORMAL":20
					},
					"indices":5,
					"material":1
				}
			]
		},
		{
			"name":"Cylinder.011_Cylinder.017",
			"primitives":[
				{
					"attributes":{
						"POSITION":21,
						"NORMAL":22
					},
					"indices":5,
					"material":1
				}
			]
		},
		{
			"name":"Cylinder.012_Cylinder.018",
			"primitives":[
				{
					"attributes":{
						"POSITION":23,
						"NORMAL":24
					},
					"indices":5,
					"material":1
				}
			]
		},
		{
			"name":"Cylinder.013_Cylinder.019",
			"primitives":[
				{
					"attributes":{
						"POSITION":25,
						"NORMAL":26
					},
					"indices":5,
					"material":1
				}
			]
		},
		{
			"name":"Cylinder.014_Cylinder.020",
			"primitives":[
				{
					"attributes":{
						"POSITION":27,
						"NORMAL":28
					},
					"indices":29,
					"material":2
				}
			]
		},
		{
			"name":"Cylinder.015_Cylinder.021",
			"primitives":[
				{
					"attributes":{
						"POSITION":30,
						"NORMAL":31
					},
					"indices":32,
					"material":3
				}
			]
		},
		{
			"name":"Cylinder.016_Cylinder.000",
			"primitives":[
				{
					"attributes":{
						"POSITION":33,
						"NORMAL":34
					},
					"indices":35,
					"material":0
				}
			]
		},
		{
			"name":"Cylinder_Cylinder.009",
			"primitives":[
				{
					"attributes":{
						"POSITION":36,
						"NORMAL":37
					},
					"indices":5,
					"material":1
				}
			]
		},
		{
			"name":"Sphere",
			"primitives":[
				{
					"attributes":{
						"POSITION":38,
						"NORMAL":39
					},
					"indices":40,
					"material":0
				}
			]
		},
		{
			"name":"Sphere.003",
			"primitives":[
				{
					"attributes":{
						"POSITION":41,
						"NORMAL":42
					},
					"indices":43,
					"material":0
				}
			]
		},
		{
			"name":"Sphere.007",
			"primitives":[
				{
					"attributes":{
						"POSITION":44,
						"NORMAL":45
					},
					"indices":46,
					"material":4
				}
			]
		}
	],
	"accessors":[
		{
			"bufferView":0,
			"componentType":5126,
			"count":44,
			"max":[
				1.589516043663025,
				0.6837509870529175,
				-3.1852829456329346
			],
			"min":[
				0.5866360068321228,
				-0.6837509870529175,
				-3.8831961154937744
			],
			"type":"VEC3"
		},
		{
			"bufferView":1,
			"componentType":5126,
			"count":44,
			"type":"VEC3"
		},
		{
			"bufferView":2,
			"componentType":5123,
			"count":252,
			"type":"SCALAR"
		},
		{
			"bufferView":3,
			"componentType":5126,
			"count":160,
			"max":[
				1.4541720151901245,
				-0.370604008436203,
				-2.086416006088257
			],
			"min":[
				1.3839900493621826,
				-0.4630570113658905,
				-2.1788699626922607
			],
			"type":"VEC3"
		},
		{
			"bufferView":4,
			"componentType":5126,
			"count":160,
			"type":"VEC3"
		},
		{
			"bufferView":5,
			"componentType":5123,
			"count":948,
			"type":"SCALAR"
		},
		{
			"bufferView":6,
			"componentType":5126,
			"count":112,
			"max":[
				0.5771009922027588,
				0.42920199036598206,
				-2.0756170749664307
			],
			"min":[
				0.42084699869155884,
				-0.42920199036598206,
				-3.8776071071624756
			],
			"type":"VEC3"
		},
		{
			"bufferView":7,
			"componentType":5126,
			"count":112,
			"type":"VEC3"
		},
		{
			"bufferView":8,
			"componentType":5123,
			"count":660,
			"type":"SCALAR"
		},
		{
			"bufferView":9,
			"componentType":5126,
			"count":160,
			"max":[
				1.4031959772109985,
				-0.25743499398231506,
				-1.97324800491333
			],
			"min":[
				1.3330140113830566,
				-0.34988901019096375,
				-2.0657010078430176
			],
			"type":"VEC3"
		},
		{
			"bufferView":10,
			"componentType":5126,
			"count":160,
			"type":"VEC3"
		},
		{
			"bufferView":11,
			"componentType":5126,
			"count":160,
			"max":[
				0.8493949770927429,
				-0.25743499398231506,
				-1.97324800491333
			],
			"min":[
				0.7792140245437622,
				-0.34988901019096375,
				-2.0657010078430176
			],
			"type":"VEC3"
		},
		{
			"bufferView":12,
			"componentType":5126,
			"count":160,
			"type":"VEC3"
		},
		{
			"bufferView":13,
			"componentType":5126,
			"count":160,
			"max":[
				0.9551389813423157,
				-0.18331000208854675,
				-1.899122953414917
			],
			"min":[
				0.884958028793335,
				-0.27576398849487305,
				-1.9915759563446045
			],
			"type":"VEC3"
		},
		{
			"bufferView":14,
			"componentType":5126,
			"count":160,
			"type":"VEC3"
		},
		{
			"bufferView":15,
			"componentType":5126,
			"count":160,
			"max":[
				1.3096539974212646,
				-0.18331000208854675,
				-1.8991219997406006
			],
			"min":[
				1.2394720315933228,
				-0.27576398849487305,
				-1.9915759563446045
			],
			"type":"VEC3"
		},
		{
			"bufferView":16,
			"componentType":5126,
			"count":160,
			"type":"VEC3"
		},
		{
			"bufferView":17,
			"componentType":5126,
			"count":160,
			"max":[
				1.3019490242004395,
				-0.5536569952964783,
				-2.269469976425171
			],
			"min":[
				1.231768012046814,
				-0.646111011505127,
				-2.3619229793548584
			],
			"type":"VEC3"
		},
		{
			"bufferView":18,
			"componentType":5126,
			"count":160,
			"type":"VEC3"
		},
		{
			"bufferView":19,
			"componentType":5126,
			"count":160,
			"max":[
				1.4031959772109985,
				-0.4842739999294281,
				-2.200087070465088
			],
			"min":[
				1.3330140113830566,
				-0.5767279863357544,
				-2.2925400733947754
			],
			"type":"VEC3"
		},
		{
			"bufferView":20,
			"componentType":5126,
			"count":160,
			"type":"VEC3"
		},
		{
			"bufferView":21,
			"componentType":5126,
			"count":160,
			"max":[
				0.8493949770927429,
				-0.4668729901313782,
				-2.1826860904693604
			],
			"min":[
				0.7792140245437622,
				-0.5593270063400269,
				-2.275139093399048
			],
			"type":"VEC3"
		},
		{
			"bufferView":22,
			"componentType":5126,
			"count":160,
			"type":"VEC3"
		},
		{
			"bufferView":23,
			"componentType":5126,
			"count":160,
			"max":[
				0.9551389813423157,
				-0.5528460144996643,
				-2.2686591148376465
			],
			"min":[
				0.884958028793335,
				-0.6452999711036682,
				-2.361112117767334
			],
			"type":"VEC3"
		},
		{
			"bufferView":24,
			"componentType":5126,
			"count":160,
			"type":"VEC3"
		},
		{
			"bufferView":25,
			"componentType":5126,
			"count":160,
			"max":[
				1.1330610513687134,
				-0.5915520191192627,
				-2.3073649406433105
			],
			"min":[
				1.062880039215088,
				-0.6840059757232666,
				-2.399817943572998
			],
			"type":"VEC3"
		},
		{
			"bufferView":26,
			"componentType":5126,
			"count":160,
			"type":"VEC3"
		},
		{
			"bufferView":27,
			"componentType":5126,
			"count":64,
			"max":[
				1.1794170141220093,
				-0.08055900037288666,
				-1.890051007270813
			],
			"min":[
				1.0220439434051514,
				-0.2379319965839386,
				-2.0474250316619873
			],
			"type":"VEC3"
		},
		{
			"bufferView":28,
			"componentType":5126,
			"count":64,
			"type":"VEC3"
		},
		{
			"bufferView":29,
			"componentType":5123,
			"count":372,
			"type":"SCALAR"
		},
		{
			"bufferView":30,
			"componentType":5126,
			"count":384,
			"max":[
				1.304353952407837,
				-0.0397769995033741,
				-1.9431840181350708
			],
			"min":[
				0.9025859832763672,
				-0.6079630255699158,
				-2.5113699436187744
			],
			"type":"VEC3"
		},
		{
			"bufferView":31,
			"componentType":5126,
			"count":384,
			"type":"VEC3"
		},
		{
			"bufferView":32,
			"componentType":5123,
			"count":756,
			"type":"SCALAR"
		},
		{
			"bufferView":33,
			"componentType":5126,
			"count":64,
			"max":[
				1.7551649808883667,
				0.4408720135688782,
				-2.046339988708496
			],
			"min":[
				1.5949039459228516,
				-0.4408720135688782,
				-3.8949849605560303
			],
			"type":"VEC3"
		},
		{
			"bufferView":34,
			"componentType":5126,
			"count":64,
			"type":"VEC3"
		},
		{
			"bufferView":35,
			"componentType":5123,
			"count":372,
			"type":"SCALAR"
		},
		{
			"bufferView":36,
			"componentType":5126,
			"count":160,
			"max":[
				0.8146839737892151,
				-0.370604008436203,
				-2.086416006088257
			],
			"min":[
				0.7445020079612732,
				-0.4630570113658905,
				-2.1788699626922607
			],
			"type":"VEC3"
		},
		{
			"bufferView":37,
			"componentType":5126,
			"count":160,
			"type":"VEC3"
		},
		{
			"bufferView":38,
			"componentType":5126,
			"count":224,
			"max":[
				2.0851969718933105,
				1,
				-3.730700969696045
			],
			"min":[
				0.08519700169563293,
				-1,
				-4.496068954467773
			],
			"type":"VEC3"
		},
		{
			"bufferView":39,
			"componentType":5126,
			"count":224,
			"type":"VEC3"
		},
		{
			"bufferView":40,
			"componentType":5123,
			"count":1332,
			"type":"SCALAR"
		},
		{
			"bufferView":41,
			"componentType":5126,
			"count":443,
			"max":[
				1.589040994644165,
				0.6775299906730652,
				-1.8520179986953735
			],
			"min":[
				0.5898380279541016,
				-0.6876810193061829,
				-3.2172279357910156
			],
			"type":"VEC3"
		},
		{
			"bufferView":42,
			"componentType":5126,
			"count":443,
			"type":"VEC3"
		},
		{
			"bufferView":43,
			"componentType":5123,
			"count":2646,
			"type":"SCALAR"
		},
		{
			"bufferView":44,
			"componentType":5126,
			"count":482,
			"max":[
				1.2611780166625977,
				-0.21363599598407745,
				-2.0212368965148926
			],
			"min":[
				0.948415994644165,
				-0.5263969898223877,
				-2.333997964859009
			],
			"type":"VEC3"
		},
		{
			"bufferView":45,
			"componentType":5126,
			"count":482,
			"type":"VEC3"
		},
		{
			"bufferView":46,
			"componentType":5123,
			"count":2880,
			"type":"SCALAR"
		}
	],
	"bufferViews":[
		{
			"buffer":0,
			"byteLength":528,
			"byteOffset":0,
			"target":34962
		},
		{
			"buffer":0,
			"byteLength":528,
			"byteOffset":528,
			"target":34962
		},
		{
			"buffer":0,
			"byteLength":504,
			"byteOffset":1056,
			"target":34963
		},
		{
			"buffer":0,
			"byteLength":1920,
			"byteOffset":1560,
			"target":34962
		},
		{
			"buffer":0,
			"byteLength":1920,
			"byteOffset":3480,
			"target":34962
		},
		{
			"buffer":0,
			"byteLength":1896,
			"byteOffset":5400,
			"target":34963
		},
		{
			"buffer":0,
			"byteLength":1344,
			"byteOffset":7296,
			"target":34962
		},
		{
			"buffer":0,
			"byteLength":1344,
			"byteOffset":8640,
			"target":34962
		},
		{
			"buffer":0,
			"byteLength":1320,
			"byteOffset":9984,
			"target":34963
		},
		{
			"buffer":0,
			"byteLength":1920,
			"byteOffset":11304,
			"target":34962
		},
		{
			"buffer":0,
			"byteLength":1920,
			"byteOffset":13224,
			"target":34962
		},
		{
			"buffer":0,
			"byteLength":1920,
			"byteOffset":15144,
			"target":34962
		},
		{
			"buffer":0,
			"byteLength":1920,
			"byteOffset":17064,
			"target":34962
		},
		{
			"buffer":0,
			"byteLength":1920,
			"byteOffset":18984,
			"target":34962
		},
		{
			"buffer":0,
			"byteLength":1920,
			"byteOffset":20904,
			"target":34962
		},
		{
			"buffer":0,
			"byteLength":1920,
			"byteOffset":22824,
			"target":34962
		},
		{
			"buffer":0,
			"byteLength":1920,
			"byteOffset":24744,
			"target":34962
		},
		{
			"buffer":0,
			"byteLength":1920,
			"byteOffset":26664,
			"target":34962
		},
		{
			"buffer":0,
			"byteLength":1920,
			"byteOffset":28584,
			"target":34962
		},
		{
			"buffer":0,
			"byteLength":1920,
			"byteOffset":30504,
			"target":34962
		},
		{
			"buffer":0,
			"byteLength":1920,
			"byteOffset":32424,
			"target":34962
		},
		{
			"buffer":0,
			"byteLength":1920,
			"byteOffset":34344,
			"target":34962
		},
		{
			"buffer":0,
			"byteLength":1920,
			"byteOffset":36264,
			"target":34962
		},
		{
			"buffer":0,
			"byteLength":1920,
			"byteOffset":38184,
			"target":34962
		},
		{
			"buffer":0,
			"byteLength":1920,
			"byteOffset":40104,
			"target":34962
		},
		{
			"buffer":0,
			"byteLength":1920,
			"byteOffset":42024,
			"target":34962
		},
		{
			"buffer":0,
			"byteLength":1920,
			"byteOffset":43944,
			"target":34962
		},
		{
			"buffer":0,
			"byteLength":768,
			"byteOffset":45864,
			"target":34962
		},
		{
			"buffer":0,
			"byteLength":768,
			"byteOffset":46632,
			"target":34962
		},
		{
			"buffer":0,
			"byteLength":744,
			"byteOffset":47400,
			"target":34963
		},
		{
			"buffer":0,
			"byteLength":4608,
			"byteOffset":48144,
			"target":34962
		},
		{
			"buffer":0,
			"byteLength":4608,
			"byteOffset":52752,
			"target":34962
		},
		{
			"buffer":0,
			"byteLength":1512,
			"byteOffset":57360,
			"target":34963
		},
		{
			"buffer":0,
			"byteLength":768,
			"byteOffset":58872,
			"target":34962
		},
		{
			"buffer":0,
			"byteLength":768,
			"byteOffset":59640,
			"target":34962
		},
		{
			"buffer":0,
			"byteLength":744,
			"byteOffset":60408,
			"target":34963
		},
		{
			"buffer":0,
			"byteLength":1920,
			"byteOffset":61152,
			"target":34962
		},
		{
			"buffer":0,
			"byteLength":1920,
			"byteOffset":63072,
			"target":34962
		},
		{
			"buffer":0,
			"byteLength":2688,
			"byteOffset":64992,
			"target":34962
		},
		{
			"buffer":0,
			"byteLength":2688,
			"byteOffset":67680,
			"target":34962
		},
		{
			"buffer":0,
			"byteLength":2664,
			"byteOffset":70368,
			"target":34963
		},
		{
			"buffer":0,
			"byteLength":5316,
			"byteOffset":73032,
			"target":34962
		},
		{
			"buffer":0,
			"byteLength":5316,
			"byteOffset":78348,
			"target":34962
		},
		{
			"buffer":0,
			"byteLength":5292,
			"byteOffset":83664,
			"target":34963
		},
		{
			"buffer":0,
			"byteLength":5784,
			"byteOffset":88956,
			"target":34962
		},
		{
			"buffer":0,
			"byteLength":5784,
			"byteOffset":94740,
			"target":34962
		},
		{
			"buffer":0,
			"byteLength":5760,
			"byteOffset":100524,
			"target":34963
		}
	],
	"buffers":[
		{
			"byteLength":106284,
			"uri":"security_camera.bin"
		}
	]
}
