{
	"asset":{
		"generator":"Khronos glTF Blender I/O v4.2.60",
		"version":"2.0"
	},
	"scene":0,
	"scenes":[
		{
			"name":"Scene",
			"nodes":[
				0
			]
		}
	],
	"nodes":[
		{
			"mesh":0,
			"name":"Cube.002",
			"rotation":[
				0,
				0.6994807720184326,
				0,
				0.7146514654159546
			],
			"scale":[
				1,
				0.5268014073371887,
				1.379202127456665
			]
		}
	],
	"materials":[
		{
			"doubleSided":true,
			"name":"Material.153",
			"pbrMetallicRoughness":{
				"baseColorFactor":[
					0.48288780450820923,
					0.3270036280155182,
					0.1440112143754959,
					1
				],
				"metallicFactor":0,
				"roughnessFactor":0.5
			}
		},
		{
			"name":"blinn10SG.001",
			"pbrMetallicRoughness":{
				"baseColorFactor":[
					0.1899999976158142,
					0.09000000357627869,
					0.05999999865889549,
					1
				],
				"metallicFactor":0
			}
		},
		{
			"name":"blinn2SG.001",
			"pbrMetallicRoughness":{
				"baseColorFactor":[
					1,
					0.8299999833106995,
					0.03999999910593033,
					1
				],
				"metallicFactor":0
			}
		}
	],
	"meshes":[
		{
			"name":"Cube.006",
			"primitives":[
				{
					"attributes":{
						"POSITION":0,
						"NORMAL":1,
						"TEXCOORD_0":2
					},
					"indices":3,
					"material":0
				},
				{
					"attributes":{
						"POSITION":4,
						"NORMAL":5,
						"TEXCOORD_0":6
					},
					"indices":7,
					"material":1
				},
				{
					"attributes":{
						"POSITION":8,
						"NORMAL":9,
						"TEXCOORD_0":10
					},
					"indices":11,
					"material":2
				}
			]
		}
	],
	"accessors":[
		{
			"bufferView":0,
			"componentType":5126,
			"count":72,
			"max":[
				4.597409725189209,
				1.0722384452819824,
				1.5331053733825684
			],
			"min":[
				-4.6221394538879395,
				-6.964273929595947,
				-1.536529302597046
			],
			"type":"VEC3"
		},
		{
			"bufferView":1,
			"componentType":5126,
			"count":72,
			"type":"VEC3"
		},
		{
			"bufferView":2,
			"componentType":5126,
			"count":72,
			"type":"VEC2"
		},
		{
			"bufferView":3,
			"componentType":5123,
			"count":120,
			"type":"SCALAR"
		},
		{
			"bufferView":4,
			"componentType":5126,
			"count":1032,
			"max":[
				4.316732406616211,
				-0.3970280587673187,
				1.2565946578979492
			],
			"min":[
				-3.723137617111206,
				-0.5530879497528076,
				-1.1538385152816772
			],
			"type":"VEC3"
		},
		{
			"bufferView":5,
			"componentType":5126,
			"count":1032,
			"type":"VEC3"
		},
		{
			"bufferView":6,
			"componentType":5126,
			"count":1032,
			"type":"VEC2"
		},
		{
			"bufferView":7,
			"componentType":5123,
			"count":1344,
			"type":"SCALAR"
		},
		{
			"bufferView":8,
			"componentType":5126,
			"count":3008,
			"max":[
				4.232248783111572,
				-0.16338080167770386,
				1.2565946578979492
			],
			"min":[
				-4.226029396057129,
				-0.8375111818313599,
				-1.104464054107666
			],
			"type":"VEC3"
		},
		{
			"bufferView":9,
			"componentType":5126,
			"count":3008,
			"type":"VEC3"
		},
		{
			"bufferView":10,
			"componentType":5126,
			"count":3008,
			"type":"VEC2"
		},
		{
			"bufferView":11,
			"componentType":5123,
			"count":6144,
			"type":"SCALAR"
		}
	],
	"bufferViews":[
		{
			"buffer":0,
			"byteLength":864,
			"byteOffset":0,
			"target":34962
		},
		{
			"buffer":0,
			"byteLength":864,
			"byteOffset":864,
			"target":34962
		},
		{
			"buffer":0,
			"byteLength":576,
			"byteOffset":1728,
			"target":34962
		},
		{
			"buffer":0,
			"byteLength":240,
			"byteOffset":2304,
			"target":34963
		},
		{
			"buffer":0,
			"byteLength":12384,
			"byteOffset":2544,
			"target":34962
		},
		{
			"buffer":0,
			"byteLength":12384,
			"byteOffset":14928,
			"target":34962
		},
		{
			"buffer":0,
			"byteLength":8256,
			"byteOffset":27312,
			"target":34962
		},
		{
			"buffer":0,
			"byteLength":2688,
			"byteOffset":35568,
			"target":34963
		},
		{
			"buffer":0,
			"byteLength":36096,
			"byteOffset":38256,
			"target":34962
		},
		{
			"buffer":0,
			"byteLength":36096,
			"byteOffset":74352,
			"target":34962
		},
		{
			"buffer":0,
			"byteLength":24064,
			"byteOffset":110448,
			"target":34962
		},
		{
			"buffer":0,
			"byteLength":12288,
			"byteOffset":134512,
			"target":34963
		}
	],
	"buffers":[
		{
			"byteLength":146800,
			"uri":"banana_box.bin"
		}
	]
}
