{
	"asset":{
		"generator":"Khronos glTF Blender I/O v4.2.60",
		"version":"2.0"
	},
	"scene":0,
	"scenes":[
		{
			"name":"Scene",
			"nodes":[
				0
			]
		}
	],
	"nodes":[
		{
			"mesh":0,
			"name":"Cube.001",
			"scale":[
				1,
				0.5268014073371887,
				1.3792020082473755
			]
		}
	],
	"materials":[
		{
			"doubleSided":true,
			"name":"Material.001",
			"pbrMetallicRoughness":{
				"baseColorFactor":[
					0.48288780450820923,
					0.3270036280155182,
					0.1440112143754959,
					1
				],
				"metallicFactor":0,
				"roughnessFactor":0.5
			}
		},
		{
			"name":"blinn10SG.002",
			"pbrMetallicRoughness":{
				"baseColorFactor":[
					0.1899999976158142,
					0.09000000357627869,
					0.05999999865889549,
					1
				],
				"metallicFactor":0
			}
		},
		{
			"name":"blinn2SG.002",
			"pbrMetallicRoughness":{
				"baseColorFactor":[
					1,
					0.8299999833106995,
					0.03999999910593033,
					1
				],
				"metallicFactor":0
			}
		}
	],
	"meshes":[
		{
			"name":"Cube.002",
			"primitives":[
				{
					"attributes":{
						"POSITION":0,
						"NORMAL":1,
						"TEXCOORD_0":2
					},
					"indices":3,
					"material":0
				},
				{
					"attributes":{
						"POSITION":4,
						"NORMAL":5,
						"TEXCOORD_0":6
					},
					"indices":7,
					"material":1
				},
				{
					"attributes":{
						"POSITION":8,
						"NORMAL":9,
						"TEXCOORD_0":10
					},
					"indices":11,
					"material":2
				}
			]
		}
	],
	"accessors":[
		{
			"bufferView":0,
			"componentType":5126,
			"count":72,
			"max":[
				4.610559940338135,
				4.670037269592285,
				1.5323679447174072
			],
			"min":[
				-4.608989238739014,
				-3.3664751052856445,
				-1.537266731262207
			],
			"type":"VEC3"
		},
		{
			"bufferView":1,
			"componentType":5126,
			"count":72,
			"type":"VEC3"
		},
		{
			"bufferView":2,
			"componentType":5126,
			"count":72,
			"type":"VEC2"
		},
		{
			"bufferView":3,
			"componentType":5123,
			"count":120,
			"type":"SCALAR"
		},
		{
			"bufferView":4,
			"componentType":5126,
			"count":1044,
			"max":[
				4.329882621765137,
				3.200770854949951,
				1.255857229232788
			],
			"min":[
				-3.7099876403808594,
				3.044711112976074,
				-1.1545759439468384
			],
			"type":"VEC3"
		},
		{
			"bufferView":5,
			"componentType":5126,
			"count":1044,
			"type":"VEC3"
		},
		{
			"bufferView":6,
			"componentType":5126,
			"count":1044,
			"type":"VEC2"
		},
		{
			"bufferView":7,
			"componentType":5123,
			"count":1344,
			"type":"SCALAR"
		},
		{
			"bufferView":8,
			"componentType":5126,
			"count":3008,
			"max":[
				4.245398998260498,
				3.434418201446533,
				1.255857229232788
			],
			"min":[
				-4.212879180908203,
				2.7602877616882324,
				-1.1052014827728271
			],
			"type":"VEC3"
		},
		{
			"bufferView":9,
			"componentType":5126,
			"count":3008,
			"type":"VEC3"
		},
		{
			"bufferView":10,
			"componentType":5126,
			"count":3008,
			"type":"VEC2"
		},
		{
			"bufferView":11,
			"componentType":5123,
			"count":6144,
			"type":"SCALAR"
		}
	],
	"bufferViews":[
		{
			"buffer":0,
			"byteLength":864,
			"byteOffset":0,
			"target":34962
		},
		{
			"buffer":0,
			"byteLength":864,
			"byteOffset":864,
			"target":34962
		},
		{
			"buffer":0,
			"byteLength":576,
			"byteOffset":1728,
			"target":34962
		},
		{
			"buffer":0,
			"byteLength":240,
			"byteOffset":2304,
			"target":34963
		},
		{
			"buffer":0,
			"byteLength":12528,
			"byteOffset":2544,
			"target":34962
		},
		{
			"buffer":0,
			"byteLength":12528,
			"byteOffset":15072,
			"target":34962
		},
		{
			"buffer":0,
			"byteLength":8352,
			"byteOffset":27600,
			"target":34962
		},
		{
			"buffer":0,
			"byteLength":2688,
			"byteOffset":35952,
			"target":34963
		},
		{
			"buffer":0,
			"byteLength":36096,
			"byteOffset":38640,
			"target":34962
		},
		{
			"buffer":0,
			"byteLength":36096,
			"byteOffset":74736,
			"target":34962
		},
		{
			"buffer":0,
			"byteLength":24064,
			"byteOffset":110832,
			"target":34962
		},
		{
			"buffer":0,
			"byteLength":12288,
			"byteOffset":134896,
			"target":34963
		}
	],
	"buffers":[
		{
			"byteLength":147184,
			"uri":"banana_box.bin"
		}
	]
}
