{
	"asset":{
		"generator":"Khronos glTF Blender I/O v4.2.60",
		"version":"2.0"
	},
	"scene":0,
	"scenes":[
		{
			"name":"Scene",
			"nodes":[
				0,
				1,
				2,
				3,
				4
			]
		}
	],
	"nodes":[
		{
			"mesh":0,
			"name":"Cube.001",
			"scale":[
				1,
				0.5268014073371887,
				1.3792020082473755
			],
			"translation":[
				0.012364745140075684,
				3.673156499862671,
				0.0023611783981323242
			]
		},
		{
			"mesh":1,
			"name":"pasted__pCube11 group.010",
			"rotation":[
				-0.5092208981513977,
				0.4966104030609131,
				-0.4907572567462921,
				0.5032191276550293
			],
			"scale":[
				0.017000000923871994,
				0.017000002786517143,
				0.017000000923871994
			],
			"translation":[
				-4.075877666473389,
				3.4116740226745605,
				-0.635452389717102
			]
		},
		{
			"mesh":2,
			"name":"pasted__pCube11 group.001",
			"rotation":[
				-0.5092208981513977,
				0.4966104030609131,
				-0.4907572567462921,
				0.5032191276550293
			],
			"scale":[
				0.017000000923871994,
				0.017000002786517143,
				0.017000000923871994
			],
			"translation":[
				-4.075877666473389,
				3.4116740226745605,
				1.0215983390808105
			]
		},
		{
			"mesh":3,
			"name":"pasted__pCube11 group.002",
			"rotation":[
				-0.5092208981513977,
				0.4966104030609131,
				-0.4907572567462921,
				0.5032191276550293
			],
			"scale":[
				0.017000000923871994,
				0.017000002786517143,
				0.017000000923871994
			],
			"translation":[
				0.33485743403434753,
				3.4116740226745605,
				-0.635452389717102
			]
		},
		{
			"mesh":4,
			"name":"pasted__pCube11 group.003",
			"rotation":[
				-0.5092208981513977,
				0.4966104030609131,
				-0.4907572567462921,
				0.5032191276550293
			],
			"scale":[
				0.017000000923871994,
				0.017000002786517143,
				0.017000000923871994
			],
			"translation":[
				0.33485743403434753,
				3.4116740226745605,
				1.0215983390808105
			]
		}
	],
	"materials":[
		{
			"doubleSided":true,
			"name":"Material.001",
			"pbrMetallicRoughness":{
				"baseColorFactor":[
					0.48288780450820923,
					0.3270036280155182,
					0.1440112143754959,
					1
				],
				"metallicFactor":0,
				"roughnessFactor":0.5
			}
		},
		{
			"name":"blinn10SG",
			"pbrMetallicRoughness":{
				"baseColorFactor":[
					0.1899999976158142,
					0.09000000357627869,
					0.05999999865889549,
					1
				],
				"metallicFactor":0
			}
		},
		{
			"name":"blinn2SG",
			"pbrMetallicRoughness":{
				"baseColorFactor":[
					1,
					0.8299999833106995,
					0.03999999910593033,
					1
				],
				"metallicFactor":0
			}
		}
	],
	"meshes":[
		{
			"name":"Cube.002",
			"primitives":[
				{
					"attributes":{
						"POSITION":0,
						"NORMAL":1,
						"TEXCOORD_0":2
					},
					"indices":3,
					"material":0
				}
			]
		},
		{
			"name":"pasted__pCube11 group_1.010",
			"primitives":[
				{
					"attributes":{
						"POSITION":4,
						"NORMAL":5,
						"TEXCOORD_0":6
					},
					"indices":7,
					"material":1
				},
				{
					"attributes":{
						"POSITION":8,
						"NORMAL":9,
						"TEXCOORD_0":10
					},
					"indices":11,
					"material":2
				}
			]
		},
		{
			"name":"pasted__pCube11 group_1.021",
			"primitives":[
				{
					"attributes":{
						"POSITION":12,
						"NORMAL":13,
						"TEXCOORD_0":14
					},
					"indices":15,
					"material":1
				},
				{
					"attributes":{
						"POSITION":16,
						"NORMAL":17,
						"TEXCOORD_0":18
					},
					"indices":19,
					"material":2
				}
			]
		},
		{
			"name":"pasted__pCube11 group_1.001",
			"primitives":[
				{
					"attributes":{
						"POSITION":20,
						"NORMAL":21,
						"TEXCOORD_0":22
					},
					"indices":7,
					"material":1
				},
				{
					"attributes":{
						"POSITION":23,
						"NORMAL":24,
						"TEXCOORD_0":25
					},
					"indices":11,
					"material":2
				}
			]
		},
		{
			"name":"pasted__pCube11 group_1.002",
			"primitives":[
				{
					"attributes":{
						"POSITION":26,
						"NORMAL":27,
						"TEXCOORD_0":28
					},
					"indices":15,
					"material":1
				},
				{
					"attributes":{
						"POSITION":29,
						"NORMAL":30,
						"TEXCOORD_0":31
					},
					"indices":19,
					"material":2
				}
			]
		}
	],
	"accessors":[
		{
			"bufferView":0,
			"componentType":5126,
			"count":72,
			"max":[
				4.597409725189209,
				1.0722384452819824,
				1.5331053733825684
			],
			"min":[
				-4.6221394538879395,
				-6.964273929595947,
				-1.536529302597046
			],
			"type":"VEC3"
		},
		{
			"bufferView":1,
			"componentType":5126,
			"count":72,
			"type":"VEC3"
		},
		{
			"bufferView":2,
			"componentType":5126,
			"count":72,
			"type":"VEC2"
		},
		{
			"bufferView":3,
			"componentType":5123,
			"count":120,
			"type":"SCALAR"
		},
		{
			"bufferView":4,
			"componentType":5126,
			"count":32,
			"max":[
				2.298696994781494,
				55.70677185058594,
				35.36328887939453
			],
			"min":[
				-2.298696994781494,
				-42.24421691894531,
				21.041976928710938
			],
			"type":"VEC3"
		},
		{
			"bufferView":5,
			"componentType":5126,
			"count":32,
			"type":"VEC3"
		},
		{
			"bufferView":6,
			"componentType":5126,
			"count":32,
			"type":"VEC2"
		},
		{
			"bufferView":7,
			"componentType":5123,
			"count":42,
			"type":"SCALAR"
		},
		{
			"bufferView":8,
			"componentType":5126,
			"count":94,
			"max":[
				10.378239631652832,
				51.754180908203125,
				30.27347755432129
			],
			"min":[
				-10.378239631652832,
				-42.24421691894531,
				-7.8089118003845215
			],
			"type":"VEC3"
		},
		{
			"bufferView":9,
			"componentType":5126,
			"count":94,
			"type":"VEC3"
		},
		{
			"bufferView":10,
			"componentType":5126,
			"count":94,
			"type":"VEC2"
		},
		{
			"bufferView":11,
			"componentType":5123,
			"count":192,
			"type":"SCALAR"
		},
		{
			"bufferView":12,
			"componentType":5126,
			"count":480,
			"max":[
				7.319309234619141,
				152.81777954101562,
				236.69749450683594
			],
			"min":[
				-2.298696994781494,
				-44.61762619018555,
				21.041976928710938
			],
			"type":"VEC3"
		},
		{
			"bufferView":13,
			"componentType":5126,
			"count":480,
			"type":"VEC3"
		},
		{
			"bufferView":14,
			"componentType":5126,
			"count":480,
			"type":"VEC2"
		},
		{
			"bufferView":15,
			"componentType":5123,
			"count":630,
			"type":"SCALAR"
		},
		{
			"bufferView":16,
			"componentType":5126,
			"count":1410,
			"max":[
				15.398850440979004,
				148.86517333984375,
				231.60768127441406
			],
			"min":[
				-10.378239631652832,
				-44.61762619018555,
				-7.8089118003845215
			],
			"type":"VEC3"
		},
		{
			"bufferView":17,
			"componentType":5126,
			"count":1410,
			"type":"VEC3"
		},
		{
			"bufferView":18,
			"componentType":5126,
			"count":1410,
			"type":"VEC2"
		},
		{
			"bufferView":19,
			"componentType":5123,
			"count":2880,
			"type":"SCALAR"
		},
		{
			"bufferView":20,
			"componentType":5126,
			"count":32,
			"max":[
				2.298696994781494,
				55.70677185058594,
				35.36328887939453
			],
			"min":[
				-2.298696994781494,
				-42.24421691894531,
				21.041976928710938
			],
			"type":"VEC3"
		},
		{
			"bufferView":21,
			"componentType":5126,
			"count":32,
			"type":"VEC3"
		},
		{
			"bufferView":22,
			"componentType":5126,
			"count":32,
			"type":"VEC2"
		},
		{
			"bufferView":23,
			"componentType":5126,
			"count":94,
			"max":[
				10.378239631652832,
				51.754180908203125,
				30.27347755432129
			],
			"min":[
				-10.378239631652832,
				-42.24421691894531,
				-7.8089118003845215
			],
			"type":"VEC3"
		},
		{
			"bufferView":24,
			"componentType":5126,
			"count":94,
			"type":"VEC3"
		},
		{
			"bufferView":25,
			"componentType":5126,
			"count":94,
			"type":"VEC2"
		},
		{
			"bufferView":26,
			"componentType":5126,
			"count":480,
			"max":[
				7.319309234619141,
				152.81777954101562,
				236.69749450683594
			],
			"min":[
				-2.298696994781494,
				-44.61762619018555,
				21.041976928710938
			],
			"type":"VEC3"
		},
		{
			"bufferView":27,
			"componentType":5126,
			"count":480,
			"type":"VEC3"
		},
		{
			"bufferView":28,
			"componentType":5126,
			"count":480,
			"type":"VEC2"
		},
		{
			"bufferView":29,
			"componentType":5126,
			"count":1410,
			"max":[
				15.398850440979004,
				148.86517333984375,
				231.60768127441406
			],
			"min":[
				-10.378239631652832,
				-44.61762619018555,
				-7.8089118003845215
			],
			"type":"VEC3"
		},
		{
			"bufferView":30,
			"componentType":5126,
			"count":1410,
			"type":"VEC3"
		},
		{
			"bufferView":31,
			"componentType":5126,
			"count":1410,
			"type":"VEC2"
		}
	],
	"bufferViews":[
		{
			"buffer":0,
			"byteLength":864,
			"byteOffset":0,
			"target":34962
		},
		{
			"buffer":0,
			"byteLength":864,
			"byteOffset":864,
			"target":34962
		},
		{
			"buffer":0,
			"byteLength":576,
			"byteOffset":1728,
			"target":34962
		},
		{
			"buffer":0,
			"byteLength":240,
			"byteOffset":2304,
			"target":34963
		},
		{
			"buffer":0,
			"byteLength":384,
			"byteOffset":2544,
			"target":34962
		},
		{
			"buffer":0,
			"byteLength":384,
			"byteOffset":2928,
			"target":34962
		},
		{
			"buffer":0,
			"byteLength":256,
			"byteOffset":3312,
			"target":34962
		},
		{
			"buffer":0,
			"byteLength":84,
			"byteOffset":3568,
			"target":34963
		},
		{
			"buffer":0,
			"byteLength":1128,
			"byteOffset":3652,
			"target":34962
		},
		{
			"buffer":0,
			"byteLength":1128,
			"byteOffset":4780,
			"target":34962
		},
		{
			"buffer":0,
			"byteLength":752,
			"byteOffset":5908,
			"target":34962
		},
		{
			"buffer":0,
			"byteLength":384,
			"byteOffset":6660,
			"target":34963
		},
		{
			"buffer":0,
			"byteLength":5760,
			"byteOffset":7044,
			"target":34962
		},
		{
			"buffer":0,
			"byteLength":5760,
			"byteOffset":12804,
			"target":34962
		},
		{
			"buffer":0,
			"byteLength":3840,
			"byteOffset":18564,
			"target":34962
		},
		{
			"buffer":0,
			"byteLength":1260,
			"byteOffset":22404,
			"target":34963
		},
		{
			"buffer":0,
			"byteLength":16920,
			"byteOffset":23664,
			"target":34962
		},
		{
			"buffer":0,
			"byteLength":16920,
			"byteOffset":40584,
			"target":34962
		},
		{
			"buffer":0,
			"byteLength":11280,
			"byteOffset":57504,
			"target":34962
		},
		{
			"buffer":0,
			"byteLength":5760,
			"byteOffset":68784,
			"target":34963
		},
		{
			"buffer":0,
			"byteLength":384,
			"byteOffset":74544,
			"target":34962
		},
		{
			"buffer":0,
			"byteLength":384,
			"byteOffset":74928,
			"target":34962
		},
		{
			"buffer":0,
			"byteLength":256,
			"byteOffset":75312,
			"target":34962
		},
		{
			"buffer":0,
			"byteLength":1128,
			"byteOffset":75568,
			"target":34962
		},
		{
			"buffer":0,
			"byteLength":1128,
			"byteOffset":76696,
			"target":34962
		},
		{
			"buffer":0,
			"byteLength":752,
			"byteOffset":77824,
			"target":34962
		},
		{
			"buffer":0,
			"byteLength":5760,
			"byteOffset":78576,
			"target":34962
		},
		{
			"buffer":0,
			"byteLength":5760,
			"byteOffset":84336,
			"target":34962
		},
		{
			"buffer":0,
			"byteLength":3840,
			"byteOffset":90096,
			"target":34962
		},
		{
			"buffer":0,
			"byteLength":16920,
			"byteOffset":93936,
			"target":34962
		},
		{
			"buffer":0,
			"byteLength":16920,
			"byteOffset":110856,
			"target":34962
		},
		{
			"buffer":0,
			"byteLength":11280,
			"byteOffset":127776,
			"target":34962
		}
	],
	"buffers":[
		{
			"byteLength":139056,
			"uri":"banana_box.bin"
		}
	]
}
