{
	"asset":{
		"generator":"Khronos glTF Blender I/O v4.2.60",
		"version":"2.0"
	},
	"scene":0,
	"scenes":[
		{
			"name":"Scene",
			"nodes":[
				0
			]
		}
	],
	"nodes":[
		{
			"mesh":0,
			"name":"Cylinder.001",
			"rotation":[
				1,
				0,
				0,
				0
			],
			"scale":[
				0.5,
				0.5,
				0.5
			]
		}
	],
	"materials":[
		{
			"doubleSided":true,
			"name":"Material.032",
			"pbrMetallicRoughness":{
				"baseColorTexture":{
					"index":0
				},
				"metallicFactor":0,
				"roughnessFactor":0.5
			}
		},
		{
			"doubleSided":true,
			"name":"Material.033",
			"pbrMetallicRoughness":{
				"baseColorFactor":[
					0.2653980851173401,
					0.2654016613960266,
					0.2654016613960266,
					1
				],
				"metallicFactor":0,
				"roughnessFactor":0.5
			}
		},
		{
			"doubleSided":true,
			"name":"Material.034",
			"pbrMetallicRoughness":{
				"baseColorFactor":[
					0.2653980851173401,
					0.2654016613960266,
					0.2654016613960266,
					1
				],
				"metallicFactor":0,
				"roughnessFactor":0.5
			}
		},
		{
			"doubleSided":true,
			"name":"Material.035",
			"pbrMetallicRoughness":{
				"baseColorFactor":[
					0.2653980851173401,
					0.2654016613960266,
					0.2654016613960266,
					1
				],
				"metallicFactor":0,
				"roughnessFactor":0.5
			}
		}
	],
	"meshes":[
		{
			"name":"Cylinder.008",
			"primitives":[
				{
					"attributes":{
						"POSITION":0,
						"NORMAL":1,
						"TEXCOORD_0":2
					},
					"indices":3,
					"material":0
				},
				{
					"attributes":{
						"POSITION":4,
						"NORMAL":5,
						"TEXCOORD_0":6
					},
					"indices":7,
					"material":1
				},
				{
					"attributes":{
						"POSITION":8,
						"NORMAL":9,
						"TEXCOORD_0":10
					},
					"indices":11,
					"material":2
				},
				{
					"attributes":{
						"POSITION":12,
						"NORMAL":13,
						"TEXCOORD_0":14
					},
					"indices":11,
					"material":3
				}
			]
		}
	],
	"textures":[
		{
			"sampler":0,
			"source":0
		}
	],
	"images":[
		{
			"mimeType":"image/jpeg",
			"name":"canYellow",
			"uri":"canYellow.jpg"
		}
	],
	"accessors":[
		{
			"bufferView":0,
			"componentType":5126,
			"count":4562,
			"max":[
				0.9848077297210693,
				10.997590065002441,
				0.9396926164627075
			],
			"min":[
				-0.9848077297210693,
				-5.496775150299072,
				-13.182418823242188
			],
			"type":"VEC3"
		},
		{
			"bufferView":1,
			"componentType":5126,
			"count":4562,
			"type":"VEC3"
		},
		{
			"bufferView":2,
			"componentType":5126,
			"count":4562,
			"type":"VEC2"
		},
		{
			"bufferView":3,
			"componentType":5123,
			"count":8736,
			"type":"SCALAR"
		},
		{
			"bufferView":4,
			"componentType":5126,
			"count":144,
			"max":[
				2.4733171463012695,
				14.000213623046875,
				2.2401123046875
			],
			"min":[
				-5.595715522766113,
				-6.559800148010254,
				-14.433810234069824
			],
			"type":"VEC3"
		},
		{
			"bufferView":5,
			"componentType":5126,
			"count":144,
			"type":"VEC3"
		},
		{
			"bufferView":6,
			"componentType":5126,
			"count":144,
			"type":"VEC2"
		},
		{
			"bufferView":7,
			"componentType":5123,
			"count":216,
			"type":"SCALAR"
		},
		{
			"bufferView":8,
			"componentType":5126,
			"count":24,
			"max":[
				2.0158896446228027,
				-1.0001273155212402,
				1.995762825012207
			],
			"min":[
				-5.184109687805176,
				-2.0401272773742676,
				-14.004236221313477
			],
			"type":"VEC3"
		},
		{
			"bufferView":9,
			"componentType":5126,
			"count":24,
			"type":"VEC3"
		},
		{
			"bufferView":10,
			"componentType":5126,
			"count":24,
			"type":"VEC2"
		},
		{
			"bufferView":11,
			"componentType":5123,
			"count":36,
			"type":"SCALAR"
		},
		{
			"bufferView":12,
			"componentType":5126,
			"count":24,
			"max":[
				2.0158896446228027,
				3.9998726844787598,
				1.995762825012207
			],
			"min":[
				-5.184110641479492,
				2.9598727226257324,
				-14.004236221313477
			],
			"type":"VEC3"
		},
		{
			"bufferView":13,
			"componentType":5126,
			"count":24,
			"type":"VEC3"
		},
		{
			"bufferView":14,
			"componentType":5126,
			"count":24,
			"type":"VEC2"
		}
	],
	"bufferViews":[
		{
			"buffer":0,
			"byteLength":54744,
			"byteOffset":0,
			"target":34962
		},
		{
			"buffer":0,
			"byteLength":54744,
			"byteOffset":54744,
			"target":34962
		},
		{
			"buffer":0,
			"byteLength":36496,
			"byteOffset":109488,
			"target":34962
		},
		{
			"buffer":0,
			"byteLength":17472,
			"byteOffset":145984,
			"target":34963
		},
		{
			"buffer":0,
			"byteLength":1728,
			"byteOffset":163456,
			"target":34962
		},
		{
			"buffer":0,
			"byteLength":1728,
			"byteOffset":165184,
			"target":34962
		},
		{
			"buffer":0,
			"byteLength":1152,
			"byteOffset":166912,
			"target":34962
		},
		{
			"buffer":0,
			"byteLength":432,
			"byteOffset":168064,
			"target":34963
		},
		{
			"buffer":0,
			"byteLength":288,
			"byteOffset":168496,
			"target":34962
		},
		{
			"buffer":0,
			"byteLength":288,
			"byteOffset":168784,
			"target":34962
		},
		{
			"buffer":0,
			"byteLength":192,
			"byteOffset":169072,
			"target":34962
		},
		{
			"buffer":0,
			"byteLength":72,
			"byteOffset":169264,
			"target":34963
		},
		{
			"buffer":0,
			"byteLength":288,
			"byteOffset":169336,
			"target":34962
		},
		{
			"buffer":0,
			"byteLength":288,
			"byteOffset":169624,
			"target":34962
		},
		{
			"buffer":0,
			"byteLength":192,
			"byteOffset":169912,
			"target":34962
		}
	],
	"samplers":[
		{
			"magFilter":9729,
			"minFilter":9987
		}
	],
	"buffers":[
		{
			"byteLength":170104,
			"uri":"corn_cans_shelf.bin"
		}
	]
}
