{
	"asset":{
		"generator":"Khronos glTF Blender I/O v4.2.60",
		"version":"2.0"
	},
	"scene":0,
	"scenes":[
		{
			"name":"Scene",
			"nodes":[
				0
			]
		}
	],
	"nodes":[
		{
			"mesh":0,
			"name":"Cylinder.001",
			"scale":[
				0.5,
				0.5,
				0.5
			]
		}
	],
	"materials":[
		{
			"doubleSided":true,
			"name":"Material.032",
			"pbrMetallicRoughness":{
				"baseColorTexture":{
					"index":0
				},
				"metallicFactor":0,
				"roughnessFactor":0.5
			}
		},
		{
			"doubleSided":true,
			"name":"Material.033",
			"pbrMetallicRoughness":{
				"baseColorFactor":[
					0.2653980851173401,
					0.2654016613960266,
					0.2654016613960266,
					1
				],
				"metallicFactor":0,
				"roughnessFactor":0.5
			}
		},
		{
			"doubleSided":true,
			"name":"Material.034",
			"pbrMetallicRoughness":{
				"baseColorFactor":[
					0.2653980851173401,
					0.2654016613960266,
					0.2654016613960266,
					1
				],
				"metallicFactor":0,
				"roughnessFactor":0.5
			}
		},
		{
			"doubleSided":true,
			"name":"Material.035",
			"pbrMetallicRoughness":{
				"baseColorFactor":[
					0.2653980851173401,
					0.2654016613960266,
					0.2654016613960266,
					1
				],
				"metallicFactor":0,
				"roughnessFactor":0.5
			}
		}
	],
	"meshes":[
		{
			"name":"Cylinder.008",
			"primitives":[
				{
					"attributes":{
						"POSITION":0,
						"NORMAL":1,
						"TEXCOORD_0":2
					},
					"indices":3,
					"material":0
				},
				{
					"attributes":{
						"POSITION":4,
						"NORMAL":5,
						"TEXCOORD_0":6
					},
					"indices":7,
					"material":1
				},
				{
					"attributes":{
						"POSITION":8,
						"NORMAL":9,
						"TEXCOORD_0":10
					},
					"indices":11,
					"material":2
				},
				{
					"attributes":{
						"POSITION":12,
						"NORMAL":13,
						"TEXCOORD_0":14
					},
					"indices":11,
					"material":3
				}
			]
		}
	],
	"textures":[
		{
			"sampler":0,
			"source":0
		}
	],
	"images":[
		{
			"mimeType":"image/jpeg",
			"name":"canYellow",
			"uri":"canYellow.jpg"
		}
	],
	"accessors":[
		{
			"bufferView":0,
			"componentType":5126,
			"count":4562,
			"max":[
				3.043213367462158,
				7.465987205505371,
				6.991797924041748
			],
			"min":[
				1.0735979080200195,
				-9.028377532958984,
				-7.130313396453857
			],
			"type":"VEC3"
		},
		{
			"bufferView":1,
			"componentType":5126,
			"count":4562,
			"type":"VEC3"
		},
		{
			"bufferView":2,
			"componentType":5126,
			"count":4562,
			"type":"VEC2"
		},
		{
			"bufferView":3,
			"componentType":5123,
			"count":8736,
			"type":"SCALAR"
		},
		{
			"bufferView":4,
			"componentType":5126,
			"count":144,
			"max":[
				4.5317230224609375,
				10.468610763549805,
				8.292217254638672
			],
			"min":[
				-3.5373098850250244,
				-10.091403007507324,
				-8.381704330444336
			],
			"type":"VEC3"
		},
		{
			"bufferView":5,
			"componentType":5126,
			"count":144,
			"type":"VEC3"
		},
		{
			"bufferView":6,
			"componentType":5126,
			"count":144,
			"type":"VEC2"
		},
		{
			"bufferView":7,
			"componentType":5123,
			"count":216,
			"type":"SCALAR"
		},
		{
			"bufferView":8,
			"componentType":5126,
			"count":24,
			"max":[
				4.0742950439453125,
				-4.531729698181152,
				8.047868728637695
			],
			"min":[
				-3.125704050064087,
				-5.57172966003418,
				-7.9521307945251465
			],
			"type":"VEC3"
		},
		{
			"bufferView":9,
			"componentType":5126,
			"count":24,
			"type":"VEC3"
		},
		{
			"bufferView":10,
			"componentType":5126,
			"count":24,
			"type":"VEC2"
		},
		{
			"bufferView":11,
			"componentType":5123,
			"count":36,
			"type":"SCALAR"
		},
		{
			"bufferView":12,
			"componentType":5126,
			"count":24,
			"max":[
				4.0742950439453125,
				0.46827006340026855,
				8.047868728637695
			],
			"min":[
				-3.1257050037384033,
				-0.5717298984527588,
				-7.9521307945251465
			],
			"type":"VEC3"
		},
		{
			"bufferView":13,
			"componentType":5126,
			"count":24,
			"type":"VEC3"
		},
		{
			"bufferView":14,
			"componentType":5126,
			"count":24,
			"type":"VEC2"
		}
	],
	"bufferViews":[
		{
			"buffer":0,
			"byteLength":54744,
			"byteOffset":0,
			"target":34962
		},
		{
			"buffer":0,
			"byteLength":54744,
			"byteOffset":54744,
			"target":34962
		},
		{
			"buffer":0,
			"byteLength":36496,
			"byteOffset":109488,
			"target":34962
		},
		{
			"buffer":0,
			"byteLength":17472,
			"byteOffset":145984,
			"target":34963
		},
		{
			"buffer":0,
			"byteLength":1728,
			"byteOffset":163456,
			"target":34962
		},
		{
			"buffer":0,
			"byteLength":1728,
			"byteOffset":165184,
			"target":34962
		},
		{
			"buffer":0,
			"byteLength":1152,
			"byteOffset":166912,
			"target":34962
		},
		{
			"buffer":0,
			"byteLength":432,
			"byteOffset":168064,
			"target":34963
		},
		{
			"buffer":0,
			"byteLength":288,
			"byteOffset":168496,
			"target":34962
		},
		{
			"buffer":0,
			"byteLength":288,
			"byteOffset":168784,
			"target":34962
		},
		{
			"buffer":0,
			"byteLength":192,
			"byteOffset":169072,
			"target":34962
		},
		{
			"buffer":0,
			"byteLength":72,
			"byteOffset":169264,
			"target":34963
		},
		{
			"buffer":0,
			"byteLength":288,
			"byteOffset":169336,
			"target":34962
		},
		{
			"buffer":0,
			"byteLength":288,
			"byteOffset":169624,
			"target":34962
		},
		{
			"buffer":0,
			"byteLength":192,
			"byteOffset":169912,
			"target":34962
		}
	],
	"samplers":[
		{
			"magFilter":9729,
			"minFilter":9987
		}
	],
	"buffers":[
		{
			"byteLength":170104,
			"uri":"corn_cans_shelf.bin"
		}
	]
}
