{
	"asset":{
		"generator":"Khronos glTF Blender I/O v4.2.60",
		"version":"2.0"
	},
	"scene":0,
	"scenes":[
		{
			"name":"Scene",
			"nodes":[
				0
			]
		}
	],
	"nodes":[
		{
			"mesh":0,
			"name":"Cube.019_Cube.026",
			"rotation":[
				0.70710688829422,
				0,
				0,
				0.7071066498756409
			],
			"scale":[
				0.6499999761581421,
				0.6500000357627869,
				0.6500000357627869
			],
			"translation":[
				0,
				5,
				0
			]
		}
	],
	"materials":[
		{
			"doubleSided":true,
			"name":"Material.013",
			"pbrMetallicRoughness":{
				"baseColorTexture":{
					"index":0
				},
				"metallicFactor":0,
				"roughnessFactor":0.5
			}
		},
		{
			"doubleSided":true,
			"name":"Material.001",
			"pbrMetallicRoughness":{
				"baseColorFactor":[
					0.2653980851173401,
					0.2654016613960266,
					0.2654016613960266,
					1
				],
				"metallicFactor":0,
				"roughnessFactor":0.5
			}
		},
		{
			"doubleSided":true,
			"name":"Material.002",
			"pbrMetallicRoughness":{
				"baseColorFactor":[
					0.2653980851173401,
					0.2654016613960266,
					0.2654016613960266,
					1
				],
				"metallicFactor":0,
				"roughnessFactor":0.5
			}
		},
		{
			"doubleSided":true,
			"name":"Material.003",
			"pbrMetallicRoughness":{
				"baseColorFactor":[
					0.2653980851173401,
					0.2654016613960266,
					0.2654016613960266,
					1
				],
				"metallicFactor":0,
				"roughnessFactor":0.5
			}
		}
	],
	"meshes":[
		{
			"name":"Cube.019_Cube.025",
			"primitives":[
				{
					"attributes":{
						"POSITION":0,
						"NORMAL":1,
						"TEXCOORD_0":2
					},
					"indices":3,
					"material":0
				},
				{
					"attributes":{
						"POSITION":4,
						"NORMAL":5,
						"TEXCOORD_0":6
					},
					"indices":7,
					"material":1
				},
				{
					"attributes":{
						"POSITION":8,
						"NORMAL":9,
						"TEXCOORD_0":10
					},
					"indices":11,
					"material":2
				},
				{
					"attributes":{
						"POSITION":12,
						"NORMAL":13,
						"TEXCOORD_0":14
					},
					"indices":11,
					"material":3
				}
			]
		}
	],
	"textures":[
		{
			"sampler":0,
			"source":0
		}
	],
	"images":[
		{
			"mimeType":"image/jpeg",
			"name":"7up",
			"uri":"7up.jpg"
		}
	],
	"accessors":[
		{
			"bufferView":0,
			"componentType":5126,
			"count":18290,
			"max":[
				1.9336302280426025,
				5.334833145141602,
				7.004584789276123
			],
			"min":[
				0.9819492101669312,
				-5.47153902053833,
				-6.723174095153809
			],
			"type":"VEC3"
		},
		{
			"bufferView":1,
			"componentType":5126,
			"count":18290,
			"type":"VEC3"
		},
		{
			"bufferView":2,
			"componentType":5126,
			"count":18290,
			"type":"VEC2"
		},
		{
			"bufferView":3,
			"componentType":5123,
			"count":27456,
			"type":"SCALAR"
		},
		{
			"bufferView":4,
			"componentType":5126,
			"count":144,
			"max":[
				3.51596736907959,
				6.384463787078857,
				7.8001298904418945
			],
			"min":[
				-2.6909806728363037,
				-6.4416327476501465,
				-8.015265464782715
			],
			"type":"VEC3"
		},
		{
			"bufferView":5,
			"componentType":5126,
			"count":144,
			"type":"VEC3"
		},
		{
			"bufferView":6,
			"componentType":5126,
			"count":144,
			"type":"VEC2"
		},
		{
			"bufferView":7,
			"componentType":5123,
			"count":216,
			"type":"SCALAR"
		},
		{
			"bufferView":8,
			"componentType":5126,
			"count":24,
			"max":[
				3.164099931716919,
				6.19650411605835,
				4.323460102081299
			],
			"min":[
				-2.374361038208008,
				-6.111189365386963,
				3.523458480834961
			],
			"type":"VEC3"
		},
		{
			"bufferView":9,
			"componentType":5126,
			"count":24,
			"type":"VEC3"
		},
		{
			"bufferView":10,
			"componentType":5126,
			"count":24,
			"type":"VEC2"
		},
		{
			"bufferView":11,
			"componentType":5123,
			"count":36,
			"type":"SCALAR"
		},
		{
			"bufferView":12,
			"componentType":5126,
			"count":24,
			"max":[
				3.164099931716919,
				6.196503162384033,
				0.4773068428039551
			],
			"min":[
				-2.374361753463745,
				-6.111190319061279,
				-0.3226947784423828
			],
			"type":"VEC3"
		},
		{
			"bufferView":13,
			"componentType":5126,
			"count":24,
			"type":"VEC3"
		},
		{
			"bufferView":14,
			"componentType":5126,
			"count":24,
			"type":"VEC2"
		}
	],
	"bufferViews":[
		{
			"buffer":0,
			"byteLength":219480,
			"byteOffset":0,
			"target":34962
		},
		{
			"buffer":0,
			"byteLength":219480,
			"byteOffset":219480,
			"target":34962
		},
		{
			"buffer":0,
			"byteLength":146320,
			"byteOffset":438960,
			"target":34962
		},
		{
			"buffer":0,
			"byteLength":54912,
			"byteOffset":585280,
			"target":34963
		},
		{
			"buffer":0,
			"byteLength":1728,
			"byteOffset":640192,
			"target":34962
		},
		{
			"buffer":0,
			"byteLength":1728,
			"byteOffset":641920,
			"target":34962
		},
		{
			"buffer":0,
			"byteLength":1152,
			"byteOffset":643648,
			"target":34962
		},
		{
			"buffer":0,
			"byteLength":432,
			"byteOffset":644800,
			"target":34963
		},
		{
			"buffer":0,
			"byteLength":288,
			"byteOffset":645232,
			"target":34962
		},
		{
			"buffer":0,
			"byteLength":288,
			"byteOffset":645520,
			"target":34962
		},
		{
			"buffer":0,
			"byteLength":192,
			"byteOffset":645808,
			"target":34962
		},
		{
			"buffer":0,
			"byteLength":72,
			"byteOffset":646000,
			"target":34963
		},
		{
			"buffer":0,
			"byteLength":288,
			"byteOffset":646072,
			"target":34962
		},
		{
			"buffer":0,
			"byteLength":288,
			"byteOffset":646360,
			"target":34962
		},
		{
			"buffer":0,
			"byteLength":192,
			"byteOffset":646648,
			"target":34962
		}
	],
	"samplers":[
		{
			"magFilter":9729,
			"minFilter":9987
		}
	],
	"buffers":[
		{
			"byteLength":646840,
			"uri":"green_twist_shelf.bin"
		}
	]
}
