{
	"asset":{
		"generator":"Khronos glTF Blender I/O v4.2.70",
		"version":"2.0"
	},
	"scene":0,
	"scenes":[
		{
			"name":"Scene",
			"nodes":[
				0,
				1,
				2,
				3
			]
		}
	],
	"nodes":[
		{
			"mesh":0,
			"name":"Circle.003",
			"rotation":[
				0,
				-0.7077517509460449,
				0,
				0.7064613103866577
			]
		},
		{
			"mesh":1,
			"name":"Circle",
			"translation":[
				0.02882777713239193,
				0.2742789387702942,
				0.04835880547761917
			]
		},
		{
			"mesh":2,
			"name":"Circle.001",
			"scale":[
				0.5829511284828186,
				0.5829511284828186,
				0.5829511284828186
			],
			"translation":[
				0.018165268003940582,
				1.3011213541030884,
				0.04047217592597008
			]
		},
		{
			"mesh":3,
			"name":"Circle.002",
			"scale":[
				0.2806476652622223,
				0.2806476652622223,
				0.2806476652622223
			],
			"translation":[
				0.008745227940380573,
				1.952136754989624,
				0.019484346732497215
			]
		}
	],
	"materials":[
		{
			"doubleSided":true,
			"name":"Material.001",
			"pbrMetallicRoughness":{
				"baseColorFactor":[
					0.800000011920929,
					0.800000011920929,
					0.800000011920929,
					1
				],
				"metallicFactor":0,
				"roughnessFactor":0.5
			}
		},
		{
			"doubleSided":true,
			"name":"Material.002",
			"pbrMetallicRoughness":{
				"baseColorFactor":[
					0.00870165228843689,
					0.18442250788211823,
					0.487300306558609,
					1
				],
				"metallicFactor":0,
				"roughnessFactor":0.5
			}
		},
		{
			"doubleSided":true,
			"name":"Material.006",
			"pbrMetallicRoughness":{
				"baseColorFactor":[
					0.4963413178920746,
					0.4963413178920746,
					0.4963413178920746,
					1
				],
				"metallicFactor":0,
				"roughnessFactor":0.5
			}
		},
		{
			"doubleSided":true,
			"name":"Material.007",
			"pbrMetallicRoughness":{
				"baseColorFactor":[
					0.011776680126786232,
					0.21629391610622406,
					0.3844744861125946,
					1
				],
				"metallicFactor":0,
				"roughnessFactor":0.5
			}
		},
		{
			"doubleSided":true,
			"name":"Material.004",
			"pbrMetallicRoughness":{
				"baseColorFactor":[
					0.5772011876106262,
					0.5772011876106262,
					0.5772011876106262,
					1
				],
				"metallicFactor":0,
				"roughnessFactor":0.5
			}
		},
		{
			"doubleSided":true,
			"name":"Material.005",
			"pbrMetallicRoughness":{
				"baseColorFactor":[
					0.016864113509655,
					0.18214398622512817,
					0.4463573694229126,
					1
				],
				"metallicFactor":0,
				"roughnessFactor":0.5
			}
		}
	],
	"meshes":[
		{
			"name":"Circle.008",
			"primitives":[
				{
					"attributes":{
						"POSITION":0,
						"NORMAL":1
					},
					"indices":2,
					"material":0
				},
				{
					"attributes":{
						"POSITION":3,
						"NORMAL":4
					},
					"indices":5,
					"material":1
				}
			]
		},
		{
			"name":"Circle.018",
			"primitives":[
				{
					"attributes":{
						"POSITION":6,
						"NORMAL":7,
						"TEXCOORD_0":8
					},
					"indices":9,
					"material":2
				},
				{
					"attributes":{
						"POSITION":10,
						"NORMAL":11,
						"TEXCOORD_0":12
					},
					"indices":13,
					"material":3
				}
			]
		},
		{
			"name":"Circle.019",
			"primitives":[
				{
					"attributes":{
						"POSITION":14,
						"NORMAL":15,
						"TEXCOORD_0":16
					},
					"indices":17,
					"material":4
				},
				{
					"attributes":{
						"POSITION":18,
						"NORMAL":19,
						"TEXCOORD_0":20
					},
					"indices":21,
					"material":5
				}
			]
		},
		{
			"name":"Circle.020",
			"primitives":[
				{
					"attributes":{
						"POSITION":22,
						"NORMAL":23,
						"TEXCOORD_0":24
					},
					"indices":25
				}
			]
		}
	],
	"accessors":[
		{
			"bufferView":0,
			"componentType":5126,
			"count":1342,
			"max":[
				2.174694776535034,
				0.503075361251831,
				2.1746716499328613
			],
			"min":[
				-2.1746859550476074,
				0.004902546294033527,
				-2.1746103763580322
			],
			"type":"VEC3"
		},
		{
			"bufferView":1,
			"componentType":5126,
			"count":1342,
			"type":"VEC3"
		},
		{
			"bufferView":2,
			"componentType":5123,
			"count":2475,
			"type":"SCALAR"
		},
		{
			"bufferView":3,
			"componentType":5126,
			"count":39,
			"max":[
				1.5363173484802246,
				0.151391863822937,
				1.5362892150878906
			],
			"min":[
				-1.5362964868545532,
				0.15138593316078186,
				-1.5362638235092163
			],
			"type":"VEC3"
		},
		{
			"bufferView":4,
			"componentType":5126,
			"count":39,
			"type":"VEC3"
		},
		{
			"bufferView":5,
			"componentType":5123,
			"count":87,
			"type":"SCALAR"
		},
		{
			"bufferView":6,
			"componentType":5126,
			"count":1608,
			"max":[
				1.3317086696624756,
				1.420285940170288,
				1.3601938486099243
			],
			"min":[
				-1.4212807416915894,
				-1.4539233718742972e-15,
				-1.392795443534851
			],
			"type":"VEC3"
		},
		{
			"bufferView":7,
			"componentType":5126,
			"count":1608,
			"type":"VEC3"
		},
		{
			"bufferView":8,
			"componentType":5126,
			"count":1608,
			"type":"VEC2"
		},
		{
			"bufferView":9,
			"componentType":5123,
			"count":2628,
			"type":"SCALAR"
		},
		{
			"bufferView":10,
			"componentType":5126,
			"count":60,
			"max":[
				1.1498088836669922,
				1.420285940170288,
				1.178294062614441
			],
			"min":[
				-1.239380955696106,
				1.3117390871047974,
				-1.2108956575393677
			],
			"type":"VEC3"
		},
		{
			"bufferView":11,
			"componentType":5126,
			"count":60,
			"type":"VEC3"
		},
		{
			"bufferView":12,
			"componentType":5126,
			"count":60,
			"type":"VEC2"
		},
		{
			"bufferView":13,
			"componentType":5123,
			"count":102,
			"type":"SCALAR"
		},
		{
			"bufferView":14,
			"componentType":5126,
			"count":1656,
			"max":[
				1.3317086696624756,
				1.420285940170288,
				1.3601938486099243
			],
			"min":[
				-1.4212807416915894,
				-1.4539233718742972e-15,
				-1.392795443534851
			],
			"type":"VEC3"
		},
		{
			"bufferView":15,
			"componentType":5126,
			"count":1656,
			"type":"VEC3"
		},
		{
			"bufferView":16,
			"componentType":5126,
			"count":1656,
			"type":"VEC2"
		},
		{
			"bufferView":17,
			"componentType":5123,
			"count":2700,
			"type":"SCALAR"
		},
		{
			"bufferView":18,
			"componentType":5126,
			"count":12,
			"max":[
				0.9294754266738892,
				1.3117390871047974,
				0.9793357253074646
			],
			"min":[
				-1.0140266418457031,
				1.3117390871047974,
				-0.9641662240028381
			],
			"type":"VEC3"
		},
		{
			"bufferView":19,
			"componentType":5126,
			"count":12,
			"type":"VEC3"
		},
		{
			"bufferView":20,
			"componentType":5126,
			"count":12,
			"type":"VEC2"
		},
		{
			"bufferView":21,
			"componentType":5123,
			"count":30,
			"type":"SCALAR"
		},
		{
			"bufferView":22,
			"componentType":5126,
			"count":1668,
			"max":[
				1.3317086696624756,
				1.420285940170288,
				1.3601938486099243
			],
			"min":[
				-1.4212807416915894,
				-1.4539233718742972e-15,
				-1.392795443534851
			],
			"type":"VEC3"
		},
		{
			"bufferView":23,
			"componentType":5126,
			"count":1668,
			"type":"VEC3"
		},
		{
			"bufferView":24,
			"componentType":5126,
			"count":1668,
			"type":"VEC2"
		},
		{
			"bufferView":25,
			"componentType":5123,
			"count":2730,
			"type":"SCALAR"
		}
	],
	"bufferViews":[
		{
			"buffer":0,
			"byteLength":16104,
			"byteOffset":0,
			"target":34962
		},
		{
			"buffer":0,
			"byteLength":16104,
			"byteOffset":16104,
			"target":34962
		},
		{
			"buffer":0,
			"byteLength":4950,
			"byteOffset":32208,
			"target":34963
		},
		{
			"buffer":0,
			"byteLength":468,
			"byteOffset":37160,
			"target":34962
		},
		{
			"buffer":0,
			"byteLength":468,
			"byteOffset":37628,
			"target":34962
		},
		{
			"buffer":0,
			"byteLength":174,
			"byteOffset":38096,
			"target":34963
		},
		{
			"buffer":0,
			"byteLength":19296,
			"byteOffset":38272,
			"target":34962
		},
		{
			"buffer":0,
			"byteLength":19296,
			"byteOffset":57568,
			"target":34962
		},
		{
			"buffer":0,
			"byteLength":12864,
			"byteOffset":76864,
			"target":34962
		},
		{
			"buffer":0,
			"byteLength":5256,
			"byteOffset":89728,
			"target":34963
		},
		{
			"buffer":0,
			"byteLength":720,
			"byteOffset":94984,
			"target":34962
		},
		{
			"buffer":0,
			"byteLength":720,
			"byteOffset":95704,
			"target":34962
		},
		{
			"buffer":0,
			"byteLength":480,
			"byteOffset":96424,
			"target":34962
		},
		{
			"buffer":0,
			"byteLength":204,
			"byteOffset":96904,
			"target":34963
		},
		{
			"buffer":0,
			"byteLength":19872,
			"byteOffset":97108,
			"target":34962
		},
		{
			"buffer":0,
			"byteLength":19872,
			"byteOffset":116980,
			"target":34962
		},
		{
			"buffer":0,
			"byteLength":13248,
			"byteOffset":136852,
			"target":34962
		},
		{
			"buffer":0,
			"byteLength":5400,
			"byteOffset":150100,
			"target":34963
		},
		{
			"buffer":0,
			"byteLength":144,
			"byteOffset":155500,
			"target":34962
		},
		{
			"buffer":0,
			"byteLength":144,
			"byteOffset":155644,
			"target":34962
		},
		{
			"buffer":0,
			"byteLength":96,
			"byteOffset":155788,
			"target":34962
		},
		{
			"buffer":0,
			"byteLength":60,
			"byteOffset":155884,
			"target":34963
		},
		{
			"buffer":0,
			"byteLength":20016,
			"byteOffset":155944,
			"target":34962
		},
		{
			"buffer":0,
			"byteLength":20016,
			"byteOffset":175960,
			"target":34962
		},
		{
			"buffer":0,
			"byteLength":13344,
			"byteOffset":195976,
			"target":34962
		},
		{
			"buffer":0,
			"byteLength":5460,
			"byteOffset":209320,
			"target":34963
		}
	],
	"buffers":[
		{
			"byteLength":214780,
			"uri":"fountain.bin"
		}
	]
}
