{
	"asset":{
		"generator":"Khronos glTF Blender I/O v4.2.60",
		"version":"2.0"
	},
	"scene":0,
	"scenes":[
		{
			"name":"Scene",
			"nodes":[
				0,
				1,
				2
			]
		}
	],
	"nodes":[
		{
			"mesh":0,
			"name":"sundae"
		},
		{
			"mesh":1,
			"name":"cherry"
		},
		{
			"mesh":2,
			"name":"straw"
		}
	],
	"materials":[
		{
			"name":"_defaultMat",
			"pbrMetallicRoughness":{
				"metallicFactor":0
			}
		},
		{
			"name":"purpleLight",
			"pbrMetallicRoughness":{
				"baseColorFactor":[
					1,
					0.4099999964237213,
					0.7900000214576721,
					1
				],
				"metallicFactor":0
			}
		},
		{
			"name":"brownDark",
			"pbrMetallicRoughness":{
				"baseColorFactor":[
					0.6000000238418579,
					0.2199999988079071,
					0.10999999940395355,
					1
				],
				"metallicFactor":0
			}
		},
		{
			"name":"red",
			"pbrMetallicRoughness":{
				"baseColorFactor":[
					0.8100000023841858,
					0.09000000357627869,
					0.07999999821186066,
					1
				],
				"metallicFactor":0
			}
		},
		{
			"name":"green",
			"pbrMetallicRoughness":{
				"baseColorFactor":[
					0.15000000596046448,
					0.7099999785423279,
					0.44999998807907104,
					1
				],
				"metallicFactor":0
			}
		}
	],
	"meshes":[
		{
			"name":"sundae_1",
			"primitives":[
				{
					"attributes":{
						"POSITION":0,
						"NORMAL":1,
						"TEXCOORD_0":2
					},
					"indices":3,
					"material":0
				},
				{
					"attributes":{
						"POSITION":4,
						"NORMAL":5,
						"TEXCOORD_0":6
					},
					"indices":7,
					"material":1
				},
				{
					"attributes":{
						"POSITION":8,
						"NORMAL":9,
						"TEXCOORD_0":10
					},
					"indices":11,
					"material":2
				}
			]
		},
		{
			"name":"cherry_1",
			"primitives":[
				{
					"attributes":{
						"POSITION":12,
						"NORMAL":13,
						"TEXCOORD_0":14
					},
					"indices":15,
					"material":3
				},
				{
					"attributes":{
						"POSITION":16,
						"NORMAL":17,
						"TEXCOORD_0":18
					},
					"indices":19,
					"material":4
				}
			]
		},
		{
			"name":"straw_1",
			"primitives":[
				{
					"attributes":{
						"POSITION":20,
						"NORMAL":21,
						"TEXCOORD_0":22
					},
					"indices":23,
					"material":4
				}
			]
		}
	],
	"accessors":[
		{
			"bufferView":0,
			"componentType":5126,
			"count":333,
			"max":[
				0.1115942969918251,
				0.6188734769821167,
				0.12885800004005432
			],
			"min":[
				-0.1115942969918251,
				0,
				-0.12885800004005432
			],
			"type":"VEC3"
		},
		{
			"bufferView":1,
			"componentType":5126,
			"count":333,
			"type":"VEC3"
		},
		{
			"bufferView":2,
			"componentType":5126,
			"count":333,
			"type":"VEC2"
		},
		{
			"bufferView":3,
			"componentType":5123,
			"count":516,
			"type":"SCALAR"
		},
		{
			"bufferView":4,
			"componentType":5126,
			"count":108,
			"max":[
				0.10168520361185074,
				0.4979718029499054,
				0.1174158975481987
			],
			"min":[
				-0.10168520361185074,
				0.3050000071525574,
				-0.1174158975481987
			],
			"type":"VEC3"
		},
		{
			"bufferView":5,
			"componentType":5126,
			"count":108,
			"type":"VEC3"
		},
		{
			"bufferView":6,
			"componentType":5126,
			"count":108,
			"type":"VEC2"
		},
		{
			"bufferView":7,
			"componentType":5123,
			"count":174,
			"type":"SCALAR"
		},
		{
			"bufferView":8,
			"componentType":5126,
			"count":84,
			"max":[
				0.08408580720424652,
				0.5638145804405212,
				0.09383237361907959
			],
			"min":[
				-0.08408580720424652,
				0.48151108622550964,
				-0.09383237361907959
			],
			"type":"VEC3"
		},
		{
			"bufferView":9,
			"componentType":5126,
			"count":84,
			"type":"VEC3"
		},
		{
			"bufferView":10,
			"componentType":5126,
			"count":84,
			"type":"VEC2"
		},
		{
			"bufferView":11,
			"componentType":5123,
			"count":138,
			"type":"SCALAR"
		},
		{
			"bufferView":12,
			"componentType":5126,
			"count":100,
			"max":[
				0.04867956042289734,
				0.6067575812339783,
				-0.005465079098939896
			],
			"min":[
				-0.0011156350374221802,
				0.551184892654419,
				-0.06103779003024101
			],
			"type":"VEC3"
		},
		{
			"bufferView":13,
			"componentType":5126,
			"count":100,
			"type":"VEC3"
		},
		{
			"bufferView":14,
			"componentType":5126,
			"count":100,
			"type":"VEC2"
		},
		{
			"bufferView":15,
			"componentType":5123,
			"count":150,
			"type":"SCALAR"
		},
		{
			"bufferView":16,
			"componentType":5126,
			"count":20,
			"max":[
				0.027817200869321823,
				0.6456747055053711,
				-0.04374324902892113
			],
			"min":[
				0.01974673941731453,
				0.5994033217430115,
				-0.07409244775772095
			],
			"type":"VEC3"
		},
		{
			"bufferView":17,
			"componentType":5126,
			"count":20,
			"type":"VEC3"
		},
		{
			"bufferView":18,
			"componentType":5126,
			"count":20,
			"type":"VEC2"
		},
		{
			"bufferView":19,
			"componentType":5123,
			"count":30,
			"type":"SCALAR"
		},
		{
			"bufferView":20,
			"componentType":5126,
			"count":24,
			"max":[
				0.019157640635967255,
				0.6678829789161682,
				0.07066348940134048
			],
			"min":[
				0.006190141197293997,
				0.5579919219017029,
				0.03152963146567345
			],
			"type":"VEC3"
		},
		{
			"bufferView":21,
			"componentType":5126,
			"count":24,
			"type":"VEC3"
		},
		{
			"bufferView":22,
			"componentType":5126,
			"count":24,
			"type":"VEC2"
		},
		{
			"bufferView":23,
			"componentType":5123,
			"count":36,
			"type":"SCALAR"
		}
	],
	"bufferViews":[
		{
			"buffer":0,
			"byteLength":3996,
			"byteOffset":0,
			"target":34962
		},
		{
			"buffer":0,
			"byteLength":3996,
			"byteOffset":3996,
			"target":34962
		},
		{
			"buffer":0,
			"byteLength":2664,
			"byteOffset":7992,
			"target":34962
		},
		{
			"buffer":0,
			"byteLength":1032,
			"byteOffset":10656,
			"target":34963
		},
		{
			"buffer":0,
			"byteLength":1296,
			"byteOffset":11688,
			"target":34962
		},
		{
			"buffer":0,
			"byteLength":1296,
			"byteOffset":12984,
			"target":34962
		},
		{
			"buffer":0,
			"byteLength":864,
			"byteOffset":14280,
			"target":34962
		},
		{
			"buffer":0,
			"byteLength":348,
			"byteOffset":15144,
			"target":34963
		},
		{
			"buffer":0,
			"byteLength":1008,
			"byteOffset":15492,
			"target":34962
		},
		{
			"buffer":0,
			"byteLength":1008,
			"byteOffset":16500,
			"target":34962
		},
		{
			"buffer":0,
			"byteLength":672,
			"byteOffset":17508,
			"target":34962
		},
		{
			"buffer":0,
			"byteLength":276,
			"byteOffset":18180,
			"target":34963
		},
		{
			"buffer":0,
			"byteLength":1200,
			"byteOffset":18456,
			"target":34962
		},
		{
			"buffer":0,
			"byteLength":1200,
			"byteOffset":19656,
			"target":34962
		},
		{
			"buffer":0,
			"byteLength":800,
			"byteOffset":20856,
			"target":34962
		},
		{
			"buffer":0,
			"byteLength":300,
			"byteOffset":21656,
			"target":34963
		},
		{
			"buffer":0,
			"byteLength":240,
			"byteOffset":21956,
			"target":34962
		},
		{
			"buffer":0,
			"byteLength":240,
			"byteOffset":22196,
			"target":34962
		},
		{
			"buffer":0,
			"byteLength":160,
			"byteOffset":22436,
			"target":34962
		},
		{
			"buffer":0,
			"byteLength":60,
			"byteOffset":22596,
			"target":34963
		},
		{
			"buffer":0,
			"byteLength":288,
			"byteOffset":22656,
			"target":34962
		},
		{
			"buffer":0,
			"byteLength":288,
			"byteOffset":22944,
			"target":34962
		},
		{
			"buffer":0,
			"byteLength":192,
			"byteOffset":23232,
			"target":34962
		},
		{
			"buffer":0,
			"byteLength":72,
			"byteOffset":23424,
			"target":34963
		}
	],
	"buffers":[
		{
			"byteLength":23496,
			"uri":"sundae.bin"
		}
	]
}
