{
	"asset":{
		"generator":"Khronos glTF Blender I/O v4.2.60",
		"version":"2.0"
	},
	"scene":0,
	"scenes":[
		{
			"name":"Scene",
			"nodes":[
				0
			]
		}
	],
	"nodes":[
		{
			"mesh":0,
			"name":"Cube.006",
			"scale":[
				0.26000070571899414,
				5,
				4.150003433227539
			]
		}
	],
	"materials":[
		{
			"doubleSided":true,
			"name":"Material.023",
			"pbrMetallicRoughness":{
				"baseColorFactor":[
					0.2653980851173401,
					0.2654016613960266,
					0.2654016613960266,
					1
				],
				"metallicFactor":0,
				"roughnessFactor":0.5
			}
		},
		{
			"doubleSided":true,
			"name":"Material.026",
			"pbrMetallicRoughness":{
				"baseColorFactor":[
					0.2653980851173401,
					0.2654016613960266,
					0.2654016613960266,
					1
				],
				"metallicFactor":0,
				"roughnessFactor":0.5
			}
		},
		{
			"doubleSided":true,
			"name":"Material.044",
			"pbrMetallicRoughness":{
				"baseColorFactor":[
					0.2653980851173401,
					0.2654016613960266,
					0.2654016613960266,
					1
				],
				"metallicFactor":0,
				"roughnessFactor":0.5
			}
		},
		{
			"doubleSided":true,
			"name":"Material.045",
			"pbrMetallicRoughness":{
				"baseColorTexture":{
					"index":0
				},
				"metallicFactor":0
			}
		}
	],
	"meshes":[
		{
			"name":"Cube.011",
			"primitives":[
				{
					"attributes":{
						"POSITION":0,
						"NORMAL":1,
						"TEXCOORD_0":2
					},
					"indices":3,
					"material":0
				},
				{
					"attributes":{
						"POSITION":4,
						"NORMAL":5,
						"TEXCOORD_0":6
					},
					"indices":7,
					"material":1
				},
				{
					"attributes":{
						"POSITION":8,
						"NORMAL":9,
						"TEXCOORD_0":10
					},
					"indices":7,
					"material":2
				},
				{
					"attributes":{
						"POSITION":11,
						"NORMAL":12,
						"TEXCOORD_0":13
					},
					"indices":14,
					"material":3
				}
			]
		}
	],
	"textures":[
		{
			"sampler":0,
			"source":0
		}
	],
	"images":[
		{
			"mimeType":"image/jpeg",
			"name":"sauce_",
			"uri":"sauce_.jpg"
		}
	],
	"accessors":[
		{
			"bufferView":0,
			"componentType":5126,
			"count":144,
			"max":[
				7.6095290184021,
				1.0462732315063477,
				1.0015102624893188
			],
			"min":[
				-7.907799243927002,
				-1.009728193283081,
				-1.0073943138122559
			],
			"type":"VEC3"
		},
		{
			"bufferView":1,
			"componentType":5126,
			"count":144,
			"type":"VEC3"
		},
		{
			"bufferView":2,
			"componentType":5126,
			"count":144,
			"type":"VEC2"
		},
		{
			"bufferView":3,
			"componentType":5123,
			"count":216,
			"type":"SCALAR"
		},
		{
			"bufferView":4,
			"componentType":5126,
			"count":24,
			"max":[
				6.72986364364624,
				-0.45376089215278625,
				0.9720707535743713
			],
			"min":[
				-7.1162519454956055,
				-0.5577608346939087,
				-0.9556384682655334
			],
			"type":"VEC3"
		},
		{
			"bufferView":5,
			"componentType":5126,
			"count":24,
			"type":"VEC3"
		},
		{
			"bufferView":6,
			"componentType":5126,
			"count":24,
			"type":"VEC2"
		},
		{
			"bufferView":7,
			"componentType":5123,
			"count":36,
			"type":"SCALAR"
		},
		{
			"bufferView":8,
			"componentType":5126,
			"count":24,
			"max":[
				6.72986364364624,
				0.04623911902308464,
				0.9720707535743713
			],
			"min":[
				-7.116253852844238,
				-0.05776087939739227,
				-0.9556384682655334
			],
			"type":"VEC3"
		},
		{
			"bufferView":9,
			"componentType":5126,
			"count":24,
			"type":"VEC3"
		},
		{
			"bufferView":10,
			"componentType":5126,
			"count":24,
			"type":"VEC2"
		},
		{
			"bufferView":11,
			"componentType":5126,
			"count":7172,
			"max":[
				4.426239490509033,
				0.8865149021148682,
				0.8402166366577148
			],
			"min":[
				1.0969319343566895,
				-0.9072619676589966,
				-0.888534665107727
			],
			"type":"VEC3"
		},
		{
			"bufferView":12,
			"componentType":5126,
			"count":7172,
			"type":"VEC3"
		},
		{
			"bufferView":13,
			"componentType":5126,
			"count":7172,
			"type":"VEC2"
		},
		{
			"bufferView":14,
			"componentType":5123,
			"count":11088,
			"type":"SCALAR"
		}
	],
	"bufferViews":[
		{
			"buffer":0,
			"byteLength":1728,
			"byteOffset":0,
			"target":34962
		},
		{
			"buffer":0,
			"byteLength":1728,
			"byteOffset":1728,
			"target":34962
		},
		{
			"buffer":0,
			"byteLength":1152,
			"byteOffset":3456,
			"target":34962
		},
		{
			"buffer":0,
			"byteLength":432,
			"byteOffset":4608,
			"target":34963
		},
		{
			"buffer":0,
			"byteLength":288,
			"byteOffset":5040,
			"target":34962
		},
		{
			"buffer":0,
			"byteLength":288,
			"byteOffset":5328,
			"target":34962
		},
		{
			"buffer":0,
			"byteLength":192,
			"byteOffset":5616,
			"target":34962
		},
		{
			"buffer":0,
			"byteLength":72,
			"byteOffset":5808,
			"target":34963
		},
		{
			"buffer":0,
			"byteLength":288,
			"byteOffset":5880,
			"target":34962
		},
		{
			"buffer":0,
			"byteLength":288,
			"byteOffset":6168,
			"target":34962
		},
		{
			"buffer":0,
			"byteLength":192,
			"byteOffset":6456,
			"target":34962
		},
		{
			"buffer":0,
			"byteLength":86064,
			"byteOffset":6648,
			"target":34962
		},
		{
			"buffer":0,
			"byteLength":86064,
			"byteOffset":92712,
			"target":34962
		},
		{
			"buffer":0,
			"byteLength":57376,
			"byteOffset":178776,
			"target":34962
		},
		{
			"buffer":0,
			"byteLength":22176,
			"byteOffset":236152,
			"target":34963
		}
	],
	"samplers":[
		{
			"magFilter":9729,
			"minFilter":9987
		}
	],
	"buffers":[
		{
			"byteLength":258328,
			"uri":"mayo_sauce_shelf.bin"
		}
	]
}
