{
	"asset":{
		"generator":"Khronos glTF Blender I/O v4.2.60",
		"version":"2.0"
	},
	"scene":0,
	"scenes":[
		{
			"name":"Scene",
			"nodes":[
				0,
				1,
				2
			]
		}
	],
	"nodes":[
		{
			"mesh":0,
			"name":"Lasagna",
			"scale":[
				1.663443922996521,
				0.4804593026638031,
				1
			],
			"translation":[
				-0.24996395409107208,
				2.816866159439087,
				2.0679314136505127
			]
		},
		{
			"mesh":1,
			"name":"fridge.box",
			"rotation":[
				0,
				0,
				-0.7071068286895752,
				0.7071068286895752
			],
			"scale":[
				5.548601150512695,
				0.21680021286010742,
				4.3039445877075195
			],
			"translation":[
				-2.4933414459228516,
				5.33003044128418,
				0.0017936103977262974
			]
		},
		{
			"mesh":2,
			"name":"fridge.door",
			"rotation":[
				0,
				0,
				-0.7071068286895752,
				0.7071068286895752
			],
			"scale":[
				4.617089748382568,
				0.0522022470831871,
				2.9398231506347656
			],
			"translation":[
				2.5079407691955566,
				5.342718124389648,
				0.03392308950424194
			]
		}
	],
	"animations":[
		{
			"channels":[
				{
					"sampler":0,
					"target":{
						"node":2,
						"path":"translation"
					}
				},
				{
					"sampler":1,
					"target":{
						"node":2,
						"path":"rotation"
					}
				},
				{
					"sampler":2,
					"target":{
						"node":2,
						"path":"scale"
					}
				}
			],
			"name":"closeDoor",
			"samplers":[
				{
					"input":24,
					"interpolation":"LINEAR",
					"output":25
				},
				{
					"input":24,
					"interpolation":"LINEAR",
					"output":26
				},
				{
					"input":27,
					"interpolation":"STEP",
					"output":28
				}
			]
		},
		{
			"channels":[
				{
					"sampler":0,
					"target":{
						"node":2,
						"path":"translation"
					}
				},
				{
					"sampler":1,
					"target":{
						"node":2,
						"path":"rotation"
					}
				},
				{
					"sampler":2,
					"target":{
						"node":2,
						"path":"scale"
					}
				}
			],
			"name":"openCloseDoor",
			"samplers":[
				{
					"input":29,
					"interpolation":"LINEAR",
					"output":30
				},
				{
					"input":29,
					"interpolation":"LINEAR",
					"output":31
				},
				{
					"input":32,
					"interpolation":"STEP",
					"output":33
				}
			]
		}
	],
	"materials":[
		{
			"doubleSided":true,
			"name":"Material",
			"pbrMetallicRoughness":{
				"baseColorTexture":{
					"index":0
				},
				"metallicFactor":0,
				"roughnessFactor":0.5
			}
		},
		{
			"doubleSided":true,
			"name":"fridge.box",
			"pbrMetallicRoughness":{
				"baseColorFactor":[
					0.5242680311203003,
					0.5242680311203003,
					0.5242680311203003,
					1
				],
				"metallicFactor":0,
				"roughnessFactor":0.5
			}
		},
		{
			"doubleSided":true,
			"name":"fridge.shelves",
			"pbrMetallicRoughness":{
				"baseColorFactor":[
					0.37046360969543457,
					0.37046360969543457,
					0.37046360969543457,
					1
				],
				"metallicFactor":0,
				"roughnessFactor":0.5
			}
		},
		{
			"alphaMode":"MASK",
			"doubleSided":true,
			"name":"door.glass",
			"pbrMetallicRoughness":{
				"baseColorFactor":[
					0.800000011920929,
					0.800000011920929,
					0.800000011920929,
					0
				],
				"metallicFactor":0
			}
		},
		{
			"doubleSided":true,
			"name":"door.frame",
			"pbrMetallicRoughness":{
				"baseColorFactor":[
					0.5602843165397644,
					0.5602843165397644,
					0.5602843165397644,
					1
				],
				"metallicFactor":0,
				"roughnessFactor":0.5
			}
		},
		{
			"doubleSided":true,
			"name":"door.handle",
			"pbrMetallicRoughness":{
				"baseColorFactor":[
					0.800000011920929,
					0.800000011920929,
					0.800000011920929,
					1
				],
				"metallicFactor":0,
				"roughnessFactor":0.5
			}
		}
	],
	"meshes":[
		{
			"name":"Cube",
			"primitives":[
				{
					"attributes":{
						"POSITION":0,
						"NORMAL":1,
						"TEXCOORD_0":2
					},
					"indices":3,
					"material":0
				}
			]
		},
		{
			"name":"Cube.010",
			"primitives":[
				{
					"attributes":{
						"POSITION":4,
						"NORMAL":5,
						"TEXCOORD_0":6
					},
					"indices":7,
					"material":1
				},
				{
					"attributes":{
						"POSITION":8,
						"NORMAL":9,
						"TEXCOORD_0":10
					},
					"indices":11,
					"material":2
				}
			]
		},
		{
			"name":"fridge.door.mesh",
			"primitives":[
				{
					"attributes":{
						"POSITION":12,
						"NORMAL":13,
						"TEXCOORD_0":14
					},
					"indices":15,
					"material":3
				},
				{
					"attributes":{
						"POSITION":16,
						"NORMAL":17,
						"TEXCOORD_0":18
					},
					"indices":19,
					"material":4
				},
				{
					"attributes":{
						"POSITION":20,
						"NORMAL":21,
						"TEXCOORD_0":22
					},
					"indices":23,
					"material":5
				}
			]
		}
	],
	"textures":[
		{
			"sampler":0,
			"source":0
		}
	],
	"images":[
		{
			"mimeType":"image/png",
			"name":"spaghetti",
			"uri":"spaghetti.png"
		}
	],
	"accessors":[
		{
			"bufferView":0,
			"componentType":5126,
			"count":360,
			"max":[
				1,
				15.193502426147461,
				1
			],
			"min":[
				-1,
				-5.443785190582275,
				-5.177207946777344
			],
			"type":"VEC3"
		},
		{
			"bufferView":1,
			"componentType":5126,
			"count":360,
			"type":"VEC3"
		},
		{
			"bufferView":2,
			"componentType":5126,
			"count":360,
			"type":"VEC2"
		},
		{
			"bufferView":3,
			"componentType":5123,
			"count":540,
			"type":"SCALAR"
		},
		{
			"bufferView":4,
			"componentType":5126,
			"count":168,
			"max":[
				1,
				23.99062156677246,
				1.0000001192092896
			],
			"min":[
				-1.009594440460205,
				-1,
				-1.005491018295288
			],
			"type":"VEC3"
		},
		{
			"bufferView":5,
			"componentType":5126,
			"count":168,
			"type":"VEC3"
		},
		{
			"bufferView":6,
			"componentType":5126,
			"count":168,
			"type":"VEC2"
		},
		{
			"bufferView":7,
			"componentType":5123,
			"count":252,
			"type":"SCALAR"
		},
		{
			"bufferView":8,
			"componentType":5126,
			"count":96,
			"max":[
				0.6589310765266418,
				19.09337615966797,
				0.9221717119216919
			],
			"min":[
				-0.6928775310516357,
				-0.8812999725341797,
				-0.9221717119216919
			],
			"type":"VEC3"
		},
		{
			"bufferView":9,
			"componentType":5126,
			"count":96,
			"type":"VEC3"
		},
		{
			"bufferView":10,
			"componentType":5126,
			"count":96,
			"type":"VEC2"
		},
		{
			"bufferView":11,
			"componentType":5123,
			"count":144,
			"type":"SCALAR"
		},
		{
			"bufferView":12,
			"componentType":5126,
			"count":24,
			"max":[
				1,
				1,
				1
			],
			"min":[
				-1,
				-1,
				-1
			],
			"type":"VEC3"
		},
		{
			"bufferView":13,
			"componentType":5126,
			"count":24,
			"type":"VEC3"
		},
		{
			"bufferView":14,
			"componentType":5126,
			"count":24,
			"type":"VEC2"
		},
		{
			"bufferView":15,
			"componentType":5123,
			"count":36,
			"type":"SCALAR"
		},
		{
			"bufferView":16,
			"componentType":5126,
			"count":48,
			"max":[
				1.1281424760818481,
				3.9073352813720703,
				1.2358402013778687
			],
			"min":[
				-1.128142237663269,
				-4.398828506469727,
				-1.2358402013778687
			],
			"type":"VEC3"
		},
		{
			"bufferView":17,
			"componentType":5126,
			"count":48,
			"type":"VEC3"
		},
		{
			"bufferView":18,
			"componentType":5126,
			"count":48,
			"type":"VEC2"
		},
		{
			"bufferView":19,
			"componentType":5123,
			"count":96,
			"type":"SCALAR"
		},
		{
			"bufferView":20,
			"componentType":5126,
			"count":48,
			"max":[
				0.0769750326871872,
				7.818175315856934,
				-1.0556833744049072
			],
			"min":[
				-0.32966524362564087,
				0.31887245178222656,
				-1.1492669582366943
			],
			"type":"VEC3"
		},
		{
			"bufferView":21,
			"componentType":5126,
			"count":48,
			"type":"VEC3"
		},
		{
			"bufferView":22,
			"componentType":5126,
			"count":48,
			"type":"VEC2"
		},
		{
			"bufferView":23,
			"componentType":5123,
			"count":84,
			"type":"SCALAR"
		},
		{
			"bufferView":24,
			"componentType":5126,
			"count":21,
			"max":[
				0.875
			],
			"min":[
				0.041666666666666664
			],
			"type":"SCALAR"
		},
		{
			"bufferView":25,
			"componentType":5126,
			"count":21,
			"type":"VEC3"
		},
		{
			"bufferView":26,
			"componentType":5126,
			"count":21,
			"type":"VEC4"
		},
		{
			"bufferView":27,
			"componentType":5126,
			"count":2,
			"max":[
				0.875
			],
			"min":[
				0.041666666666666664
			],
			"type":"SCALAR"
		},
		{
			"bufferView":28,
			"componentType":5126,
			"count":2,
			"type":"VEC3"
		},
		{
			"bufferView":29,
			"componentType":5126,
			"count":41,
			"max":[
				1.6666666666666667
			],
			"min":[
				0
			],
			"type":"SCALAR"
		},
		{
			"bufferView":30,
			"componentType":5126,
			"count":41,
			"type":"VEC3"
		},
		{
			"bufferView":31,
			"componentType":5126,
			"count":41,
			"type":"VEC4"
		},
		{
			"bufferView":32,
			"componentType":5126,
			"count":2,
			"max":[
				1.6666666666666667
			],
			"min":[
				0
			],
			"type":"SCALAR"
		},
		{
			"bufferView":33,
			"componentType":5126,
			"count":2,
			"type":"VEC3"
		}
	],
	"bufferViews":[
		{
			"buffer":0,
			"byteLength":4320,
			"byteOffset":0,
			"target":34962
		},
		{
			"buffer":0,
			"byteLength":4320,
			"byteOffset":4320,
			"target":34962
		},
		{
			"buffer":0,
			"byteLength":2880,
			"byteOffset":8640,
			"target":34962
		},
		{
			"buffer":0,
			"byteLength":1080,
			"byteOffset":11520,
			"target":34963
		},
		{
			"buffer":0,
			"byteLength":2016,
			"byteOffset":12600,
			"target":34962
		},
		{
			"buffer":0,
			"byteLength":2016,
			"byteOffset":14616,
			"target":34962
		},
		{
			"buffer":0,
			"byteLength":1344,
			"byteOffset":16632,
			"target":34962
		},
		{
			"buffer":0,
			"byteLength":504,
			"byteOffset":17976,
			"target":34963
		},
		{
			"buffer":0,
			"byteLength":1152,
			"byteOffset":18480,
			"target":34962
		},
		{
			"buffer":0,
			"byteLength":1152,
			"byteOffset":19632,
			"target":34962
		},
		{
			"buffer":0,
			"byteLength":768,
			"byteOffset":20784,
			"target":34962
		},
		{
			"buffer":0,
			"byteLength":288,
			"byteOffset":21552,
			"target":34963
		},
		{
			"buffer":0,
			"byteLength":288,
			"byteOffset":21840,
			"target":34962
		},
		{
			"buffer":0,
			"byteLength":288,
			"byteOffset":22128,
			"target":34962
		},
		{
			"buffer":0,
			"byteLength":192,
			"byteOffset":22416,
			"target":34962
		},
		{
			"buffer":0,
			"byteLength":72,
			"byteOffset":22608,
			"target":34963
		},
		{
			"buffer":0,
			"byteLength":576,
			"byteOffset":22680,
			"target":34962
		},
		{
			"buffer":0,
			"byteLength":576,
			"byteOffset":23256,
			"target":34962
		},
		{
			"buffer":0,
			"byteLength":384,
			"byteOffset":23832,
			"target":34962
		},
		{
			"buffer":0,
			"byteLength":192,
			"byteOffset":24216,
			"target":34963
		},
		{
			"buffer":0,
			"byteLength":576,
			"byteOffset":24408,
			"target":34962
		},
		{
			"buffer":0,
			"byteLength":576,
			"byteOffset":24984,
			"target":34962
		},
		{
			"buffer":0,
			"byteLength":384,
			"byteOffset":25560,
			"target":34962
		},
		{
			"buffer":0,
			"byteLength":168,
			"byteOffset":25944,
			"target":34963
		},
		{
			"buffer":0,
			"byteLength":84,
			"byteOffset":26112
		},
		{
			"buffer":0,
			"byteLength":252,
			"byteOffset":26196
		},
		{
			"buffer":0,
			"byteLength":336,
			"byteOffset":26448
		},
		{
			"buffer":0,
			"byteLength":8,
			"byteOffset":26784
		},
		{
			"buffer":0,
			"byteLength":24,
			"byteOffset":26792
		},
		{
			"buffer":0,
			"byteLength":164,
			"byteOffset":26816
		},
		{
			"buffer":0,
			"byteLength":492,
			"byteOffset":26980
		},
		{
			"buffer":0,
			"byteLength":656,
			"byteOffset":27472
		},
		{
			"buffer":0,
			"byteLength":8,
			"byteOffset":28128
		},
		{
			"buffer":0,
			"byteLength":24,
			"byteOffset":28136
		}
	],
	"samplers":[
		{
			"magFilter":9729,
			"minFilter":9987
		}
	],
	"buffers":[
		{
			"byteLength":28160,
			"uri":"spaghetti_fridge.bin"
		}
	]
}
