{
	"asset":{
		"generator":"Khronos glTF Blender I/O v4.2.60",
		"version":"2.0"
	},
	"scene":0,
	"scenes":[
		{
			"name":"Scene",
			"nodes":[
				0
			]
		}
	],
	"nodes":[
		{
			"mesh":0,
			"name":"Icosphere.001",
			"rotation":[
				0,
				0.7061425447463989,
				0,
				0.7080696821212769
			],
			"scale":[
				0.0650000050663948,
				0.0650000050663948,
				0.0650000125169754
			]
		}
	],
	"materials":[
		{
			"name":"FF5722.002",
			"pbrMetallicRoughness":{
				"baseColorFactor":[
					1,
					0.09000000357627869,
					0.009999999776482582,
					1
				],
				"metallicFactor":0,
				"roughnessFactor":0.9039215445518494
			}
		},
		{
			"name":"4CAF50.002",
			"pbrMetallicRoughness":{
				"baseColorFactor":[
					0.07000000029802322,
					0.4399999976158142,
					0.07999999821186066,
					1
				],
				"metallicFactor":0,
				"roughnessFactor":0.9039215445518494
			}
		},
		{
			"doubleSided":true,
			"name":"Material.001",
			"pbrMetallicRoughness":{
				"baseColorFactor":[
					0.48288780450820923,
					0.3270036280155182,
					0.1440112143754959,
					1
				],
				"metallicFactor":0,
				"roughnessFactor":0.5
			}
		}
	],
	"meshes":[
		{
			"name":"Icosphere-Mesh.012",
			"primitives":[
				{
					"attributes":{
						"POSITION":0,
						"NORMAL":1,
						"TEXCOORD_0":2
					},
					"indices":3,
					"material":0
				},
				{
					"attributes":{
						"POSITION":4,
						"NORMAL":5,
						"TEXCOORD_0":6
					},
					"indices":7,
					"material":1
				},
				{
					"attributes":{
						"POSITION":8,
						"NORMAL":9,
						"TEXCOORD_0":10
					},
					"indices":11,
					"material":2
				}
			]
		}
	],
	"accessors":[
		{
			"bufferView":0,
			"componentType":5126,
			"count":17838,
			"max":[
				55.794227600097656,
				9.793265342712402,
				15.431020736694336
			],
			"min":[
				-73.40325927734375,
				-0.0029384440276771784,
				-45.47891616821289
			],
			"type":"VEC3"
		},
		{
			"bufferView":1,
			"componentType":5126,
			"count":17838,
			"type":"VEC3"
		},
		{
			"bufferView":2,
			"componentType":5126,
			"count":17838,
			"type":"VEC2"
		},
		{
			"bufferView":3,
			"componentType":5123,
			"count":18360,
			"type":"SCALAR"
		},
		{
			"bufferView":4,
			"componentType":5126,
			"count":5732,
			"max":[
				51.43165588378906,
				9.970531463623047,
				11.922504425048828
			],
			"min":[
				-68.91017150878906,
				9.402938842773438,
				-39.91554260253906
			],
			"type":"VEC3"
		},
		{
			"bufferView":5,
			"componentType":5126,
			"count":5732,
			"type":"VEC3"
		},
		{
			"bufferView":6,
			"componentType":5126,
			"count":5732,
			"type":"VEC2"
		},
		{
			"bufferView":7,
			"componentType":5123,
			"count":7128,
			"type":"SCALAR"
		},
		{
			"bufferView":8,
			"componentType":5126,
			"count":72,
			"max":[
				61.56538391113281,
				15.865182876586914,
				16.65994644165039
			],
			"min":[
				-80.27384948730469,
				-49.2678337097168,
				-48.47307586669922
			],
			"type":"VEC3"
		},
		{
			"bufferView":9,
			"componentType":5126,
			"count":72,
			"type":"VEC3"
		},
		{
			"bufferView":10,
			"componentType":5126,
			"count":72,
			"type":"VEC2"
		},
		{
			"bufferView":11,
			"componentType":5123,
			"count":120,
			"type":"SCALAR"
		}
	],
	"bufferViews":[
		{
			"buffer":0,
			"byteLength":214056,
			"byteOffset":0,
			"target":34962
		},
		{
			"buffer":0,
			"byteLength":214056,
			"byteOffset":214056,
			"target":34962
		},
		{
			"buffer":0,
			"byteLength":142704,
			"byteOffset":428112,
			"target":34962
		},
		{
			"buffer":0,
			"byteLength":36720,
			"byteOffset":570816,
			"target":34963
		},
		{
			"buffer":0,
			"byteLength":68784,
			"byteOffset":607536,
			"target":34962
		},
		{
			"buffer":0,
			"byteLength":68784,
			"byteOffset":676320,
			"target":34962
		},
		{
			"buffer":0,
			"byteLength":45856,
			"byteOffset":745104,
			"target":34962
		},
		{
			"buffer":0,
			"byteLength":14256,
			"byteOffset":790960,
			"target":34963
		},
		{
			"buffer":0,
			"byteLength":864,
			"byteOffset":805216,
			"target":34962
		},
		{
			"buffer":0,
			"byteLength":864,
			"byteOffset":806080,
			"target":34962
		},
		{
			"buffer":0,
			"byteLength":576,
			"byteOffset":806944,
			"target":34962
		},
		{
			"buffer":0,
			"byteLength":240,
			"byteOffset":807520,
			"target":34963
		}
	],
	"buffers":[
		{
			"byteLength":807760,
			"uri":"orange_box.bin"
		}
	]
}
