{
	"asset":{
		"generator":"Khronos glTF Blender I/O v4.2.60",
		"version":"2.0"
	},
	"scene":0,
	"scenes":[
		{
			"name":"Scene",
			"nodes":[
				0
			]
		}
	],
	"nodes":[
		{
			"mesh":0,
			"name":"Cube",
			"scale":[
				4.609775066375732,
				2.116823196411133,
				2.116823196411133
			]
		}
	],
	"materials":[
		{
			"doubleSided":true,
			"name":"Material.001",
			"pbrMetallicRoughness":{
				"baseColorFactor":[
					0.48288780450820923,
					0.3270036280155182,
					0.1440112143754959,
					1
				],
				"metallicFactor":0,
				"roughnessFactor":0.5
			}
		},
		{
			"name":"blinn9SG",
			"pbrMetallicRoughness":{
				"baseColorFactor":[
					0.07000000029802322,
					0.4300000071525574,
					0.07999999821186066,
					1
				],
				"metallicFactor":0
			}
		}
	],
	"meshes":[
		{
			"name":"Cube.001",
			"primitives":[
				{
					"attributes":{
						"POSITION":0,
						"NORMAL":1,
						"TEXCOORD_0":2
					},
					"indices":3,
					"material":0
				},
				{
					"attributes":{
						"POSITION":4,
						"NORMAL":5,
						"TEXCOORD_0":6
					},
					"indices":7,
					"material":1
				}
			]
		}
	],
	"accessors":[
		{
			"bufferView":0,
			"componentType":5126,
			"count":72,
			"max":[
				0.9999999403953552,
				0.9999999403953552,
				0.9999999403953552
			],
			"min":[
				-0.9999999403953552,
				-0.9999999403953552,
				-0.9999999403953552
			],
			"type":"VEC3"
		},
		{
			"bufferView":1,
			"componentType":5126,
			"count":72,
			"type":"VEC3"
		},
		{
			"bufferView":2,
			"componentType":5126,
			"count":72,
			"type":"VEC2"
		},
		{
			"bufferView":3,
			"componentType":5123,
			"count":120,
			"type":"SCALAR"
		},
		{
			"bufferView":4,
			"componentType":5126,
			"count":14296,
			"max":[
				0.8777316212654114,
				0.9208527207374573,
				0.7852322459220886
			],
			"min":[
				-0.9089947938919067,
				0.5366702079772949,
				-0.779015839099884
			],
			"type":"VEC3"
		},
		{
			"bufferView":5,
			"componentType":5126,
			"count":14296,
			"type":"VEC3"
		},
		{
			"bufferView":6,
			"componentType":5126,
			"count":14296,
			"type":"VEC2"
		},
		{
			"bufferView":7,
			"componentType":5123,
			"count":16800,
			"type":"SCALAR"
		}
	],
	"bufferViews":[
		{
			"buffer":0,
			"byteLength":864,
			"byteOffset":0,
			"target":34962
		},
		{
			"buffer":0,
			"byteLength":864,
			"byteOffset":864,
			"target":34962
		},
		{
			"buffer":0,
			"byteLength":576,
			"byteOffset":1728,
			"target":34962
		},
		{
			"buffer":0,
			"byteLength":240,
			"byteOffset":2304,
			"target":34963
		},
		{
			"buffer":0,
			"byteLength":171552,
			"byteOffset":2544,
			"target":34962
		},
		{
			"buffer":0,
			"byteLength":171552,
			"byteOffset":174096,
			"target":34962
		},
		{
			"buffer":0,
			"byteLength":114368,
			"byteOffset":345648,
			"target":34962
		},
		{
			"buffer":0,
			"byteLength":33600,
			"byteOffset":460016,
			"target":34963
		}
	],
	"buffers":[
		{
			"byteLength":493616,
			"uri":"broccoli_box.bin"
		}
	]
}
