{
	"asset":{
		"generator":"Khronos glTF Blender I/O v4.2.60",
		"version":"2.0"
	},
	"scene":0,
	"scenes":[
		{
			"name":"Scene",
			"nodes":[
				0,
				1
			]
		}
	],
	"nodes":[
		{
			"mesh":0,
			"name":"vinyl_player",
			"rotation":[
				-0.5049388408660889,
				0,
				0,
				0.8631551265716553
			],
			"scale":[
				1.7956271171569824,
				0.05345052108168602,
				1.9119561910629272
			],
			"translation":[
				-0.5867060422897339,
				5.658579349517822,
				-0.9590418934822083
			]
		},
		{
			"mesh":1,
			"name":"vinyl_disk",
			"rotation":[
				0,
				1,
				0,
				0
			],
			"scale":[
				-0.36071860790252686,
				-0.008352831937372684,
				-0.36071860790252686
			],
			"translation":[
				-0.6246578693389893,
				3.8096776008605957,
				0.1223665177822113
			]
		}
	],
	"animations":[
		{
			"channels":[
				{
					"sampler":0,
					"target":{
						"node":1,
						"path":"translation"
					}
				},
				{
					"sampler":1,
					"target":{
						"node":1,
						"path":"rotation"
					}
				},
				{
					"sampler":2,
					"target":{
						"node":1,
						"path":"scale"
					}
				}
			],
			"name":"playMusic",
			"samplers":[
				{
					"input":43,
					"interpolation":"STEP",
					"output":44
				},
				{
					"input":45,
					"interpolation":"LINEAR",
					"output":46
				},
				{
					"input":43,
					"interpolation":"STEP",
					"output":47
				}
			]
		},
		{
			"channels":[
				{
					"sampler":0,
					"target":{
						"node":1,
						"path":"translation"
					}
				},
				{
					"sampler":1,
					"target":{
						"node":1,
						"path":"rotation"
					}
				},
				{
					"sampler":2,
					"target":{
						"node":1,
						"path":"scale"
					}
				}
			],
			"name":"playMusic.001",
			"samplers":[
				{
					"input":43,
					"interpolation":"STEP",
					"output":48
				},
				{
					"input":45,
					"interpolation":"LINEAR",
					"output":49
				},
				{
					"input":43,
					"interpolation":"STEP",
					"output":50
				}
			]
		}
	],
	"materials":[
		{
			"doubleSided":true,
			"name":"lidmaterial",
			"pbrMetallicRoughness":{
				"baseColorFactor":[
					0.3712356388568878,
					0.24620166420936584,
					0.08865566551685333,
					1
				],
				"metallicFactor":0,
				"roughnessFactor":0.5
			}
		},
		{
			"doubleSided":true,
			"name":"boxmaterial",
			"pbrMetallicRoughness":{
				"baseColorFactor":[
					0.5901076793670654,
					0.38973569869995117,
					0.13973131775856018,
					1
				],
				"metallicFactor":0,
				"roughnessFactor":0.5
			}
		},
		{
			"doubleSided":true,
			"name":"Material.007",
			"pbrMetallicRoughness":{
				"baseColorFactor":[
					0.18781869113445282,
					0.18781869113445282,
					0.18781869113445282,
					1
				],
				"roughnessFactor":0.5
			}
		},
		{
			"doubleSided":true,
			"name":"Material.008",
			"pbrMetallicRoughness":{
				"baseColorFactor":[
					0.9098227024078369,
					0.5699781179428101,
					0.17300258576869965,
					1
				],
				"roughnessFactor":0.5
			}
		},
		{
			"doubleSided":true,
			"name":"stickmaterial",
			"pbrMetallicRoughness":{
				"baseColorFactor":[
					0.8338389992713928,
					0.8338389992713928,
					0.8338389992713928,
					1
				],
				"roughnessFactor":0.5
			}
		},
		{
			"doubleSided":true,
			"name":"holdermaterial",
			"pbrMetallicRoughness":{
				"baseColorFactor":[
					0,
					0,
					0,
					1
				],
				"metallicFactor":0,
				"roughnessFactor":0.5
			}
		},
		{
			"doubleSided":true,
			"name":"speakermaterial",
			"pbrMetallicRoughness":{
				"baseColorFactor":[
					0,
					0,
					0,
					1
				],
				"metallicFactor":0,
				"roughnessFactor":0.5
			}
		},
		{
			"doubleSided":true,
			"name":"Material.012",
			"pbrMetallicRoughness":{
				"baseColorFactor":[
					0.7442524433135986,
					0.7442524433135986,
					0.7442524433135986,
					1
				],
				"roughnessFactor":0.5
			}
		},
		{
			"doubleSided":true,
			"name":"innervinyl",
			"pbrMetallicRoughness":{
				"baseColorFactor":[
					0.8000626564025879,
					0.024359526112675667,
					0.06906268000602722,
					1
				],
				"metallicFactor":0.800000011920929,
				"roughnessFactor":0
			}
		},
		{
			"doubleSided":true,
			"name":"outervinyl",
			"pbrMetallicRoughness":{
				"baseColorFactor":[
					0,
					0,
					0,
					1
				],
				"metallicFactor":0,
				"roughnessFactor":0.20000000298023224
			}
		},
		{
			"doubleSided":true,
			"name":"music_note",
			"pbrMetallicRoughness":{
				"baseColorFactor":[
					0.800000011920929,
					0.800000011920929,
					0.800000011920929,
					1
				],
				"metallicFactor":0,
				"roughnessFactor":0.5
			}
		}
	],
	"meshes":[
		{
			"name":"Cube.003",
			"primitives":[
				{
					"attributes":{
						"POSITION":0,
						"NORMAL":1,
						"TEXCOORD_0":2
					},
					"indices":3,
					"material":0
				},
				{
					"attributes":{
						"POSITION":4,
						"NORMAL":5,
						"TEXCOORD_0":6
					},
					"indices":7,
					"material":1
				},
				{
					"attributes":{
						"POSITION":8,
						"NORMAL":9,
						"TEXCOORD_0":10
					},
					"indices":11,
					"material":2
				},
				{
					"attributes":{
						"POSITION":12,
						"NORMAL":13,
						"TEXCOORD_0":14
					},
					"indices":15,
					"material":3
				},
				{
					"attributes":{
						"POSITION":16,
						"NORMAL":17,
						"TEXCOORD_0":18
					},
					"indices":19,
					"material":4
				},
				{
					"attributes":{
						"POSITION":20,
						"NORMAL":21,
						"TEXCOORD_0":22
					},
					"indices":23,
					"material":5
				},
				{
					"attributes":{
						"POSITION":24,
						"NORMAL":25,
						"TEXCOORD_0":26
					},
					"indices":27,
					"material":6
				},
				{
					"attributes":{
						"POSITION":28,
						"NORMAL":29,
						"TEXCOORD_0":30
					},
					"indices":31,
					"material":7
				}
			]
		},
		{
			"name":"Cylinder.003",
			"primitives":[
				{
					"attributes":{
						"POSITION":32,
						"NORMAL":33,
						"TEXCOORD_0":34
					},
					"indices":35,
					"material":8
				},
				{
					"attributes":{
						"POSITION":36,
						"NORMAL":37,
						"TEXCOORD_0":38
					},
					"indices":35,
					"material":9
				},
				{
					"attributes":{
						"POSITION":39,
						"NORMAL":40,
						"TEXCOORD_0":41
					},
					"indices":42,
					"material":10
				}
			]
		}
	],
	"accessors":[
		{
			"bufferView":0,
			"componentType":5126,
			"count":24,
			"max":[
				1,
				1,
				1
			],
			"min":[
				-1,
				-1,
				-1
			],
			"type":"VEC3"
		},
		{
			"bufferView":1,
			"componentType":5126,
			"count":24,
			"type":"VEC3"
		},
		{
			"bufferView":2,
			"componentType":5126,
			"count":24,
			"type":"VEC2"
		},
		{
			"bufferView":3,
			"componentType":5123,
			"count":36,
			"type":"SCALAR"
		},
		{
			"bufferView":4,
			"componentType":5126,
			"count":244,
			"max":[
				1.0060280561447144,
				1.2657699584960938,
				0.0011869072914123535
			],
			"min":[
				-1.0060279369354248,
				-98.7525634765625,
				-2.932486057281494
			],
			"type":"VEC3"
		},
		{
			"bufferView":5,
			"componentType":5126,
			"count":244,
			"type":"VEC3"
		},
		{
			"bufferView":6,
			"componentType":5126,
			"count":244,
			"type":"VEC2"
		},
		{
			"bufferView":7,
			"componentType":5123,
			"count":432,
			"type":"SCALAR"
		},
		{
			"bufferView":8,
			"componentType":5126,
			"count":48,
			"max":[
				-0.7716510891914368,
				0.9571380615234375,
				0.4480345845222473
			],
			"min":[
				-0.8443288803100586,
				-40.36426544189453,
				-0.6232891082763672
			],
			"type":"VEC3"
		},
		{
			"bufferView":9,
			"componentType":5126,
			"count":48,
			"type":"VEC3"
		},
		{
			"bufferView":10,
			"componentType":5126,
			"count":48,
			"type":"VEC2"
		},
		{
			"bufferView":11,
			"componentType":5123,
			"count":72,
			"type":"SCALAR"
		},
		{
			"bufferView":12,
			"componentType":5126,
			"count":192,
			"max":[
				-0.7657968997955322,
				-23.335372924804688,
				-0.13875924050807953
			],
			"min":[
				-0.8499552607536316,
				-24.115453720092773,
				-0.16056713461875916
			],
			"type":"VEC3"
		},
		{
			"bufferView":13,
			"componentType":5126,
			"count":192,
			"type":"VEC3"
		},
		{
			"bufferView":14,
			"componentType":5126,
			"count":192,
			"type":"VEC2"
		},
		{
			"bufferView":15,
			"componentType":5123,
			"count":372,
			"type":"SCALAR"
		},
		{
			"bufferView":16,
			"componentType":5126,
			"count":288,
			"max":[
				0.8340566754341125,
				-5.326426029205322,
				-0.5665461421012878
			],
			"min":[
				0.22112566232681274,
				-30.44837188720703,
				-1.1679561138153076
			],
			"type":"VEC3"
		},
		{
			"bufferView":17,
			"componentType":5126,
			"count":288,
			"type":"VEC3"
		},
		{
			"bufferView":18,
			"componentType":5126,
			"count":288,
			"type":"VEC2"
		},
		{
			"bufferView":19,
			"componentType":5123,
			"count":540,
			"type":"SCALAR"
		},
		{
			"bufferView":20,
			"componentType":5126,
			"count":96,
			"max":[
				-0.009759852662682533,
				-33.340389251708984,
				-0.5364965200424194
			],
			"min":[
				-0.0477636381983757,
				-37.0407600402832,
				-0.6826496124267578
			],
			"type":"VEC3"
		},
		{
			"bufferView":21,
			"componentType":5126,
			"count":96,
			"type":"VEC3"
		},
		{
			"bufferView":22,
			"componentType":5126,
			"count":96,
			"type":"VEC2"
		},
		{
			"bufferView":23,
			"componentType":5123,
			"count":180,
			"type":"SCALAR"
		},
		{
			"bufferView":24,
			"componentType":5126,
			"count":96,
			"max":[
				0.8550478219985962,
				-63.93690872192383,
				-0.23536166548728943
			],
			"min":[
				-0.8550478219985962,
				-72.84101867675781,
				-0.5991981029510498
			],
			"type":"VEC3"
		},
		{
			"bufferView":25,
			"componentType":5126,
			"count":96,
			"type":"VEC3"
		},
		{
			"bufferView":26,
			"componentType":5126,
			"count":96,
			"type":"VEC2"
		},
		{
			"bufferView":27,
			"componentType":5123,
			"count":144,
			"type":"SCALAR"
		},
		{
			"bufferView":28,
			"componentType":5126,
			"count":96,
			"max":[
				0.16073346138000488,
				-59.692138671875,
				-0.12883976101875305
			],
			"min":[
				-0.10401248931884766,
				-71.80348205566406,
				-0.46742376685142517
			],
			"type":"VEC3"
		},
		{
			"bufferView":29,
			"componentType":5126,
			"count":96,
			"type":"VEC3"
		},
		{
			"bufferView":30,
			"componentType":5126,
			"count":96,
			"type":"VEC2"
		},
		{
			"bufferView":31,
			"componentType":5123,
			"count":180,
			"type":"SCALAR"
		},
		{
			"bufferView":32,
			"componentType":5126,
			"count":96,
			"max":[
				1,
				1,
				1
			],
			"min":[
				-1,
				-1,
				-1
			],
			"type":"VEC3"
		},
		{
			"bufferView":33,
			"componentType":5126,
			"count":96,
			"type":"VEC3"
		},
		{
			"bufferView":34,
			"componentType":5126,
			"count":96,
			"type":"VEC2"
		},
		{
			"bufferView":35,
			"componentType":5123,
			"count":180,
			"type":"SCALAR"
		},
		{
			"bufferView":36,
			"componentType":5126,
			"count":96,
			"max":[
				2.7722442150115967,
				4.769802570343018,
				2.7722442150115967
			],
			"min":[
				-2.7722442150115967,
				-0.7746853828430176,
				-2.7722442150115967
			],
			"type":"VEC3"
		},
		{
			"bufferView":37,
			"componentType":5126,
			"count":96,
			"type":"VEC3"
		},
		{
			"bufferView":38,
			"componentType":5126,
			"count":96,
			"type":"VEC2"
		},
		{
			"bufferView":39,
			"componentType":5126,
			"count":1016,
			"max":[
				2.0599305629730225,
				-0.7750556468963623,
				2.314946413040161
			],
			"min":[
				-0.9793820381164551,
				-1.2054874897003174,
				-0.07097184658050537
			],
			"type":"VEC3"
		},
		{
			"bufferView":40,
			"componentType":5126,
			"count":1016,
			"type":"VEC3"
		},
		{
			"bufferView":41,
			"componentType":5126,
			"count":1016,
			"type":"VEC2"
		},
		{
			"bufferView":42,
			"componentType":5123,
			"count":1812,
			"type":"SCALAR"
		},
		{
			"bufferView":43,
			"componentType":5126,
			"count":2,
			"max":[
				1.5416666666666667
			],
			"min":[
				0.041666666666666664
			],
			"type":"SCALAR"
		},
		{
			"bufferView":44,
			"componentType":5126,
			"count":2,
			"type":"VEC3"
		},
		{
			"bufferView":45,
			"componentType":5126,
			"count":37,
			"max":[
				1.5416666666666667
			],
			"min":[
				0.041666666666666664
			],
			"type":"SCALAR"
		},
		{
			"bufferView":46,
			"componentType":5126,
			"count":37,
			"type":"VEC4"
		},
		{
			"bufferView":47,
			"componentType":5126,
			"count":2,
			"type":"VEC3"
		},
		{
			"bufferView":48,
			"componentType":5126,
			"count":2,
			"type":"VEC3"
		},
		{
			"bufferView":49,
			"componentType":5126,
			"count":37,
			"type":"VEC4"
		},
		{
			"bufferView":50,
			"componentType":5126,
			"count":2,
			"type":"VEC3"
		}
	],
	"bufferViews":[
		{
			"buffer":0,
			"byteLength":288,
			"byteOffset":0,
			"target":34962
		},
		{
			"buffer":0,
			"byteLength":288,
			"byteOffset":288,
			"target":34962
		},
		{
			"buffer":0,
			"byteLength":192,
			"byteOffset":576,
			"target":34962
		},
		{
			"buffer":0,
			"byteLength":72,
			"byteOffset":768,
			"target":34963
		},
		{
			"buffer":0,
			"byteLength":2928,
			"byteOffset":840,
			"target":34962
		},
		{
			"buffer":0,
			"byteLength":2928,
			"byteOffset":3768,
			"target":34962
		},
		{
			"buffer":0,
			"byteLength":1952,
			"byteOffset":6696,
			"target":34962
		},
		{
			"buffer":0,
			"byteLength":864,
			"byteOffset":8648,
			"target":34963
		},
		{
			"buffer":0,
			"byteLength":576,
			"byteOffset":9512,
			"target":34962
		},
		{
			"buffer":0,
			"byteLength":576,
			"byteOffset":10088,
			"target":34962
		},
		{
			"buffer":0,
			"byteLength":384,
			"byteOffset":10664,
			"target":34962
		},
		{
			"buffer":0,
			"byteLength":144,
			"byteOffset":11048,
			"target":34963
		},
		{
			"buffer":0,
			"byteLength":2304,
			"byteOffset":11192,
			"target":34962
		},
		{
			"buffer":0,
			"byteLength":2304,
			"byteOffset":13496,
			"target":34962
		},
		{
			"buffer":0,
			"byteLength":1536,
			"byteOffset":15800,
			"target":34962
		},
		{
			"buffer":0,
			"byteLength":744,
			"byteOffset":17336,
			"target":34963
		},
		{
			"buffer":0,
			"byteLength":3456,
			"byteOffset":18080,
			"target":34962
		},
		{
			"buffer":0,
			"byteLength":3456,
			"byteOffset":21536,
			"target":34962
		},
		{
			"buffer":0,
			"byteLength":2304,
			"byteOffset":24992,
			"target":34962
		},
		{
			"buffer":0,
			"byteLength":1080,
			"byteOffset":27296,
			"target":34963
		},
		{
			"buffer":0,
			"byteLength":1152,
			"byteOffset":28376,
			"target":34962
		},
		{
			"buffer":0,
			"byteLength":1152,
			"byteOffset":29528,
			"target":34962
		},
		{
			"buffer":0,
			"byteLength":768,
			"byteOffset":30680,
			"target":34962
		},
		{
			"buffer":0,
			"byteLength":360,
			"byteOffset":31448,
			"target":34963
		},
		{
			"buffer":0,
			"byteLength":1152,
			"byteOffset":31808,
			"target":34962
		},
		{
			"buffer":0,
			"byteLength":1152,
			"byteOffset":32960,
			"target":34962
		},
		{
			"buffer":0,
			"byteLength":768,
			"byteOffset":34112,
			"target":34962
		},
		{
			"buffer":0,
			"byteLength":288,
			"byteOffset":34880,
			"target":34963
		},
		{
			"buffer":0,
			"byteLength":1152,
			"byteOffset":35168,
			"target":34962
		},
		{
			"buffer":0,
			"byteLength":1152,
			"byteOffset":36320,
			"target":34962
		},
		{
			"buffer":0,
			"byteLength":768,
			"byteOffset":37472,
			"target":34962
		},
		{
			"buffer":0,
			"byteLength":360,
			"byteOffset":38240,
			"target":34963
		},
		{
			"buffer":0,
			"byteLength":1152,
			"byteOffset":38600,
			"target":34962
		},
		{
			"buffer":0,
			"byteLength":1152,
			"byteOffset":39752,
			"target":34962
		},
		{
			"buffer":0,
			"byteLength":768,
			"byteOffset":40904,
			"target":34962
		},
		{
			"buffer":0,
			"byteLength":360,
			"byteOffset":41672,
			"target":34963
		},
		{
			"buffer":0,
			"byteLength":1152,
			"byteOffset":42032,
			"target":34962
		},
		{
			"buffer":0,
			"byteLength":1152,
			"byteOffset":43184,
			"target":34962
		},
		{
			"buffer":0,
			"byteLength":768,
			"byteOffset":44336,
			"target":34962
		},
		{
			"buffer":0,
			"byteLength":12192,
			"byteOffset":45104,
			"target":34962
		},
		{
			"buffer":0,
			"byteLength":12192,
			"byteOffset":57296,
			"target":34962
		},
		{
			"buffer":0,
			"byteLength":8128,
			"byteOffset":69488,
			"target":34962
		},
		{
			"buffer":0,
			"byteLength":3624,
			"byteOffset":77616,
			"target":34963
		},
		{
			"buffer":0,
			"byteLength":8,
			"byteOffset":81240
		},
		{
			"buffer":0,
			"byteLength":24,
			"byteOffset":81248
		},
		{
			"buffer":0,
			"byteLength":148,
			"byteOffset":81272
		},
		{
			"buffer":0,
			"byteLength":592,
			"byteOffset":81420
		},
		{
			"buffer":0,
			"byteLength":24,
			"byteOffset":82012
		},
		{
			"buffer":0,
			"byteLength":24,
			"byteOffset":82036
		},
		{
			"buffer":0,
			"byteLength":592,
			"byteOffset":82060
		},
		{
			"buffer":0,
			"byteLength":24,
			"byteOffset":82652
		}
	],
	"buffers":[
		{
			"byteLength":82676,
			"uri":"record_player.bin"
		}
	]
}
