{
	"asset":{
		"generator":"Khronos glTF Blender I/O v4.2.60",
		"version":"2.0"
	},
	"scene":0,
	"scenes":[
		{
			"name":"Scene",
			"nodes":[
				0,
				1,
				2,
				3,
				4,
				5,
				6,
				7,
				8
			]
		}
	],
	"nodes":[
		{
			"mesh":0,
			"name":"Cube.001",
			"scale":[
				0.26000070571899414,
				5,
				4.150003433227539
			],
			"translation":[
				1.5434083938598633,
				4.965046405792236,
				-8.891454696655273
			]
		},
		{
			"mesh":1,
			"name":"container_bathroom_A_pink",
			"rotation":[
				0,
				0.6852499842643738,
				0,
				0.7283079624176025
			],
			"scale":[
				250.00001525878906,
				250,
				250.00001525878906
			],
			"translation":[
				4.748961448669434,
				0.3097184896469116,
				-5.789525032043457
			]
		},
		{
			"mesh":2,
			"name":"Pink Bottles",
			"rotation":[
				0,
				0.6852499842643738,
				0,
				0.7283079624176025
			],
			"scale":[
				250.00001525878906,
				250,
				250.00001525878906
			],
			"translation":[
				4.748961448669434,
				0.3097184896469116,
				-6.5871195793151855
			]
		},
		{
			"mesh":3,
			"name":"container_bathroom_A_pink.001",
			"rotation":[
				0,
				0.6852499842643738,
				0,
				0.7283079624176025
			],
			"scale":[
				250.00001525878906,
				250,
				250.00001525878906
			],
			"translation":[
				4.670230865478516,
				2.531853675842285,
				-5.789525032043457
			]
		},
		{
			"mesh":4,
			"name":"Pink Bottles.001",
			"rotation":[
				0,
				0.6852499842643738,
				0,
				0.7283079624176025
			],
			"scale":[
				250.00001525878906,
				250,
				250.00001525878906
			],
			"translation":[
				4.670230865478516,
				2.531853675842285,
				-6.5871195793151855
			]
		},
		{
			"mesh":5,
			"name":"container_bathroom_A_pink.002",
			"rotation":[
				0,
				0.6852499842643738,
				0,
				0.7283079624176025
			],
			"scale":[
				250.00001525878906,
				250,
				250.00001525878906
			],
			"translation":[
				4.462225914001465,
				4.975987911224365,
				-5.789525032043457
			]
		},
		{
			"mesh":6,
			"name":"Pink Bottles.002",
			"rotation":[
				0,
				0.6852499842643738,
				0,
				0.7283079624176025
			],
			"scale":[
				250.00001525878906,
				250,
				250.00001525878906
			],
			"translation":[
				4.462225914001465,
				4.975987911224365,
				-6.5871195793151855
			]
		},
		{
			"mesh":7,
			"name":"container_bathroom_A_pink.003",
			"rotation":[
				0,
				0.6852499842643738,
				0,
				0.7283079624176025
			],
			"scale":[
				250.00001525878906,
				250,
				250.00001525878906
			],
			"translation":[
				4.462225914001465,
				7.474514961242676,
				-5.789525032043457
			]
		},
		{
			"mesh":8,
			"name":"Pink Bottles.003",
			"rotation":[
				0,
				0.6852499842643738,
				0,
				0.7283079624176025
			],
			"scale":[
				250.00001525878906,
				250,
				250.00001525878906
			],
			"translation":[
				4.462225914001465,
				7.474514961242676,
				-6.5871195793151855
			]
		}
	],
	"materials":[
		{
			"doubleSided":true,
			"name":"Material.004",
			"pbrMetallicRoughness":{
				"baseColorFactor":[
					0.2653980851173401,
					0.2654016613960266,
					0.2654016613960266,
					1
				],
				"metallicFactor":0,
				"roughnessFactor":0.5
			}
		},
		{
			"doubleSided":true,
			"name":"Material.005",
			"pbrMetallicRoughness":{
				"baseColorFactor":[
					0.2653980851173401,
					0.2654016613960266,
					0.2654016613960266,
					1
				],
				"metallicFactor":0,
				"roughnessFactor":0.5
			}
		},
		{
			"doubleSided":true,
			"name":"Material.006",
			"pbrMetallicRoughness":{
				"baseColorFactor":[
					0.2653980851173401,
					0.2654016613960266,
					0.2654016613960266,
					1
				],
				"metallicFactor":0,
				"roughnessFactor":0.5
			}
		},
		{
			"name":"tiny_treats_1.005",
			"pbrMetallicRoughness":{
				"baseColorTexture":{
					"index":0
				},
				"metallicFactor":0.4000000059604645
			}
		}
	],
	"meshes":[
		{
			"name":"Cube.001",
			"primitives":[
				{
					"attributes":{
						"POSITION":0,
						"NORMAL":1,
						"TEXCOORD_0":2
					},
					"indices":3,
					"material":0
				},
				{
					"attributes":{
						"POSITION":4,
						"NORMAL":5,
						"TEXCOORD_0":6
					},
					"indices":7,
					"material":1
				},
				{
					"attributes":{
						"POSITION":8,
						"NORMAL":9,
						"TEXCOORD_0":10
					},
					"indices":7,
					"material":2
				}
			]
		},
		{
			"name":"container_bathroom_A_pink",
			"primitives":[
				{
					"attributes":{
						"POSITION":11,
						"NORMAL":12,
						"TEXCOORD_0":13
					},
					"indices":14,
					"material":3
				}
			]
		},
		{
			"name":"container_bathroom_A_pink.333",
			"primitives":[
				{
					"attributes":{
						"POSITION":15,
						"NORMAL":16,
						"TEXCOORD_0":17
					},
					"indices":18,
					"material":3
				}
			]
		},
		{
			"name":"container_bathroom_A_pink.001",
			"primitives":[
				{
					"attributes":{
						"POSITION":19,
						"NORMAL":20,
						"TEXCOORD_0":21
					},
					"indices":14,
					"material":3
				}
			]
		},
		{
			"name":"container_bathroom_A_pink.002",
			"primitives":[
				{
					"attributes":{
						"POSITION":22,
						"NORMAL":23,
						"TEXCOORD_0":24
					},
					"indices":18,
					"material":3
				}
			]
		},
		{
			"name":"container_bathroom_A_pink.003",
			"primitives":[
				{
					"attributes":{
						"POSITION":25,
						"NORMAL":26,
						"TEXCOORD_0":27
					},
					"indices":14,
					"material":3
				}
			]
		},
		{
			"name":"container_bathroom_A_pink.004",
			"primitives":[
				{
					"attributes":{
						"POSITION":28,
						"NORMAL":29,
						"TEXCOORD_0":30
					},
					"indices":18,
					"material":3
				}
			]
		},
		{
			"name":"container_bathroom_A_pink.005",
			"primitives":[
				{
					"attributes":{
						"POSITION":31,
						"NORMAL":32,
						"TEXCOORD_0":33
					},
					"indices":14,
					"material":3
				}
			]
		},
		{
			"name":"container_bathroom_A_pink.006",
			"primitives":[
				{
					"attributes":{
						"POSITION":34,
						"NORMAL":35,
						"TEXCOORD_0":36
					},
					"indices":18,
					"material":3
				}
			]
		}
	],
	"textures":[
		{
			"sampler":0,
			"source":0
		}
	],
	"images":[
		{
			"mimeType":"image/png",
			"name":"tiny_treats_texture_1.png",
			"uri":"tiny_treats_texture_1_png.png"
		}
	],
	"accessors":[
		{
			"bufferView":0,
			"componentType":5126,
			"count":144,
			"max":[
				14.517328262329102,
				1.0090248584747314,
				1.0012297630310059
			],
			"min":[
				-1,
				-1.0469765663146973,
				-1.0076746940612793
			],
			"type":"VEC3"
		},
		{
			"bufferView":1,
			"componentType":5126,
			"count":144,
			"type":"VEC3"
		},
		{
			"bufferView":2,
			"componentType":5126,
			"count":144,
			"type":"VEC2"
		},
		{
			"bufferView":3,
			"componentType":5123,
			"count":216,
			"type":"SCALAR"
		},
		{
			"bufferView":4,
			"componentType":5126,
			"count":24,
			"max":[
				13.637662887573242,
				-0.49100929498672485,
				0.9717901349067688
			],
			"min":[
				-0.20845270156860352,
				-0.5950092673301697,
				-0.955919086933136
			],
			"type":"VEC3"
		},
		{
			"bufferView":5,
			"componentType":5126,
			"count":24,
			"type":"VEC3"
		},
		{
			"bufferView":6,
			"componentType":5126,
			"count":24,
			"type":"VEC2"
		},
		{
			"bufferView":7,
			"componentType":5123,
			"count":36,
			"type":"SCALAR"
		},
		{
			"bufferView":8,
			"componentType":5126,
			"count":24,
			"max":[
				13.637662887573242,
				0.008990716189146042,
				0.9717901349067688
			],
			"min":[
				-0.20845460891723633,
				-0.09500928223133087,
				-0.955919086933136
			],
			"type":"VEC3"
		},
		{
			"bufferView":9,
			"componentType":5126,
			"count":24,
			"type":"VEC3"
		},
		{
			"bufferView":10,
			"componentType":5126,
			"count":24,
			"type":"VEC2"
		},
		{
			"bufferView":11,
			"componentType":5126,
			"count":268,
			"max":[
				0.0015599983744323254,
				0.005777752958238125,
				0.0015989416278898716
			],
			"min":[
				-0.0015600015176460147,
				-1.782479303047424e-10,
				-0.001562969177030027
			],
			"type":"VEC3"
		},
		{
			"bufferView":12,
			"componentType":5126,
			"count":268,
			"type":"VEC3"
		},
		{
			"bufferView":13,
			"componentType":5126,
			"count":268,
			"type":"VEC2"
		},
		{
			"bufferView":14,
			"componentType":5123,
			"count":888,
			"type":"SCALAR"
		},
		{
			"bufferView":15,
			"componentType":5126,
			"count":2144,
			"max":[
				0.023605678230524063,
				0.005777752958238125,
				0.0015989416278898716
			],
			"min":[
				-0.0015600015176460147,
				-4.5572684514993966e-10,
				-0.0029310318641364574
			],
			"type":"VEC3"
		},
		{
			"bufferView":16,
			"componentType":5126,
			"count":2144,
			"type":"VEC3"
		},
		{
			"bufferView":17,
			"componentType":5126,
			"count":2144,
			"type":"VEC2"
		},
		{
			"bufferView":18,
			"componentType":5123,
			"count":7104,
			"type":"SCALAR"
		},
		{
			"bufferView":19,
			"componentType":5126,
			"count":268,
			"max":[
				0.0015599983744323254,
				0.005777752958238125,
				0.0015989416278898716
			],
			"min":[
				-0.0015600015176460147,
				-1.782479303047424e-10,
				-0.001562969177030027
			],
			"type":"VEC3"
		},
		{
			"bufferView":20,
			"componentType":5126,
			"count":268,
			"type":"VEC3"
		},
		{
			"bufferView":21,
			"componentType":5126,
			"count":268,
			"type":"VEC2"
		},
		{
			"bufferView":22,
			"componentType":5126,
			"count":2144,
			"max":[
				0.023605678230524063,
				0.005777752958238125,
				0.0015989416278898716
			],
			"min":[
				-0.0015600015176460147,
				-4.5572684514993966e-10,
				-0.0029310318641364574
			],
			"type":"VEC3"
		},
		{
			"bufferView":23,
			"componentType":5126,
			"count":2144,
			"type":"VEC3"
		},
		{
			"bufferView":24,
			"componentType":5126,
			"count":2144,
			"type":"VEC2"
		},
		{
			"bufferView":25,
			"componentType":5126,
			"count":268,
			"max":[
				0.0015599983744323254,
				0.005777752958238125,
				0.0015989416278898716
			],
			"min":[
				-0.0015600015176460147,
				-1.782479303047424e-10,
				-0.001562969177030027
			],
			"type":"VEC3"
		},
		{
			"bufferView":26,
			"componentType":5126,
			"count":268,
			"type":"VEC3"
		},
		{
			"bufferView":27,
			"componentType":5126,
			"count":268,
			"type":"VEC2"
		},
		{
			"bufferView":28,
			"componentType":5126,
			"count":2144,
			"max":[
				0.023605678230524063,
				0.005777752958238125,
				0.0015989416278898716
			],
			"min":[
				-0.0015600015176460147,
				-4.5572684514993966e-10,
				-0.0029310318641364574
			],
			"type":"VEC3"
		},
		{
			"bufferView":29,
			"componentType":5126,
			"count":2144,
			"type":"VEC3"
		},
		{
			"bufferView":30,
			"componentType":5126,
			"count":2144,
			"type":"VEC2"
		},
		{
			"bufferView":31,
			"componentType":5126,
			"count":268,
			"max":[
				0.0015599983744323254,
				0.005777752958238125,
				0.0015989416278898716
			],
			"min":[
				-0.0015600015176460147,
				-1.782479303047424e-10,
				-0.001562969177030027
			],
			"type":"VEC3"
		},
		{
			"bufferView":32,
			"componentType":5126,
			"count":268,
			"type":"VEC3"
		},
		{
			"bufferView":33,
			"componentType":5126,
			"count":268,
			"type":"VEC2"
		},
		{
			"bufferView":34,
			"componentType":5126,
			"count":2144,
			"max":[
				0.023605678230524063,
				0.005777752958238125,
				0.0015989416278898716
			],
			"min":[
				-0.0015600015176460147,
				-4.5572684514993966e-10,
				-0.0029310318641364574
			],
			"type":"VEC3"
		},
		{
			"bufferView":35,
			"componentType":5126,
			"count":2144,
			"type":"VEC3"
		},
		{
			"bufferView":36,
			"componentType":5126,
			"count":2144,
			"type":"VEC2"
		}
	],
	"bufferViews":[
		{
			"buffer":0,
			"byteLength":1728,
			"byteOffset":0,
			"target":34962
		},
		{
			"buffer":0,
			"byteLength":1728,
			"byteOffset":1728,
			"target":34962
		},
		{
			"buffer":0,
			"byteLength":1152,
			"byteOffset":3456,
			"target":34962
		},
		{
			"buffer":0,
			"byteLength":432,
			"byteOffset":4608,
			"target":34963
		},
		{
			"buffer":0,
			"byteLength":288,
			"byteOffset":5040,
			"target":34962
		},
		{
			"buffer":0,
			"byteLength":288,
			"byteOffset":5328,
			"target":34962
		},
		{
			"buffer":0,
			"byteLength":192,
			"byteOffset":5616,
			"target":34962
		},
		{
			"buffer":0,
			"byteLength":72,
			"byteOffset":5808,
			"target":34963
		},
		{
			"buffer":0,
			"byteLength":288,
			"byteOffset":5880,
			"target":34962
		},
		{
			"buffer":0,
			"byteLength":288,
			"byteOffset":6168,
			"target":34962
		},
		{
			"buffer":0,
			"byteLength":192,
			"byteOffset":6456,
			"target":34962
		},
		{
			"buffer":0,
			"byteLength":3216,
			"byteOffset":6648,
			"target":34962
		},
		{
			"buffer":0,
			"byteLength":3216,
			"byteOffset":9864,
			"target":34962
		},
		{
			"buffer":0,
			"byteLength":2144,
			"byteOffset":13080,
			"target":34962
		},
		{
			"buffer":0,
			"byteLength":1776,
			"byteOffset":15224,
			"target":34963
		},
		{
			"buffer":0,
			"byteLength":25728,
			"byteOffset":17000,
			"target":34962
		},
		{
			"buffer":0,
			"byteLength":25728,
			"byteOffset":42728,
			"target":34962
		},
		{
			"buffer":0,
			"byteLength":17152,
			"byteOffset":68456,
			"target":34962
		},
		{
			"buffer":0,
			"byteLength":14208,
			"byteOffset":85608,
			"target":34963
		},
		{
			"buffer":0,
			"byteLength":3216,
			"byteOffset":99816,
			"target":34962
		},
		{
			"buffer":0,
			"byteLength":3216,
			"byteOffset":103032,
			"target":34962
		},
		{
			"buffer":0,
			"byteLength":2144,
			"byteOffset":106248,
			"target":34962
		},
		{
			"buffer":0,
			"byteLength":25728,
			"byteOffset":108392,
			"target":34962
		},
		{
			"buffer":0,
			"byteLength":25728,
			"byteOffset":134120,
			"target":34962
		},
		{
			"buffer":0,
			"byteLength":17152,
			"byteOffset":159848,
			"target":34962
		},
		{
			"buffer":0,
			"byteLength":3216,
			"byteOffset":177000,
			"target":34962
		},
		{
			"buffer":0,
			"byteLength":3216,
			"byteOffset":180216,
			"target":34962
		},
		{
			"buffer":0,
			"byteLength":2144,
			"byteOffset":183432,
			"target":34962
		},
		{
			"buffer":0,
			"byteLength":25728,
			"byteOffset":185576,
			"target":34962
		},
		{
			"buffer":0,
			"byteLength":25728,
			"byteOffset":211304,
			"target":34962
		},
		{
			"buffer":0,
			"byteLength":17152,
			"byteOffset":237032,
			"target":34962
		},
		{
			"buffer":0,
			"byteLength":3216,
			"byteOffset":254184,
			"target":34962
		},
		{
			"buffer":0,
			"byteLength":3216,
			"byteOffset":257400,
			"target":34962
		},
		{
			"buffer":0,
			"byteLength":2144,
			"byteOffset":260616,
			"target":34962
		},
		{
			"buffer":0,
			"byteLength":25728,
			"byteOffset":262760,
			"target":34962
		},
		{
			"buffer":0,
			"byteLength":25728,
			"byteOffset":288488,
			"target":34962
		},
		{
			"buffer":0,
			"byteLength":17152,
			"byteOffset":314216,
			"target":34962
		}
	],
	"samplers":[
		{
			"magFilter":9729,
			"minFilter":9987
		}
	],
	"buffers":[
		{
			"byteLength":331368,
			"uri":"pink_body_wash.bin"
		}
	]
}
