{
	"asset":{
		"generator":"Khronos glTF Blender I/O v4.2.60",
		"version":"2.0"
	},
	"scene":0,
	"scenes":[
		{
			"name":"Scene",
			"nodes":[
				0
			]
		}
	],
	"nodes":[
		{
			"mesh":0,
			"name":"carton"
		}
	],
	"materials":[
		{
			"name":"purple",
			"pbrMetallicRoughness":{
				"baseColorFactor":[
					0.3499999940395355,
					0.2800000011920929,
					0.8100000023841858,
					1
				],
				"metallicFactor":0
			}
		},
		{
			"name":"_defaultMat",
			"pbrMetallicRoughness":{
				"metallicFactor":0
			}
		},
		{
			"name":"white",
			"pbrMetallicRoughness":{
				"baseColorFactor":[
					0.8799999952316284,
					0.8899999856948853,
					0.9200000166893005,
					1
				],
				"metallicFactor":0
			}
		}
	],
	"meshes":[
		{
			"name":"carton_1",
			"primitives":[
				{
					"attributes":{
						"POSITION":0,
						"NORMAL":1,
						"TEXCOORD_0":2
					},
					"indices":3,
					"material":0
				},
				{
					"attributes":{
						"POSITION":4,
						"NORMAL":5,
						"TEXCOORD_0":6
					},
					"indices":7,
					"material":1
				},
				{
					"attributes":{
						"POSITION":8,
						"NORMAL":9,
						"TEXCOORD_0":10
					},
					"indices":11,
					"material":2
				}
			]
		}
	],
	"accessors":[
		{
			"bufferView":0,
			"componentType":5126,
			"count":81,
			"max":[
				0.11500000208616257,
				0.5377699732780457,
				0.11500000208616257
			],
			"min":[
				-0.11500000208616257,
				0,
				-0.11500000208616257
			],
			"type":"VEC3"
		},
		{
			"bufferView":1,
			"componentType":5126,
			"count":81,
			"type":"VEC3"
		},
		{
			"bufferView":2,
			"componentType":5126,
			"count":81,
			"type":"VEC2"
		},
		{
			"bufferView":3,
			"componentType":5123,
			"count":147,
			"type":"SCALAR"
		},
		{
			"bufferView":4,
			"componentType":5126,
			"count":90,
			"max":[
				0.11500000208616257,
				0.550000011920929,
				0.11500000208616257
			],
			"min":[
				-0.11500000208616257,
				0.03999999910593033,
				-0.11500000208616257
			],
			"type":"VEC3"
		},
		{
			"bufferView":5,
			"componentType":5126,
			"count":90,
			"type":"VEC3"
		},
		{
			"bufferView":6,
			"componentType":5126,
			"count":90,
			"type":"VEC2"
		},
		{
			"bufferView":7,
			"componentType":5123,
			"count":111,
			"type":"SCALAR"
		},
		{
			"bufferView":8,
			"componentType":5126,
			"count":12,
			"max":[
				0,
				0.5905463099479675,
				0.11500000208616257
			],
			"min":[
				0,
				0.550000011920929,
				-0.11500000208616257
			],
			"type":"VEC3"
		},
		{
			"bufferView":9,
			"componentType":5126,
			"count":12,
			"type":"VEC3"
		},
		{
			"bufferView":10,
			"componentType":5126,
			"count":12,
			"type":"VEC2"
		},
		{
			"bufferView":11,
			"componentType":5123,
			"count":24,
			"type":"SCALAR"
		}
	],
	"bufferViews":[
		{
			"buffer":0,
			"byteLength":972,
			"byteOffset":0,
			"target":34962
		},
		{
			"buffer":0,
			"byteLength":972,
			"byteOffset":972,
			"target":34962
		},
		{
			"buffer":0,
			"byteLength":648,
			"byteOffset":1944,
			"target":34962
		},
		{
			"buffer":0,
			"byteLength":294,
			"byteOffset":2592,
			"target":34963
		},
		{
			"buffer":0,
			"byteLength":1080,
			"byteOffset":2888,
			"target":34962
		},
		{
			"buffer":0,
			"byteLength":1080,
			"byteOffset":3968,
			"target":34962
		},
		{
			"buffer":0,
			"byteLength":720,
			"byteOffset":5048,
			"target":34962
		},
		{
			"buffer":0,
			"byteLength":222,
			"byteOffset":5768,
			"target":34963
		},
		{
			"buffer":0,
			"byteLength":144,
			"byteOffset":5992,
			"target":34962
		},
		{
			"buffer":0,
			"byteLength":144,
			"byteOffset":6136,
			"target":34962
		},
		{
			"buffer":0,
			"byteLength":96,
			"byteOffset":6280,
			"target":34962
		},
		{
			"buffer":0,
			"byteLength":48,
			"byteOffset":6376,
			"target":34963
		}
	],
	"buffers":[
		{
			"byteLength":6424,
			"uri":"carton.bin"
		}
	]
}
