{
	"asset":{
		"generator":"Khronos glTF Blender I/O v4.2.60",
		"version":"2.0"
	},
	"scene":0,
	"scenes":[
		{
			"name":"Scene",
			"nodes":[
				0
			]
		}
	],
	"nodes":[
		{
			"mesh":0,
			"name":"Cube",
			"scale":[
				0.26000070571899414,
				5,
				4.150003433227539
			]
		}
	],
	"materials":[
		{
			"doubleSided":true,
			"name":"Material.063",
			"pbrMetallicRoughness":{
				"baseColorFactor":[
					0.2653980851173401,
					0.2654016613960266,
					0.2654016613960266,
					1
				],
				"metallicFactor":0,
				"roughnessFactor":0.5
			}
		},
		{
			"doubleSided":true,
			"name":"Material.064",
			"pbrMetallicRoughness":{
				"baseColorFactor":[
					0.2653980851173401,
					0.2654016613960266,
					0.2654016613960266,
					1
				],
				"metallicFactor":0,
				"roughnessFactor":0.5
			}
		},
		{
			"doubleSided":true,
			"name":"Material.145",
			"pbrMetallicRoughness":{
				"baseColorFactor":[
					0.2653980851173401,
					0.2654016613960266,
					0.2654016613960266,
					1
				],
				"metallicFactor":0,
				"roughnessFactor":0.5
			}
		},
		{
			"name":"brownDark.001",
			"pbrMetallicRoughness":{
				"baseColorFactor":[
					0.007498915307223797,
					0.005181475076824427,
					0.11953847855329514,
					1
				],
				"metallicFactor":0
			}
		},
		{
			"name":"brownLight.001",
			"pbrMetallicRoughness":{
				"baseColorFactor":[
					0.11790202558040619,
					0.03248448669910431,
					0.14792455732822418,
					1
				],
				"metallicFactor":0
			}
		},
		{
			"name":"green.001",
			"pbrMetallicRoughness":{
				"baseColorFactor":[
					0.007498915307223797,
					0.005181475076824427,
					0.11953847855329514,
					1
				],
				"metallicFactor":0
			}
		}
	],
	"meshes":[
		{
			"name":"Cube.015",
			"primitives":[
				{
					"attributes":{
						"POSITION":0,
						"NORMAL":1,
						"TEXCOORD_0":2
					},
					"indices":3,
					"material":0
				},
				{
					"attributes":{
						"POSITION":4,
						"NORMAL":5,
						"TEXCOORD_0":6
					},
					"indices":7,
					"material":1
				},
				{
					"attributes":{
						"POSITION":8,
						"NORMAL":9,
						"TEXCOORD_0":10
					},
					"indices":7,
					"material":2
				},
				{
					"attributes":{
						"POSITION":11,
						"NORMAL":12,
						"TEXCOORD_0":13
					},
					"indices":14,
					"material":3
				},
				{
					"attributes":{
						"POSITION":15,
						"NORMAL":16,
						"TEXCOORD_0":17
					},
					"indices":18,
					"material":4
				},
				{
					"attributes":{
						"POSITION":19,
						"NORMAL":20,
						"TEXCOORD_0":21
					},
					"indices":22,
					"material":5
				}
			]
		}
	],
	"accessors":[
		{
			"bufferView":0,
			"componentType":5126,
			"count":144,
			"max":[
				7.31724214553833,
				1.0444419384002686,
				1.00386381149292
			],
			"min":[
				-8.20008659362793,
				-1.0115594863891602,
				-1.0050407648086548
			],
			"type":"VEC3"
		},
		{
			"bufferView":1,
			"componentType":5126,
			"count":144,
			"type":"VEC3"
		},
		{
			"bufferView":2,
			"componentType":5126,
			"count":144,
			"type":"VEC2"
		},
		{
			"bufferView":3,
			"componentType":5123,
			"count":216,
			"type":"SCALAR"
		},
		{
			"bufferView":4,
			"componentType":5126,
			"count":24,
			"max":[
				6.437576770782471,
				-0.45559221506118774,
				0.9744243025779724
			],
			"min":[
				-7.408538818359375,
				-0.5595921874046326,
				-0.9532849192619324
			],
			"type":"VEC3"
		},
		{
			"bufferView":5,
			"componentType":5126,
			"count":24,
			"type":"VEC3"
		},
		{
			"bufferView":6,
			"componentType":5126,
			"count":24,
			"type":"VEC2"
		},
		{
			"bufferView":7,
			"componentType":5123,
			"count":36,
			"type":"SCALAR"
		},
		{
			"bufferView":8,
			"componentType":5126,
			"count":24,
			"max":[
				6.437576770782471,
				0.04440779238939285,
				0.9744243025779724
			],
			"min":[
				-7.408540725708008,
				-0.05959220603108406,
				-0.9532849192619324
			],
			"type":"VEC3"
		},
		{
			"bufferView":9,
			"componentType":5126,
			"count":24,
			"type":"VEC3"
		},
		{
			"bufferView":10,
			"componentType":5126,
			"count":24,
			"type":"VEC2"
		},
		{
			"bufferView":11,
			"componentType":5126,
			"count":2496,
			"max":[
				5.483835697174072,
				0.84165358543396,
				0.8415262699127197
			],
			"min":[
				1.1220383644104004,
				-0.6450470685958862,
				-0.8901687264442444
			],
			"type":"VEC3"
		},
		{
			"bufferView":12,
			"componentType":5126,
			"count":2496,
			"type":"VEC3"
		},
		{
			"bufferView":13,
			"componentType":5126,
			"count":2496,
			"type":"VEC2"
		},
		{
			"bufferView":14,
			"componentType":5123,
			"count":5040,
			"type":"SCALAR"
		},
		{
			"bufferView":15,
			"componentType":5126,
			"count":4032,
			"max":[
				5.571624279022217,
				0.8068535327911377,
				0.8470262289047241
			],
			"min":[
				1.0342507362365723,
				-0.9060470461845398,
				-0.8956688046455383
			],
			"type":"VEC3"
		},
		{
			"bufferView":16,
			"componentType":5126,
			"count":4032,
			"type":"VEC3"
		},
		{
			"bufferView":17,
			"componentType":5126,
			"count":4032,
			"type":"VEC2"
		},
		{
			"bufferView":18,
			"componentType":5123,
			"count":6192,
			"type":"SCALAR"
		},
		{
			"bufferView":19,
			"componentType":5126,
			"count":768,
			"max":[
				5.571624279022217,
				0.7481285333633423,
				0.8470262289047241
			],
			"min":[
				1.0342507362365723,
				-0.8473220467567444,
				-0.8956688046455383
			],
			"type":"VEC3"
		},
		{
			"bufferView":20,
			"componentType":5126,
			"count":768,
			"type":"VEC3"
		},
		{
			"bufferView":21,
			"componentType":5126,
			"count":768,
			"type":"VEC2"
		},
		{
			"bufferView":22,
			"componentType":5123,
			"count":1152,
			"type":"SCALAR"
		}
	],
	"bufferViews":[
		{
			"buffer":0,
			"byteLength":1728,
			"byteOffset":0,
			"target":34962
		},
		{
			"buffer":0,
			"byteLength":1728,
			"byteOffset":1728,
			"target":34962
		},
		{
			"buffer":0,
			"byteLength":1152,
			"byteOffset":3456,
			"target":34962
		},
		{
			"buffer":0,
			"byteLength":432,
			"byteOffset":4608,
			"target":34963
		},
		{
			"buffer":0,
			"byteLength":288,
			"byteOffset":5040,
			"target":34962
		},
		{
			"buffer":0,
			"byteLength":288,
			"byteOffset":5328,
			"target":34962
		},
		{
			"buffer":0,
			"byteLength":192,
			"byteOffset":5616,
			"target":34962
		},
		{
			"buffer":0,
			"byteLength":72,
			"byteOffset":5808,
			"target":34963
		},
		{
			"buffer":0,
			"byteLength":288,
			"byteOffset":5880,
			"target":34962
		},
		{
			"buffer":0,
			"byteLength":288,
			"byteOffset":6168,
			"target":34962
		},
		{
			"buffer":0,
			"byteLength":192,
			"byteOffset":6456,
			"target":34962
		},
		{
			"buffer":0,
			"byteLength":29952,
			"byteOffset":6648,
			"target":34962
		},
		{
			"buffer":0,
			"byteLength":29952,
			"byteOffset":36600,
			"target":34962
		},
		{
			"buffer":0,
			"byteLength":19968,
			"byteOffset":66552,
			"target":34962
		},
		{
			"buffer":0,
			"byteLength":10080,
			"byteOffset":86520,
			"target":34963
		},
		{
			"buffer":0,
			"byteLength":48384,
			"byteOffset":96600,
			"target":34962
		},
		{
			"buffer":0,
			"byteLength":48384,
			"byteOffset":144984,
			"target":34962
		},
		{
			"buffer":0,
			"byteLength":32256,
			"byteOffset":193368,
			"target":34962
		},
		{
			"buffer":0,
			"byteLength":12384,
			"byteOffset":225624,
			"target":34963
		},
		{
			"buffer":0,
			"byteLength":9216,
			"byteOffset":238008,
			"target":34962
		},
		{
			"buffer":0,
			"byteLength":9216,
			"byteOffset":247224,
			"target":34962
		},
		{
			"buffer":0,
			"byteLength":6144,
			"byteOffset":256440,
			"target":34962
		},
		{
			"buffer":0,
			"byteLength":2304,
			"byteOffset":262584,
			"target":34963
		}
	],
	"buffers":[
		{
			"byteLength":264888,
			"uri":"jelly_shelf.bin"
		}
	]
}
