{
	"asset":{
		"generator":"Khronos glTF Blender I/O v4.2.60",
		"version":"2.0"
	},
	"scene":0,
	"scenes":[
		{
			"name":"Scene",
			"nodes":[
				0
			]
		}
	],
	"nodes":[
		{
			"mesh":0,
			"name":"Cube.017",
			"scale":[
				0.26000070571899414,
				5,
				4.150003433227539
			]
		}
	],
	"materials":[
		{
			"doubleSided":true,
			"name":"Material.086",
			"pbrMetallicRoughness":{
				"baseColorFactor":[
					0.2653980851173401,
					0.2654016613960266,
					0.2654016613960266,
					1
				],
				"metallicFactor":0,
				"roughnessFactor":0.5
			}
		},
		{
			"doubleSided":true,
			"name":"Material.087",
			"pbrMetallicRoughness":{
				"baseColorFactor":[
					0.2653980851173401,
					0.2654016613960266,
					0.2654016613960266,
					1
				],
				"metallicFactor":0,
				"roughnessFactor":0.5
			}
		},
		{
			"doubleSided":true,
			"name":"Material.088",
			"pbrMetallicRoughness":{
				"baseColorFactor":[
					0.2653980851173401,
					0.2654016613960266,
					0.2654016613960266,
					1
				],
				"metallicFactor":0,
				"roughnessFactor":0.5
			}
		},
		{
			"name":"tiny_treats_1.010",
			"pbrMetallicRoughness":{
				"baseColorTexture":{
					"index":0
				},
				"metallicFactor":0.4000000059604645
			}
		}
	],
	"meshes":[
		{
			"name":"Cube.020",
			"primitives":[
				{
					"attributes":{
						"POSITION":0,
						"NORMAL":1,
						"TEXCOORD_0":2
					},
					"indices":3,
					"material":0
				},
				{
					"attributes":{
						"POSITION":4,
						"NORMAL":5,
						"TEXCOORD_0":6
					},
					"indices":7,
					"material":1
				},
				{
					"attributes":{
						"POSITION":8,
						"NORMAL":9,
						"TEXCOORD_0":10
					},
					"indices":7,
					"material":2
				},
				{
					"attributes":{
						"POSITION":11,
						"NORMAL":12,
						"TEXCOORD_0":13
					},
					"indices":14,
					"material":3
				}
			]
		}
	],
	"textures":[
		{
			"sampler":0,
			"source":0
		}
	],
	"images":[
		{
			"mimeType":"image/png",
			"name":"tiny_treats_texture_1_png",
			"uri":"tiny_treats_texture_1_png.png"
		}
	],
	"accessors":[
		{
			"bufferView":0,
			"componentType":5126,
			"count":144,
			"max":[
				7.2952880859375,
				1.0484888553619385,
				0.9964276552200317
			],
			"min":[
				-8.222040176391602,
				-1.0075125694274902,
				-1.0124768018722534
			],
			"type":"VEC3"
		},
		{
			"bufferView":1,
			"componentType":5126,
			"count":144,
			"type":"VEC3"
		},
		{
			"bufferView":2,
			"componentType":5126,
			"count":144,
			"type":"VEC2"
		},
		{
			"bufferView":3,
			"componentType":5123,
			"count":216,
			"type":"SCALAR"
		},
		{
			"bufferView":4,
			"componentType":5126,
			"count":24,
			"max":[
				6.415622711181641,
				-0.45154526829719543,
				0.9669880270957947
			],
			"min":[
				-7.430492877960205,
				-0.5555452108383179,
				-0.9607211947441101
			],
			"type":"VEC3"
		},
		{
			"bufferView":5,
			"componentType":5126,
			"count":24,
			"type":"VEC3"
		},
		{
			"bufferView":6,
			"componentType":5126,
			"count":24,
			"type":"VEC2"
		},
		{
			"bufferView":7,
			"componentType":5123,
			"count":36,
			"type":"SCALAR"
		},
		{
			"bufferView":8,
			"componentType":5126,
			"count":24,
			"max":[
				6.415622711181641,
				0.04845474660396576,
				0.9669880270957947
			],
			"min":[
				-7.430494785308838,
				-0.055545251816511154,
				-0.9607211947441101
			],
			"type":"VEC3"
		},
		{
			"bufferView":9,
			"componentType":5126,
			"count":24,
			"type":"VEC3"
		},
		{
			"bufferView":10,
			"componentType":5126,
			"count":24,
			"type":"VEC2"
		},
		{
			"bufferView":11,
			"componentType":5126,
			"count":9648,
			"max":[
				5.9985504150390625,
				0.8323007225990295,
				0.8479901552200317
			],
			"min":[
				2.899308204650879,
				-0.910746693611145,
				-0.8555264472961426
			],
			"type":"VEC3"
		},
		{
			"bufferView":12,
			"componentType":5126,
			"count":9648,
			"type":"VEC3"
		},
		{
			"bufferView":13,
			"componentType":5126,
			"count":9648,
			"type":"VEC2"
		},
		{
			"bufferView":14,
			"componentType":5123,
			"count":31968,
			"type":"SCALAR"
		}
	],
	"bufferViews":[
		{
			"buffer":0,
			"byteLength":1728,
			"byteOffset":0,
			"target":34962
		},
		{
			"buffer":0,
			"byteLength":1728,
			"byteOffset":1728,
			"target":34962
		},
		{
			"buffer":0,
			"byteLength":1152,
			"byteOffset":3456,
			"target":34962
		},
		{
			"buffer":0,
			"byteLength":432,
			"byteOffset":4608,
			"target":34963
		},
		{
			"buffer":0,
			"byteLength":288,
			"byteOffset":5040,
			"target":34962
		},
		{
			"buffer":0,
			"byteLength":288,
			"byteOffset":5328,
			"target":34962
		},
		{
			"buffer":0,
			"byteLength":192,
			"byteOffset":5616,
			"target":34962
		},
		{
			"buffer":0,
			"byteLength":72,
			"byteOffset":5808,
			"target":34963
		},
		{
			"buffer":0,
			"byteLength":288,
			"byteOffset":5880,
			"target":34962
		},
		{
			"buffer":0,
			"byteLength":288,
			"byteOffset":6168,
			"target":34962
		},
		{
			"buffer":0,
			"byteLength":192,
			"byteOffset":6456,
			"target":34962
		},
		{
			"buffer":0,
			"byteLength":115776,
			"byteOffset":6648,
			"target":34962
		},
		{
			"buffer":0,
			"byteLength":115776,
			"byteOffset":122424,
			"target":34962
		},
		{
			"buffer":0,
			"byteLength":77184,
			"byteOffset":238200,
			"target":34962
		},
		{
			"buffer":0,
			"byteLength":63936,
			"byteOffset":315384,
			"target":34963
		}
	],
	"samplers":[
		{
			"magFilter":9729,
			"minFilter":9987
		}
	],
	"buffers":[
		{
			"byteLength":379320,
			"uri":"lemon_bodywash_shelf.bin"
		}
	]
}
