{
	"asset":{
		"generator":"Khronos glTF Blender I/O v4.2.60",
		"version":"2.0"
	},
	"scene":0,
	"scenes":[
		{
			"name":"Scene",
			"nodes":[
				0
			]
		}
	],
	"nodes":[
		{
			"mesh":0,
			"name":"Cube.009",
			"scale":[
				0.26000070571899414,
				5,
				4.150003433227539
			]
		}
	],
	"materials":[
		{
			"doubleSided":true,
			"name":"Material.057",
			"pbrMetallicRoughness":{
				"baseColorFactor":[
					0.2653980851173401,
					0.2654016613960266,
					0.2654016613960266,
					1
				],
				"metallicFactor":0,
				"roughnessFactor":0.5
			}
		},
		{
			"doubleSided":true,
			"name":"Material.058",
			"pbrMetallicRoughness":{
				"baseColorFactor":[
					0.2653980851173401,
					0.2654016613960266,
					0.2654016613960266,
					1
				],
				"metallicFactor":0,
				"roughnessFactor":0.5
			}
		},
		{
			"doubleSided":true,
			"name":"Material.059",
			"pbrMetallicRoughness":{
				"baseColorFactor":[
					0.2653980851173401,
					0.2654016613960266,
					0.2654016613960266,
					1
				],
				"metallicFactor":0,
				"roughnessFactor":0.5
			}
		},
		{
			"name":"brownDark",
			"pbrMetallicRoughness":{
				"baseColorFactor":[
					0.6000000238418579,
					0.2199999988079071,
					0.10999999940395355,
					1
				],
				"metallicFactor":0
			}
		},
		{
			"name":"brownLight",
			"pbrMetallicRoughness":{
				"baseColorFactor":[
					0.9800000190734863,
					0.6499999761581421,
					0.3700000047683716,
					1
				],
				"metallicFactor":0
			}
		},
		{
			"name":"green",
			"pbrMetallicRoughness":{
				"baseColorFactor":[
					0.15000000596046448,
					0.7099999785423279,
					0.44999998807907104,
					1
				],
				"metallicFactor":0
			}
		}
	],
	"meshes":[
		{
			"name":"Cube.008",
			"primitives":[
				{
					"attributes":{
						"POSITION":0,
						"NORMAL":1,
						"TEXCOORD_0":2
					},
					"indices":3,
					"material":0
				},
				{
					"attributes":{
						"POSITION":4,
						"NORMAL":5,
						"TEXCOORD_0":6
					},
					"indices":7,
					"material":1
				},
				{
					"attributes":{
						"POSITION":8,
						"NORMAL":9,
						"TEXCOORD_0":10
					},
					"indices":7,
					"material":2
				},
				{
					"attributes":{
						"POSITION":11,
						"NORMAL":12,
						"TEXCOORD_0":13
					},
					"indices":14,
					"material":3
				},
				{
					"attributes":{
						"POSITION":15,
						"NORMAL":16,
						"TEXCOORD_0":17
					},
					"indices":18,
					"material":4
				},
				{
					"attributes":{
						"POSITION":19,
						"NORMAL":20,
						"TEXCOORD_0":21
					},
					"indices":22,
					"material":5
				}
			]
		}
	],
	"accessors":[
		{
			"bufferView":0,
			"componentType":5126,
			"count":144,
			"max":[
				8.830528259277344,
				1.0409210920333862,
				1.0044164657592773
			],
			"min":[
				-6.686800479888916,
				-1.0150803327560425,
				-1.0044881105422974
			],
			"type":"VEC3"
		},
		{
			"bufferView":1,
			"componentType":5126,
			"count":144,
			"type":"VEC3"
		},
		{
			"bufferView":2,
			"componentType":5126,
			"count":144,
			"type":"VEC2"
		},
		{
			"bufferView":3,
			"componentType":5123,
			"count":216,
			"type":"SCALAR"
		},
		{
			"bufferView":4,
			"componentType":5126,
			"count":24,
			"max":[
				7.950862407684326,
				-0.45911306142807007,
				0.9749769568443298
			],
			"min":[
				-5.8952531814575195,
				-0.5631129741668701,
				-0.952732264995575
			],
			"type":"VEC3"
		},
		{
			"bufferView":5,
			"componentType":5126,
			"count":24,
			"type":"VEC3"
		},
		{
			"bufferView":6,
			"componentType":5126,
			"count":24,
			"type":"VEC2"
		},
		{
			"bufferView":7,
			"componentType":5123,
			"count":36,
			"type":"SCALAR"
		},
		{
			"bufferView":8,
			"componentType":5126,
			"count":24,
			"max":[
				7.950862407684326,
				0.04088696092367172,
				0.9749769568443298
			],
			"min":[
				-5.895255088806152,
				-0.06311304122209549,
				-0.952732264995575
			],
			"type":"VEC3"
		},
		{
			"bufferView":9,
			"componentType":5126,
			"count":24,
			"type":"VEC3"
		},
		{
			"bufferView":10,
			"componentType":5126,
			"count":24,
			"type":"VEC2"
		},
		{
			"bufferView":11,
			"componentType":5126,
			"count":2496,
			"max":[
				5.809736728668213,
				0.8367740511894226,
				0.8441592454910278
			],
			"min":[
				1.4479398727416992,
				-0.6501967310905457,
				-0.9111547470092773
			],
			"type":"VEC3"
		},
		{
			"bufferView":12,
			"componentType":5126,
			"count":2496,
			"type":"VEC3"
		},
		{
			"bufferView":13,
			"componentType":5126,
			"count":2496,
			"type":"VEC2"
		},
		{
			"bufferView":14,
			"componentType":5123,
			"count":5040,
			"type":"SCALAR"
		},
		{
			"bufferView":15,
			"componentType":5126,
			"count":4032,
			"max":[
				5.897525310516357,
				0.8019739985466003,
				0.8496592044830322
			],
			"min":[
				1.360151767730713,
				-0.9111967086791992,
				-0.9166547060012817
			],
			"type":"VEC3"
		},
		{
			"bufferView":16,
			"componentType":5126,
			"count":4032,
			"type":"VEC3"
		},
		{
			"bufferView":17,
			"componentType":5126,
			"count":4032,
			"type":"VEC2"
		},
		{
			"bufferView":18,
			"componentType":5123,
			"count":6192,
			"type":"SCALAR"
		},
		{
			"bufferView":19,
			"componentType":5126,
			"count":768,
			"max":[
				5.897525310516357,
				0.7432489991188049,
				0.8496592044830322
			],
			"min":[
				1.360151767730713,
				-0.8524717092514038,
				-0.9166547060012817
			],
			"type":"VEC3"
		},
		{
			"bufferView":20,
			"componentType":5126,
			"count":768,
			"type":"VEC3"
		},
		{
			"bufferView":21,
			"componentType":5126,
			"count":768,
			"type":"VEC2"
		},
		{
			"bufferView":22,
			"componentType":5123,
			"count":1152,
			"type":"SCALAR"
		}
	],
	"bufferViews":[
		{
			"buffer":0,
			"byteLength":1728,
			"byteOffset":0,
			"target":34962
		},
		{
			"buffer":0,
			"byteLength":1728,
			"byteOffset":1728,
			"target":34962
		},
		{
			"buffer":0,
			"byteLength":1152,
			"byteOffset":3456,
			"target":34962
		},
		{
			"buffer":0,
			"byteLength":432,
			"byteOffset":4608,
			"target":34963
		},
		{
			"buffer":0,
			"byteLength":288,
			"byteOffset":5040,
			"target":34962
		},
		{
			"buffer":0,
			"byteLength":288,
			"byteOffset":5328,
			"target":34962
		},
		{
			"buffer":0,
			"byteLength":192,
			"byteOffset":5616,
			"target":34962
		},
		{
			"buffer":0,
			"byteLength":72,
			"byteOffset":5808,
			"target":34963
		},
		{
			"buffer":0,
			"byteLength":288,
			"byteOffset":5880,
			"target":34962
		},
		{
			"buffer":0,
			"byteLength":288,
			"byteOffset":6168,
			"target":34962
		},
		{
			"buffer":0,
			"byteLength":192,
			"byteOffset":6456,
			"target":34962
		},
		{
			"buffer":0,
			"byteLength":29952,
			"byteOffset":6648,
			"target":34962
		},
		{
			"buffer":0,
			"byteLength":29952,
			"byteOffset":36600,
			"target":34962
		},
		{
			"buffer":0,
			"byteLength":19968,
			"byteOffset":66552,
			"target":34962
		},
		{
			"buffer":0,
			"byteLength":10080,
			"byteOffset":86520,
			"target":34963
		},
		{
			"buffer":0,
			"byteLength":48384,
			"byteOffset":96600,
			"target":34962
		},
		{
			"buffer":0,
			"byteLength":48384,
			"byteOffset":144984,
			"target":34962
		},
		{
			"buffer":0,
			"byteLength":32256,
			"byteOffset":193368,
			"target":34962
		},
		{
			"buffer":0,
			"byteLength":12384,
			"byteOffset":225624,
			"target":34963
		},
		{
			"buffer":0,
			"byteLength":9216,
			"byteOffset":238008,
			"target":34962
		},
		{
			"buffer":0,
			"byteLength":9216,
			"byteOffset":247224,
			"target":34962
		},
		{
			"buffer":0,
			"byteLength":6144,
			"byteOffset":256440,
			"target":34962
		},
		{
			"buffer":0,
			"byteLength":2304,
			"byteOffset":262584,
			"target":34963
		}
	],
	"buffers":[
		{
			"byteLength":264888,
			"uri":"peanut_butter_shelf.bin"
		}
	]
}
