{
	"asset":{
		"generator":"Khronos glTF Blender I/O v4.2.60",
		"version":"2.0"
	},
	"scene":0,
	"scenes":[
		{
			"name":"Scene",
			"nodes":[
				0
			]
		}
	],
	"nodes":[
		{
			"mesh":0,
			"name":"Cube.019_Cube.001",
			"rotation":[
				0.70710688829422,
				0,
				0,
				0.7071066498756409
			],
			"scale":[
				0.6499999761581421,
				0.6499999761581421,
				0.6499999761581421
			]
		}
	],
	"materials":[
		{
			"doubleSided":true,
			"name":"Material.140",
			"pbrMetallicRoughness":{
				"baseColorTexture":{
					"index":0
				},
				"metallicFactor":0,
				"roughnessFactor":0.6900347471237183
			}
		},
		{
			"doubleSided":true,
			"name":"Material.137",
			"pbrMetallicRoughness":{
				"baseColorFactor":[
					0.2653980851173401,
					0.2654016613960266,
					0.2654016613960266,
					1
				],
				"metallicFactor":0,
				"roughnessFactor":0.5
			}
		},
		{
			"doubleSided":true,
			"name":"Material.138",
			"pbrMetallicRoughness":{
				"baseColorFactor":[
					0.2653980851173401,
					0.2654016613960266,
					0.2654016613960266,
					1
				],
				"metallicFactor":0,
				"roughnessFactor":0.5
			}
		},
		{
			"doubleSided":true,
			"name":"Material.139",
			"pbrMetallicRoughness":{
				"baseColorFactor":[
					0.2653980851173401,
					0.2654016613960266,
					0.2654016613960266,
					1
				],
				"metallicFactor":0,
				"roughnessFactor":0.5
			}
		}
	],
	"meshes":[
		{
			"name":"Cube.019_Cube.037",
			"primitives":[
				{
					"attributes":{
						"POSITION":0,
						"NORMAL":1,
						"TEXCOORD_0":2
					},
					"indices":3,
					"material":0
				},
				{
					"attributes":{
						"POSITION":4,
						"NORMAL":5,
						"TEXCOORD_0":6
					},
					"indices":7,
					"material":1
				},
				{
					"attributes":{
						"POSITION":8,
						"NORMAL":9,
						"TEXCOORD_0":10
					},
					"indices":11,
					"material":2
				},
				{
					"attributes":{
						"POSITION":12,
						"NORMAL":13,
						"TEXCOORD_0":14
					},
					"indices":11,
					"material":3
				}
			]
		}
	],
	"textures":[
		{
			"sampler":0,
			"source":0
		}
	],
	"images":[
		{
			"mimeType":"image/jpeg",
			"name":"sprite",
			"uri":"sprite.jpg"
		}
	],
	"accessors":[
		{
			"bufferView":0,
			"componentType":5126,
			"count":19910,
			"max":[
				2.6105470657348633,
				5.404308795928955,
				6.981523513793945
			],
			"min":[
				1.6588650941848755,
				-5.630661964416504,
				-6.75355863571167
			],
			"type":"VEC3"
		},
		{
			"bufferView":1,
			"componentType":5126,
			"count":19910,
			"type":"VEC3"
		},
		{
			"bufferView":2,
			"componentType":5126,
			"count":19910,
			"type":"VEC2"
		},
		{
			"bufferView":3,
			"componentType":5123,
			"count":29952,
			"type":"SCALAR"
		},
		{
			"bufferView":4,
			"componentType":5126,
			"count":144,
			"max":[
				3.3581297397613525,
				6.398587226867676,
				7.794696807861328
			],
			"min":[
				-2.848817825317383,
				-6.427507400512695,
				-8.020696640014648
			],
			"type":"VEC3"
		},
		{
			"bufferView":5,
			"componentType":5126,
			"count":144,
			"type":"VEC3"
		},
		{
			"bufferView":6,
			"componentType":5126,
			"count":144,
			"type":"VEC2"
		},
		{
			"bufferView":7,
			"componentType":5123,
			"count":216,
			"type":"SCALAR"
		},
		{
			"bufferView":8,
			"componentType":5126,
			"count":24,
			"max":[
				3.0062625408172607,
				6.210626125335693,
				4.318026542663574
			],
			"min":[
				-2.532198905944824,
				-6.097064018249512,
				3.518024444580078
			],
			"type":"VEC3"
		},
		{
			"bufferView":9,
			"componentType":5126,
			"count":24,
			"type":"VEC3"
		},
		{
			"bufferView":10,
			"componentType":5126,
			"count":24,
			"type":"VEC2"
		},
		{
			"bufferView":11,
			"componentType":5123,
			"count":36,
			"type":"SCALAR"
		},
		{
			"bufferView":12,
			"componentType":5126,
			"count":24,
			"max":[
				3.0062625408172607,
				6.210625648498535,
				0.4718732237815857
			],
			"min":[
				-2.5321993827819824,
				-6.097064971923828,
				-0.328128844499588
			],
			"type":"VEC3"
		},
		{
			"bufferView":13,
			"componentType":5126,
			"count":24,
			"type":"VEC3"
		},
		{
			"bufferView":14,
			"componentType":5126,
			"count":24,
			"type":"VEC2"
		}
	],
	"bufferViews":[
		{
			"buffer":0,
			"byteLength":238920,
			"byteOffset":0,
			"target":34962
		},
		{
			"buffer":0,
			"byteLength":238920,
			"byteOffset":238920,
			"target":34962
		},
		{
			"buffer":0,
			"byteLength":159280,
			"byteOffset":477840,
			"target":34962
		},
		{
			"buffer":0,
			"byteLength":59904,
			"byteOffset":637120,
			"target":34963
		},
		{
			"buffer":0,
			"byteLength":1728,
			"byteOffset":697024,
			"target":34962
		},
		{
			"buffer":0,
			"byteLength":1728,
			"byteOffset":698752,
			"target":34962
		},
		{
			"buffer":0,
			"byteLength":1152,
			"byteOffset":700480,
			"target":34962
		},
		{
			"buffer":0,
			"byteLength":432,
			"byteOffset":701632,
			"target":34963
		},
		{
			"buffer":0,
			"byteLength":288,
			"byteOffset":702064,
			"target":34962
		},
		{
			"buffer":0,
			"byteLength":288,
			"byteOffset":702352,
			"target":34962
		},
		{
			"buffer":0,
			"byteLength":192,
			"byteOffset":702640,
			"target":34962
		},
		{
			"buffer":0,
			"byteLength":72,
			"byteOffset":702832,
			"target":34963
		},
		{
			"buffer":0,
			"byteLength":288,
			"byteOffset":702904,
			"target":34962
		},
		{
			"buffer":0,
			"byteLength":288,
			"byteOffset":703192,
			"target":34962
		},
		{
			"buffer":0,
			"byteLength":192,
			"byteOffset":703480,
			"target":34962
		}
	],
	"samplers":[
		{
			"magFilter":9729,
			"minFilter":9987
		}
	],
	"buffers":[
		{
			"byteLength":703672,
			"uri":"sprite_shelf.bin"
		}
	]
}
