{
	"asset":{
		"generator":"Khronos glTF Blender I/O v4.2.60",
		"version":"2.0"
	},
	"scene":0,
	"scenes":[
		{
			"name":"Scene",
			"nodes":[
				0
			]
		}
	],
	"nodes":[
		{
			"mesh":0,
			"name":"Cube.019_Cube.001",
			"rotation":[
				0.70710688829422,
				0,
				0,
				0.7071066498756409
			],
			"scale":[
				0.6499999761581421,
				0.6500000357627869,
				0.6500000357627869
			]
		}
	],
	"materials":[
		{
			"doubleSided":true,
			"name":"Material.140",
			"pbrMetallicRoughness":{
				"baseColorTexture":{
					"index":0
				},
				"metallicFactor":0,
				"roughnessFactor":0.6900347471237183
			}
		},
		{
			"doubleSided":true,
			"name":"Material.137",
			"pbrMetallicRoughness":{
				"baseColorFactor":[
					0.2653980851173401,
					0.2654016613960266,
					0.2654016613960266,
					1
				],
				"metallicFactor":0,
				"roughnessFactor":0.5
			}
		},
		{
			"doubleSided":true,
			"name":"Material.138",
			"pbrMetallicRoughness":{
				"baseColorFactor":[
					0.2653980851173401,
					0.2654016613960266,
					0.2654016613960266,
					1
				],
				"metallicFactor":0,
				"roughnessFactor":0.5
			}
		},
		{
			"doubleSided":true,
			"name":"Material.139",
			"pbrMetallicRoughness":{
				"baseColorFactor":[
					0.2653980851173401,
					0.2654016613960266,
					0.2654016613960266,
					1
				],
				"metallicFactor":0,
				"roughnessFactor":0.5
			}
		}
	],
	"meshes":[
		{
			"name":"Cube.019_Cube.037",
			"primitives":[
				{
					"attributes":{
						"POSITION":0,
						"NORMAL":1,
						"TEXCOORD_0":2
					},
					"indices":3,
					"material":0
				},
				{
					"attributes":{
						"POSITION":4,
						"NORMAL":5,
						"TEXCOORD_0":6
					},
					"indices":7,
					"material":1
				},
				{
					"attributes":{
						"POSITION":8,
						"NORMAL":9,
						"TEXCOORD_0":10
					},
					"indices":11,
					"material":2
				},
				{
					"attributes":{
						"POSITION":12,
						"NORMAL":13,
						"TEXCOORD_0":14
					},
					"indices":11,
					"material":3
				}
			]
		}
	],
	"textures":[
		{
			"sampler":0,
			"source":0
		}
	],
	"images":[
		{
			"mimeType":"image/jpeg",
			"name":"sprite",
			"uri":"sprite.jpg"
		}
	],
	"accessors":[
		{
			"bufferView":0,
			"componentType":5126,
			"count":19902,
			"max":[
				0.4758414030075073,
				0.47584477066993713,
				12.582021713256836
			],
			"min":[
				-0.4758404791355133,
				-10.559125900268555,
				-1.1530603170394897
			],
			"type":"VEC3"
		},
		{
			"bufferView":1,
			"componentType":5126,
			"count":19902,
			"type":"VEC3"
		},
		{
			"bufferView":2,
			"componentType":5126,
			"count":19902,
			"type":"VEC2"
		},
		{
			"bufferView":3,
			"componentType":5123,
			"count":29952,
			"type":"SCALAR"
		},
		{
			"bufferView":4,
			"componentType":5126,
			"count":144,
			"max":[
				1.2234241962432861,
				1.470123291015625,
				13.395195007324219
			],
			"min":[
				-4.983523368835449,
				-11.355971336364746,
				-2.420198678970337
			],
			"type":"VEC3"
		},
		{
			"bufferView":5,
			"componentType":5126,
			"count":144,
			"type":"VEC3"
		},
		{
			"bufferView":6,
			"componentType":5126,
			"count":144,
			"type":"VEC2"
		},
		{
			"bufferView":7,
			"componentType":5123,
			"count":216,
			"type":"SCALAR"
		},
		{
			"bufferView":8,
			"componentType":5126,
			"count":24,
			"max":[
				0.8715569972991943,
				1.2821621894836426,
				9.918524742126465
			],
			"min":[
				-4.666904449462891,
				-11.025527954101562,
				9.118522644042969
			],
			"type":"VEC3"
		},
		{
			"bufferView":9,
			"componentType":5126,
			"count":24,
			"type":"VEC3"
		},
		{
			"bufferView":10,
			"componentType":5126,
			"count":24,
			"type":"VEC2"
		},
		{
			"bufferView":11,
			"componentType":5123,
			"count":36,
			"type":"SCALAR"
		},
		{
			"bufferView":12,
			"componentType":5126,
			"count":24,
			"max":[
				0.8715569972991943,
				1.2821617126464844,
				6.072371482849121
			],
			"min":[
				-4.666904926300049,
				-11.025528907775879,
				5.272369384765625
			],
			"type":"VEC3"
		},
		{
			"bufferView":13,
			"componentType":5126,
			"count":24,
			"type":"VEC3"
		},
		{
			"bufferView":14,
			"componentType":5126,
			"count":24,
			"type":"VEC2"
		}
	],
	"bufferViews":[
		{
			"buffer":0,
			"byteLength":238824,
			"byteOffset":0,
			"target":34962
		},
		{
			"buffer":0,
			"byteLength":238824,
			"byteOffset":238824,
			"target":34962
		},
		{
			"buffer":0,
			"byteLength":159216,
			"byteOffset":477648,
			"target":34962
		},
		{
			"buffer":0,
			"byteLength":59904,
			"byteOffset":636864,
			"target":34963
		},
		{
			"buffer":0,
			"byteLength":1728,
			"byteOffset":696768,
			"target":34962
		},
		{
			"buffer":0,
			"byteLength":1728,
			"byteOffset":698496,
			"target":34962
		},
		{
			"buffer":0,
			"byteLength":1152,
			"byteOffset":700224,
			"target":34962
		},
		{
			"buffer":0,
			"byteLength":432,
			"byteOffset":701376,
			"target":34963
		},
		{
			"buffer":0,
			"byteLength":288,
			"byteOffset":701808,
			"target":34962
		},
		{
			"buffer":0,
			"byteLength":288,
			"byteOffset":702096,
			"target":34962
		},
		{
			"buffer":0,
			"byteLength":192,
			"byteOffset":702384,
			"target":34962
		},
		{
			"buffer":0,
			"byteLength":72,
			"byteOffset":702576,
			"target":34963
		},
		{
			"buffer":0,
			"byteLength":288,
			"byteOffset":702648,
			"target":34962
		},
		{
			"buffer":0,
			"byteLength":288,
			"byteOffset":702936,
			"target":34962
		},
		{
			"buffer":0,
			"byteLength":192,
			"byteOffset":703224,
			"target":34962
		}
	],
	"samplers":[
		{
			"magFilter":9729,
			"minFilter":9987
		}
	],
	"buffers":[
		{
			"byteLength":703416,
			"uri":"sprite_shelf.bin"
		}
	]
}
