{
	"asset":{
		"generator":"Khronos glTF Blender I/O v4.2.60",
		"version":"2.0"
	},
	"scene":0,
	"scenes":[
		{
			"name":"Scene",
			"nodes":[
				0,
				1,
				2,
				3,
				4
			]
		}
	],
	"nodes":[
		{
			"mesh":0,
			"name":"Cube.002",
			"scale":[
				0.26000070571899414,
				5,
				4.150003433227539
			],
			"translation":[
				1.5434083938598633,
				4.965046405792236,
				8.479307174682617
			]
		},
		{
			"mesh":1,
			"name":"Yellow bottles",
			"rotation":[
				0,
				0.6335165500640869,
				0,
				0.773729145526886
			],
			"scale":[
				250.00001525878906,
				250,
				250.00001525878906
			],
			"translation":[
				4.519184112548828,
				7.479665756225586,
				11.71291446685791
			]
		},
		{
			"mesh":2,
			"name":"Yellow bottles.002",
			"rotation":[
				0,
				0.6335165500640869,
				0,
				0.773729145526886
			],
			"scale":[
				250.00001525878906,
				250,
				250.00001525878906
			],
			"translation":[
				4.519184112548828,
				5.029733180999756,
				11.593343734741211
			]
		},
		{
			"mesh":3,
			"name":"Yellow bottles.003",
			"rotation":[
				0,
				0.6335165500640869,
				0,
				0.773729145526886
			],
			"scale":[
				250.00001525878906,
				250,
				250.00001525878906
			],
			"translation":[
				4.519184112548828,
				2.4979288578033447,
				11.593343734741211
			]
		},
		{
			"mesh":4,
			"name":"Yellow bottles.004",
			"rotation":[
				0,
				0.6335165500640869,
				0,
				0.773729145526886
			],
			"scale":[
				250.00001525878906,
				250,
				250.00001525878906
			],
			"translation":[
				4.519184112548828,
				0.22411800920963287,
				11.593343734741211
			]
		}
	],
	"materials":[
		{
			"doubleSided":true,
			"name":"Material.004",
			"pbrMetallicRoughness":{
				"baseColorFactor":[
					0.2653980851173401,
					0.2654016613960266,
					0.2654016613960266,
					1
				],
				"metallicFactor":0,
				"roughnessFactor":0.5
			}
		},
		{
			"doubleSided":true,
			"name":"Material.005",
			"pbrMetallicRoughness":{
				"baseColorFactor":[
					0.2653980851173401,
					0.2654016613960266,
					0.2654016613960266,
					1
				],
				"metallicFactor":0,
				"roughnessFactor":0.5
			}
		},
		{
			"doubleSided":true,
			"name":"Material.006",
			"pbrMetallicRoughness":{
				"baseColorFactor":[
					0.2653980851173401,
					0.2654016613960266,
					0.2654016613960266,
					1
				],
				"metallicFactor":0,
				"roughnessFactor":0.5
			}
		},
		{
			"name":"tiny_treats_1.005",
			"pbrMetallicRoughness":{
				"baseColorTexture":{
					"index":0
				},
				"metallicFactor":0.4000000059604645
			}
		}
	],
	"meshes":[
		{
			"name":"Cube.002",
			"primitives":[
				{
					"attributes":{
						"POSITION":0,
						"NORMAL":1,
						"TEXCOORD_0":2
					},
					"indices":3,
					"material":0
				},
				{
					"attributes":{
						"POSITION":4,
						"NORMAL":5,
						"TEXCOORD_0":6
					},
					"indices":7,
					"material":1
				},
				{
					"attributes":{
						"POSITION":8,
						"NORMAL":9,
						"TEXCOORD_0":10
					},
					"indices":7,
					"material":2
				}
			]
		},
		{
			"name":"container_bathroom_A_pink.331",
			"primitives":[
				{
					"attributes":{
						"POSITION":11,
						"NORMAL":12,
						"TEXCOORD_0":13
					},
					"indices":14,
					"material":3
				}
			]
		},
		{
			"name":"container_bathroom_A_pink.010",
			"primitives":[
				{
					"attributes":{
						"POSITION":15,
						"NORMAL":16,
						"TEXCOORD_0":17
					},
					"indices":14,
					"material":3
				}
			]
		},
		{
			"name":"container_bathroom_A_pink.011",
			"primitives":[
				{
					"attributes":{
						"POSITION":18,
						"NORMAL":19,
						"TEXCOORD_0":20
					},
					"indices":14,
					"material":3
				}
			]
		},
		{
			"name":"container_bathroom_A_pink.012",
			"primitives":[
				{
					"attributes":{
						"POSITION":21,
						"NORMAL":22,
						"TEXCOORD_0":23
					},
					"indices":14,
					"material":3
				}
			]
		}
	],
	"textures":[
		{
			"sampler":0,
			"source":0
		}
	],
	"images":[
		{
			"mimeType":"image/png",
			"name":"tiny_treats_texture_1.png",
			"uri":"tiny_treats_texture_1_png.png"
		}
	],
	"accessors":[
		{
			"bufferView":0,
			"componentType":5126,
			"count":144,
			"max":[
				14.517328262329102,
				1.0090248584747314,
				1.0012297630310059
			],
			"min":[
				-1,
				-1.0469765663146973,
				-1.0076746940612793
			],
			"type":"VEC3"
		},
		{
			"bufferView":1,
			"componentType":5126,
			"count":144,
			"type":"VEC3"
		},
		{
			"bufferView":2,
			"componentType":5126,
			"count":144,
			"type":"VEC2"
		},
		{
			"bufferView":3,
			"componentType":5123,
			"count":216,
			"type":"SCALAR"
		},
		{
			"bufferView":4,
			"componentType":5126,
			"count":24,
			"max":[
				13.637662887573242,
				-0.49100929498672485,
				0.9717901349067688
			],
			"min":[
				-0.20845270156860352,
				-0.5950092673301697,
				-0.955919086933136
			],
			"type":"VEC3"
		},
		{
			"bufferView":5,
			"componentType":5126,
			"count":24,
			"type":"VEC3"
		},
		{
			"bufferView":6,
			"componentType":5126,
			"count":24,
			"type":"VEC2"
		},
		{
			"bufferView":7,
			"componentType":5123,
			"count":36,
			"type":"SCALAR"
		},
		{
			"bufferView":8,
			"componentType":5126,
			"count":24,
			"max":[
				13.637662887573242,
				0.008990716189146042,
				0.9717901349067688
			],
			"min":[
				-0.20845460891723633,
				-0.09500928223133087,
				-0.955919086933136
			],
			"type":"VEC3"
		},
		{
			"bufferView":9,
			"componentType":5126,
			"count":24,
			"type":"VEC3"
		},
		{
			"bufferView":10,
			"componentType":5126,
			"count":24,
			"type":"VEC2"
		},
		{
			"bufferView":11,
			"componentType":5126,
			"count":2412,
			"max":[
				0.026163652539253235,
				0.005777752958238125,
				0.0015989416278898716
			],
			"min":[
				-0.0015600015176460147,
				-1.3904205564685412e-09,
				-0.006514954846352339
			],
			"type":"VEC3"
		},
		{
			"bufferView":12,
			"componentType":5126,
			"count":2412,
			"type":"VEC3"
		},
		{
			"bufferView":13,
			"componentType":5126,
			"count":2412,
			"type":"VEC2"
		},
		{
			"bufferView":14,
			"componentType":5123,
			"count":7992,
			"type":"SCALAR"
		},
		{
			"bufferView":15,
			"componentType":5126,
			"count":2412,
			"max":[
				0.026163652539253235,
				0.005777752958238125,
				0.0015989416278898716
			],
			"min":[
				-0.0015600015176460147,
				-1.3904205564685412e-09,
				-0.006514954846352339
			],
			"type":"VEC3"
		},
		{
			"bufferView":16,
			"componentType":5126,
			"count":2412,
			"type":"VEC3"
		},
		{
			"bufferView":17,
			"componentType":5126,
			"count":2412,
			"type":"VEC2"
		},
		{
			"bufferView":18,
			"componentType":5126,
			"count":2412,
			"max":[
				0.026163652539253235,
				0.005777752958238125,
				0.0015989416278898716
			],
			"min":[
				-0.0015600015176460147,
				-1.3904205564685412e-09,
				-0.006514954846352339
			],
			"type":"VEC3"
		},
		{
			"bufferView":19,
			"componentType":5126,
			"count":2412,
			"type":"VEC3"
		},
		{
			"bufferView":20,
			"componentType":5126,
			"count":2412,
			"type":"VEC2"
		},
		{
			"bufferView":21,
			"componentType":5126,
			"count":2412,
			"max":[
				0.026163652539253235,
				0.005777752958238125,
				0.0015989416278898716
			],
			"min":[
				-0.0015600015176460147,
				-1.3904205564685412e-09,
				-0.006514954846352339
			],
			"type":"VEC3"
		},
		{
			"bufferView":22,
			"componentType":5126,
			"count":2412,
			"type":"VEC3"
		},
		{
			"bufferView":23,
			"componentType":5126,
			"count":2412,
			"type":"VEC2"
		}
	],
	"bufferViews":[
		{
			"buffer":0,
			"byteLength":1728,
			"byteOffset":0,
			"target":34962
		},
		{
			"buffer":0,
			"byteLength":1728,
			"byteOffset":1728,
			"target":34962
		},
		{
			"buffer":0,
			"byteLength":1152,
			"byteOffset":3456,
			"target":34962
		},
		{
			"buffer":0,
			"byteLength":432,
			"byteOffset":4608,
			"target":34963
		},
		{
			"buffer":0,
			"byteLength":288,
			"byteOffset":5040,
			"target":34962
		},
		{
			"buffer":0,
			"byteLength":288,
			"byteOffset":5328,
			"target":34962
		},
		{
			"buffer":0,
			"byteLength":192,
			"byteOffset":5616,
			"target":34962
		},
		{
			"buffer":0,
			"byteLength":72,
			"byteOffset":5808,
			"target":34963
		},
		{
			"buffer":0,
			"byteLength":288,
			"byteOffset":5880,
			"target":34962
		},
		{
			"buffer":0,
			"byteLength":288,
			"byteOffset":6168,
			"target":34962
		},
		{
			"buffer":0,
			"byteLength":192,
			"byteOffset":6456,
			"target":34962
		},
		{
			"buffer":0,
			"byteLength":28944,
			"byteOffset":6648,
			"target":34962
		},
		{
			"buffer":0,
			"byteLength":28944,
			"byteOffset":35592,
			"target":34962
		},
		{
			"buffer":0,
			"byteLength":19296,
			"byteOffset":64536,
			"target":34962
		},
		{
			"buffer":0,
			"byteLength":15984,
			"byteOffset":83832,
			"target":34963
		},
		{
			"buffer":0,
			"byteLength":28944,
			"byteOffset":99816,
			"target":34962
		},
		{
			"buffer":0,
			"byteLength":28944,
			"byteOffset":128760,
			"target":34962
		},
		{
			"buffer":0,
			"byteLength":19296,
			"byteOffset":157704,
			"target":34962
		},
		{
			"buffer":0,
			"byteLength":28944,
			"byteOffset":177000,
			"target":34962
		},
		{
			"buffer":0,
			"byteLength":28944,
			"byteOffset":205944,
			"target":34962
		},
		{
			"buffer":0,
			"byteLength":19296,
			"byteOffset":234888,
			"target":34962
		},
		{
			"buffer":0,
			"byteLength":28944,
			"byteOffset":254184,
			"target":34962
		},
		{
			"buffer":0,
			"byteLength":28944,
			"byteOffset":283128,
			"target":34962
		},
		{
			"buffer":0,
			"byteLength":19296,
			"byteOffset":312072,
			"target":34962
		}
	],
	"samplers":[
		{
			"magFilter":9729,
			"minFilter":9987
		}
	],
	"buffers":[
		{
			"byteLength":331368,
			"uri":"lilac_bodywash_shelf.bin"
		}
	]
}
