{
	"asset":{
		"generator":"Khronos glTF Blender I/O v4.2.60",
		"version":"2.0"
	},
	"scene":0,
	"scenes":[
		{
			"name":"Scene",
			"nodes":[
				0
			]
		}
	],
	"nodes":[
		{
			"mesh":0,
			"name":"carton.002",
			"scale":[
				3,
				3,
				3
			]
		}
	],
	"materials":[
		{
			"name":"purple.006",
			"pbrMetallicRoughness":{
				"baseColorFactor":[
					0.8111716508865356,
					0,
					0.7749241590499878,
					1
				],
				"metallicFactor":0
			}
		},
		{
			"name":"_defaultMat.006",
			"pbrMetallicRoughness":{
				"metallicFactor":0
			}
		},
		{
			"name":"white.006",
			"pbrMetallicRoughness":{
				"baseColorFactor":[
					0.8799999952316284,
					0.8899999856948853,
					0.9200000166893005,
					1
				],
				"metallicFactor":0
			}
		},
		{
			"doubleSided":true,
			"name":"Material.107",
			"pbrMetallicRoughness":{
				"baseColorFactor":[
					0.2653980851173401,
					0.2654016613960266,
					0.2654016613960266,
					1
				],
				"metallicFactor":0,
				"roughnessFactor":0.5
			}
		},
		{
			"doubleSided":true,
			"name":"Material.108",
			"pbrMetallicRoughness":{
				"baseColorFactor":[
					0.2653980851173401,
					0.2654016613960266,
					0.2654016613960266,
					1
				],
				"metallicFactor":0,
				"roughnessFactor":0.5
			}
		},
		{
			"doubleSided":true,
			"name":"Material.109",
			"pbrMetallicRoughness":{
				"baseColorFactor":[
					0.2653980851173401,
					0.2654016613960266,
					0.2654016613960266,
					1
				],
				"metallicFactor":0,
				"roughnessFactor":0.5
			}
		}
	],
	"meshes":[
		{
			"name":"carton_1.002",
			"primitives":[
				{
					"attributes":{
						"POSITION":0,
						"NORMAL":1,
						"TEXCOORD_0":2
					},
					"indices":3,
					"material":0
				},
				{
					"attributes":{
						"POSITION":4,
						"NORMAL":5,
						"TEXCOORD_0":6
					},
					"indices":7,
					"material":1
				},
				{
					"attributes":{
						"POSITION":8,
						"NORMAL":9,
						"TEXCOORD_0":10
					},
					"indices":11,
					"material":2
				},
				{
					"attributes":{
						"POSITION":12,
						"NORMAL":13,
						"TEXCOORD_0":14
					},
					"indices":15,
					"material":3
				},
				{
					"attributes":{
						"POSITION":16,
						"NORMAL":17,
						"TEXCOORD_0":18
					},
					"indices":19,
					"material":4
				},
				{
					"attributes":{
						"POSITION":20,
						"NORMAL":21,
						"TEXCOORD_0":22
					},
					"indices":19,
					"material":5
				}
			]
		}
	],
	"accessors":[
		{
			"bufferView":0,
			"componentType":5126,
			"count":3240,
			"max":[
				0.6142930388450623,
				1.4287302494049072,
				1.1749061346054077
			],
			"min":[
				0.20651546120643616,
				-1.5316661596298218,
				-1.1944092512130737
			],
			"type":"VEC3"
		},
		{
			"bufferView":1,
			"componentType":5126,
			"count":3240,
			"type":"VEC3"
		},
		{
			"bufferView":2,
			"componentType":5126,
			"count":3240,
			"type":"VEC2"
		},
		{
			"bufferView":3,
			"componentType":5123,
			"count":5880,
			"type":"SCALAR"
		},
		{
			"bufferView":4,
			"componentType":5126,
			"count":3638,
			"max":[
				0.6142930388450623,
				1.440960168838501,
				1.1749061346054077
			],
			"min":[
				0.20651546120643616,
				-1.4916661977767944,
				-1.1944092512130737
			],
			"type":"VEC3"
		},
		{
			"bufferView":5,
			"componentType":5126,
			"count":3638,
			"type":"VEC3"
		},
		{
			"bufferView":6,
			"componentType":5126,
			"count":3638,
			"type":"VEC2"
		},
		{
			"bufferView":7,
			"componentType":5123,
			"count":4440,
			"type":"SCALAR"
		},
		{
			"bufferView":8,
			"componentType":5126,
			"count":480,
			"max":[
				0.4992930293083191,
				1.481506586074829,
				1.1749061346054077
			],
			"min":[
				0.3215154707431793,
				-0.9816660284996033,
				-1.1944092512130737
			],
			"type":"VEC3"
		},
		{
			"bufferView":9,
			"componentType":5126,
			"count":480,
			"type":"VEC3"
		},
		{
			"bufferView":10,
			"componentType":5126,
			"count":480,
			"type":"VEC2"
		},
		{
			"bufferView":11,
			"componentType":5123,
			"count":960,
			"type":"SCALAR"
		},
		{
			"bufferView":12,
			"componentType":5126,
			"count":144,
			"max":[
				0.7649340629577637,
				1.7310208082199097,
				1.3833247423171997
			],
			"min":[
				-0.5799047946929932,
				-1.695648431777954,
				-1.3956621885299683
			],
			"type":"VEC3"
		},
		{
			"bufferView":13,
			"componentType":5126,
			"count":144,
			"type":"VEC3"
		},
		{
			"bufferView":14,
			"componentType":5126,
			"count":144,
			"type":"VEC2"
		},
		{
			"bufferView":15,
			"componentType":5123,
			"count":216,
			"type":"SCALAR"
		},
		{
			"bufferView":16,
			"componentType":5126,
			"count":24,
			"max":[
				0.6886961460113525,
				-0.7690362334251404,
				1.3426001071929932
			],
			"min":[
				-0.5113038420677185,
				-0.9423695206642151,
				-1.3240665197372437
			],
			"type":"VEC3"
		},
		{
			"bufferView":17,
			"componentType":5126,
			"count":24,
			"type":"VEC3"
		},
		{
			"bufferView":18,
			"componentType":5126,
			"count":24,
			"type":"VEC2"
		},
		{
			"bufferView":19,
			"componentType":5123,
			"count":36,
			"type":"SCALAR"
		},
		{
			"bufferView":20,
			"componentType":5126,
			"count":24,
			"max":[
				0.6886961460113525,
				0.0642971396446228,
				1.3426001071929932
			],
			"min":[
				-0.5113040208816528,
				-0.10903620719909668,
				-1.3240665197372437
			],
			"type":"VEC3"
		},
		{
			"bufferView":21,
			"componentType":5126,
			"count":24,
			"type":"VEC3"
		},
		{
			"bufferView":22,
			"componentType":5126,
			"count":24,
			"type":"VEC2"
		}
	],
	"bufferViews":[
		{
			"buffer":0,
			"byteLength":38880,
			"byteOffset":0,
			"target":34962
		},
		{
			"buffer":0,
			"byteLength":38880,
			"byteOffset":38880,
			"target":34962
		},
		{
			"buffer":0,
			"byteLength":25920,
			"byteOffset":77760,
			"target":34962
		},
		{
			"buffer":0,
			"byteLength":11760,
			"byteOffset":103680,
			"target":34963
		},
		{
			"buffer":0,
			"byteLength":43656,
			"byteOffset":115440,
			"target":34962
		},
		{
			"buffer":0,
			"byteLength":43656,
			"byteOffset":159096,
			"target":34962
		},
		{
			"buffer":0,
			"byteLength":29104,
			"byteOffset":202752,
			"target":34962
		},
		{
			"buffer":0,
			"byteLength":8880,
			"byteOffset":231856,
			"target":34963
		},
		{
			"buffer":0,
			"byteLength":5760,
			"byteOffset":240736,
			"target":34962
		},
		{
			"buffer":0,
			"byteLength":5760,
			"byteOffset":246496,
			"target":34962
		},
		{
			"buffer":0,
			"byteLength":3840,
			"byteOffset":252256,
			"target":34962
		},
		{
			"buffer":0,
			"byteLength":1920,
			"byteOffset":256096,
			"target":34963
		},
		{
			"buffer":0,
			"byteLength":1728,
			"byteOffset":258016,
			"target":34962
		},
		{
			"buffer":0,
			"byteLength":1728,
			"byteOffset":259744,
			"target":34962
		},
		{
			"buffer":0,
			"byteLength":1152,
			"byteOffset":261472,
			"target":34962
		},
		{
			"buffer":0,
			"byteLength":432,
			"byteOffset":262624,
			"target":34963
		},
		{
			"buffer":0,
			"byteLength":288,
			"byteOffset":263056,
			"target":34962
		},
		{
			"buffer":0,
			"byteLength":288,
			"byteOffset":263344,
			"target":34962
		},
		{
			"buffer":0,
			"byteLength":192,
			"byteOffset":263632,
			"target":34962
		},
		{
			"buffer":0,
			"byteLength":72,
			"byteOffset":263824,
			"target":34963
		},
		{
			"buffer":0,
			"byteLength":288,
			"byteOffset":263896,
			"target":34962
		},
		{
			"buffer":0,
			"byteLength":288,
			"byteOffset":264184,
			"target":34962
		},
		{
			"buffer":0,
			"byteLength":192,
			"byteOffset":264472,
			"target":34962
		}
	],
	"buffers":[
		{
			"byteLength":264664,
			"uri":"oat_milk_shelf.bin"
		}
	]
}
