{
	"asset":{
		"generator":"Khronos glTF Blender I/O v4.2.60",
		"version":"2.0"
	},
	"scene":0,
	"scenes":[
		{
			"name":"Scene",
			"nodes":[
				0
			]
		}
	],
	"nodes":[
		{
			"mesh":0,
			"name":"Cube",
			"scale":[
				4.609775066375732,
				2.116823196411133,
				2.116823196411133
			]
		}
	],
	"materials":[
		{
			"name":"lambert3SG.001",
			"pbrMetallicRoughness":{
				"baseColorFactor":[
					0.1599999964237213,
					0.3799999952316284,
					0,
					1
				],
				"metallicFactor":0
			}
		},
		{
			"doubleSided":true,
			"name":"Material.002",
			"pbrMetallicRoughness":{
				"baseColorFactor":[
					0.48288780450820923,
					0.3270036280155182,
					0.1440112143754959,
					1
				],
				"metallicFactor":0,
				"roughnessFactor":0.5
			}
		},
		{
			"name":"lambert2SG.001",
			"pbrMetallicRoughness":{
				"baseColorFactor":[
					1,
					0.0022779186256229877,
					0,
					1
				],
				"metallicFactor":0
			}
		}
	],
	"meshes":[
		{
			"name":"Cube.001",
			"primitives":[
				{
					"attributes":{
						"POSITION":0,
						"NORMAL":1,
						"TEXCOORD_0":2
					},
					"indices":3,
					"material":0
				},
				{
					"attributes":{
						"POSITION":4,
						"NORMAL":5,
						"TEXCOORD_0":6
					},
					"indices":7,
					"material":1
				},
				{
					"attributes":{
						"POSITION":8,
						"NORMAL":9,
						"TEXCOORD_0":10
					},
					"indices":11,
					"material":2
				}
			]
		}
	],
	"accessors":[
		{
			"bufferView":0,
			"componentType":5126,
			"count":14256,
			"max":[
				0.8328003883361816,
				0.8023354411125183,
				0.7578263282775879
			],
			"min":[
				-0.8233662247657776,
				0.636863112449646,
				-0.4288192391395569
			],
			"type":"VEC3"
		},
		{
			"bufferView":1,
			"componentType":5126,
			"count":14256,
			"type":"VEC3"
		},
		{
			"bufferView":2,
			"componentType":5126,
			"count":14256,
			"type":"VEC2"
		},
		{
			"bufferView":3,
			"componentType":5123,
			"count":14256,
			"type":"SCALAR"
		},
		{
			"bufferView":4,
			"componentType":5126,
			"count":72,
			"max":[
				0.9999998807907104,
				0.9999998807907104,
				0.9999998807907104
			],
			"min":[
				-0.9999998807907104,
				-0.9999998807907104,
				-0.9999998807907104
			],
			"type":"VEC3"
		},
		{
			"bufferView":5,
			"componentType":5126,
			"count":72,
			"type":"VEC3"
		},
		{
			"bufferView":6,
			"componentType":5126,
			"count":72,
			"type":"VEC2"
		},
		{
			"bufferView":7,
			"componentType":5123,
			"count":120,
			"type":"SCALAR"
		},
		{
			"bufferView":8,
			"componentType":5126,
			"count":28886,
			"max":[
				0.9026967883110046,
				0.8824259042739868,
				0.6589823961257935
			],
			"min":[
				-0.9069768786430359,
				0.4703327715396881,
				-0.7888902425765991
			],
			"type":"VEC3"
		},
		{
			"bufferView":9,
			"componentType":5126,
			"count":28886,
			"type":"VEC3"
		},
		{
			"bufferView":10,
			"componentType":5126,
			"count":28886,
			"type":"VEC2"
		},
		{
			"bufferView":11,
			"componentType":5123,
			"count":31104,
			"type":"SCALAR"
		}
	],
	"bufferViews":[
		{
			"buffer":0,
			"byteLength":171072,
			"byteOffset":0,
			"target":34962
		},
		{
			"buffer":0,
			"byteLength":171072,
			"byteOffset":171072,
			"target":34962
		},
		{
			"buffer":0,
			"byteLength":114048,
			"byteOffset":342144,
			"target":34962
		},
		{
			"buffer":0,
			"byteLength":28512,
			"byteOffset":456192,
			"target":34963
		},
		{
			"buffer":0,
			"byteLength":864,
			"byteOffset":484704,
			"target":34962
		},
		{
			"buffer":0,
			"byteLength":864,
			"byteOffset":485568,
			"target":34962
		},
		{
			"buffer":0,
			"byteLength":576,
			"byteOffset":486432,
			"target":34962
		},
		{
			"buffer":0,
			"byteLength":240,
			"byteOffset":487008,
			"target":34963
		},
		{
			"buffer":0,
			"byteLength":346632,
			"byteOffset":487248,
			"target":34962
		},
		{
			"buffer":0,
			"byteLength":346632,
			"byteOffset":833880,
			"target":34962
		},
		{
			"buffer":0,
			"byteLength":231088,
			"byteOffset":1180512,
			"target":34962
		},
		{
			"buffer":0,
			"byteLength":62208,
			"byteOffset":1411600,
			"target":34963
		}
	],
	"buffers":[
		{
			"byteLength":1473808,
			"uri":"red_pepper_box.bin"
		}
	]
}
