{
	"asset":{
		"generator":"Khronos glTF Blender I/O v4.2.60",
		"version":"2.0"
	},
	"scene":0,
	"scenes":[
		{
			"name":"Scene",
			"nodes":[
				0
			]
		}
	],
	"nodes":[
		{
			"mesh":0,
			"name":"Cube",
			"scale":[
				4.609775066375732,
				2.116823196411133,
				2.116823196411133
			]
		}
	],
	"materials":[
		{
			"doubleSided":true,
			"name":"Material.001",
			"pbrMetallicRoughness":{
				"baseColorFactor":[
					0.48288780450820923,
					0.3270036280155182,
					0.1440112143754959,
					1
				],
				"metallicFactor":0,
				"roughnessFactor":0.5
			}
		},
		{
			"name":"lambert3SG",
			"pbrMetallicRoughness":{
				"baseColorFactor":[
					0.12999999523162842,
					0.36000001430511475,
					0,
					1
				],
				"metallicFactor":0
			}
		},
		{
			"name":"lambert2SG",
			"pbrMetallicRoughness":{
				"baseColorFactor":[
					0.15000000596046448,
					0.019999999552965164,
					0.20999999344348907,
					1
				],
				"metallicFactor":0
			}
		}
	],
	"meshes":[
		{
			"name":"Cube.001",
			"primitives":[
				{
					"attributes":{
						"POSITION":0,
						"NORMAL":1,
						"TEXCOORD_0":2
					},
					"indices":3,
					"material":0
				},
				{
					"attributes":{
						"POSITION":4,
						"NORMAL":5,
						"TEXCOORD_0":6
					},
					"indices":7,
					"material":1
				},
				{
					"attributes":{
						"POSITION":8,
						"NORMAL":9,
						"TEXCOORD_0":10
					},
					"indices":11,
					"material":2
				}
			]
		}
	],
	"accessors":[
		{
			"bufferView":0,
			"componentType":5126,
			"count":72,
			"max":[
				0.9999999403953552,
				0.9999999403953552,
				0.9999999403953552
			],
			"min":[
				-0.9999999403953552,
				-0.9999999403953552,
				-0.9999999403953552
			],
			"type":"VEC3"
		},
		{
			"bufferView":1,
			"componentType":5126,
			"count":72,
			"type":"VEC3"
		},
		{
			"bufferView":2,
			"componentType":5126,
			"count":72,
			"type":"VEC2"
		},
		{
			"bufferView":3,
			"componentType":5123,
			"count":120,
			"type":"SCALAR"
		},
		{
			"bufferView":4,
			"componentType":5126,
			"count":12310,
			"max":[
				0.9485421776771545,
				0.7959930300712585,
				0.3722166419029236
			],
			"min":[
				-0.7218325138092041,
				0.5141037702560425,
				-0.9679943323135376
			],
			"type":"VEC3"
		},
		{
			"bufferView":5,
			"componentType":5126,
			"count":12310,
			"type":"VEC3"
		},
		{
			"bufferView":6,
			"componentType":5126,
			"count":12310,
			"type":"VEC2"
		},
		{
			"bufferView":7,
			"componentType":5123,
			"count":12672,
			"type":"SCALAR"
		},
		{
			"bufferView":8,
			"componentType":5126,
			"count":5376,
			"max":[
				0.9273110032081604,
				0.8335120677947998,
				0.8905351161956787
			],
			"min":[
				-0.904065728187561,
				0.5044629573822021,
				-0.9622552990913391
			],
			"type":"VEC3"
		},
		{
			"bufferView":9,
			"componentType":5126,
			"count":5376,
			"type":"VEC3"
		},
		{
			"bufferView":10,
			"componentType":5126,
			"count":5376,
			"type":"VEC2"
		},
		{
			"bufferView":11,
			"componentType":5123,
			"count":5376,
			"type":"SCALAR"
		}
	],
	"bufferViews":[
		{
			"buffer":0,
			"byteLength":864,
			"byteOffset":0,
			"target":34962
		},
		{
			"buffer":0,
			"byteLength":864,
			"byteOffset":864,
			"target":34962
		},
		{
			"buffer":0,
			"byteLength":576,
			"byteOffset":1728,
			"target":34962
		},
		{
			"buffer":0,
			"byteLength":240,
			"byteOffset":2304,
			"target":34963
		},
		{
			"buffer":0,
			"byteLength":147720,
			"byteOffset":2544,
			"target":34962
		},
		{
			"buffer":0,
			"byteLength":147720,
			"byteOffset":150264,
			"target":34962
		},
		{
			"buffer":0,
			"byteLength":98480,
			"byteOffset":297984,
			"target":34962
		},
		{
			"buffer":0,
			"byteLength":25344,
			"byteOffset":396464,
			"target":34963
		},
		{
			"buffer":0,
			"byteLength":64512,
			"byteOffset":421808,
			"target":34962
		},
		{
			"buffer":0,
			"byteLength":64512,
			"byteOffset":486320,
			"target":34962
		},
		{
			"buffer":0,
			"byteLength":43008,
			"byteOffset":550832,
			"target":34962
		},
		{
			"buffer":0,
			"byteLength":10752,
			"byteOffset":593840,
			"target":34963
		}
	],
	"buffers":[
		{
			"byteLength":604592,
			"uri":"eggplant_box.bin"
		}
	]
}
