{
	"asset":{
		"generator":"Khronos glTF Blender I/O v4.2.60",
		"version":"2.0"
	},
	"scene":0,
	"scenes":[
		{
			"name":"Scene",
			"nodes":[
				0
			]
		}
	],
	"nodes":[
		{
			"mesh":0,
			"name":"peanutButter"
		}
	],
	"materials":[
		{
			"name":"brownDark",
			"pbrMetallicRoughness":{
				"baseColorFactor":[
					0.6000000238418579,
					0.2199999988079071,
					0.10999999940395355,
					1
				],
				"metallicFactor":0
			}
		},
		{
			"name":"brownLight",
			"pbrMetallicRoughness":{
				"baseColorFactor":[
					0.9800000190734863,
					0.6499999761581421,
					0.3700000047683716,
					1
				],
				"metallicFactor":0
			}
		},
		{
			"name":"green",
			"pbrMetallicRoughness":{
				"baseColorFactor":[
					0.15000000596046448,
					0.7099999785423279,
					0.44999998807907104,
					1
				],
				"metallicFactor":0
			}
		}
	],
	"meshes":[
		{
			"name":"peanutButter_1",
			"primitives":[
				{
					"attributes":{
						"POSITION":0,
						"NORMAL":1,
						"TEXCOORD_0":2
					},
					"indices":3,
					"material":0
				},
				{
					"attributes":{
						"POSITION":4,
						"NORMAL":5,
						"TEXCOORD_0":6
					},
					"indices":7,
					"material":1
				},
				{
					"attributes":{
						"POSITION":8,
						"NORMAL":9,
						"TEXCOORD_0":10
					},
					"indices":11,
					"material":2
				}
			]
		}
	],
	"accessors":[
		{
			"bufferView":0,
			"componentType":5126,
			"count":104,
			"max":[
				0.11340700089931488,
				0.29580000042915344,
				0.11340700089931488
			],
			"min":[
				-0.11340700089931488,
				0.26100000739097595,
				-0.11340700089931488
			],
			"type":"VEC3"
		},
		{
			"bufferView":1,
			"componentType":5126,
			"count":104,
			"type":"VEC3"
		},
		{
			"bufferView":2,
			"componentType":5126,
			"count":104,
			"type":"VEC2"
		},
		{
			"bufferView":3,
			"componentType":5123,
			"count":210,
			"type":"SCALAR"
		},
		{
			"bufferView":4,
			"componentType":5126,
			"count":168,
			"max":[
				0.1179720014333725,
				0.26100000739097595,
				0.1179720014333725
			],
			"min":[
				-0.1179720014333725,
				0,
				-0.1179720014333725
			],
			"type":"VEC3"
		},
		{
			"bufferView":5,
			"componentType":5126,
			"count":168,
			"type":"VEC3"
		},
		{
			"bufferView":6,
			"componentType":5126,
			"count":168,
			"type":"VEC2"
		},
		{
			"bufferView":7,
			"componentType":5123,
			"count":258,
			"type":"SCALAR"
		},
		{
			"bufferView":8,
			"componentType":5126,
			"count":32,
			"max":[
				0.1179720014333725,
				0.20227499306201935,
				0.1179720014333725
			],
			"min":[
				-0.1179720014333725,
				0.05872499942779541,
				-0.1179720014333725
			],
			"type":"VEC3"
		},
		{
			"bufferView":9,
			"componentType":5126,
			"count":32,
			"type":"VEC3"
		},
		{
			"bufferView":10,
			"componentType":5126,
			"count":32,
			"type":"VEC2"
		},
		{
			"bufferView":11,
			"componentType":5123,
			"count":48,
			"type":"SCALAR"
		}
	],
	"bufferViews":[
		{
			"buffer":0,
			"byteLength":1248,
			"byteOffset":0,
			"target":34962
		},
		{
			"buffer":0,
			"byteLength":1248,
			"byteOffset":1248,
			"target":34962
		},
		{
			"buffer":0,
			"byteLength":832,
			"byteOffset":2496,
			"target":34962
		},
		{
			"buffer":0,
			"byteLength":420,
			"byteOffset":3328,
			"target":34963
		},
		{
			"buffer":0,
			"byteLength":2016,
			"byteOffset":3748,
			"target":34962
		},
		{
			"buffer":0,
			"byteLength":2016,
			"byteOffset":5764,
			"target":34962
		},
		{
			"buffer":0,
			"byteLength":1344,
			"byteOffset":7780,
			"target":34962
		},
		{
			"buffer":0,
			"byteLength":516,
			"byteOffset":9124,
			"target":34963
		},
		{
			"buffer":0,
			"byteLength":384,
			"byteOffset":9640,
			"target":34962
		},
		{
			"buffer":0,
			"byteLength":384,
			"byteOffset":10024,
			"target":34962
		},
		{
			"buffer":0,
			"byteLength":256,
			"byteOffset":10408,
			"target":34962
		},
		{
			"buffer":0,
			"byteLength":96,
			"byteOffset":10664,
			"target":34963
		}
	],
	"buffers":[
		{
			"byteLength":10760,
			"uri":"peanut_butter.bin"
		}
	]
}
