{
	"asset":{
		"generator":"Khronos glTF Blender I/O v4.2.60",
		"version":"2.0"
	},
	"scene":0,
	"scenes":[
		{
			"name":"Scene",
			"nodes":[
				0
			]
		}
	],
	"nodes":[
		{
			"mesh":0,
			"name":"Cylinder.004",
			"rotation":[
				0,
				0.9999845623970032,
				0,
				0.0055554695427417755
			],
			"scale":[
				-0.1600000411272049,
				-0.05900000035762787,
				-0.1600000411272049
			]
		}
	],
	"materials":[
		{
			"doubleSided":true,
			"name":"Material.049",
			"pbrMetallicRoughness":{
				"baseColorTexture":{
					"index":0
				},
				"metallicFactor":0
			}
		},
		{
			"doubleSided":true,
			"name":"Material.046",
			"pbrMetallicRoughness":{
				"baseColorFactor":[
					0.2653980851173401,
					0.2654016613960266,
					0.2654016613960266,
					1
				],
				"metallicFactor":0,
				"roughnessFactor":0.5
			}
		},
		{
			"doubleSided":true,
			"name":"Material.047",
			"pbrMetallicRoughness":{
				"baseColorFactor":[
					0.2653980851173401,
					0.2654016613960266,
					0.2654016613960266,
					1
				],
				"metallicFactor":0,
				"roughnessFactor":0.5
			}
		},
		{
			"doubleSided":true,
			"name":"Material.048",
			"pbrMetallicRoughness":{
				"baseColorFactor":[
					0.2653980851173401,
					0.2654016613960266,
					0.2654016613960266,
					1
				],
				"metallicFactor":0,
				"roughnessFactor":0.5
			}
		}
	],
	"meshes":[
		{
			"name":"Cylinder.039",
			"primitives":[
				{
					"attributes":{
						"POSITION":0,
						"NORMAL":1,
						"TEXCOORD_0":2
					},
					"indices":3,
					"material":0
				},
				{
					"attributes":{
						"POSITION":4,
						"NORMAL":5,
						"TEXCOORD_0":6
					},
					"indices":7,
					"material":1
				},
				{
					"attributes":{
						"POSITION":8,
						"NORMAL":9,
						"TEXCOORD_0":10
					},
					"indices":11,
					"material":2
				},
				{
					"attributes":{
						"POSITION":12,
						"NORMAL":13,
						"TEXCOORD_0":14
					},
					"indices":11,
					"material":3
				}
			]
		}
	],
	"textures":[
		{
			"sampler":0,
			"source":0
		}
	],
	"images":[
		{
			"mimeType":"image/jpeg",
			"name":"sauce_",
			"uri":"sauce_.jpg"
		}
	],
	"accessors":[
		{
			"bufferView":0,
			"componentType":5126,
			"count":7160,
			"max":[
				11.681093215942383,
				77.3753890991211,
				22.426544189453125
			],
			"min":[
				6.261791229248047,
				-74.419921875,
				-22.168437957763672
			],
			"type":"VEC3"
		},
		{
			"bufferView":1,
			"componentType":5126,
			"count":7160,
			"type":"VEC3"
		},
		{
			"bufferView":2,
			"componentType":5126,
			"count":7160,
			"type":"VEC2"
		},
		{
			"bufferView":3,
			"componentType":5123,
			"count":11088,
			"type":"SCALAR"
		},
		{
			"bufferView":4,
			"componentType":5126,
			"count":144,
			"max":[
				14.119622230529785,
				86.10519409179688,
				25.89736557006836
			],
			"min":[
				-11.09610652923584,
				-88.1322021484375,
				-26.208642959594727
			],
			"type":"VEC3"
		},
		{
			"bufferView":5,
			"componentType":5126,
			"count":144,
			"type":"VEC3"
		},
		{
			"bufferView":6,
			"componentType":5126,
			"count":144,
			"type":"VEC2"
		},
		{
			"bufferView":7,
			"componentType":5123,
			"count":216,
			"type":"SCALAR"
		},
		{
			"bufferView":8,
			"componentType":5126,
			"count":24,
			"max":[
				12.69016170501709,
				47.80288314819336,
				25.133777618408203
			],
			"min":[
				-9.809840202331543,
				38.98932647705078,
				-24.86622428894043
			],
			"type":"VEC3"
		},
		{
			"bufferView":9,
			"componentType":5126,
			"count":24,
			"type":"VEC3"
		},
		{
			"bufferView":10,
			"componentType":5126,
			"count":24,
			"type":"VEC2"
		},
		{
			"bufferView":11,
			"componentType":5123,
			"count":36,
			"type":"SCALAR"
		},
		{
			"bufferView":12,
			"componentType":5126,
			"count":24,
			"max":[
				12.69016170501709,
				5.430004119873047,
				25.133777618408203
			],
			"min":[
				-9.809842109680176,
				-3.3835525512695312,
				-24.86622428894043
			],
			"type":"VEC3"
		},
		{
			"bufferView":13,
			"componentType":5126,
			"count":24,
			"type":"VEC3"
		},
		{
			"bufferView":14,
			"componentType":5126,
			"count":24,
			"type":"VEC2"
		}
	],
	"bufferViews":[
		{
			"buffer":0,
			"byteLength":85920,
			"byteOffset":0,
			"target":34962
		},
		{
			"buffer":0,
			"byteLength":85920,
			"byteOffset":85920,
			"target":34962
		},
		{
			"buffer":0,
			"byteLength":57280,
			"byteOffset":171840,
			"target":34962
		},
		{
			"buffer":0,
			"byteLength":22176,
			"byteOffset":229120,
			"target":34963
		},
		{
			"buffer":0,
			"byteLength":1728,
			"byteOffset":251296,
			"target":34962
		},
		{
			"buffer":0,
			"byteLength":1728,
			"byteOffset":253024,
			"target":34962
		},
		{
			"buffer":0,
			"byteLength":1152,
			"byteOffset":254752,
			"target":34962
		},
		{
			"buffer":0,
			"byteLength":432,
			"byteOffset":255904,
			"target":34963
		},
		{
			"buffer":0,
			"byteLength":288,
			"byteOffset":256336,
			"target":34962
		},
		{
			"buffer":0,
			"byteLength":288,
			"byteOffset":256624,
			"target":34962
		},
		{
			"buffer":0,
			"byteLength":192,
			"byteOffset":256912,
			"target":34962
		},
		{
			"buffer":0,
			"byteLength":72,
			"byteOffset":257104,
			"target":34963
		},
		{
			"buffer":0,
			"byteLength":288,
			"byteOffset":257176,
			"target":34962
		},
		{
			"buffer":0,
			"byteLength":288,
			"byteOffset":257464,
			"target":34962
		},
		{
			"buffer":0,
			"byteLength":192,
			"byteOffset":257752,
			"target":34962
		}
	],
	"samplers":[
		{
			"magFilter":9729,
			"minFilter":9987
		}
	],
	"buffers":[
		{
			"byteLength":257944,
			"uri":"mustard_sauce_shelf.bin"
		}
	]
}
