{
	"asset":{
		"generator":"Khronos glTF Blender I/O v4.2.60",
		"version":"2.0"
	},
	"scene":0,
	"scenes":[
		{
			"name":"Scene",
			"nodes":[
				0
			]
		}
	],
	"nodes":[
		{
			"mesh":0,
			"name":"Cylinder.004",
			"rotation":[
				1,
				0,
				0,
				0
			],
			"scale":[
				-0.1599999964237213,
				-0.05900000035762787,
				-0.1599999964237213
			]
		}
	],
	"materials":[
		{
			"doubleSided":true,
			"name":"Material.049",
			"pbrMetallicRoughness":{
				"baseColorTexture":{
					"index":0
				},
				"metallicFactor":0
			}
		},
		{
			"doubleSided":true,
			"name":"Material.046",
			"pbrMetallicRoughness":{
				"baseColorFactor":[
					0.2653980851173401,
					0.2654016613960266,
					0.2654016613960266,
					1
				],
				"metallicFactor":0,
				"roughnessFactor":0.5
			}
		},
		{
			"doubleSided":true,
			"name":"Material.047",
			"pbrMetallicRoughness":{
				"baseColorFactor":[
					0.2653980851173401,
					0.2654016613960266,
					0.2654016613960266,
					1
				],
				"metallicFactor":0,
				"roughnessFactor":0.5
			}
		},
		{
			"doubleSided":true,
			"name":"Material.048",
			"pbrMetallicRoughness":{
				"baseColorFactor":[
					0.2653980851173401,
					0.2654016613960266,
					0.2654016613960266,
					1
				],
				"metallicFactor":0,
				"roughnessFactor":0.5
			}
		}
	],
	"meshes":[
		{
			"name":"Cylinder.039",
			"primitives":[
				{
					"attributes":{
						"POSITION":0,
						"NORMAL":1,
						"TEXCOORD_0":2
					},
					"indices":3,
					"material":0
				},
				{
					"attributes":{
						"POSITION":4,
						"NORMAL":5,
						"TEXCOORD_0":6
					},
					"indices":7,
					"material":1
				},
				{
					"attributes":{
						"POSITION":8,
						"NORMAL":9,
						"TEXCOORD_0":10
					},
					"indices":11,
					"material":2
				},
				{
					"attributes":{
						"POSITION":12,
						"NORMAL":13,
						"TEXCOORD_0":14
					},
					"indices":11,
					"material":3
				}
			]
		}
	],
	"textures":[
		{
			"sampler":0,
			"source":0
		}
	],
	"images":[
		{
			"mimeType":"image/jpeg",
			"name":"sauce_",
			"uri":"sauce_.jpg"
		}
	],
	"accessors":[
		{
			"bufferView":0,
			"componentType":5126,
			"count":7158,
			"max":[
				2.7059836387634277,
				27.930150985717773,
				41.440826416015625
			],
			"min":[
				-2.7133188247680664,
				-123.86515808105469,
				-3.1541554927825928
			],
			"type":"VEC3"
		},
		{
			"bufferView":1,
			"componentType":5126,
			"count":7158,
			"type":"VEC3"
		},
		{
			"bufferView":2,
			"componentType":5126,
			"count":7158,
			"type":"VEC2"
		},
		{
			"bufferView":3,
			"componentType":5123,
			"count":11088,
			"type":"SCALAR"
		},
		{
			"bufferView":4,
			"componentType":5126,
			"count":144,
			"max":[
				5.144512176513672,
				36.65995407104492,
				44.91164779663086
			],
			"min":[
				-20.071216583251953,
				-137.5774383544922,
				-7.194360733032227
			],
			"type":"VEC3"
		},
		{
			"bufferView":5,
			"componentType":5126,
			"count":144,
			"type":"VEC3"
		},
		{
			"bufferView":6,
			"componentType":5126,
			"count":144,
			"type":"VEC2"
		},
		{
			"bufferView":7,
			"componentType":5123,
			"count":216,
			"type":"SCALAR"
		},
		{
			"bufferView":8,
			"componentType":5126,
			"count":24,
			"max":[
				3.7150516510009766,
				-1.6423568725585938,
				44.1480598449707
			],
			"min":[
				-18.784950256347656,
				-10.455913543701172,
				-5.85194206237793
			],
			"type":"VEC3"
		},
		{
			"bufferView":9,
			"componentType":5126,
			"count":24,
			"type":"VEC3"
		},
		{
			"bufferView":10,
			"componentType":5126,
			"count":24,
			"type":"VEC2"
		},
		{
			"bufferView":11,
			"componentType":5123,
			"count":36,
			"type":"SCALAR"
		},
		{
			"bufferView":12,
			"componentType":5126,
			"count":24,
			"max":[
				3.7150516510009766,
				-44.015235900878906,
				44.1480598449707
			],
			"min":[
				-18.78495216369629,
				-52.828792572021484,
				-5.85194206237793
			],
			"type":"VEC3"
		},
		{
			"bufferView":13,
			"componentType":5126,
			"count":24,
			"type":"VEC3"
		},
		{
			"bufferView":14,
			"componentType":5126,
			"count":24,
			"type":"VEC2"
		}
	],
	"bufferViews":[
		{
			"buffer":0,
			"byteLength":85896,
			"byteOffset":0,
			"target":34962
		},
		{
			"buffer":0,
			"byteLength":85896,
			"byteOffset":85896,
			"target":34962
		},
		{
			"buffer":0,
			"byteLength":57264,
			"byteOffset":171792,
			"target":34962
		},
		{
			"buffer":0,
			"byteLength":22176,
			"byteOffset":229056,
			"target":34963
		},
		{
			"buffer":0,
			"byteLength":1728,
			"byteOffset":251232,
			"target":34962
		},
		{
			"buffer":0,
			"byteLength":1728,
			"byteOffset":252960,
			"target":34962
		},
		{
			"buffer":0,
			"byteLength":1152,
			"byteOffset":254688,
			"target":34962
		},
		{
			"buffer":0,
			"byteLength":432,
			"byteOffset":255840,
			"target":34963
		},
		{
			"buffer":0,
			"byteLength":288,
			"byteOffset":256272,
			"target":34962
		},
		{
			"buffer":0,
			"byteLength":288,
			"byteOffset":256560,
			"target":34962
		},
		{
			"buffer":0,
			"byteLength":192,
			"byteOffset":256848,
			"target":34962
		},
		{
			"buffer":0,
			"byteLength":72,
			"byteOffset":257040,
			"target":34963
		},
		{
			"buffer":0,
			"byteLength":288,
			"byteOffset":257112,
			"target":34962
		},
		{
			"buffer":0,
			"byteLength":288,
			"byteOffset":257400,
			"target":34962
		},
		{
			"buffer":0,
			"byteLength":192,
			"byteOffset":257688,
			"target":34962
		}
	],
	"samplers":[
		{
			"magFilter":9729,
			"minFilter":9987
		}
	],
	"buffers":[
		{
			"byteLength":257880,
			"uri":"mustard_sauce_shelf.bin"
		}
	]
}
