{
	"asset":{
		"generator":"Khronos glTF Blender I/O v4.2.60",
		"version":"2.0"
	},
	"scene":0,
	"scenes":[
		{
			"name":"Scene",
			"nodes":[
				0
			]
		}
	],
	"nodes":[
		{
			"mesh":0,
			"name":"CashRegister_mesh",
			"scale":[
				0.25,
				0.25,
				0.25
			]
		}
	],
	"materials":[
		{
			"name":"CashRegister_mat",
			"pbrMetallicRoughness":{
				"baseColorTexture":{
					"index":0
				},
				"metallicFactor":0
			}
		}
	],
	"meshes":[
		{
			"name":"CashRegister_mesh_1",
			"primitives":[
				{
					"attributes":{
						"POSITION":0,
						"NORMAL":1,
						"TEXCOORD_0":2
					},
					"indices":3,
					"material":0
				}
			]
		}
	],
	"textures":[
		{
			"sampler":0,
			"source":0
		}
	],
	"images":[
		{
			"mimeType":"image/png",
			"name":"CashRegister_BaseColor",
			"uri":"CashRegister_BaseColor.png"
		}
	],
	"accessors":[
		{
			"bufferView":0,
			"componentType":5126,
			"count":6818,
			"max":[
				6.40846586227417,
				12.317410469055176,
				6.178469181060791
			],
			"min":[
				-6.472299098968506,
				0,
				-5.3525390625
			],
			"type":"VEC3"
		},
		{
			"bufferView":1,
			"componentType":5126,
			"count":6818,
			"type":"VEC3"
		},
		{
			"bufferView":2,
			"componentType":5126,
			"count":6818,
			"type":"VEC2"
		},
		{
			"bufferView":3,
			"componentType":5123,
			"count":9582,
			"type":"SCALAR"
		}
	],
	"bufferViews":[
		{
			"buffer":0,
			"byteLength":81816,
			"byteOffset":0,
			"target":34962
		},
		{
			"buffer":0,
			"byteLength":81816,
			"byteOffset":81816,
			"target":34962
		},
		{
			"buffer":0,
			"byteLength":54544,
			"byteOffset":163632,
			"target":34962
		},
		{
			"buffer":0,
			"byteLength":19164,
			"byteOffset":218176,
			"target":34963
		}
	],
	"samplers":[
		{
			"magFilter":9729,
			"minFilter":9987
		}
	],
	"buffers":[
		{
			"byteLength":237340,
			"uri":"cash_register.bin"
		}
	]
}
