{
	"asset":{
		"generator":"Khronos glTF Blender I/O v4.2.60",
		"version":"2.0"
	},
	"scene":0,
	"scenes":[
		{
			"name":"Scene",
			"nodes":[
				0,
				1,
				2,
				3,
				4,
				5,
				6,
				7,
				8,
				9,
				10
			]
		}
	],
	"nodes":[
		{
			"mesh":0,
			"name":"CashRegister_mesh",
			"scale":[
				0.08193832635879517,
				0.08193832635879517,
				0.08193832635879517
			],
			"translation":[
				0.8700000047683716,
				3.2300000190734863,
				1.0299999713897705
			]
		},
		{
			"mesh":1,
			"name":"counter",
			"translation":[
				1,
				2,
				1.7000000476837158
			]
		},
		{
			"mesh":2,
			"name":"counterBottom",
			"scale":[
				0.8793081641197205,
				0.6499999761581421,
				0.9293079972267151
			],
			"translation":[
				0.8768789768218994,
				1.4173892736434937,
				1.8734077215194702
			]
		},
		{
			"mesh":3,
			"name":"counterTop",
			"scale":[
				1.2599999904632568,
				0.6499999761581421,
				1.2999999523162842
			],
			"translation":[
				1.668015480041504,
				3.6492083072662354,
				1.7959628105163574
			]
		},
		{
			"mesh":4,
			"name":"counterTop.001",
			"scale":[
				1.100000023841858,
				0.6499999761581421,
				1.100000023841858
			],
			"translation":[
				1.4419761896133423,
				3.657930850982666,
				1.7124850749969482
			]
		},
		{
			"mesh":5,
			"name":"counterTop.002",
			"scale":[
				1.2200000286102295,
				0.6499999761581421,
				1.190000057220459
			],
			"translation":[
				1.668015480041504,
				3.659208297729492,
				1.7959628105163574
			]
		},
		{
			"mesh":6,
			"name":"counterTop.003",
			"rotation":[
				0,
				0,
				-1,
				0
			],
			"scale":[
				-1.2200000286102295,
				-0.6499999761581421,
				-1.190000057220459
			],
			"translation":[
				1.668015480041504,
				3.659208297729492,
				1.22481369972229
			]
		},
		{
			"mesh":7,
			"name":"counterTop.004",
			"rotation":[
				0,
				0,
				-1,
				0
			],
			"scale":[
				-1.100000023841858,
				-0.6499999761581421,
				-1.100000023841858
			],
			"translation":[
				1.4419761896133423,
				3.657930850982666,
				1.3082913160324097
			]
		},
		{
			"mesh":8,
			"name":"counterTop.005",
			"rotation":[
				0,
				0,
				-1,
				0
			],
			"scale":[
				-1.2599999904632568,
				-0.6499999761581421,
				-1.2999999523162842
			],
			"translation":[
				1.668015480041504,
				3.6492083072662354,
				1.22481369972229
			]
		},
		{
			"mesh":9,
			"name":"counterBottom.001",
			"rotation":[
				0,
				0,
				-1,
				0
			],
			"scale":[
				-0.8793081641197205,
				-0.6499999761581421,
				-0.9293079972267151
			],
			"translation":[
				0.8768789768218994,
				1.417389154434204,
				1.1473687887191772
			]
		},
		{
			"mesh":10,
			"name":"counter.001",
			"rotation":[
				0,
				0,
				-1,
				0
			],
			"scale":[
				-1,
				-1,
				-1
			],
			"translation":[
				1,
				2,
				1.3207764625549316
			]
		}
	],
	"materials":[
		{
			"name":"CashRegister_mat",
			"pbrMetallicRoughness":{
				"baseColorTexture":{
					"index":0
				},
				"metallicFactor":0
			}
		},
		{
			"doubleSided":true,
			"name":"counterMaterial",
			"pbrMetallicRoughness":{
				"baseColorFactor":[
					0.8796178698539734,
					0.10702311992645264,
					0.07618546485900879,
					1
				],
				"metallicFactor":0,
				"roughnessFactor":0.5
			}
		},
		{
			"doubleSided":true,
			"name":"Material.001",
			"pbrMetallicRoughness":{
				"baseColorFactor":[
					0.09305838495492935,
					0.07036016881465912,
					0.059511274099349976,
					1
				],
				"metallicFactor":0,
				"roughnessFactor":0.5
			}
		},
		{
			"doubleSided":true,
			"name":"counterTopMaterial",
			"pbrMetallicRoughness":{
				"baseColorFactor":[
					0.7912929058074951,
					0.7758229970932007,
					0.768151581287384,
					1
				],
				"metallicFactor":0,
				"roughnessFactor":0.5
			}
		},
		{
			"doubleSided":true,
			"name":"counterTopMaterial.001",
			"pbrMetallicRoughness":{
				"baseColorFactor":[
					0.49692967534065247,
					0.5028868913650513,
					0.5028866529464722,
					1
				],
				"metallicFactor":0,
				"roughnessFactor":0.5
			}
		},
		{
			"doubleSided":true,
			"name":"counterTopMaterial.004",
			"pbrMetallicRoughness":{
				"baseColorFactor":[
					0.09305838495492935,
					0.07036016881465912,
					0.059511274099349976,
					1
				],
				"metallicFactor":0,
				"roughnessFactor":0.5
			}
		},
		{
			"doubleSided":true,
			"name":"counterTopMaterial.005",
			"pbrMetallicRoughness":{
				"baseColorFactor":[
					0.09305838495492935,
					0.07036016881465912,
					0.059511274099349976,
					1
				],
				"metallicFactor":0,
				"roughnessFactor":0.5
			}
		},
		{
			"doubleSided":true,
			"name":"counterTopMaterial.006",
			"pbrMetallicRoughness":{
				"baseColorFactor":[
					0.49692967534065247,
					0.5028868913650513,
					0.5028866529464722,
					1
				],
				"metallicFactor":0,
				"roughnessFactor":0.5
			}
		},
		{
			"doubleSided":true,
			"name":"counterTopMaterial.007",
			"pbrMetallicRoughness":{
				"baseColorFactor":[
					0.7912929058074951,
					0.7758229970932007,
					0.768151581287384,
					1
				],
				"metallicFactor":0,
				"roughnessFactor":0.5
			}
		},
		{
			"doubleSided":true,
			"name":"Material.003",
			"pbrMetallicRoughness":{
				"baseColorFactor":[
					0.09305838495492935,
					0.07036016881465912,
					0.059511274099349976,
					1
				],
				"metallicFactor":0,
				"roughnessFactor":0.5
			}
		},
		{
			"doubleSided":true,
			"name":"counterMaterial.002",
			"pbrMetallicRoughness":{
				"baseColorFactor":[
					0.8796178698539734,
					0.10702311992645264,
					0.07618546485900879,
					1
				],
				"metallicFactor":0,
				"roughnessFactor":0.5
			}
		}
	],
	"meshes":[
		{
			"name":"CashRegister_mesh_1",
			"primitives":[
				{
					"attributes":{
						"POSITION":0,
						"NORMAL":1,
						"TEXCOORD_0":2
					},
					"indices":3,
					"material":0
				}
			]
		},
		{
			"name":"Cube.003",
			"primitives":[
				{
					"attributes":{
						"POSITION":4,
						"NORMAL":5,
						"TEXCOORD_0":6
					},
					"indices":7,
					"material":1
				}
			]
		},
		{
			"name":"Cube.005",
			"primitives":[
				{
					"attributes":{
						"POSITION":8,
						"NORMAL":9,
						"TEXCOORD_0":10
					},
					"indices":11,
					"material":2
				}
			]
		},
		{
			"name":"Cube.007",
			"primitives":[
				{
					"attributes":{
						"POSITION":12,
						"NORMAL":13,
						"TEXCOORD_0":14
					},
					"indices":11,
					"material":3
				}
			]
		},
		{
			"name":"Cube.008",
			"primitives":[
				{
					"attributes":{
						"POSITION":15,
						"NORMAL":16,
						"TEXCOORD_0":17
					},
					"indices":18,
					"material":4
				}
			]
		},
		{
			"name":"Cube.013",
			"primitives":[
				{
					"attributes":{
						"POSITION":19,
						"NORMAL":20,
						"TEXCOORD_0":21
					},
					"indices":22,
					"material":5
				}
			]
		},
		{
			"name":"Cube.014",
			"primitives":[
				{
					"attributes":{
						"POSITION":23,
						"NORMAL":24,
						"TEXCOORD_0":25
					},
					"indices":22,
					"material":6
				}
			]
		},
		{
			"name":"Cube.015",
			"primitives":[
				{
					"attributes":{
						"POSITION":26,
						"NORMAL":27,
						"TEXCOORD_0":28
					},
					"indices":18,
					"material":7
				}
			]
		},
		{
			"name":"Cube.016",
			"primitives":[
				{
					"attributes":{
						"POSITION":29,
						"NORMAL":30,
						"TEXCOORD_0":31
					},
					"indices":11,
					"material":8
				}
			]
		},
		{
			"name":"Cube.017",
			"primitives":[
				{
					"attributes":{
						"POSITION":32,
						"NORMAL":33,
						"TEXCOORD_0":34
					},
					"indices":11,
					"material":9
				}
			]
		},
		{
			"name":"Cube.018",
			"primitives":[
				{
					"attributes":{
						"POSITION":35,
						"NORMAL":36,
						"TEXCOORD_0":37
					},
					"indices":7,
					"material":10
				}
			]
		}
	],
	"textures":[
		{
			"sampler":0,
			"source":0
		}
	],
	"images":[
		{
			"mimeType":"image/png",
			"name":"CashRegister_BaseColor",
			"uri":"CashRegister_BaseColor.png"
		}
	],
	"accessors":[
		{
			"bufferView":0,
			"componentType":5126,
			"count":6818,
			"max":[
				6.40846586227417,
				12.317410469055176,
				6.178469181060791
			],
			"min":[
				-6.472299098968506,
				0,
				-5.3525390625
			],
			"type":"VEC3"
		},
		{
			"bufferView":1,
			"componentType":5126,
			"count":6818,
			"type":"VEC3"
		},
		{
			"bufferView":2,
			"componentType":5126,
			"count":6818,
			"type":"VEC2"
		},
		{
			"bufferView":3,
			"componentType":5123,
			"count":9582,
			"type":"SCALAR"
		},
		{
			"bufferView":4,
			"componentType":5126,
			"count":82,
			"max":[
				2.992588996887207,
				1,
				-0.18875914812088013
			],
			"min":[
				-3.866603374481201,
				-1,
				-1
			],
			"type":"VEC3"
		},
		{
			"bufferView":5,
			"componentType":5126,
			"count":82,
			"type":"VEC3"
		},
		{
			"bufferView":6,
			"componentType":5126,
			"count":82,
			"type":"VEC2"
		},
		{
			"bufferView":7,
			"componentType":5123,
			"count":228,
			"type":"SCALAR"
		},
		{
			"bufferView":8,
			"componentType":5126,
			"count":82,
			"max":[
				3.2439727783203125,
				-0.6383081674575806,
				-0.3898368179798126
			],
			"min":[
				-3.866603374481201,
				-1,
				-1
			],
			"type":"VEC3"
		},
		{
			"bufferView":9,
			"componentType":5126,
			"count":82,
			"type":"VEC3"
		},
		{
			"bufferView":10,
			"componentType":5126,
			"count":82,
			"type":"VEC2"
		},
		{
			"bufferView":11,
			"componentType":5123,
			"count":228,
			"type":"SCALAR"
		},
		{
			"bufferView":12,
			"componentType":5126,
			"count":82,
			"max":[
				2.0200963020324707,
				-0.6383081674575806,
				-0.21939285099506378
			],
			"min":[
				-3.866603374481201,
				-1,
				-1
			],
			"type":"VEC3"
		},
		{
			"bufferView":13,
			"componentType":5126,
			"count":82,
			"type":"VEC3"
		},
		{
			"bufferView":14,
			"componentType":5126,
			"count":82,
			"type":"VEC2"
		},
		{
			"bufferView":15,
			"componentType":5126,
			"count":6,
			"max":[
				-1.3321809768676758,
				-0.6383081674575806,
				-0.18380388617515564
			],
			"min":[
				-3.866603374481201,
				-0.6383081674575806,
				-1.0090909004211426
			],
			"type":"VEC3"
		},
		{
			"bufferView":16,
			"componentType":5126,
			"count":6,
			"type":"VEC3"
		},
		{
			"bufferView":17,
			"componentType":5126,
			"count":6,
			"type":"VEC2"
		},
		{
			"bufferView":18,
			"componentType":5123,
			"count":12,
			"type":"SCALAR"
		},
		{
			"bufferView":19,
			"componentType":5126,
			"count":16,
			"max":[
				2.0200963020324707,
				-0.6383081674575806,
				-0.23813875019550323
			],
			"min":[
				0.0062337517738342285,
				-0.6383081674575806,
				-1
			],
			"type":"VEC3"
		},
		{
			"bufferView":20,
			"componentType":5126,
			"count":16,
			"type":"VEC3"
		},
		{
			"bufferView":21,
			"componentType":5126,
			"count":16,
			"type":"VEC2"
		},
		{
			"bufferView":22,
			"componentType":5123,
			"count":54,
			"type":"SCALAR"
		},
		{
			"bufferView":23,
			"componentType":5126,
			"count":16,
			"max":[
				2.0200963020324707,
				-0.6383081674575806,
				-0.23813875019550323
			],
			"min":[
				0.0062337517738342285,
				-0.6383081674575806,
				-1
			],
			"type":"VEC3"
		},
		{
			"bufferView":24,
			"componentType":5126,
			"count":16,
			"type":"VEC3"
		},
		{
			"bufferView":25,
			"componentType":5126,
			"count":16,
			"type":"VEC2"
		},
		{
			"bufferView":26,
			"componentType":5126,
			"count":6,
			"max":[
				-1.3321809768676758,
				-0.6383081674575806,
				-0.18380388617515564
			],
			"min":[
				-3.866603374481201,
				-0.6383081674575806,
				-1.0090909004211426
			],
			"type":"VEC3"
		},
		{
			"bufferView":27,
			"componentType":5126,
			"count":6,
			"type":"VEC3"
		},
		{
			"bufferView":28,
			"componentType":5126,
			"count":6,
			"type":"VEC2"
		},
		{
			"bufferView":29,
			"componentType":5126,
			"count":82,
			"max":[
				2.0200963020324707,
				-0.6383081674575806,
				-0.21939285099506378
			],
			"min":[
				-3.866603374481201,
				-1,
				-1
			],
			"type":"VEC3"
		},
		{
			"bufferView":30,
			"componentType":5126,
			"count":82,
			"type":"VEC3"
		},
		{
			"bufferView":31,
			"componentType":5126,
			"count":82,
			"type":"VEC2"
		},
		{
			"bufferView":32,
			"componentType":5126,
			"count":82,
			"max":[
				3.2439727783203125,
				-0.6383081674575806,
				-0.3898368179798126
			],
			"min":[
				-3.866603374481201,
				-1,
				-1
			],
			"type":"VEC3"
		},
		{
			"bufferView":33,
			"componentType":5126,
			"count":82,
			"type":"VEC3"
		},
		{
			"bufferView":34,
			"componentType":5126,
			"count":82,
			"type":"VEC2"
		},
		{
			"bufferView":35,
			"componentType":5126,
			"count":82,
			"max":[
				2.992588996887207,
				1,
				-0.18875914812088013
			],
			"min":[
				-3.866603374481201,
				-1,
				-1
			],
			"type":"VEC3"
		},
		{
			"bufferView":36,
			"componentType":5126,
			"count":82,
			"type":"VEC3"
		},
		{
			"bufferView":37,
			"componentType":5126,
			"count":82,
			"type":"VEC2"
		}
	],
	"bufferViews":[
		{
			"buffer":0,
			"byteLength":81816,
			"byteOffset":0,
			"target":34962
		},
		{
			"buffer":0,
			"byteLength":81816,
			"byteOffset":81816,
			"target":34962
		},
		{
			"buffer":0,
			"byteLength":54544,
			"byteOffset":163632,
			"target":34962
		},
		{
			"buffer":0,
			"byteLength":19164,
			"byteOffset":218176,
			"target":34963
		},
		{
			"buffer":0,
			"byteLength":984,
			"byteOffset":237340,
			"target":34962
		},
		{
			"buffer":0,
			"byteLength":984,
			"byteOffset":238324,
			"target":34962
		},
		{
			"buffer":0,
			"byteLength":656,
			"byteOffset":239308,
			"target":34962
		},
		{
			"buffer":0,
			"byteLength":456,
			"byteOffset":239964,
			"target":34963
		},
		{
			"buffer":0,
			"byteLength":984,
			"byteOffset":240420,
			"target":34962
		},
		{
			"buffer":0,
			"byteLength":984,
			"byteOffset":241404,
			"target":34962
		},
		{
			"buffer":0,
			"byteLength":656,
			"byteOffset":242388,
			"target":34962
		},
		{
			"buffer":0,
			"byteLength":456,
			"byteOffset":243044,
			"target":34963
		},
		{
			"buffer":0,
			"byteLength":984,
			"byteOffset":243500,
			"target":34962
		},
		{
			"buffer":0,
			"byteLength":984,
			"byteOffset":244484,
			"target":34962
		},
		{
			"buffer":0,
			"byteLength":656,
			"byteOffset":245468,
			"target":34962
		},
		{
			"buffer":0,
			"byteLength":72,
			"byteOffset":246124,
			"target":34962
		},
		{
			"buffer":0,
			"byteLength":72,
			"byteOffset":246196,
			"target":34962
		},
		{
			"buffer":0,
			"byteLength":48,
			"byteOffset":246268,
			"target":34962
		},
		{
			"buffer":0,
			"byteLength":24,
			"byteOffset":246316,
			"target":34963
		},
		{
			"buffer":0,
			"byteLength":192,
			"byteOffset":246340,
			"target":34962
		},
		{
			"buffer":0,
			"byteLength":192,
			"byteOffset":246532,
			"target":34962
		},
		{
			"buffer":0,
			"byteLength":128,
			"byteOffset":246724,
			"target":34962
		},
		{
			"buffer":0,
			"byteLength":108,
			"byteOffset":246852,
			"target":34963
		},
		{
			"buffer":0,
			"byteLength":192,
			"byteOffset":246960,
			"target":34962
		},
		{
			"buffer":0,
			"byteLength":192,
			"byteOffset":247152,
			"target":34962
		},
		{
			"buffer":0,
			"byteLength":128,
			"byteOffset":247344,
			"target":34962
		},
		{
			"buffer":0,
			"byteLength":72,
			"byteOffset":247472,
			"target":34962
		},
		{
			"buffer":0,
			"byteLength":72,
			"byteOffset":247544,
			"target":34962
		},
		{
			"buffer":0,
			"byteLength":48,
			"byteOffset":247616,
			"target":34962
		},
		{
			"buffer":0,
			"byteLength":984,
			"byteOffset":247664,
			"target":34962
		},
		{
			"buffer":0,
			"byteLength":984,
			"byteOffset":248648,
			"target":34962
		},
		{
			"buffer":0,
			"byteLength":656,
			"byteOffset":249632,
			"target":34962
		},
		{
			"buffer":0,
			"byteLength":984,
			"byteOffset":250288,
			"target":34962
		},
		{
			"buffer":0,
			"byteLength":984,
			"byteOffset":251272,
			"target":34962
		},
		{
			"buffer":0,
			"byteLength":656,
			"byteOffset":252256,
			"target":34962
		},
		{
			"buffer":0,
			"byteLength":984,
			"byteOffset":252912,
			"target":34962
		},
		{
			"buffer":0,
			"byteLength":984,
			"byteOffset":253896,
			"target":34962
		},
		{
			"buffer":0,
			"byteLength":656,
			"byteOffset":254880,
			"target":34962
		}
	],
	"samplers":[
		{
			"magFilter":9729,
			"minFilter":9987
		}
	],
	"buffers":[
		{
			"byteLength":255536,
			"uri":"cashier_counter.bin"
		}
	]
}
