{
	"asset":{
		"generator":"Khronos glTF Blender I/O v4.2.60",
		"version":"2.0"
	},
	"scene":0,
	"scenes":[
		{
			"name":"Scene",
			"nodes":[
				0
			]
		}
	],
	"nodes":[
		{
			"mesh":0,
			"name":"casherCounter",
			"scale":[
				1.2599999904632568,
				0.6499999761581421,
				1.2999999523162842
			],
			"translation":[
				-0.627444863319397,
				0.14686357975006104,
				-0.009823894128203392
			]
		}
	],
	"materials":[
		{
			"doubleSided":true,
			"name":"counterTopMaterial",
			"pbrMetallicRoughness":{
				"baseColorFactor":[
					0.7912929058074951,
					0.7758229970932007,
					0.768151581287384,
					1
				],
				"metallicFactor":0,
				"roughnessFactor":0.5
			}
		},
		{
			"doubleSided":true,
			"name":"counterTopMaterial.008",
			"pbrMetallicRoughness":{
				"baseColorFactor":[
					0.7912929058074951,
					0.7758229970932007,
					0.768151581287384,
					1
				],
				"metallicFactor":0,
				"roughnessFactor":0.5
			}
		},
		{
			"doubleSided":true,
			"name":"counterMaterial.001",
			"pbrMetallicRoughness":{
				"baseColorFactor":[
					0.8796178698539734,
					0.10702311992645264,
					0.07618546485900879,
					1
				],
				"metallicFactor":0,
				"roughnessFactor":0.5
			}
		},
		{
			"doubleSided":true,
			"name":"counterMaterial",
			"pbrMetallicRoughness":{
				"baseColorFactor":[
					0.8796178698539734,
					0.10702311992645264,
					0.07618546485900879,
					1
				],
				"metallicFactor":0,
				"roughnessFactor":0.5
			}
		},
		{
			"doubleSided":true,
			"name":"Material.001",
			"pbrMetallicRoughness":{
				"baseColorFactor":[
					0.09305838495492935,
					0.07036016881465912,
					0.059511274099349976,
					1
				],
				"metallicFactor":0,
				"roughnessFactor":0.5
			}
		},
		{
			"doubleSided":true,
			"name":"Material.002",
			"pbrMetallicRoughness":{
				"baseColorFactor":[
					0.09305838495492935,
					0.07036016881465912,
					0.059511274099349976,
					1
				],
				"metallicFactor":0,
				"roughnessFactor":0.5
			}
		},
		{
			"doubleSided":true,
			"name":"counterTopMaterial.001",
			"pbrMetallicRoughness":{
				"baseColorFactor":[
					0.49692967534065247,
					0.5028868913650513,
					0.5028866529464722,
					1
				],
				"metallicFactor":0,
				"roughnessFactor":0.5
			}
		},
		{
			"doubleSided":true,
			"name":"counterTopMaterial.003",
			"pbrMetallicRoughness":{
				"baseColorFactor":[
					0.49692967534065247,
					0.5028868913650513,
					0.5028866529464722,
					1
				],
				"metallicFactor":0,
				"roughnessFactor":0.5
			}
		},
		{
			"doubleSided":true,
			"name":"counterTopMaterial.004",
			"pbrMetallicRoughness":{
				"baseColorFactor":[
					0.09305838495492935,
					0.07036016881465912,
					0.059511274099349976,
					1
				],
				"metallicFactor":0,
				"roughnessFactor":0.5
			}
		},
		{
			"doubleSided":true,
			"name":"counterTopMaterial.002",
			"pbrMetallicRoughness":{
				"baseColorFactor":[
					0.09305838495492935,
					0.07036016881465912,
					0.059511274099349976,
					1
				],
				"metallicFactor":0,
				"roughnessFactor":0.5
			}
		}
	],
	"meshes":[
		{
			"name":"Cube.007",
			"primitives":[
				{
					"attributes":{
						"POSITION":0,
						"NORMAL":1,
						"TEXCOORD_0":2
					},
					"indices":3,
					"material":0
				},
				{
					"attributes":{
						"POSITION":4,
						"NORMAL":5,
						"TEXCOORD_0":6
					},
					"indices":3,
					"material":1
				},
				{
					"attributes":{
						"POSITION":7,
						"NORMAL":8,
						"TEXCOORD_0":9
					},
					"indices":10,
					"material":2
				},
				{
					"attributes":{
						"POSITION":11,
						"NORMAL":12,
						"TEXCOORD_0":13
					},
					"indices":10,
					"material":3
				},
				{
					"attributes":{
						"POSITION":14,
						"NORMAL":15,
						"TEXCOORD_0":16
					},
					"indices":3,
					"material":4
				},
				{
					"attributes":{
						"POSITION":17,
						"NORMAL":18,
						"TEXCOORD_0":19
					},
					"indices":3,
					"material":5
				},
				{
					"attributes":{
						"POSITION":20,
						"NORMAL":21,
						"TEXCOORD_0":22
					},
					"indices":23,
					"material":6
				},
				{
					"attributes":{
						"POSITION":24,
						"NORMAL":25,
						"TEXCOORD_0":26
					},
					"indices":23,
					"material":7
				},
				{
					"attributes":{
						"POSITION":27,
						"NORMAL":28,
						"TEXCOORD_0":29
					},
					"indices":30,
					"material":8
				},
				{
					"attributes":{
						"POSITION":31,
						"NORMAL":32,
						"TEXCOORD_0":33
					},
					"indices":30,
					"material":9
				}
			]
		}
	],
	"accessors":[
		{
			"bufferView":0,
			"componentType":5126,
			"count":82,
			"max":[
				2.9017391204833984,
				1.751099944114685,
				0.009034181945025921
			],
			"min":[
				-2.9849605560302734,
				1.3894081115722656,
				-0.771573007106781
			],
			"type":"VEC3"
		},
		{
			"bufferView":1,
			"componentType":5126,
			"count":82,
			"type":"VEC3"
		},
		{
			"bufferView":2,
			"componentType":5126,
			"count":82,
			"type":"VEC2"
		},
		{
			"bufferView":3,
			"componentType":5123,
			"count":228,
			"type":"SCALAR"
		},
		{
			"bufferView":4,
			"componentType":5126,
			"count":82,
			"max":[
				2.9017391204833984,
				1.7510998249053955,
				0.7715729475021362
			],
			"min":[
				-2.9849605560302734,
				1.389407992362976,
				-0.009034191258251667
			],
			"type":"VEC3"
		},
		{
			"bufferView":5,
			"componentType":5126,
			"count":82,
			"type":"VEC3"
		},
		{
			"bufferView":6,
			"componentType":5126,
			"count":82,
			"type":"VEC2"
		},
		{
			"bufferView":7,
			"componentType":5126,
			"count":82,
			"max":[
				2.6836025714874268,
				1.3891266584396362,
				0.6146785616874695
			],
			"min":[
				-2.7602009773254395,
				-1.6877964735031128,
				-0.009352881461381912
			],
			"type":"VEC3"
		},
		{
			"bufferView":8,
			"componentType":5126,
			"count":82,
			"type":"VEC3"
		},
		{
			"bufferView":9,
			"componentType":5126,
			"count":82,
			"type":"VEC2"
		},
		{
			"bufferView":10,
			"componentType":5123,
			"count":228,
			"type":"SCALAR"
		},
		{
			"bufferView":11,
			"componentType":5126,
			"count":82,
			"max":[
				2.6836025714874268,
				1.3891266584396362,
				0.009352890774607658
			],
			"min":[
				-2.7602009773254395,
				-1.6877964735031128,
				-0.6146785020828247
			],
			"type":"VEC3"
		},
		{
			"bufferView":12,
			"componentType":5126,
			"count":82,
			"type":"VEC3"
		},
		{
			"bufferView":13,
			"componentType":5126,
			"count":82,
			"type":"VEC2"
		},
		{
			"bufferView":14,
			"componentType":5126,
			"count":82,
			"max":[
				2.395397186279297,
				-1.6879090070724487,
				0.009350662119686604
			],
			"min":[
				-2.5668153762817383,
				-2.0496010780334473,
				-0.4268258810043335
			],
			"type":"VEC3"
		},
		{
			"bufferView":15,
			"componentType":5126,
			"count":82,
			"type":"VEC3"
		},
		{
			"bufferView":16,
			"componentType":5126,
			"count":82,
			"type":"VEC2"
		},
		{
			"bufferView":17,
			"componentType":5126,
			"count":82,
			"max":[
				2.395397186279297,
				-1.6879092454910278,
				0.42682597041130066
			],
			"min":[
				-2.5668153762817383,
				-2.0496010780334473,
				-0.009350622072815895
			],
			"type":"VEC3"
		},
		{
			"bufferView":18,
			"componentType":5126,
			"count":82,
			"type":"VEC3"
		},
		{
			"bufferView":19,
			"componentType":5126,
			"count":82,
			"type":"VEC2"
		},
		{
			"bufferView":20,
			"componentType":5126,
			"count":6,
			"max":[
				-0.6440966129302979,
				1.7552080154418945,
				0.010841568931937218
			],
			"min":[
				-2.856687545776367,
				1.7552080154418945,
				-0.6874781847000122
			],
			"type":"VEC3"
		},
		{
			"bufferView":21,
			"componentType":5126,
			"count":6,
			"type":"VEC3"
		},
		{
			"bufferView":22,
			"componentType":5126,
			"count":6,
			"type":"VEC2"
		},
		{
			"bufferView":23,
			"componentType":5123,
			"count":12,
			"type":"SCALAR"
		},
		{
			"bufferView":24,
			"componentType":5126,
			"count":6,
			"max":[
				-0.6440966129302979,
				1.7552080154418945,
				0.6874783039093018
			],
			"min":[
				-2.856687545776367,
				1.7552080154418945,
				-0.010841518640518188
			],
			"type":"VEC3"
		},
		{
			"bufferView":25,
			"componentType":5126,
			"count":6,
			"type":"VEC3"
		},
		{
			"bufferView":26,
			"componentType":5126,
			"count":6,
			"type":"VEC2"
		},
		{
			"bufferView":27,
			"componentType":5126,
			"count":16,
			"max":[
				2.828671932220459,
				1.7585418224334717,
				0.005483797285705805
			],
			"min":[
				0.8787415027618408,
				1.7585418224334717,
				-0.6919122934341431
			],
			"type":"VEC3"
		},
		{
			"bufferView":28,
			"componentType":5126,
			"count":16,
			"type":"VEC3"
		},
		{
			"bufferView":29,
			"componentType":5126,
			"count":16,
			"type":"VEC2"
		},
		{
			"bufferView":30,
			"componentType":5123,
			"count":54,
			"type":"SCALAR"
		},
		{
			"bufferView":31,
			"componentType":5126,
			"count":16,
			"max":[
				2.828671932220459,
				1.7585418224334717,
				0.6919121742248535
			],
			"min":[
				0.8787412643432617,
				1.7585418224334717,
				-0.005483899265527725
			],
			"type":"VEC3"
		},
		{
			"bufferView":32,
			"componentType":5126,
			"count":16,
			"type":"VEC3"
		},
		{
			"bufferView":33,
			"componentType":5126,
			"count":16,
			"type":"VEC2"
		}
	],
	"bufferViews":[
		{
			"buffer":0,
			"byteLength":984,
			"byteOffset":0,
			"target":34962
		},
		{
			"buffer":0,
			"byteLength":984,
			"byteOffset":984,
			"target":34962
		},
		{
			"buffer":0,
			"byteLength":656,
			"byteOffset":1968,
			"target":34962
		},
		{
			"buffer":0,
			"byteLength":456,
			"byteOffset":2624,
			"target":34963
		},
		{
			"buffer":0,
			"byteLength":984,
			"byteOffset":3080,
			"target":34962
		},
		{
			"buffer":0,
			"byteLength":984,
			"byteOffset":4064,
			"target":34962
		},
		{
			"buffer":0,
			"byteLength":656,
			"byteOffset":5048,
			"target":34962
		},
		{
			"buffer":0,
			"byteLength":984,
			"byteOffset":5704,
			"target":34962
		},
		{
			"buffer":0,
			"byteLength":984,
			"byteOffset":6688,
			"target":34962
		},
		{
			"buffer":0,
			"byteLength":656,
			"byteOffset":7672,
			"target":34962
		},
		{
			"buffer":0,
			"byteLength":456,
			"byteOffset":8328,
			"target":34963
		},
		{
			"buffer":0,
			"byteLength":984,
			"byteOffset":8784,
			"target":34962
		},
		{
			"buffer":0,
			"byteLength":984,
			"byteOffset":9768,
			"target":34962
		},
		{
			"buffer":0,
			"byteLength":656,
			"byteOffset":10752,
			"target":34962
		},
		{
			"buffer":0,
			"byteLength":984,
			"byteOffset":11408,
			"target":34962
		},
		{
			"buffer":0,
			"byteLength":984,
			"byteOffset":12392,
			"target":34962
		},
		{
			"buffer":0,
			"byteLength":656,
			"byteOffset":13376,
			"target":34962
		},
		{
			"buffer":0,
			"byteLength":984,
			"byteOffset":14032,
			"target":34962
		},
		{
			"buffer":0,
			"byteLength":984,
			"byteOffset":15016,
			"target":34962
		},
		{
			"buffer":0,
			"byteLength":656,
			"byteOffset":16000,
			"target":34962
		},
		{
			"buffer":0,
			"byteLength":72,
			"byteOffset":16656,
			"target":34962
		},
		{
			"buffer":0,
			"byteLength":72,
			"byteOffset":16728,
			"target":34962
		},
		{
			"buffer":0,
			"byteLength":48,
			"byteOffset":16800,
			"target":34962
		},
		{
			"buffer":0,
			"byteLength":24,
			"byteOffset":16848,
			"target":34963
		},
		{
			"buffer":0,
			"byteLength":72,
			"byteOffset":16872,
			"target":34962
		},
		{
			"buffer":0,
			"byteLength":72,
			"byteOffset":16944,
			"target":34962
		},
		{
			"buffer":0,
			"byteLength":48,
			"byteOffset":17016,
			"target":34962
		},
		{
			"buffer":0,
			"byteLength":192,
			"byteOffset":17064,
			"target":34962
		},
		{
			"buffer":0,
			"byteLength":192,
			"byteOffset":17256,
			"target":34962
		},
		{
			"buffer":0,
			"byteLength":128,
			"byteOffset":17448,
			"target":34962
		},
		{
			"buffer":0,
			"byteLength":108,
			"byteOffset":17576,
			"target":34963
		},
		{
			"buffer":0,
			"byteLength":192,
			"byteOffset":17684,
			"target":34962
		},
		{
			"buffer":0,
			"byteLength":192,
			"byteOffset":17876,
			"target":34962
		},
		{
			"buffer":0,
			"byteLength":128,
			"byteOffset":18068,
			"target":34962
		}
	],
	"buffers":[
		{
			"byteLength":18196,
			"uri":"cashier_counter.bin"
		}
	]
}
