{
	"asset":{
		"generator":"Khronos glTF Blender I/O v4.2.60",
		"version":"2.0"
	},
	"scene":0,
	"scenes":[
		{
			"name":"Scene",
			"nodes":[
				0
			]
		}
	],
	"nodes":[
		{
			"mesh":0,
			"name":"Cube.023",
			"rotation":[
				0,
				1,
				0,
				0
			],
			"scale":[
				0.3271656632423401,
				0.8472550511360168,
				0.5357252955436707
			]
		}
	],
	"materials":[
		{
			"doubleSided":true,
			"name":"Material.097",
			"pbrMetallicRoughness":{
				"baseColorTexture":{
					"index":0
				},
				"metallicFactor":0,
				"roughnessFactor":0.5
			}
		},
		{
			"doubleSided":true,
			"name":"Material.095",
			"pbrMetallicRoughness":{
				"baseColorFactor":[
					0.2653980851173401,
					0.2654016613960266,
					0.2654016613960266,
					1
				],
				"metallicFactor":0,
				"roughnessFactor":0.5
			}
		},
		{
			"doubleSided":true,
			"name":"Material.096",
			"pbrMetallicRoughness":{
				"baseColorFactor":[
					0.2653980851173401,
					0.2654016613960266,
					0.2654016613960266,
					1
				],
				"metallicFactor":0,
				"roughnessFactor":0.5
			}
		}
	],
	"meshes":[
		{
			"name":"Cube.048",
			"primitives":[
				{
					"attributes":{
						"POSITION":0,
						"NORMAL":1,
						"TEXCOORD_0":2
					},
					"indices":3,
					"material":0
				},
				{
					"attributes":{
						"POSITION":4,
						"NORMAL":5,
						"TEXCOORD_0":6
					},
					"indices":7,
					"material":1
				},
				{
					"attributes":{
						"POSITION":8,
						"NORMAL":9,
						"TEXCOORD_0":10
					},
					"indices":11,
					"material":2
				}
			]
		}
	],
	"textures":[
		{
			"sampler":0,
			"source":0
		}
	],
	"images":[
		{
			"mimeType":"image/jpeg",
			"name":"cereal4",
			"uri":"cereal4.jpg"
		}
	],
	"accessors":[
		{
			"bufferView":0,
			"componentType":5126,
			"count":576,
			"max":[
				1.3863754272460938,
				9.554280281066895,
				1
			],
			"min":[
				-1.0000009536743164,
				-1,
				-11.616781234741211
			],
			"type":"VEC3"
		},
		{
			"bufferView":1,
			"componentType":5126,
			"count":576,
			"type":"VEC3"
		},
		{
			"bufferView":2,
			"componentType":5126,
			"count":576,
			"type":"VEC2"
		},
		{
			"bufferView":3,
			"componentType":5123,
			"count":864,
			"type":"SCALAR"
		},
		{
			"bufferView":4,
			"componentType":5126,
			"count":144,
			"max":[
				10.299742698669434,
				10.52090835571289,
				2.512979507446289
			],
			"min":[
				-2.594533920288086,
				-1.6124000549316406,
				-13.211065292358398
			],
			"type":"VEC3"
		},
		{
			"bufferView":5,
			"componentType":5126,
			"count":144,
			"type":"VEC3"
		},
		{
			"bufferView":6,
			"componentType":5126,
			"count":144,
			"type":"VEC2"
		},
		{
			"bufferView":7,
			"componentType":5123,
			"count":216,
			"type":"SCALAR"
		},
		{
			"bufferView":8,
			"componentType":5126,
			"count":48,
			"max":[
				9.662900924682617,
				4.619296073913574,
				2.1050467491149902
			],
			"min":[
				-1.8813018798828125,
				1.0548443794250488,
				-12.973602294921875
			],
			"type":"VEC3"
		},
		{
			"bufferView":9,
			"componentType":5126,
			"count":48,
			"type":"VEC3"
		},
		{
			"bufferView":10,
			"componentType":5126,
			"count":48,
			"type":"VEC2"
		},
		{
			"bufferView":11,
			"componentType":5123,
			"count":72,
			"type":"SCALAR"
		}
	],
	"bufferViews":[
		{
			"buffer":0,
			"byteLength":6912,
			"byteOffset":0,
			"target":34962
		},
		{
			"buffer":0,
			"byteLength":6912,
			"byteOffset":6912,
			"target":34962
		},
		{
			"buffer":0,
			"byteLength":4608,
			"byteOffset":13824,
			"target":34962
		},
		{
			"buffer":0,
			"byteLength":1728,
			"byteOffset":18432,
			"target":34963
		},
		{
			"buffer":0,
			"byteLength":1728,
			"byteOffset":20160,
			"target":34962
		},
		{
			"buffer":0,
			"byteLength":1728,
			"byteOffset":21888,
			"target":34962
		},
		{
			"buffer":0,
			"byteLength":1152,
			"byteOffset":23616,
			"target":34962
		},
		{
			"buffer":0,
			"byteLength":432,
			"byteOffset":24768,
			"target":34963
		},
		{
			"buffer":0,
			"byteLength":576,
			"byteOffset":25200,
			"target":34962
		},
		{
			"buffer":0,
			"byteLength":576,
			"byteOffset":25776,
			"target":34962
		},
		{
			"buffer":0,
			"byteLength":384,
			"byteOffset":26352,
			"target":34962
		},
		{
			"buffer":0,
			"byteLength":144,
			"byteOffset":26736,
			"target":34963
		}
	],
	"samplers":[
		{
			"magFilter":9729,
			"minFilter":9987
		}
	],
	"buffers":[
		{
			"byteLength":26880,
			"uri":"strawberry_cereal_shelf.bin"
		}
	]
}
