{
	"asset":{
		"generator":"Khronos glTF Blender I/O v4.2.60",
		"version":"2.0"
	},
	"scene":0,
	"scenes":[
		{
			"name":"Scene",
			"nodes":[
				0,
				1
			]
		}
	],
	"nodes":[
		{
			"mesh":0,
			"name":"fridge.box",
			"rotation":[
				0,
				0,
				-0.7071068286895752,
				0.7071068286895752
			],
			"scale":[
				5.548601150512695,
				0.21680021286010742,
				2.56288743019104
			],
			"translation":[
				-2.4933414459228516,
				5.33003044128418,
				0
			]
		},
		{
			"mesh":1,
			"name":"fridge.door",
			"rotation":[
				0,
				0,
				-0.7071068286895752,
				0.7071068286895752
			],
			"scale":[
				4.617089748382568,
				0.0522022470831871,
				1.7505884170532227
			],
			"translation":[
				2.4488718509674072,
				5.342718124389648,
				-0.005280494689941406
			]
		}
	],
	"materials":[
		{
			"doubleSided":true,
			"name":"fridge.box",
			"pbrMetallicRoughness":{
				"baseColorFactor":[
					0.5242680311203003,
					0.5242680311203003,
					0.5242680311203003,
					1
				],
				"metallicFactor":0,
				"roughnessFactor":0.5
			}
		},
		{
			"doubleSided":true,
			"name":"fridge.shelves",
			"pbrMetallicRoughness":{
				"baseColorFactor":[
					0.37046360969543457,
					0.37046360969543457,
					0.37046360969543457,
					1
				],
				"metallicFactor":0,
				"roughnessFactor":0.5
			}
		},
		{
			"alphaMode":"BLEND",
			"doubleSided":true,
			"name":"door.glass",
			"pbrMetallicRoughness":{
				"baseColorFactor":[
					0.800000011920929,
					0.800000011920929,
					0.800000011920929,
					0.4000000059604645
				],
				"roughnessFactor":0
			}
		},
		{
			"doubleSided":true,
			"name":"door.frame",
			"pbrMetallicRoughness":{
				"baseColorFactor":[
					0.5602843165397644,
					0.5602843165397644,
					0.5602843165397644,
					1
				],
				"metallicFactor":0,
				"roughnessFactor":0.5
			}
		},
		{
			"doubleSided":true,
			"name":"door.handle",
			"pbrMetallicRoughness":{
				"baseColorFactor":[
					0.800000011920929,
					0.800000011920929,
					0.800000011920929,
					1
				],
				"metallicFactor":0,
				"roughnessFactor":0.5
			}
		}
	],
	"meshes":[
		{
			"name":"Cube.010",
			"primitives":[
				{
					"attributes":{
						"POSITION":0,
						"NORMAL":1,
						"TEXCOORD_0":2
					},
					"indices":3,
					"material":0
				},
				{
					"attributes":{
						"POSITION":4,
						"NORMAL":5,
						"TEXCOORD_0":6
					},
					"indices":7,
					"material":1
				}
			]
		},
		{
			"name":"Cube.019",
			"primitives":[
				{
					"attributes":{
						"POSITION":8,
						"NORMAL":9,
						"TEXCOORD_0":10
					},
					"indices":11,
					"material":2
				},
				{
					"attributes":{
						"POSITION":12,
						"NORMAL":13,
						"TEXCOORD_0":14
					},
					"indices":15,
					"material":3
				},
				{
					"attributes":{
						"POSITION":16,
						"NORMAL":17,
						"TEXCOORD_0":18
					},
					"indices":19,
					"material":4
				}
			]
		}
	],
	"accessors":[
		{
			"bufferView":0,
			"componentType":5126,
			"count":168,
			"max":[
				1,
				23.99062156677246,
				1.0000001192092896
			],
			"min":[
				-1.009594440460205,
				-1,
				-1.005491018295288
			],
			"type":"VEC3"
		},
		{
			"bufferView":1,
			"componentType":5126,
			"count":168,
			"type":"VEC3"
		},
		{
			"bufferView":2,
			"componentType":5126,
			"count":168,
			"type":"VEC2"
		},
		{
			"bufferView":3,
			"componentType":5123,
			"count":252,
			"type":"SCALAR"
		},
		{
			"bufferView":4,
			"componentType":5126,
			"count":96,
			"max":[
				0.6589310765266418,
				19.09337615966797,
				0.9221717119216919
			],
			"min":[
				-0.6928775310516357,
				-0.8812999725341797,
				-0.9221717119216919
			],
			"type":"VEC3"
		},
		{
			"bufferView":5,
			"componentType":5126,
			"count":96,
			"type":"VEC3"
		},
		{
			"bufferView":6,
			"componentType":5126,
			"count":96,
			"type":"VEC2"
		},
		{
			"bufferView":7,
			"componentType":5123,
			"count":144,
			"type":"SCALAR"
		},
		{
			"bufferView":8,
			"componentType":5126,
			"count":24,
			"max":[
				1,
				1,
				1
			],
			"min":[
				-1,
				-1,
				-1
			],
			"type":"VEC3"
		},
		{
			"bufferView":9,
			"componentType":5126,
			"count":24,
			"type":"VEC3"
		},
		{
			"bufferView":10,
			"componentType":5126,
			"count":24,
			"type":"VEC2"
		},
		{
			"bufferView":11,
			"componentType":5123,
			"count":36,
			"type":"SCALAR"
		},
		{
			"bufferView":12,
			"componentType":5126,
			"count":48,
			"max":[
				1.1281424760818481,
				3.9073352813720703,
				1.2358402013778687
			],
			"min":[
				-1.128142237663269,
				-4.398828506469727,
				-1.2358402013778687
			],
			"type":"VEC3"
		},
		{
			"bufferView":13,
			"componentType":5126,
			"count":48,
			"type":"VEC3"
		},
		{
			"bufferView":14,
			"componentType":5126,
			"count":48,
			"type":"VEC2"
		},
		{
			"bufferView":15,
			"componentType":5123,
			"count":96,
			"type":"SCALAR"
		},
		{
			"bufferView":16,
			"componentType":5126,
			"count":48,
			"max":[
				0.0769750326871872,
				7.818175315856934,
				-1.0556833744049072
			],
			"min":[
				-0.32966524362564087,
				0.31887245178222656,
				-1.1492669582366943
			],
			"type":"VEC3"
		},
		{
			"bufferView":17,
			"componentType":5126,
			"count":48,
			"type":"VEC3"
		},
		{
			"bufferView":18,
			"componentType":5126,
			"count":48,
			"type":"VEC2"
		},
		{
			"bufferView":19,
			"componentType":5123,
			"count":84,
			"type":"SCALAR"
		}
	],
	"bufferViews":[
		{
			"buffer":0,
			"byteLength":2016,
			"byteOffset":0,
			"target":34962
		},
		{
			"buffer":0,
			"byteLength":2016,
			"byteOffset":2016,
			"target":34962
		},
		{
			"buffer":0,
			"byteLength":1344,
			"byteOffset":4032,
			"target":34962
		},
		{
			"buffer":0,
			"byteLength":504,
			"byteOffset":5376,
			"target":34963
		},
		{
			"buffer":0,
			"byteLength":1152,
			"byteOffset":5880,
			"target":34962
		},
		{
			"buffer":0,
			"byteLength":1152,
			"byteOffset":7032,
			"target":34962
		},
		{
			"buffer":0,
			"byteLength":768,
			"byteOffset":8184,
			"target":34962
		},
		{
			"buffer":0,
			"byteLength":288,
			"byteOffset":8952,
			"target":34963
		},
		{
			"buffer":0,
			"byteLength":288,
			"byteOffset":9240,
			"target":34962
		},
		{
			"buffer":0,
			"byteLength":288,
			"byteOffset":9528,
			"target":34962
		},
		{
			"buffer":0,
			"byteLength":192,
			"byteOffset":9816,
			"target":34962
		},
		{
			"buffer":0,
			"byteLength":72,
			"byteOffset":10008,
			"target":34963
		},
		{
			"buffer":0,
			"byteLength":576,
			"byteOffset":10080,
			"target":34962
		},
		{
			"buffer":0,
			"byteLength":576,
			"byteOffset":10656,
			"target":34962
		},
		{
			"buffer":0,
			"byteLength":384,
			"byteOffset":11232,
			"target":34962
		},
		{
			"buffer":0,
			"byteLength":192,
			"byteOffset":11616,
			"target":34963
		},
		{
			"buffer":0,
			"byteLength":576,
			"byteOffset":11808,
			"target":34962
		},
		{
			"buffer":0,
			"byteLength":576,
			"byteOffset":12384,
			"target":34962
		},
		{
			"buffer":0,
			"byteLength":384,
			"byteOffset":12960,
			"target":34962
		},
		{
			"buffer":0,
			"byteLength":168,
			"byteOffset":13344,
			"target":34963
		}
	],
	"buffers":[
		{
			"byteLength":13512,
			"uri":"fridgeTRY_shelf.bin"
		}
	]
}
