{
	"asset":{
		"generator":"Khronos glTF Blender I/O v4.2.60",
		"version":"2.0"
	},
	"scene":0,
	"scenes":[
		{
			"name":"Scene",
			"nodes":[
				0
			]
		}
	],
	"nodes":[
		{
			"mesh":0,
			"name":"Cube.019_Cube.015",
			"rotation":[
				0.70710688829422,
				0,
				0,
				0.7071066498756409
			],
			"scale":[
				0.6499999761581421,
				0.6500000357627869,
				0.6500000357627869
			]
		}
	],
	"materials":[
		{
			"doubleSided":true,
			"name":"Material.132",
			"pbrMetallicRoughness":{
				"baseColorTexture":{
					"index":0
				},
				"metallicFactor":0,
				"roughnessFactor":0.5
			}
		},
		{
			"doubleSided":true,
			"name":"Material.129",
			"pbrMetallicRoughness":{
				"baseColorFactor":[
					0.2653980851173401,
					0.2654016613960266,
					0.2654016613960266,
					1
				],
				"metallicFactor":0,
				"roughnessFactor":0.5
			}
		},
		{
			"doubleSided":true,
			"name":"Material.130",
			"pbrMetallicRoughness":{
				"baseColorFactor":[
					0.2653980851173401,
					0.2654016613960266,
					0.2654016613960266,
					1
				],
				"metallicFactor":0,
				"roughnessFactor":0.5
			}
		},
		{
			"doubleSided":true,
			"name":"Material.131",
			"pbrMetallicRoughness":{
				"baseColorFactor":[
					0.2653980851173401,
					0.2654016613960266,
					0.2654016613960266,
					1
				],
				"metallicFactor":0,
				"roughnessFactor":0.5
			}
		}
	],
	"meshes":[
		{
			"name":"Cube.019_Cube.012",
			"primitives":[
				{
					"attributes":{
						"POSITION":0,
						"NORMAL":1,
						"TEXCOORD_0":2
					},
					"indices":3,
					"material":0
				},
				{
					"attributes":{
						"POSITION":4,
						"NORMAL":5,
						"TEXCOORD_0":6
					},
					"indices":7,
					"material":1
				},
				{
					"attributes":{
						"POSITION":8,
						"NORMAL":9,
						"TEXCOORD_0":10
					},
					"indices":11,
					"material":2
				},
				{
					"attributes":{
						"POSITION":12,
						"NORMAL":13,
						"TEXCOORD_0":14
					},
					"indices":11,
					"material":3
				}
			]
		}
	],
	"textures":[
		{
			"sampler":0,
			"source":0
		}
	],
	"images":[
		{
			"mimeType":"image/jpeg",
			"name":"Pepsi",
			"uri":"Pepsi.jpg"
		}
	],
	"accessors":[
		{
			"bufferView":0,
			"componentType":5126,
			"count":18380,
			"max":[
				0.4758409857749939,
				1.4655183553695679,
				1.4147162437438965
			],
			"min":[
				-0.4758400022983551,
				-9.45751667022705,
				-12.31181812286377
			],
			"type":"VEC3"
		},
		{
			"bufferView":1,
			"componentType":5126,
			"count":18380,
			"type":"VEC3"
		},
		{
			"bufferView":2,
			"componentType":5126,
			"count":18380,
			"type":"VEC2"
		},
		{
			"bufferView":3,
			"componentType":5123,
			"count":27456,
			"type":"SCALAR"
		},
		{
			"bufferView":4,
			"componentType":5126,
			"count":144,
			"max":[
				2.058178424835205,
				2.42983341217041,
				2.227384567260742
			],
			"min":[
				-4.148770332336426,
				-10.39626407623291,
				-13.588011741638184
			],
			"type":"VEC3"
		},
		{
			"bufferView":5,
			"componentType":5126,
			"count":144,
			"type":"VEC3"
		},
		{
			"bufferView":6,
			"componentType":5126,
			"count":144,
			"type":"VEC2"
		},
		{
			"bufferView":7,
			"componentType":5123,
			"count":216,
			"type":"SCALAR"
		},
		{
			"bufferView":8,
			"componentType":5126,
			"count":24,
			"max":[
				1.7063109874725342,
				2.2418737411499023,
				-1.2492856979370117
			],
			"min":[
				-3.83215069770813,
				-10.065820693969727,
				-2.0492873191833496
			],
			"type":"VEC3"
		},
		{
			"bufferView":9,
			"componentType":5126,
			"count":24,
			"type":"VEC3"
		},
		{
			"bufferView":10,
			"componentType":5126,
			"count":24,
			"type":"VEC2"
		},
		{
			"bufferView":11,
			"componentType":5123,
			"count":36,
			"type":"SCALAR"
		},
		{
			"bufferView":12,
			"componentType":5126,
			"count":24,
			"max":[
				1.7063109874725342,
				2.241872787475586,
				-5.095439434051514
			],
			"min":[
				-3.832151412963867,
				-10.065821647644043,
				-5.895441055297852
			],
			"type":"VEC3"
		},
		{
			"bufferView":13,
			"componentType":5126,
			"count":24,
			"type":"VEC3"
		},
		{
			"bufferView":14,
			"componentType":5126,
			"count":24,
			"type":"VEC2"
		}
	],
	"bufferViews":[
		{
			"buffer":0,
			"byteLength":220560,
			"byteOffset":0,
			"target":34962
		},
		{
			"buffer":0,
			"byteLength":220560,
			"byteOffset":220560,
			"target":34962
		},
		{
			"buffer":0,
			"byteLength":147040,
			"byteOffset":441120,
			"target":34962
		},
		{
			"buffer":0,
			"byteLength":54912,
			"byteOffset":588160,
			"target":34963
		},
		{
			"buffer":0,
			"byteLength":1728,
			"byteOffset":643072,
			"target":34962
		},
		{
			"buffer":0,
			"byteLength":1728,
			"byteOffset":644800,
			"target":34962
		},
		{
			"buffer":0,
			"byteLength":1152,
			"byteOffset":646528,
			"target":34962
		},
		{
			"buffer":0,
			"byteLength":432,
			"byteOffset":647680,
			"target":34963
		},
		{
			"buffer":0,
			"byteLength":288,
			"byteOffset":648112,
			"target":34962
		},
		{
			"buffer":0,
			"byteLength":288,
			"byteOffset":648400,
			"target":34962
		},
		{
			"buffer":0,
			"byteLength":192,
			"byteOffset":648688,
			"target":34962
		},
		{
			"buffer":0,
			"byteLength":72,
			"byteOffset":648880,
			"target":34963
		},
		{
			"buffer":0,
			"byteLength":288,
			"byteOffset":648952,
			"target":34962
		},
		{
			"buffer":0,
			"byteLength":288,
			"byteOffset":649240,
			"target":34962
		},
		{
			"buffer":0,
			"byteLength":192,
			"byteOffset":649528,
			"target":34962
		}
	],
	"samplers":[
		{
			"magFilter":9729,
			"minFilter":9987
		}
	],
	"buffers":[
		{
			"byteLength":649720,
			"uri":"peps_c_shelf.bin"
		}
	]
}
