{
	"asset":{
		"generator":"Khronos glTF Blender I/O v4.2.60",
		"version":"2.0"
	},
	"scene":0,
	"scenes":[
		{
			"name":"Scene",
			"nodes":[
				0
			]
		}
	],
	"nodes":[
		{
			"mesh":0,
			"name":"Cube.019_Cube.015",
			"rotation":[
				0.70710688829422,
				0,
				0,
				0.7071066498756409
			],
			"scale":[
				0.6499999761581421,
				0.6499999761581421,
				0.6499999761581421
			]
		}
	],
	"materials":[
		{
			"doubleSided":true,
			"name":"Material.132",
			"pbrMetallicRoughness":{
				"baseColorTexture":{
					"index":0
				},
				"metallicFactor":0,
				"roughnessFactor":0.5
			}
		},
		{
			"doubleSided":true,
			"name":"Material.129",
			"pbrMetallicRoughness":{
				"baseColorFactor":[
					0.2653980851173401,
					0.2654016613960266,
					0.2654016613960266,
					1
				],
				"metallicFactor":0,
				"roughnessFactor":0.5
			}
		},
		{
			"doubleSided":true,
			"name":"Material.130",
			"pbrMetallicRoughness":{
				"baseColorFactor":[
					0.2653980851173401,
					0.2654016613960266,
					0.2654016613960266,
					1
				],
				"metallicFactor":0,
				"roughnessFactor":0.5
			}
		},
		{
			"doubleSided":true,
			"name":"Material.131",
			"pbrMetallicRoughness":{
				"baseColorFactor":[
					0.2653980851173401,
					0.2654016613960266,
					0.2654016613960266,
					1
				],
				"metallicFactor":0,
				"roughnessFactor":0.5
			}
		}
	],
	"meshes":[
		{
			"name":"Cube.019_Cube.012",
			"primitives":[
				{
					"attributes":{
						"POSITION":0,
						"NORMAL":1,
						"TEXCOORD_0":2
					},
					"indices":3,
					"material":0
				},
				{
					"attributes":{
						"POSITION":4,
						"NORMAL":5,
						"TEXCOORD_0":6
					},
					"indices":7,
					"material":1
				},
				{
					"attributes":{
						"POSITION":8,
						"NORMAL":9,
						"TEXCOORD_0":10
					},
					"indices":11,
					"material":2
				},
				{
					"attributes":{
						"POSITION":12,
						"NORMAL":13,
						"TEXCOORD_0":14
					},
					"indices":11,
					"material":3
				}
			]
		}
	],
	"textures":[
		{
			"sampler":0,
			"source":0
		}
	],
	"images":[
		{
			"mimeType":"image/jpeg",
			"name":"Pepsi",
			"uri":"Pepsi.jpg"
		}
	],
	"accessors":[
		{
			"bufferView":0,
			"componentType":5126,
			"count":18384,
			"max":[
				1.9336352348327637,
				5.416341304779053,
				6.9899396896362305
			],
			"min":[
				0.9819542169570923,
				-5.5066938400268555,
				-6.7365946769714355
			],
			"type":"VEC3"
		},
		{
			"bufferView":1,
			"componentType":5126,
			"count":18384,
			"type":"VEC3"
		},
		{
			"bufferView":2,
			"componentType":5126,
			"count":18384,
			"type":"VEC2"
		},
		{
			"bufferView":3,
			"componentType":5123,
			"count":27456,
			"type":"SCALAR"
		},
		{
			"bufferView":4,
			"componentType":5126,
			"count":144,
			"max":[
				3.51597261428833,
				6.3806562423706055,
				7.802608013153076
			],
			"min":[
				-2.690976142883301,
				-6.445441246032715,
				-8.012788772583008
			],
			"type":"VEC3"
		},
		{
			"bufferView":5,
			"componentType":5126,
			"count":144,
			"type":"VEC3"
		},
		{
			"bufferView":6,
			"componentType":5126,
			"count":144,
			"type":"VEC2"
		},
		{
			"bufferView":7,
			"componentType":5123,
			"count":216,
			"type":"SCALAR"
		},
		{
			"bufferView":8,
			"componentType":5126,
			"count":24,
			"max":[
				3.164105176925659,
				6.192696571350098,
				4.325937747955322
			],
			"min":[
				-2.374356508255005,
				-6.114997863769531,
				3.5259361267089844
			],
			"type":"VEC3"
		},
		{
			"bufferView":9,
			"componentType":5126,
			"count":24,
			"type":"VEC3"
		},
		{
			"bufferView":10,
			"componentType":5126,
			"count":24,
			"type":"VEC2"
		},
		{
			"bufferView":11,
			"componentType":5123,
			"count":36,
			"type":"SCALAR"
		},
		{
			"bufferView":12,
			"componentType":5126,
			"count":24,
			"max":[
				3.164105176925659,
				6.192695617675781,
				0.4797840118408203
			],
			"min":[
				-2.374357223510742,
				-6.114998817443848,
				-0.3202176094055176
			],
			"type":"VEC3"
		},
		{
			"bufferView":13,
			"componentType":5126,
			"count":24,
			"type":"VEC3"
		},
		{
			"bufferView":14,
			"componentType":5126,
			"count":24,
			"type":"VEC2"
		}
	],
	"bufferViews":[
		{
			"buffer":0,
			"byteLength":220608,
			"byteOffset":0,
			"target":34962
		},
		{
			"buffer":0,
			"byteLength":220608,
			"byteOffset":220608,
			"target":34962
		},
		{
			"buffer":0,
			"byteLength":147072,
			"byteOffset":441216,
			"target":34962
		},
		{
			"buffer":0,
			"byteLength":54912,
			"byteOffset":588288,
			"target":34963
		},
		{
			"buffer":0,
			"byteLength":1728,
			"byteOffset":643200,
			"target":34962
		},
		{
			"buffer":0,
			"byteLength":1728,
			"byteOffset":644928,
			"target":34962
		},
		{
			"buffer":0,
			"byteLength":1152,
			"byteOffset":646656,
			"target":34962
		},
		{
			"buffer":0,
			"byteLength":432,
			"byteOffset":647808,
			"target":34963
		},
		{
			"buffer":0,
			"byteLength":288,
			"byteOffset":648240,
			"target":34962
		},
		{
			"buffer":0,
			"byteLength":288,
			"byteOffset":648528,
			"target":34962
		},
		{
			"buffer":0,
			"byteLength":192,
			"byteOffset":648816,
			"target":34962
		},
		{
			"buffer":0,
			"byteLength":72,
			"byteOffset":649008,
			"target":34963
		},
		{
			"buffer":0,
			"byteLength":288,
			"byteOffset":649080,
			"target":34962
		},
		{
			"buffer":0,
			"byteLength":288,
			"byteOffset":649368,
			"target":34962
		},
		{
			"buffer":0,
			"byteLength":192,
			"byteOffset":649656,
			"target":34962
		}
	],
	"samplers":[
		{
			"magFilter":9729,
			"minFilter":9987
		}
	],
	"buffers":[
		{
			"byteLength":649848,
			"uri":"peps_c_shelf.bin"
		}
	]
}
