{
	"asset":{
		"generator":"Khronos glTF Blender I/O v4.2.60",
		"version":"2.0"
	},
	"scene":0,
	"scenes":[
		{
			"name":"Scene",
			"nodes":[
				0
			]
		}
	],
	"nodes":[
		{
			"mesh":0,
			"name":"Cube.025",
			"scale":[
				2,
				0.25999999046325684,
				4
			]
		}
	],
	"materials":[
		{
			"doubleSided":true,
			"name":"Material.117",
			"pbrMetallicRoughness":{
				"baseColorFactor":[
					0.2653980851173401,
					0.2654016613960266,
					0.2654016613960266,
					1
				],
				"metallicFactor":0,
				"roughnessFactor":0.5
			}
		},
		{
			"doubleSided":true,
			"name":"Material.118",
			"pbrMetallicRoughness":{
				"baseColorFactor":[
					0.2653980851173401,
					0.2654016613960266,
					0.2654016613960266,
					1
				],
				"metallicFactor":0,
				"roughnessFactor":0.5
			}
		},
		{
			"doubleSided":true,
			"name":"Material.119",
			"pbrMetallicRoughness":{
				"baseColorFactor":[
					0.2653980851173401,
					0.2654016613960266,
					0.2654016613960266,
					1
				],
				"metallicFactor":0,
				"roughnessFactor":0.5
			}
		},
		{
			"doubleSided":true,
			"name":"Material.120",
			"pbrMetallicRoughness":{
				"baseColorTexture":{
					"index":0
				},
				"metallicFactor":0,
				"roughnessFactor":0.6900347471237183
			}
		}
	],
	"meshes":[
		{
			"name":"Cube.035",
			"primitives":[
				{
					"attributes":{
						"POSITION":0,
						"NORMAL":1,
						"TEXCOORD_0":2
					},
					"indices":3,
					"material":0
				},
				{
					"attributes":{
						"POSITION":4,
						"NORMAL":5,
						"TEXCOORD_0":6
					},
					"indices":7,
					"material":1
				},
				{
					"attributes":{
						"POSITION":8,
						"NORMAL":9,
						"TEXCOORD_0":10
					},
					"indices":7,
					"material":2
				},
				{
					"attributes":{
						"POSITION":11,
						"NORMAL":12,
						"TEXCOORD_0":13
					},
					"indices":14,
					"material":3
				}
			]
		}
	],
	"textures":[
		{
			"sampler":0,
			"source":0
		}
	],
	"images":[
		{
			"mimeType":"image/jpeg",
			"name":"creamsoda",
			"uri":"creamsoda.jpg"
		}
	],
	"accessors":[
		{
			"bufferView":0,
			"componentType":5126,
			"count":144,
			"max":[
				1.038088321685791,
				20.053144454956055,
				1.0414382219314575
			],
			"min":[
				-0.9791699051856995,
				-19.485342025756836,
				-1.042802095413208
			],
			"type":"VEC3"
		},
		{
			"bufferView":1,
			"componentType":5126,
			"count":144,
			"type":"VEC3"
		},
		{
			"bufferView":2,
			"componentType":5126,
			"count":144,
			"type":"VEC2"
		},
		{
			"bufferView":3,
			"componentType":5123,
			"count":216,
			"type":"SCALAR"
		},
		{
			"bufferView":4,
			"componentType":5126,
			"count":24,
			"max":[
				0.9237313866615295,
				-8.793664932250977,
				1.0108946561813354
			],
			"min":[
				-0.8762685656547546,
				-10.793664932250977,
				-0.9891053438186646
			],
			"type":"VEC3"
		},
		{
			"bufferView":5,
			"componentType":5126,
			"count":24,
			"type":"VEC3"
		},
		{
			"bufferView":6,
			"componentType":5126,
			"count":24,
			"type":"VEC2"
		},
		{
			"bufferView":7,
			"componentType":5123,
			"count":36,
			"type":"SCALAR"
		},
		{
			"bufferView":8,
			"componentType":5126,
			"count":24,
			"max":[
				0.9237313866615295,
				0.8217201232910156,
				1.0108946561813354
			],
			"min":[
				-0.8762688040733337,
				-1.1782798767089844,
				-0.9891053438186646
			],
			"type":"VEC3"
		},
		{
			"bufferView":9,
			"componentType":5126,
			"count":24,
			"type":"VEC3"
		},
		{
			"bufferView":10,
			"componentType":5126,
			"count":24,
			"type":"VEC2"
		},
		{
			"bufferView":11,
			"componentType":5126,
			"count":18252,
			"max":[
				0.9158093333244324,
				16.8422908782959,
				0.822986364364624
			],
			"min":[
				0.6065128445625305,
				-17.514787673950195,
				-0.8318665027618408
			],
			"type":"VEC3"
		},
		{
			"bufferView":12,
			"componentType":5126,
			"count":18252,
			"type":"VEC3"
		},
		{
			"bufferView":13,
			"componentType":5126,
			"count":18252,
			"type":"VEC2"
		},
		{
			"bufferView":14,
			"componentType":5123,
			"count":27456,
			"type":"SCALAR"
		}
	],
	"bufferViews":[
		{
			"buffer":0,
			"byteLength":1728,
			"byteOffset":0,
			"target":34962
		},
		{
			"buffer":0,
			"byteLength":1728,
			"byteOffset":1728,
			"target":34962
		},
		{
			"buffer":0,
			"byteLength":1152,
			"byteOffset":3456,
			"target":34962
		},
		{
			"buffer":0,
			"byteLength":432,
			"byteOffset":4608,
			"target":34963
		},
		{
			"buffer":0,
			"byteLength":288,
			"byteOffset":5040,
			"target":34962
		},
		{
			"buffer":0,
			"byteLength":288,
			"byteOffset":5328,
			"target":34962
		},
		{
			"buffer":0,
			"byteLength":192,
			"byteOffset":5616,
			"target":34962
		},
		{
			"buffer":0,
			"byteLength":72,
			"byteOffset":5808,
			"target":34963
		},
		{
			"buffer":0,
			"byteLength":288,
			"byteOffset":5880,
			"target":34962
		},
		{
			"buffer":0,
			"byteLength":288,
			"byteOffset":6168,
			"target":34962
		},
		{
			"buffer":0,
			"byteLength":192,
			"byteOffset":6456,
			"target":34962
		},
		{
			"buffer":0,
			"byteLength":219024,
			"byteOffset":6648,
			"target":34962
		},
		{
			"buffer":0,
			"byteLength":219024,
			"byteOffset":225672,
			"target":34962
		},
		{
			"buffer":0,
			"byteLength":146016,
			"byteOffset":444696,
			"target":34962
		},
		{
			"buffer":0,
			"byteLength":54912,
			"byteOffset":590712,
			"target":34963
		}
	],
	"samplers":[
		{
			"magFilter":9729,
			"minFilter":9987
		}
	],
	"buffers":[
		{
			"byteLength":645624,
			"uri":"cream_soda_shelf.bin"
		}
	]
}
