{
	"asset":{
		"generator":"Khronos glTF Blender I/O v4.2.60",
		"version":"2.0"
	},
	"scene":0,
	"scenes":[
		{
			"name":"Scene",
			"nodes":[
				0,
				1,
				2,
				3,
				4
			]
		}
	],
	"nodes":[
		{
			"mesh":0,
			"name":"Cube.003",
			"scale":[
				2,
				0.25999999046325684,
				4
			],
			"translation":[
				3.289212465286255,
				9.741945266723633,
				8.724451065063477
			]
		},
		{
			"mesh":1,
			"name":"Cube.019_Cube.017",
			"rotation":[
				0.7071068286895752,
				0,
				0,
				0.7071068286895752
			],
			"scale":[
				0.6499999761581421,
				0.6499999761581421,
				0.6499999761581421
			],
			"translation":[
				4.764069557189941,
				5.950761795043945,
				6.799145221710205
			]
		},
		{
			"mesh":2,
			"name":"Cube.019_Cube.018",
			"rotation":[
				0.7071068286895752,
				0,
				0,
				0.7071068286895752
			],
			"scale":[
				0.6499999761581421,
				0.6499999761581421,
				0.6499999761581421
			],
			"translation":[
				4.764069557189941,
				8.425858497619629,
				6.799145221710205
			]
		},
		{
			"mesh":3,
			"name":"Cube.019_Cube.019",
			"rotation":[
				0.7071068286895752,
				0,
				0,
				0.7071068286895752
			],
			"scale":[
				0.6499999761581421,
				0.6499999761581421,
				0.6499999761581421
			],
			"translation":[
				4.764069557189941,
				3.418717861175537,
				6.799145221710205
			]
		},
		{
			"mesh":4,
			"name":"Cube.019_Cube.020",
			"rotation":[
				0.7071068286895752,
				0,
				0,
				0.7071068286895752
			],
			"scale":[
				0.6499999761581421,
				0.6499999761581421,
				0.6499999761581421
			],
			"translation":[
				4.764069557189941,
				1.1620742082595825,
				6.799145221710205
			]
		}
	],
	"materials":[
		{
			"doubleSided":true,
			"name":"Material.007",
			"pbrMetallicRoughness":{
				"baseColorFactor":[
					0.2653980851173401,
					0.2654016613960266,
					0.2654016613960266,
					1
				],
				"metallicFactor":0,
				"roughnessFactor":0.5
			}
		},
		{
			"doubleSided":true,
			"name":"Material.008",
			"pbrMetallicRoughness":{
				"baseColorFactor":[
					0.2653980851173401,
					0.2654016613960266,
					0.2654016613960266,
					1
				],
				"metallicFactor":0,
				"roughnessFactor":0.5
			}
		},
		{
			"doubleSided":true,
			"name":"Material.009",
			"pbrMetallicRoughness":{
				"baseColorFactor":[
					0.2653980851173401,
					0.2654016613960266,
					0.2654016613960266,
					1
				],
				"metallicFactor":0,
				"roughnessFactor":0.5
			}
		},
		{
			"doubleSided":true,
			"name":"Material.005",
			"pbrMetallicRoughness":{
				"baseColorTexture":{
					"index":0
				},
				"metallicFactor":0,
				"roughnessFactor":0.6900347471237183
			}
		}
	],
	"meshes":[
		{
			"name":"Cube.003",
			"primitives":[
				{
					"attributes":{
						"POSITION":0,
						"NORMAL":1,
						"TEXCOORD_0":2
					},
					"indices":3,
					"material":0
				},
				{
					"attributes":{
						"POSITION":4,
						"NORMAL":5,
						"TEXCOORD_0":6
					},
					"indices":7,
					"material":1
				},
				{
					"attributes":{
						"POSITION":8,
						"NORMAL":9,
						"TEXCOORD_0":10
					},
					"indices":7,
					"material":2
				}
			]
		},
		{
			"name":"Cube.019_Cube.030",
			"primitives":[
				{
					"attributes":{
						"POSITION":11,
						"NORMAL":12,
						"TEXCOORD_0":13
					},
					"indices":14,
					"material":3
				}
			]
		},
		{
			"name":"Cube.019_Cube.031",
			"primitives":[
				{
					"attributes":{
						"POSITION":15,
						"NORMAL":16,
						"TEXCOORD_0":17
					},
					"indices":14,
					"material":3
				}
			]
		},
		{
			"name":"Cube.019_Cube.032",
			"primitives":[
				{
					"attributes":{
						"POSITION":18,
						"NORMAL":19,
						"TEXCOORD_0":20
					},
					"indices":14,
					"material":3
				}
			]
		},
		{
			"name":"Cube.019_Cube.033",
			"primitives":[
				{
					"attributes":{
						"POSITION":21,
						"NORMAL":22,
						"TEXCOORD_0":23
					},
					"indices":14,
					"material":3
				}
			]
		}
	],
	"textures":[
		{
			"sampler":0,
			"source":0
		}
	],
	"images":[
		{
			"mimeType":"image/jpeg",
			"name":"creamsoda",
			"uri":"creamsoda.jpg"
		}
	],
	"accessors":[
		{
			"bufferView":0,
			"componentType":5126,
			"count":144,
			"max":[
				1.0143557786941528,
				1.0316352844238281,
				1.0326642990112305
			],
			"min":[
				-1.0029023885726929,
				-38.50685119628906,
				-1.051576018333435
			],
			"type":"VEC3"
		},
		{
			"bufferView":1,
			"componentType":5126,
			"count":144,
			"type":"VEC3"
		},
		{
			"bufferView":2,
			"componentType":5126,
			"count":144,
			"type":"VEC2"
		},
		{
			"bufferView":3,
			"componentType":5123,
			"count":216,
			"type":"SCALAR"
		},
		{
			"bufferView":4,
			"componentType":5126,
			"count":24,
			"max":[
				0.8999989032745361,
				-27.815174102783203,
				1.0021207332611084
			],
			"min":[
				-0.900001049041748,
				-29.815174102783203,
				-0.9978792667388916
			],
			"type":"VEC3"
		},
		{
			"bufferView":5,
			"componentType":5126,
			"count":24,
			"type":"VEC3"
		},
		{
			"bufferView":6,
			"componentType":5126,
			"count":24,
			"type":"VEC2"
		},
		{
			"bufferView":7,
			"componentType":5123,
			"count":36,
			"type":"SCALAR"
		},
		{
			"bufferView":8,
			"componentType":5126,
			"count":24,
			"max":[
				0.8999989032745361,
				-18.19978904724121,
				1.0021207332611084
			],
			"min":[
				-0.9000012874603271,
				-20.19978904724121,
				-0.9978792667388916
			],
			"type":"VEC3"
		},
		{
			"bufferView":9,
			"componentType":5126,
			"count":24,
			"type":"VEC3"
		},
		{
			"bufferView":10,
			"componentType":5126,
			"count":24,
			"type":"VEC2"
		},
		{
			"bufferView":11,
			"componentType":5126,
			"count":4323,
			"max":[
				0.4758409857749939,
				7.843912601470947,
				1.414716362953186
			],
			"min":[
				-0.4758404791355133,
				-2.339796304702759,
				-1.1530603170394897
			],
			"type":"VEC3"
		},
		{
			"bufferView":12,
			"componentType":5126,
			"count":4323,
			"type":"VEC3"
		},
		{
			"bufferView":13,
			"componentType":5126,
			"count":4323,
			"type":"VEC2"
		},
		{
			"bufferView":14,
			"componentType":5123,
			"count":6864,
			"type":"SCALAR"
		},
		{
			"bufferView":15,
			"componentType":5126,
			"count":4323,
			"max":[
				0.4758409857749939,
				7.843912601470947,
				1.414716362953186
			],
			"min":[
				-0.4758404791355133,
				-2.339796304702759,
				-1.1530603170394897
			],
			"type":"VEC3"
		},
		{
			"bufferView":16,
			"componentType":5126,
			"count":4323,
			"type":"VEC3"
		},
		{
			"bufferView":17,
			"componentType":5126,
			"count":4323,
			"type":"VEC2"
		},
		{
			"bufferView":18,
			"componentType":5126,
			"count":4323,
			"max":[
				0.4758409857749939,
				7.843912601470947,
				1.414716362953186
			],
			"min":[
				-0.4758404791355133,
				-2.339796304702759,
				-1.1530603170394897
			],
			"type":"VEC3"
		},
		{
			"bufferView":19,
			"componentType":5126,
			"count":4323,
			"type":"VEC3"
		},
		{
			"bufferView":20,
			"componentType":5126,
			"count":4323,
			"type":"VEC2"
		},
		{
			"bufferView":21,
			"componentType":5126,
			"count":4323,
			"max":[
				0.4758409857749939,
				7.843912601470947,
				1.414716362953186
			],
			"min":[
				-0.4758404791355133,
				-2.339796304702759,
				-1.1530603170394897
			],
			"type":"VEC3"
		},
		{
			"bufferView":22,
			"componentType":5126,
			"count":4323,
			"type":"VEC3"
		},
		{
			"bufferView":23,
			"componentType":5126,
			"count":4323,
			"type":"VEC2"
		}
	],
	"bufferViews":[
		{
			"buffer":0,
			"byteLength":1728,
			"byteOffset":0,
			"target":34962
		},
		{
			"buffer":0,
			"byteLength":1728,
			"byteOffset":1728,
			"target":34962
		},
		{
			"buffer":0,
			"byteLength":1152,
			"byteOffset":3456,
			"target":34962
		},
		{
			"buffer":0,
			"byteLength":432,
			"byteOffset":4608,
			"target":34963
		},
		{
			"buffer":0,
			"byteLength":288,
			"byteOffset":5040,
			"target":34962
		},
		{
			"buffer":0,
			"byteLength":288,
			"byteOffset":5328,
			"target":34962
		},
		{
			"buffer":0,
			"byteLength":192,
			"byteOffset":5616,
			"target":34962
		},
		{
			"buffer":0,
			"byteLength":72,
			"byteOffset":5808,
			"target":34963
		},
		{
			"buffer":0,
			"byteLength":288,
			"byteOffset":5880,
			"target":34962
		},
		{
			"buffer":0,
			"byteLength":288,
			"byteOffset":6168,
			"target":34962
		},
		{
			"buffer":0,
			"byteLength":192,
			"byteOffset":6456,
			"target":34962
		},
		{
			"buffer":0,
			"byteLength":51876,
			"byteOffset":6648,
			"target":34962
		},
		{
			"buffer":0,
			"byteLength":51876,
			"byteOffset":58524,
			"target":34962
		},
		{
			"buffer":0,
			"byteLength":34584,
			"byteOffset":110400,
			"target":34962
		},
		{
			"buffer":0,
			"byteLength":13728,
			"byteOffset":144984,
			"target":34963
		},
		{
			"buffer":0,
			"byteLength":51876,
			"byteOffset":158712,
			"target":34962
		},
		{
			"buffer":0,
			"byteLength":51876,
			"byteOffset":210588,
			"target":34962
		},
		{
			"buffer":0,
			"byteLength":34584,
			"byteOffset":262464,
			"target":34962
		},
		{
			"buffer":0,
			"byteLength":51876,
			"byteOffset":297048,
			"target":34962
		},
		{
			"buffer":0,
			"byteLength":51876,
			"byteOffset":348924,
			"target":34962
		},
		{
			"buffer":0,
			"byteLength":34584,
			"byteOffset":400800,
			"target":34962
		},
		{
			"buffer":0,
			"byteLength":51876,
			"byteOffset":435384,
			"target":34962
		},
		{
			"buffer":0,
			"byteLength":51876,
			"byteOffset":487260,
			"target":34962
		},
		{
			"buffer":0,
			"byteLength":34584,
			"byteOffset":539136,
			"target":34962
		}
	],
	"samplers":[
		{
			"magFilter":9729,
			"minFilter":9987
		}
	],
	"buffers":[
		{
			"byteLength":573720,
			"uri":"cream_soda_shelf.bin"
		}
	]
}
